<svg xmlns="http://www.w3.org/2000/svg" width="21" height="17" fill="none"><path stroke="#656267" d="M7.584 4H4.295c-1.12 0-1.68 0-2.108.218a1.999 1.999 0 0 0-.874.874c-.218.428-.218.988-.218 2.108v5.6c0 1.12 0 1.68.218 2.107.192.377.498.684.874.875.427.218.987.218 2.105.218h11.606c1.118 0 1.677 0 2.105-.218.376-.191.683-.498.874-.875.218-.427.218-.986.218-2.104V7.197c0-1.118 0-1.678-.218-2.105a2.001 2.001 0 0 0-.874-.874C17.575 4 17.015 4 15.895 4h-3.289M7.584 4h.062m-.062 0h.062m-.062 0c-.106 0-.165 0-.212-.006a1.001 1.001 0 0 1-.868-1.203 2.79 2.79 0 0 1 .08-.257l.001-.006c.052-.154.077-.23.106-.299a2 2 0 0 1 1.7-1.224C8.463 1 8.543 1 8.706 1h2.777c.162 0 .243 0 .317.005a2 2 0 0 1 1.698 1.224c.029.068.055.145.106.3.046.138.07.207.081.262a1 1 0 0 1-.867 1.203 2.125 2.125 0 0 1-.213.006m-4.96 0h4.898m0 0h.062m-.062 0h.062m-2.51 9a3 3 0 1 1 0-6 3 3 0 0 1 0 6Z"/></svg>