<?xml version="1.0" encoding="utf-8"?>
<svg xmlns="http://www.w3.org/2000/svg" xmlns:amcharts="http://amcharts.com/ammap" xmlns:xlink="http://www.w3.org/1999/xlink" version="1.1">
	<defs>
		<style type="text/css">
			.land
			{
				fill: #CCCCCC;
				fill-opacity: 1;
				stroke:white;
				stroke-opacity: 1;
				stroke-width:0.5;
			}
		</style>
		<amcharts:ammap projection="mercator" leftLongitude="34.179896" topLatitude="81.856581" rightLongitude="190.486279" bottomLatitude="-20.531171"></amcharts:ammap>
</defs>
	<g>
		<path id="RU" title="Russia" class="land" d="M709.08,147.41l-0.96,-0.17l0.24,-0.38l0.69,-0.23l1.02,0.3l0.29,0.34l-0.19,0.18l-0.15,0.24l-0.13,-0.03l-0.11,0.12L709.08,147.41zM713.44,144.06l0.14,-0.62l0.32,-0.59l-0.54,0.03l-0.39,0.23l-0.42,0.38l0.11,0.25L713.44,144.06zM719,139.31l0.66,0.19l0.24,-0.33l0.32,-0.84l-0.2,-0.46l-0.15,-0.1l-0.74,0.31l-0.24,-0.2l-0.13,-0.12l-0.28,0.29l-0.49,0.29l-0.2,0.49l0.37,0.46L719,139.31zM746.78,123.88l0.07,-0.5l-0.23,-0.17l-0.73,-0.32l-0.34,0.4l-1.02,-0.26l-0.54,0.52l-0.6,-0.47l-0.16,0.32l-0.03,0.55l1.03,0.25l0.46,0.39l0.74,0.06l0.54,0.4l0.15,-0.65l-0.01,-0.41l0.38,-0.25L746.78,123.88zM704.65,134.05l0.21,0.47l0.12,0.09l0.46,-0.4l0.13,0.59l0.21,0.17l0.2,-1.04l0.36,0.02l0.12,-0.13l-0.04,-0.4l-0.1,-0.36l-0.02,-1.08l-0.4,0.02l-0.31,0.18l-0.01,0.42l0.05,0.56l-0.24,0.03l-0.37,-0.49l-0.59,0.93l0.09,0.31L704.65,134.05zM707.17,147.4l0.38,0.2l0.27,-0.35l-0.06,-0.21l-0.22,-0.38l-0.24,-0.13l-0.4,0.12l-0.15,0.19l0.15,0.33L707.17,147.4zM728.22,52.93l3.5,0.89l0.97,-1.4l-0.25,-0.78l-1.04,-0.28l-2.92,-0.27l-0.47,0.79l0.05,0.4L728.22,52.93zM726.32,112.13l0.6,-0.06l0.43,-0.83l0.04,-0.33l-0.18,-0.39l-0.94,0.12l-0.23,0.38l-0.16,0.57l0.11,0.21L726.32,112.13zM744.23,114.18l0.24,0.38l0.25,0.2l0.66,-0.34l0.33,0.13l0.12,-0.19l0.09,-0.24l0.39,-0.56l0.38,-0.73l0,-0.31l-0.09,-0.65l-1.89,1.36l-1.22,0.52l-0.42,0.47l0.26,0.09L744.23,114.18zM738.4,74.92l0.56,-1.4l-0.9,-0.59l-2.5,-0.89l-1.18,-0.79l-1.18,-0.11l-0.92,0.05l-0.55,0.3l-0.45,0.8l0.16,1.23l0.7,1.11l0.86,0.71l1.32,1.67l0.8,0.14l0.68,-0.15l0.68,-0.3l0.64,-0.52l0.64,-0.73L738.4,74.92zM732.88,67.56l0.71,0.34l0.56,0.43l0.31,0.73l2.25,1.27l1.83,1.5l0.61,-0.01l1.28,-1.07l0.66,-0.82l0.27,0.05l0.84,-0.45l2.51,-0.44l3.7,-1.06l0.35,-0.53l0.33,-0.84l-0.37,-0.32l-0.1,-0.34l-0.38,-2.25l-0.12,-0.4L748,63.09l0.25,-1.34l0.3,-0.66l1.25,-0.44l0.23,-0.36l0.31,0.01l0.04,-1.14l-0.11,-0.61l-0.36,-0.5l-0.81,-0.27l-1.85,-2.06l-0.17,-0.65l-0.37,-0.65l-0.1,-0.82l-0.16,-0.43l-0.8,-1.54l-0.31,-0.16l-0.26,-0.34l-0.23,-0.91l-0.29,-0.37l-1.8,0.18l-0.28,1.53l-0.63,0.89l-0.63,0.45l-0.66,0.13l-0.66,0.32l-0.71,0.56l-0.71,0.36l-0.39,-0.02l-0.39,0.14l-0.82,0.78l-0.36,1.12l-0.49,0.58l-0.15,0.37l-0.28,1.1l-0.05,0.51l0.51,0.21l1.37,-0.4l-0.79,1.54l-0.43,1.46l-0.7,1.46l-0.93,0.58l-0.98,0.37l-0.59,1l-0.46,1.01L732.88,67.56zM697.08,160.42l1.54,0.39l0.2,-0.11l0.1,-0.45l0.01,-1.42l-0.36,-0.62l-0.16,-0.53l-0.54,-0.54l-1.42,1.94l-0.07,0.4l0.16,0.45L697.08,160.42zM697.69,58.31l2.6,-0.64l0.89,-0.35l0.08,-0.26l0.15,-0.8L701,55.87l-1.33,-0.46l-1.65,0.27l-0.3,0.65l-0.37,1.33l0.08,0.24L697.69,58.31zM692.86,162.18l-0.33,0.74l-0.31,0.44l-0.69,0.68l-0.09,0.45l0.1,0.18l0.67,0.15l1.37,-0.09l0.42,-0.16l0.64,-0.78l0.41,-0.23l0.59,-0.61l-0.04,-0.2l-0.21,-0.46l-1.49,-0.73l-0.48,0L692.86,162.18zM662.16,178.17l-0.06,0.13l-0.07,0.25l0.04,0.94l0.11,0.46l0.19,0.39l0.15,0.11l-0.02,-0.34l-0.29,-1.33l0.01,-0.6L662.16,178.17zM639.01,53.26l-0.25,-0.36l-0.15,-0.08l-1.1,1.57l-0.69,-0.27l-0.56,0.53l0.54,1.82l0.97,0.46l0.53,1.69l0.98,0.5l1,-0.05l0.61,-0.2l0.2,-0.92l-0.08,-1.17l-0.25,-0.64l-0.15,-1.02l-0.39,-0.91l-0.32,-0.36L639.01,53.26zM632.09,70.28l0.25,0.29l1.09,0.17l2.21,0.08l0.26,-0.38l-0.02,-0.73l0.13,-0.9l0.01,-2.04l-0.12,-0.57l-0.38,-0.26l-0.67,0.05l-0.15,0.55l-1.77,-0.18l-0.1,0.36l0.06,1.93l-0.2,0.67L632.09,70.28zM630.6,68.28l0.8,-0.78l-0.13,-0.47l-0.23,-0.26l-0.32,-0.13l-0.42,0.5L630,67.79l0.19,0.46L630.6,68.28zM689.42,78.65l0.85,0.52l0.5,0.02l0.04,0.79l0.45,0.06l2.19,-0.19l-0.11,-0.35l-0.53,-0.5l-2.5,-1.34l-0.27,0.44l-0.35,-0.56l-0.28,-0.21l-0.27,0.31l0.06,0.3L689.42,78.65zM689.38,152.65l-0.16,0.31l0.42,0.47l1.19,0.36l0.27,-0.06l-1.42,-1.08L689.38,152.65zM684.6,158.94l0.43,0.25l0.14,0.17l0.06,-0.09l0.1,-0.33l-0.1,-0.21l-0.04,-0.38l0.27,-0.61l0.61,-0.29l-0.66,-0.44l-0.35,-0.13l-0.54,-0.08l-0.59,0.21l-0.16,0.33l-0.12,0.51l0.23,0.44L684.6,158.94zM688.51,153.59l0.21,-0.22l0.42,-0.67l-0.03,-0.11l-0.31,-0.14l-1.01,0.33l-0.55,0.63l-0.09,0.44l0.45,-0.24L688.51,153.59zM672.49,157.51l0.5,0.11l0.23,-0.03l0.82,-0.45l0.6,-0.24l1.32,-0.41l0.76,-0.11l0.01,-0.49l-0.11,-0.57l-0.41,-0.58l-0.26,-0.29l-0.34,-0.74l-0.25,-0.3l-0.33,-0.26l-0.23,-0.1l-1.66,0.36l-0.56,0.32l-0.43,0.84l0.06,1.32l-0.09,0.53l-0.16,0.41l-0.03,0.41l0.34,0.46L672.49,157.51zM894.44,118.42l0.18,-0.86l0.39,-0.43l-1.93,0.44l-0.76,0.85l-0.14,0.35l2.11,-0.14L894.44,118.42zM867.73,153.92l0.28,0.69h0.39l0.29,-0.06l1.03,-0.73l0.76,-0.16l0.26,0.06l1.2,0.56l1.16,0.77l1.49,0.28l0.61,0.28l0.69,0l0.71,0.08l0.99,0.23l0.72,-0.1l0.11,-0.15l-0.08,-2.08l-0.15,-0.61l-0.19,-0.47l-1.98,-2.34l-0.57,-0.49l-0.7,-0.45l-0.71,-0.19l-0.7,0.11l-1.04,0.33l-0.34,-0.05l-0.29,0.11l-0.28,0.35l-0.28,0.54l-0.52,1.48l-0.29,0.64l-0.6,0.81l-0.63,0.25l-0.66,0.09L867.73,153.92zM860.21,135.11l0.59,1.22l0.64,0.76l0.34,0.15l0.32,0.35l0.65,1.49l0.24,0.47l0.26,0.32l2.17,1.03l0.33,0.29l0.33,0.18l0.33,-0.03l0.31,-0.29l0.29,-0.66l0.23,-0.95l0.1,-0.71l0.16,-0.45l0.21,-0.2l0.22,0l0.71,0.74l0.72,0.51l0.55,-0.1l0.55,-0.28l1.82,-0.45l0.62,-0.26l0.61,-0.38l0.67,-0.09l0.32,0.44l0.24,0.55l0.29,0.53l0.26,0.23l0.26,0.09l0.43,-0.18l0.43,-0.33l0.98,-1.11l-0.56,-1l-0.65,-0.44l-0.23,-0.33l-0.99,-2.34l-0.19,-0.52l-0.13,-0.72l-0.18,-2.28l0.62,-0.35l0.68,-0.33l1.1,0.09l0.17,0.61l-0.05,0.3l-0.33,0.69l-0.37,0.31l-0.1,1.07l0.08,1.24l0.25,0.77l0.29,0.55l0.7,1.1l0.63,0.37l0.65,-0.01l1.11,0.43l0.55,-0.16l0.54,-0.47l1.33,-1.83l-0.19,-0.61l-0.25,-0.46l0.21,-0.56l0.62,-0.82l0.94,-0.46l-0.14,-0.38l-0.15,-0.24l-4.4,-3.16l-0.35,0.04l-0.7,0.44l-0.35,0.1l-0.72,-0.15l-0.72,-0.42l-0.59,-0.46l-1.29,-1.62l-0.73,-0.75l-0.72,-0.34l-0.52,0.86l-0.75,0.87l-0.13,0.28l-0.1,0.43l-0.07,0.7l0,0.78l0.04,0.56l0.01,0.56l-0.15,0.55l-0.21,0.24l-0.45,-0.04l-0.15,-0.11l-0.16,-0.22l-0.14,-0.3l-0.3,-1.21l-0.32,-0.3l-0.34,0.14l-0.29,-0.22l-0.86,-1.43l-0.6,-0.7l-0.89,-0.78l-0.29,-0.32l-0.26,-0.61l-0.28,-0.43l-0.3,-0.03l-1.08,0.82l-0.63,0.18l-0.31,0.4l-0.16,0.39l-0.17,0.23l-0.57,0.14l-0.42,0.32l-0.18,0.38l-0.17,0.53l0.26,0.99l0.32,0.73l-0.98,-0.25l-0.25,0.37l-0.15,2.21l0.21,2.3l-0.35,0.02l-0.52,-0.21l-0.1,0.44l0.04,0.61L860.21,135.11zM888.04,137l0.61,0.7l0.32,0.15l1.04,0.27l0.32,0.29l0.65,0.8l0.34,0.34l0.57,0.27l2.11,0.3l1.53,0l0.68,-0.24l1.38,-0.77l0.7,-0.56l0.19,-0.28l0.49,-2.3l-0.18,-0.06l-0.19,0.08l-0.22,0.38l-0.23,0.22l-0.32,-0.38l-0.38,-0.33l-0.5,-0.61l-1.29,-0.28l-1.58,-0.19l-0.54,0.37l-0.85,-0.09l-0.32,-0.4l0.04,-0.41l0.08,-0.3l-0.03,-0.57l-0.21,-0.29l-2.63,-0.3l-0.15,0.03l-1.08,0.82l-0.74,-0.07l-0.13,-0.64l0.01,-0.91l-0.6,-0.8l-0.28,0.27l-0.27,0.87l-0.24,0.97l-0.2,1.09l-0.11,1.07l1.56,0.92L888.04,137zM862.48,171.08l-1.5,0.07l-0.32,0.2l-0.11,0.01l-0.13,0.12l-0.05,0.11l0.04,0.25l0.52,0.41l0.22,-0.04l0.17,-0.15l0.15,-0.05l0.15,0.08l0.28,0.36l0.28,0.09l0.7,-0.75l-0.07,-0.31l-0.21,-0.36L862.48,171.08zM869.76,148.97l0.27,0.03l1.41,-0.82l0.1,-0.52l0.14,-1.2l-0.05,-0.43l-0.12,-0.34l-0.26,-0.23l-0.27,-0.09l-1.24,0.08l-0.3,0.1l-0.3,0.21l-0.26,0.54l0.23,1.84L869.76,148.97zM641.55,49.64l0.61,-0.24l0.17,-0.37l-0.26,-0.77l-0.58,-0.59l-0.55,0.11l-0.69,0.59l-0.07,0.43l0.31,0.44L641.55,49.64zM977.48,177.75l0.19,-0.04l0.82,-0.46l1.39,-0.16l0.66,-0.66l0.33,-0.15l0.75,0.18l0.64,0.41l0.25,0.04l0.73,-0.18l1.76,-0.64l1.31,-0.23l0.68,-0.22l0.84,-0.86l0.07,-0.45l-0.09,-0.38l-0.15,-0.16l-0.65,-0.51l-0.44,-0.44l-0.23,-0.41l-0.22,-0.25l-0.23,-0.14l-0.39,-0.42l-0.24,-0.11l-1.23,-0.32l-0.33,-0.14l-0.33,-0.03l-0.41,0.22l-0.41,0.04l-0.4,-0.14l-0.41,0.04l-0.43,0.24l-0.44,0.12l-0.32,0.13l-0.48,0.5l-0.47,0.16l-0.88,1.08l-0.97,0.82l-0.17,0.46l-0.41,0.63l-0.16,0.5l0.06,0.4L977.48,177.75zM947.17,186.46l0.43,0.51l0.57,0.4l1.59,0.75l0.8,-0.07l0.13,-0.17l0.05,-0.22l0.1,-0.86l0.09,-0.28l0.24,-0.08l0.04,-0.43l-0.04,-0.19l-0.13,-0.22l-2.85,-1.09l-0.45,0.06l-0.38,0.27l-0.55,0.6l-0.14,0.23l-0.07,0.29l0.09,0.14L947.17,186.46zM857.24,133.18l0.2,-0.32l-0.16,-0.53l0.05,-0.4l0.52,-0.94l-0.12,-0.23l-0.63,-0.78l-0.16,-0.4l-0.17,-0.79l-0.25,-0.54l-0.24,0.9l-0.1,0.64l-0.05,0.83l0.09,0.68l-0.19,0.91l-0.14,0.36l-0.06,0.82l0.83,0.08L857.24,133.18zM927.9,191.09l0.03,0.68l0.13,0.23l0.51,0.29l0.27,0.38l-0.01,0.23l-0.09,0.52l0.13,-0.01l0.11,-0.21l0.03,-0.33l-0.06,-0.36l-0.28,-0.71l-0.05,-0.69l-0.01,-0.78l-0.06,-0.61l0.07,-0.35l0.47,-0.18l0.19,-0.51l0.02,-0.73l-0.27,-0.33l-0.04,-0.04l-0.27,0.35l-0.24,0.44l-0.6,0.57l-0.08,0.51l0.23,0.57L927.9,191.09zM904.77,125.05l-0.06,-0.49l-0.08,-0.26l-0.1,-0.11l-0.44,0.24l-0.24,0.37l0.64,0.68L904.77,125.05zM926.57,177.89l0.19,-0.14l-0.21,-0.52l-0.22,-0.34l-0.33,-0.09l-0.02,0.1l-0.01,0.61l0.19,0.27L926.57,177.89zM749.58,69.24l-1.31,0.25l-1.98,0.8l-0.39,-0.09l-0.32,0.22l-0.85,-0.22l-1.01,0.07l-0.3,0.53l-0.15,0.5l-0.16,0.19l-0.83,-1.08l-0.11,0.12l-0.37,0.89l-0.27,0.38l-1.04,1.12l-0.25,1.79l-0.61,1.17l-0.54,0.86l-1.24,1.1l-0.94,2.11l0.57,0.57l0.58,-0.07l0.79,0.17l1.29,0.75l0.27,1.44l0.47,1.34l0.39,0.39l0.03,0.77l0.06,0.2l0.39,0.61l0.64,0.5l0.32,0.05l0.85,-0.74l0.26,0.02l0.48,1.27l0.26,0.16l1.55,-0.21l0.23,0.19l1.06,0.27l0.18,0.31l0.17,0.44l0.88,0.96l0.86,0.6l0.37,-0.01l0.61,0.25l0.42,-0.16l0.64,0.38l0.36,0.1l1.15,-0.44l1.74,-0.23l0.28,-0.27l1.09,-1.58l-0.08,-0.66l-0.24,-1.32l-0.18,-0.18l-0.66,-0.33l-0.56,-1.45l-0.77,-0.99l0.18,-0.19l0.18,-0.01l0.62,0.48l0.42,-0.03l0.4,-0.71l0.12,-0.94l-0.04,-1.2l0.04,-0.44l0.08,-0.36l0.06,-0.81l0.03,-0.94l0.07,-0.39l0.09,-0.25l0.21,-1.09l0.41,-0.61l-0.32,-1.14l-0.36,-0.79l-0.26,-0.35l-0.53,-0.34l-0.18,-0.46l-0.29,-0.26l-0.21,-0.48l-1.2,-0.47l-0.76,-0.11l-0.18,0.14l-0.17,0.56l0.08,0.9l-0.41,1.1l-0.22,0.16l-0.59,-0.43l-0.54,0.77l-0.41,1.13l-0.2,0.33l-0.17,-0.23l0.1,-1.2l0.37,-0.72l0.13,-0.97l0.28,-0.77l0.31,-0.31l-0.32,-1.17l-0.64,-1.04L749.58,69.24zM757.08,92.72l-0.01,0.82l-0.12,0.54l-0.15,0.45L756.7,95l-0.19,1.26l-0.11,0.58l-0.96,1.46l-0.37,0.75l-0.3,1.29l-0.43,0.62l0.29,0.51l0.31,0.33l0.97,0.26l0.67,-0.24l1.29,-0.98l1.4,-1.3l0.46,-0.67l1.37,-0.03l1.37,-0.15l1.23,-0.27l0.16,0.31l0.17,0.16l0.17,0.03l0.58,-0.93l2.01,-0.03l1.62,-1.06l0.62,-0.2l0.62,0.13l0.25,-0.18l1.35,-2.06l0.08,-1.33l-0.09,-1.03l-0.15,-0.96l-0.14,-0.67l-0.17,-0.56l-0.37,-0.35l-0.38,-0.17l-0.7,0.29l-0.51,-0.65l0.07,-0.63l-0.08,-0.59l-0.13,-0.19l-0.88,-0.53l-0.24,-0.73l-0.22,-0.9l-0.35,-0.39l-0.36,-0.01l-0.67,0.36l-0.66,0.81l-0.35,0.22l-0.35,0.01l-0.3,0.61l-0.27,0.95l-0.45,1.14l-0.49,0.52l0.1,-0.6l0.84,-3.37l0.12,-1.05l0.27,-1.16l0.15,-0.26l0.32,-0.17l0.13,-0.25l-0.16,-0.49l-0.71,-0.92l-1.08,-0.63l-0.34,0.05l-0.16,0.26l-0.12,0.6l-0.01,0.92l0.21,0.85l-0.34,0.05l-0.35,-0.17l-0.26,-0.72l-0.25,-0.89l-0.18,-0.03l-0.33,0.16l-0.15,0.17l-0.1,0.57l-0.03,0.88l-0.65,0.33l-0.32,0.42l-0.13,0.71l-0.27,0.5l0.04,0.4l-0.1,1.08l-0.18,0.25l-0.18,0.39l-0.1,0.79l-0.02,0.41l0.12,1.24l0.16,0.35l-0.22,0.07l-0.72,-0.2l-0.29,0.14l-0.28,0.5l-0.37,1.06L757.08,92.72zM773.95,98.67l0.57,-0.53l0.09,-0.23l0.49,-0.05h0.11l0,-0.4l-0.08,-0.31l-0.14,-0.27l-0.51,-0.05l-0.3,0.93l-0.82,0.11l-0.1,0.61l0.36,0.29L773.95,98.67zM756.19,77.21l-0.08,1.09l0.62,-0.2l0.46,-0.88l-0.45,-0.21l-0.21,-0.27l-0.32,0.17L756.19,77.21zM748.8,118.27l0.09,0.74l0.25,0.46l0.29,0.08l0.15,-0.18l-0.58,-1.3L748.8,118.27zM855.83,146.34l0.52,0.6l0.23,0.63l0.95,1.33l0.2,0.45l0.21,-0.29l0.17,-0.72l-0.62,-1.07l-1.15,-1.33l-0.68,-0.35l0.04,0.53L855.83,146.34zM747.59,122.3l-0.12,0.12l-0.01,0.25l-0.26,0.78l0,0.6l0.04,0.13l0.12,0.09l0.16,-0.13l0.34,-0.44l0.22,-0.78l-0.02,-0.15l-0.15,-0.33L747.59,122.3zM825.06,149.72l0.17,-0.02l0.31,-0.38l-0.04,-0.13l-0.25,-0.34l-0.33,-0.09l-0.26,0.15l0,0.18l0.09,0.36L825.06,149.72zM812.5,157.62l0.71,-0.43l-0.07,-0.17l-0.44,-0.48l-0.32,-0.11l-0.57,0.12l-0.34,0.3l0.43,0.76L812.5,157.62zM774.35,99.58l1.64,0.6l0.96,-0.04l0.39,0.55l0.35,-0.34l0.25,-0.66l-0.34,-0.75l-0.18,-0.05l-2.6,0.3L774.35,99.58zM777.66,110.28l-0.3,-0.22l-0.34,0.01l-0.27,0.74l0.09,0.6l0.32,-0.02l0.74,-0.33l-0.04,-0.4l-0.1,-0.25L777.66,110.28zM790.46,119.97l0.4,0.14l0.27,0.65l0.38,0.4l0.12,-0.03l0.03,-0.37l0.08,-0.2l0.13,-0.12l-0.08,-0.52l-0.43,-0.82l-0.24,-0.28l-0.32,0.31l-0.76,-0.18l-0.12,0.08l0.09,0.28L790.46,119.97zM905.23,310.36l-0.18,0.29l0.06,0.06l0.14,0.03l0.13,-0.24l-0.06,-0.19L905.23,310.36zM908.25,305.69l-0.1,0.31l-0.28,0.25l0.02,0.07l0.12,0.07l0.11,-0.22l0.35,-0.28l0.07,-0.15l-0.08,-0.05L908.25,305.69zM913.52,297.66l-0.33,0.32l-0.31,0.89l-0.26,0.36l-0.69,0.14l-0.3,0.33l-0.3,-0.02l-0.07,0.15l0.13,0.23v0.52l0.13,0.15l0.3,0.09l0.15,-0.16l0.19,-0.3l0.26,-0.14l0.52,-0.11l0.36,-0.44l0.35,-0.66l0.16,-0.47l0.06,-0.49l-0.07,-0.44L913.52,297.66zM909.62,303.66l-0.01,0.37l0.29,0.11l0.27,-0.19l0.05,-0.15l-0.08,-0.52l0.23,-0.42l0.05,-0.28l-0.21,-0.07L909.62,303.66zM914.57,297.19l-0.46,0.34l-0.13,0.23l0.08,0.13l0.36,0.28l0.11,0.02l0.11,-0.1l0.22,-0.41l0.01,-0.41l-0.09,-0.07L914.57,297.19zM912.26,297.42l0.26,-0.05l0.02,-0.1l-0.04,-0.29l-0.2,-0.11l-0.28,0.09l0.04,0.2l0.08,0.14L912.26,297.42zM887.76,326.17l-0.57,0.18l-0.02,0.06l-0.01,0.22l0.21,0.09l0.09,-0.11l0.52,-0.23l-0.04,-0.1L887.76,326.17zM937.57,256.15l-0.16,-0.03l-0.88,0.71l-1.24,0.44l0.02,0.23l0.05,0.23l-0.16,0.71l-0.42,0.85l-0.42,0.33l0.01,0.18l0.04,0.12l0.07,0.08l0.46,-0.5l0.91,-0.76l0.89,-0.51l0.95,-0.26l0.13,-0.46l-0.09,-0.77L937.57,256.15zM902.75,313.2l-0.35,0.39l-0.49,0.6l-0.42,0.07l0.02,0.1l0.09,0.17l0.17,0l0.52,-0.45l0.81,-1.01l-0.15,0L902.75,313.2zM893.38,319.9l0,-0.12l-0.04,-0.1l-0.11,-0.07l-0.19,0.02l-0.26,0.14l-0.81,0.81l-0.54,0.1l-0.21,-0.02l-0.26,-0.46l-0.11,-0.02l-0.14,0.33l0.04,0.3l-0.33,0.14l-0.31,0.39l-0.28,0.12l-0.36,0.46l-0.52,0.35l-0.26,0.35l-0.04,0.41l-0.47,0.38l-0.11,0.21l-0.1,0.43l0.56,-0.5l0.31,-0.09l0.29,-0.49l0.71,-0.62l0.13,-0.2l0.04,-0.23l0.1,-0.13l0.35,0.07l0.36,-0.13l0.26,-0.32l0.72,-0.58l0.43,-0.12l0.52,-0.28l0.54,-0.03l0.13,-0.15l-0.1,-0.2L893.38,319.9zM897.54,316.91l-0.97,0.72l-0.47,0.59l-0.37,0.15l-0.61,0.99l0.26,0.01l0.42,-0.2l0.55,-0.56l0.2,-0.16l0.29,-0.11l0.39,-0.34l0.11,-0.32l0.89,-0.79l-0.57,-0.02L897.54,316.91zM898.54,256.48l-0.21,0.34l-0.34,0.23l0,0.11l0.11,0.15l0.22,-0.06l0.39,-0.42l-0.04,-0.15L898.54,256.48zM664.47,189.14l0.23,-0.7l-0.04,-0.34l-0.32,-0.03l-0.53,0.74l0.06,0.13l0.14,0.16L664.47,189.14zM886.03,323.69l-0.27,-0.01l-0.48,0.89l-0.14,0.09l-0.11,0.22l-0.22,0.25l-0.07,0.22l-0.23,0.28l-0.57,0.5l-0.1,0.23l0.04,0.28l0.33,0.28l0.09,-0.7l0.51,-0.37l0.34,-0.42l0.07,-0.22l0.56,-0.55l0.17,-0.09l0.35,-0.05l0.39,-0.37l0.22,0l0.14,-0.26l-0.59,0.06L886.03,323.69zM790.26,142.49l-0.22,0.23l-0.05,0.32l-0.02,0.42l-0.09,0.71l-0.2,0.26l-0.68,-0.11l-0.19,0.06l-0.19,0.16l0.39,0.83l0.75,0.56l0.54,0.58l0.25,0.17l1.65,0.52l0.08,-0.08l0.47,-0.96l0.6,-0.44l0.19,-0.35l0.11,-0.46l0.15,-0.37l0.1,-0.49l-0.28,-0.42l-0.94,-0.4L790.26,142.49zM672.37,209.79l-0.45,-0.11l-0.33,-0.18l-0.52,-0.02l-0.32,-0.09l-0.09,0.25l0.51,1.07l0.54,0.53l0.49,-0.09l0.11,-0.11l0.14,-0.36l-0.15,-0.21l0,-0.2L672.37,209.79zM610.19,319.47l0.13,0.37l0.04,-0.07l0.01,-0.26l-0.11,-0.37l-0.08,0.12L610.19,319.47zM635.88,63.8l-0.18,0.44l0.2,0.39l0.29,0.83l0.07,0.47l0.01,0.67l0.19,2.23l0.14,0.59l0.17,0.31l1.14,0.57l0.44,-0.31l0.58,-1.2l0.26,-0.09l0.08,-0.77l0,-0.82l0.32,-0.35l2.41,-0.41l-0.39,-0.76l-0.4,-0.46l-1.38,-0.83l-2.69,-0.18L635.88,63.8zM942.92,278.2l-0.21,-0.27l-0.44,-0.78l-0.05,-0.38l0.13,-0.34l-0.18,-0.06l-0.79,-0.14l-0.28,0.22l-0.22,0.06l0.68,0.51l0.21,0.27l0.04,0.29l0.1,0.23l0.31,0.46l0.27,0.35l0.16,0.13l0.23,0.05l0.16,0.29l0.35,0.36l0.01,-0.7l-0.2,-0.33L942.92,278.2zM863.08,277.69l-0.25,-0.19l-0.08,-0.09l-0.93,-0.43l-0.09,0.17l-0.3,0.72l-0.14,0.07l-0.31,0.53l-0.12,0.49l0.12,-0.01l0.52,-0.39l0.18,0.23l0.38,0.84l0.17,-0.05l0.19,-0.16l0.22,-0.26l0.25,-0.19l0.09,-0.15l0.07,-0.39l0.22,-0.44l0.31,-0.21l-0.1,-0.13L863.08,277.69zM860.18,277.5l-0.56,0.41l-0.23,0.26l0.14,0.05l0.39,-0.07l0.19,0.18l0.24,-0.01l0.35,-0.85l-0.06,-0.04l-0.22,0.08L860.18,277.5zM1009.56,213.66l-0.31,-0.14l-1,-0.04l0.15,-0.22l-0.06,-0.24l-0.1,-0.25l-0.15,-0.15l-0.17,-0.03l-0.34,0.14l-0.34,0.2l0.17,-0.29l0.2,-0.2l-0.1,-0.16l-0.13,-0.09l-1.04,-1.21l-0.62,-0.44l-0.59,-0.59l-0.59,-1.01l-0.63,-0.81l-0.66,-0.3l-0.68,0.06l-0.49,-0.19l-0.49,-0.25l-1.08,-0.27l0.02,0.22l1.18,0.4l0.18,0.18l-0.08,0.16l-0.26,0.04l-0.9,-0.12l-0.27,-0.1l-0.25,-0.31l-0.13,0.04l-0.1,0.18l0.03,0.41l0.11,0.33l-0.23,0.17l-0.25,-0.08l0.01,-0.41l0.05,-0.33l0.28,-0.58l0.16,-0.12l0.03,-0.12l-0.94,-0.26l-0.26,-0.2l-0.26,-0.09l-0.57,0.28l-1.58,0.02l-0.29,0.09l-0.01,0.2l0.1,0.1l0.25,0.08l0.25,-0.01l0.16,0.27l0.36,0.14l0.19,0.28l0.13,0.48l0.06,0.34l0.04,0.35l-0.15,0.63l-0.22,0.26l-0.26,0.15l0.1,0.36l0.26,0.28l0.51,0.13l0.22,0.24l0.19,0.38l-0.16,0.48l-0.19,0.39l-0.16,0.17l-0.11,0.29l-0.09,0.11l-0.11,0l0.13,-1.07l-0.19,-0.63l-0.34,0.15l-0.14,0.17l-0.31,0.56l-0.08,0.03l-0.07,-0.19l-0.1,-0.41l-0.07,-0.44l-0.07,-0.32l-0.31,-0.33l-0.17,-0.13l-0.53,-0.07l-0.17,-0.07l0.15,-0.72l0.28,-0.42l-0.04,-0.94l-0.13,-0.32l-0.16,-0.28l-0.15,-0.67l0.02,-0.8l0.17,-0.47l0.06,-0.58l-0.19,-0.43l-0.24,-0.22l-0.18,0.18l-0.16,0.27l-0.09,0.08l-0.62,0.06l0.4,-0.65l-0.02,-0.54l-0.07,-0.33l-0.12,-0.26l-0.1,-0.56l-4.38,-3.29l-0.74,-0.42l-0.35,-0.36l-0.31,-0.17l-0.32,0.06l-0.19,0.1l-0.14,-0.13l0.13,-0.3l0.18,-0.1l-0.44,-0.52l-1.59,-1.36l-0.35,-0.19l0.25,0.36l1.19,1.07l0.18,0.31l-0.35,0.39l-0.38,0.16l0.1,-0.44l-0.08,-0.5l-0.14,-0.28l-0.41,-0.32l-0.64,-0.27l-0.61,-0.34l-0.12,-0.36l-0.04,-0.52l0.39,0.44l0.21,0.13l-0.42,-0.69l-0.52,-0.61l-1.14,-0.55l-0.21,-0.22l-0.32,-0.46l-0.12,-0.04l-0.23,0.08l-0.57,-0.26l-0.57,-0.34l-0.37,-0.23l-1.67,-1.94l-0.9,-0.29l-0.07,-0.24l-0.05,-0.29l-0.17,-0.2l-1.14,-0.52l-1.43,-0.34l-1.51,-0.93l-1.32,-0.28l-1.44,-0.99l-0.85,-0.75l-0.52,-0.29l-0.48,-0.07l-1.28,0.36l-1.43,0.04l-1.31,-0.21l-1.04,0.06l-0.6,-0.14l-0.83,-0.46l-0.24,0.19l-0.21,0.82l-0.62,-0.33l-0.52,-0.45l-0.87,-0.4l-1.65,-0.26L956.3,184l-1.06,-0.16l-1.07,-0.1l0.11,1.39l-0.06,0.66l-0.4,0.86l-0.44,0.55l-0.11,0.46l1.18,0.35l0.37,1.56l0.48,0.99l0.32,1.02l0,0.7l-1.28,1.72l-1.33,0.21l-1.28,0.1l-0.55,-1.04l-0.29,-1.25l-1.02,-0.66l-1.01,-0.51l-0.46,-0.09l-0.34,-0.25l-0.21,-1.4l-0.22,-1.04l-0.29,-0.39l-0.27,-0.59l-0.26,-0.23l-0.64,-0.1l-1.56,1.5l-0.53,0.44l-0.18,0l-2.36,-0.37l-0.62,-0.31l-3.5,-0.2l-0.99,-0.89l-0.6,-0.13l-0.67,0.27l-0.58,0.07l-0.83,-0.17l-0.72,0.26l-1.6,0.27l-0.59,0.3l-0.62,0.53l-1.15,1.32l-0.16,0.63v0.78l0.24,1.08v1.24l-0.2,0.43l-0.37,0.21l-0.38,1.31l-0.35,0.7l-0.7,0.19l0.4,-0.53l0.37,-0.36l0.59,-1.95l-0.09,-0.6l-0.47,-0.44l-0.3,-0.47l-0.15,-1.87l-0.15,-0.99l-0.05,-1.19l-0.48,-0.39l-1.74,-0.6l-0.8,-0.45l-0.29,-0.69l0.31,-0.98l-0.02,-0.75l0.16,-0.64l0.26,-0.52l0.07,-0.73l-0.13,-0.95l-0.13,-0.69l-0.3,-0.83l-0.22,-0.38l-1.06,-1.2l-1.82,-1.23l-1.87,-0.9l-1.66,-0.3l-2.14,-0.17l-2.21,-0.02l-0.84,0.49l-1.59,0.04l-1.73,0.51l-1.74,0.81l-0.94,0.01l-1.86,0.37l-0.81,0.01l-2.1,-1.27l0.67,-0.17l0.26,-0.18l-0.93,-1.69l-0.5,-0.6l-1.23,-0.76l-0.5,-0.06l-0.41,0.15l-1.62,0.84l-0.41,0.35l0.81,-0.98l0.39,-0.41l0.4,-0.61l-0.09,-0.39l-0.1,-0.19l-1.51,0.08l-0.1,-0.09l-0.32,-0.53l-0.16,-0.18l-1.01,-0.56l-0.73,-0.21l-0.76,-0.02l-0.13,-0.22l0.09,-0.26l0.03,-0.17l0.23,-0.3l0.65,-0.27l1.69,-0.16l0.38,-0.47l-0.05,-0.5l-0.1,-0.38l-0.55,-0.9l-0.74,-0.67l-1.51,-0.81l-1.58,-0.55l-2.72,-0.27l-0.48,0.12l-0.38,0.33l-0.65,0.87l-1.48,2.51l-0.83,1.02l-0.75,0.55l-1.73,0.45l-0.32,-0.1l-0.24,-0.41l0.08,-0.36l0.16,-0.33l0.01,-0.21l-0.09,-0.42l0.05,-0.23l0.17,-0.01l0.41,0.29l0.38,0.04l0.98,-0.46v-0.72l-0.26,-0.42l0.13,-1.01l0,-0.26l0.14,-0.18l0.11,0.04l0.71,0.73l0.24,-0.04l0.26,0.08l-0.63,1.75l0.3,0l0.81,-0.82l0.55,-0.8l0.58,-1.04l0.07,-0.54l-0.67,-0.06l-4.36,0.39l-1.6,0.78l-0.49,-0.16l-0.35,-0.61l0.54,-0.06l0.64,-0.37l0.53,-0.71l0.34,-0.13l0.88,0.03l0.71,0.28l2.15,0.11l0.05,-0.86l-0.48,-0.27l-1.04,-0.24l-0.64,-0.42l-0.8,-0.26l-1.77,-0.37l-0.74,-0.31l-1.75,-0.28l-0.46,-0.24l-4.08,-0.21l-1.52,-0.64l-0.59,-0.66l-1.41,-0.32l-0.28,0.01l-0.09,0.18l-0.07,0.27l0.9,1.19l0.03,0.82l0.27,0.4l-1.05,0.64l-0.71,0.24l-2.38,-0.03l-0.36,0.28l-0.93,1.27l0.01,0.6l0.09,0.93h0.71l0.21,-0.41l0.31,-0.17l1.45,0.15l0.15,0.17l-0.49,0.27l-0.47,0.12l-0.58,1.37l-0.79,0.43l0.54,0.22l0.48,0.38l-0.08,1.66l0.68,1.27l0.13,0.59l-0.99,0.02l-0.88,0.39l-0.31,0l-0.57,-0.98l-0.63,-0.65l-0.31,-0.05l-0.41,0.64l-0.58,-0.36l-0.24,0.06l-0.33,0.27l-0.2,0.36l-0.15,0.55l-0.19,0.3l-0.03,0.4l0.29,0.18l0.21,0.04l0.61,0.29l-0.63,0.16l-0.16,0.19l-0.06,0.22l-0.47,0.3l0.16,0.29l0.2,0.22l0.05,0.22l-0.15,0.08l-0.4,-0.26l-0.41,-0.38l-0.65,-0.79l-0.29,-0.53l-0.56,-0.49l-1.99,-1.37l-0.89,-0.43l-0.58,-0.1l-0.91,0.18l-0.56,0.59l-0.95,0.25l-0.59,0.48l-0.31,0.65l-1.68,0.07l-1.16,-0.49l-0.74,-0.5l-0.83,-1.03l-0.82,-1.32l-0.1,-0.11l-0.1,-0.28l-0.15,-0.65l-0.17,-0.49l-0.26,0.28l-0.66,1.52l-0.28,0.74l-0.36,1.41l-0.27,1.18l-0.04,0.5l0.13,0.43l-0.36,0.36l-0.39,0.88l-0.58,1.73l-0.36,0.62l-0.46,0.53l-0.31,0.2l-0.38,-0.03l-0.35,-0.49l-0.19,-1.13l-0.21,-0.23l-0.25,0.63l-0.37,-0.04l-0.72,-0.47l-0.72,-1.02l-0.74,-0.47l-1.04,-2.49l-0.46,-0.92l-0.25,-0.75l-0.59,-0.08l-0.22,-0.55l0.3,-0.39l0.8,-0.33l0.64,0.05l-0.47,-1l-0.23,-0.6l-0.25,-0.33l0.09,0.67l-0.11,0.49l-0.21,0.38l-0.36,0.24l-1.55,-3.01L835,165.1l-0.52,-0.54l-0.32,-0.97l0.22,-0.19l1.1,1.15l0.78,0.59l1.29,1.52l0.98,-0.11l0.36,-0.68l0,-1.37l-0.37,-1.13l-0.46,-0.45l-1.59,-0.09l-0.37,-0.37l0.25,-0.11l0.35,-0.03l0.51,-0.33l0.85,-0.86l0.37,-0.27l-0.06,-0.67l-0.59,-0.92l-0.96,-0.13l-0.21,-0.09l0.38,-0.46l0.33,-0.28l0.56,-0.7l0.13,-0.65l-0.12,0.05l-0.41,-0.03l-0.12,-0.28l0.05,-0.49l-0.44,-0.42l-0.4,-0.28l-0.92,-0.05l0.02,-0.32l0.05,-0.29l-0.39,-0.21l-0.33,-0.38l-0.08,-0.34l-0.12,-0.2l-0.6,-0.35l-1.99,-0.65l-0.21,0.19l-0.33,0.93l-0.8,0.97l-0.61,-0.53l-0.12,-0.05l-0.1,-0.25l0.14,-0.43l0.1,-0.42l-0.14,-0.3l-0.12,-0.11l-0.41,0.3l-0.62,0.19l-0.26,0.29l-0.55,0.21l0.05,-0.72l-2.3,-1.9l-0.72,-0.4l-0.43,-0.04l-1.04,0.43l-0.24,0.23l-0.38,0.62l-0.86,-0.39l-0.21,0.29l-0.31,1.03l0.05,1.01l0.09,0.28l0.08,0.54l0.33,0.84l0.34,0.66l-0.14,0.15l-0.14,0.04l-0.17,0.28l-0.16,0.56l-0.29,0.81l-0.39,0.45l-0.45,-0.09l-1.08,-0.61l-0.25,0.11l-0.07,0.44l0.64,0.38l0.06,0.24l-0.17,0.15l-0.43,0.12l-0.78,-0.03l-0.65,-0.16l-0.4,-0.61l-0.39,-0.08l-1.1,-0.01l-1,0.33l-1.12,-0.42l-1.9,0.09l-0.48,-0.07l-0.91,-0.81l-1.3,-0.51l-1.49,-1.25l-0.15,-1.18l0.23,-0.96l0.83,0l0.51,-0.16l-0.07,-0.37l-0.11,-0.19l-1.18,-0.51l-3.2,-0.09l-2.28,-0.77l-3.25,-0.26l-1.46,0.95l-2.12,0.22l-0.57,0.51l-0.97,0.28l0.08,0.7l0.48,0.54l0.24,0.11l0.25,0.21l-0.16,0.19l-0.18,0.08l-0.35,0.43l-0.23,0.4l0.06,0.88l-0.11,0.85l-0.35,1.17l-0.3,0.51l-0.27,0.69l0.23,0.63l0.26,0.26l0.67,0.32l0.23,0.22l-0.13,0.19l-0.99,-0.21l-0.35,-0.69l-0.08,-0.37l-0.08,-0.58l0.34,-0.63l0.34,-0.43l0.3,-1.02l0.04,-0.94l0.01,-1.96l-0.6,-0.44l-0.34,-0.67l0.58,-1.22l0.15,-0.64l-0.25,-0.6l-0.41,-1.3l-0.42,-0.77l-0.27,-0.32l-0.28,-0.17l0.29,1.28l-0.23,0.65l-0.17,0.25l-1.11,0.35l-0.71,0.02l-0.96,-0.36l-1.13,-0.83l-0.28,-0.58l-0.2,-0.85l0.65,-0.37l0.25,-0.24l-0.59,-0.19l-0.59,-0.06l-0.21,1.15l-0.38,-0.09l-1.85,-0.71l-0.5,0.23l-0.6,0.65l-0.27,0.5l-0.3,0.82l0.12,0.57l0.13,0.21l0.95,0.14l0.83,-0.18l0.94,-0.54l0.22,0.2l0.19,0.29l-0.27,0.42l-0.97,0.6l-1.61,1.55l-0.61,0.18l-0.86,-0.33l-0.46,0.86l-0.21,0.21l-1.44,0.58l-0.63,0.09l-0.18,0.43l-0.38,0.08l-0.42,0.22l-0.7,0.61l-1.07,0.1l-0.73,-0.14l-1.77,0.37l-0.46,0.32l-0.3,0.44l-0.14,0.56l-0.26,0.5l-1.01,1.08l-0.86,0.44l-0.73,0.12l0.7,-0.61l0.8,-1.13l1.44,-3.37l1.38,-0.22l0.32,-0.45l1.05,-2.1l0.29,-0.31l1.39,-0.04l1.22,-0.69l2.46,-3.41l1.22,-0.58l0.84,-0.82l0.15,-0.41l0.13,-0.54l-0.13,-0.33l-0.07,-0.3l1.08,-0.59l0.42,-0.91l1.46,-0.86l1.14,-1.17l1.6,-0.87l0.91,-1.21l2.06,-1.75l1.93,-3.04l0.32,-1.75l-0.47,-0.58l-0.57,-0.36l-0.32,-0.87l-0.23,-0.1l-0.58,0.55l-0.63,-1.88l-0.78,-1.06l0.04,-0.16l0.09,-0.07l0.37,0.17l1.4,1.56l0.74,0.24l0.22,0.24l0.13,0.39l-0.09,0.65l0.23,-0.05l0.15,-0.27l0.36,-1.27l0.34,-1.73l-0.04,-0.75l-0.82,0.34l-0.38,-2.56l-0.17,-0.78l-0.26,-0.86l-0.52,-0.08l-0.28,0.22l0.22,0.29l0.24,0.48l-0.16,0.49l-0.13,0.22l-0.64,0.65l-0.46,0.06l0.18,-0.27l0.21,-0.61l-0.16,-0.67l-0.16,-0.38l-0.18,-1.95l-0.58,-0.3l-0.33,-0.31l-0.43,0.13l-0.56,0.52l0.21,-0.48l0.22,-0.72l-0.44,-0.88l-0.43,-0.61l-0.52,-0.23l-0.58,-0.78l-0.78,-0.44l-1.81,-0.43l-1.38,0.57l-1.72,-0.46l-2.05,0.36l-0.8,0.01l-0.48,-0.22l-0.43,0.24l-0.22,0.7l-0.13,1.1l-0.51,0.57l-0.28,0.15l-1.31,-0.17l-0.93,0.53l-0.4,-0.42l-0.76,0.03l-0.08,-0.93l0.45,0.04l0.26,0.16l0.85,-1.91l0.7,-1.12l0.67,-1.29l-0.42,-0.8l-0.95,-0.54l-0.44,0.03l-0.22,0.23l-1.03,-0.43l-0.54,0.03l-0.91,0.6l-0.31,-0.05l-0.19,-1.24l-0.91,0.1l-3.14,-0.12l0.34,-0.39l1.65,-0.53l1.33,-0.8l0.98,-1.46l0.91,-0.49l-0.21,-0.74l-0.25,-0.53l-0.52,-0.47l-1.13,-0.31l-0.96,-0.59l-0.42,-0.75l-1.77,-1.03l-0.48,0l-1.27,1.29l-0.64,-0.12l-0.56,0.19l-1.46,1.54l-3.07,3.98l-0.63,1.22l-0.3,0.91l-0.55,0.48l-0.24,1.12l0.04,0.97l0.25,0.51l0.26,0.95l-0.26,1.08l-0.22,0.71l0.21,0.32l0.59,-0.06l1.32,0.6l-0.24,0.56l-0.8,-0.48l-0.7,0.02l-0.61,-0.58l-1.46,0.55l-1.08,-0.13l-1.01,0.22l-1.98,-0.46L753,120.8l0.46,0.6l0.35,0.56l1.03,1.3l0.44,0.41l0.59,1.23l0.07,2.39l-0.32,0.57l-0.36,0.8l-0.19,0.15l-0.28,-0.05l0.45,-0.56l0.24,-1.2l0.23,-0.84l-0.3,-0.57l-0.13,-0.05l-0.15,-0.31l-1.05,-0.8l-0.57,-0.35l-0.6,-0.19l-0.31,-0.22l-0.9,0.73l-0.41,0.17l-0.49,0.38l-0.29,0.53l-0.7,0.12l-0.09,0.57l-0.39,0.57l-0.42,-0.62l-0.41,0.17l-0.92,1.01l-1.07,0.46l0.11,-0.35l0.18,-0.79l-0.26,-0.18l-1.61,0.92l-0.54,0.62l-0.25,-0.23l0.93,-1.36l0.25,-0.84l-0.44,-0.36l-0.96,-0.28l-0.62,-0.03l-0.9,0.3l-1.3,-0.45l-0.19,0.51l-0.33,0.06l-0.8,-0.24l-0.73,0.26l-0.55,0.55l-0.81,-0.54l-0.28,0.02l-0.43,0.85l-0.37,-0.57l-0.32,1.11l0.09,0.8l0.27,0.08l0.23,-0.12l0.13,-0.37l0.17,-0.17l0.64,0.67l0.19,-0.36l0.28,-0.27l0.32,0.4l1.32,-0.43l-0.23,0.53l-1.47,0.68l-2.66,0.86l-0.55,0.34l-1.58,0.3l-1.03,0.84l-1.33,0l-2.3,0.66l-1.66,1.49l-0.8,-0.13l-1.62,1.12l-0.64,0.87l-2.34,1.77l-1.4,-0.68l-0.46,0.24l-0.24,0.62l0.05,0.49l0.57,-0.04l0.41,0.21l0.5,0.43l-0.13,0.78l-1.06,1.74l-0.5,0.65l-0.59,0.38l-1.26,-1.43l-0.23,0.63l-0.17,0.31l-0.5,-0.13l-0.25,1.01l0.91,0.18l0.87,0.46l0.77,0.66l0.54,0.76l0.59,0.48l0.35,0.41l-0.93,0.4l-0.66,-0.93l-0.35,-0.31l-0.4,-0.06l-0.6,0.28l-0.51,1.11l0.5,0.38l1.1,0.37l0.35,0.5l1.44,3.23l0.36,0.33l0.47,0.14l0.19,0.22l-0.57,0.55l-0.21,0.51l-0.49,0.89l-2.09,0.46l-0.62,0.34l-0.18,0.15l-0.26,0.33l-0.17,0.29l-0.08,0.65l0.17,0.43l0.42,0.39l1.67,1.76l-0.11,0.18l-0.46,-0.33l-0.58,-0.54l-0.59,-0.75l-0.79,-0.53l-0.04,-0.44l-0.03,-0.65l0.02,-0.2l0.08,-0.33l0.75,-0.85l0.76,-0.41l0.93,-0.97l0.93,-1.08l-0.19,-0.37l-0.19,-0.27l-0.85,-0.07l-1.72,0.38l-1.03,0.36l-0.46,0.87l-0.7,0.13l-0.35,0.02l-0.95,-0.43l-0.9,0.41l-2.11,0.36l-0.34,0.2l-4.85,0.08l-0.98,0.18l-2.49,0.71l-0.06,0.53l0.09,0.4l-0.39,0.59l-0.17,0.56l0.06,0.66l0.02,0.57l0.09,0.74l0.15,0.67l0.36,0.36l0.33,0.23l0.24,0.73l-0.19,0.84l-0.28,0.96l-0.05,0.45l0.18,0.6l0.22,1.2l0.08,0.3l0.76,0.92l0.52,0.29l0.85,0.07l0.58,0.23l0.84,0.56l0.25,0.26l0.07,0.24l0.2,0.97l0.11,0.3l0.92,1.33l0.31,0.2l1.25,0.25l0.39,0.42l0.54,1.29l0.05,0.3l0.05,0.49l-0.06,0.45l-0.05,0.26l-0.21,0.41l-0.54,1.68l-0.32,1.5l0.51,0.99l0.69,1.91l0.2,0.8l0.24,1.06l-0.1,0.67l-0.11,0.4l-0.46,0.61l-0.57,0.2l-0.62,0.37l0.06,0.46l0.11,0.53l-0.06,0.39l-0.08,0.14l-0.34,0.04l-0.29,-0.13l-0.25,-0.41l-0.24,-0.53l0.17,-0.57l0.5,-1.01l0.31,-1.45l0.08,-0.97l-0.02,-1.03l-0.12,-0.69l-0.4,-0.51l-0.37,0.11l-0.41,0.45l-0.4,1.7l-0.54,1.24l-0.08,0.51l0.01,0.44l-0.04,0.29l-0.11,-0.97l-0.05,-0.73l0.3,-0.92l0.18,-0.86l-0.06,-0.62l-0.22,-1.02l0.04,-0.5l0.06,-0.32l0.13,-1.45l0.48,-0.29l1.19,-1.11l0.17,-0.28l0.36,-0.98l0.17,-0.35l0.19,-0.59l-0.36,-0.47l-0.34,-0.25l-0.64,-0.14l-0.59,0.05l-1.31,0.46l-1.17,-0.08l-0.42,-0.27l-1.84,-2.02l-0.12,-0.76l-0.15,-0.32l-0.18,-0.08l-0.63,-0.5l-1.46,-0.64l-1.49,-1.46l-2.64,-0.13l-0.72,0.16l-0.72,0.45l-0.66,0.92l-0.3,0.25l-0.43,0.09l-0.09,0.33l-0.08,0.45l0.23,0.33l0.81,-0.39l0.66,0.2l0.35,0.43l0.26,0.84l-0.13,0.41l-1.15,0.64l-0.64,-0.05l-1.37,-1.46l-0.53,-0.26l-1.26,0.25l-0.83,0.72l-0.26,0.15l0.2,0.73l0.31,1.31l0.27,0.78l0.34,0.38l1.23,0.94l0.68,0.33l1.03,0.86l0.63,0.1l0.57,-0.21l0.85,0.5l0.49,1.56l0.29,0.53l0.27,0.27l0.38,0.15l0.22,0.02l0.24,-0.2l0.55,-0.04l-0.19,0.45l-0.21,0.14l-1.17,0.19l-0.58,-0.16l-0.71,-0.48l-1.34,-1.57l-1.67,-0.11l-0.19,0.46l-0.52,-0.64l-1.77,-0.14l-1.06,-0.41l-1.13,-0.66l-0.1,-0.32l-0.05,-0.45l0.38,-0.57l0.14,-0.35l0.1,-1.07l-0.72,-1.42l0.07,-1.31l0.34,-0.22l0.44,-1.71l0.26,-0.56l0.14,-0.19l0.13,-0.39l-0.14,-0.5l-0.13,-0.3l-0.15,-0.7l0.03,-0.51l0,-0.64l-0.36,-0.98l-0.3,-1.06l-0.61,-0.53l-0.59,-0.01l-0.22,0.15l-0.22,0.25l0.31,0.96l0.31,0.85l0.15,0.66l0.1,1.19l-0.02,1.46l-0.1,0.59l-0.17,0.5l-0.53,0.62l-0.88,0.73l-0.5,0.35l-1.04,0.39l-0.75,0.63l-1.64,3.56l0.18,0.53l0.6,0.57l0.4,0.49l0.19,0.41l0.43,1.28l1.63,3.55l0.09,0.63l-0.38,1.12l-0.76,1.44l-0.3,0.81l-0.71,3.05l-0.05,0.78l0.29,0.73l0.48,0.91l0.16,0.69l-0.32,1.74l0.17,0.43l0.4,0.23l1.08,-0.24l1.27,0.42l0.67,-0.2l1.03,-0.96l0.4,-0.1l1.23,0.13l1.81,0.93l1.92,1.24l0.39,0.42l0.52,0.02l0.38,2.11l0.34,1.14l0.15,0.8l0.1,0.89l-0.36,0.19l-0.31,0.09l-0.26,0.24l-0.36,1.37l-0.04,0.73l0.19,1.17l1.61,0.54l1.12,0.29l0.79,0.06l0.14,0.13l0.1,0.18l-0.93,0.08l-1.69,0.14l-0.6,-0.08l-0.27,-0.14l-0.27,-0.4l-0.52,-0.4l-0.2,-0.27l-0.42,-0.32l0.21,-1.21l0.04,-2.82l-0.06,-1.17l-0.36,-0.97l-1.06,-1.39l-0.36,-0.94l-0.41,-0.63l-0.4,-0.1l-0.58,0.12l-1.45,0.58l-1.3,0.31l-1.53,0.86l-0.28,0.71l-0.25,1.83l0.34,0.89l0.34,0.64l0.31,1.09l0.1,0.66l0.03,0.66l-0.05,0.97l-0.26,0.53l-1.69,2.06l-0.25,0.63l-0.29,1.76l-0.26,0.64l-0.78,0.96l-0.48,0.39l-2.59,1.74l-0.09,0.38l-0.18,1.22l-0.71,0.55l-0.42,0.05l-0.99,-0.61l-0.58,-0.18l-0.6,-0.05l-2.26,0.17l-1,-0.41l-0.79,-0.58l-0.81,-0.18l-0.61,-0.48l-0.14,-0.44l-0.15,-0.59l-0.11,-0.3l-0.11,-0.16l0.18,-0.2l0.39,-0.09l1.47,0.1l0.38,-0.22l0.2,0.11l0.41,0.54l0.53,0.49l0.45,-0.08l0.38,-0.4l0.14,0l0.17,0.06l-0.34,0.32l-0.35,0.23l-0.09,0.15l-0.07,0.32l0.5,0.38l0.46,0.21l0.6,-0.2l0.35,-0.4l0.78,-0.58l0.55,0.03l0.03,-0.55l-0.29,-0.84l-0.23,-0.59l0.85,0.16l0.5,-0.49l2.1,-4.21l1,-0.81l0.33,-0.52l0.24,-0.73l0.06,-0.81l-0.12,-0.88l0.03,-0.68l0.36,-0.86l0.56,-1.04l0.35,-0.39l-0.05,-0.39l-0.07,-0.32l-1,-1.02l-1.06,-0.84l-0.38,-0.46l-0.28,-0.73l-0.14,-0.88v-0.58l0.08,-1.78l0.16,-0.84l-0.04,-2.49l-0.2,-3.11l-0.17,-0.85l0.26,-0.59l0.26,-0.48l0.13,-0.45l0.09,-3.09l-0.08,-1.2l-0.35,-1.62l-1.41,-1.36l-0.59,-1.32l0.05,-0.48l0.08,-0.32l0.61,-0.54l0.42,-0.77l0.27,-1.13l0.56,-1.73l0.14,-0.61l0.36,-2.42l0.1,-1.3l0.07,-1.95l-0.5,-0.5l-0.53,-0.43l-0.97,-0.37l-0.48,0.09l-0.88,-0.78l-0.33,-0.11l-2.37,0.22l-1.36,-0.1l-0.8,0.18l-0.42,-0.02l-0.26,-0.12l0.04,-0.33l0.14,-0.23l-0.04,-0.2l-0.23,-0.04l-0.62,0.25l-0.99,2.71l-0.59,2.6l-0.62,3.48l-0.39,1.45l-0.56,1.52l-0.87,1.2l-1.17,1.2l-0.75,0.56l-1,0.57l-0.42,1.24l-0.36,0.51l0.15,0.34l0.43,-0.19l-0.25,0.87l-0.26,0.53l0.03,0.31l0.08,0.4l0.34,0.18l0.9,-0.34l0.19,0.33l0.21,0.51l-0.11,2.02l-0.25,1.71l-0.03,0.62l0.14,0.4l0.12,0.52l-0.27,0.64l-0.21,0.21l-0.4,-0.07l-0.26,1.41l-0.08,0.83l0,0.65l0.1,0.4l0.16,0.45l0.11,-0.34l0.08,-0.47l0.28,-0.31l1.57,0.88l0.42,0.44l0.65,0.4l0.19,0.47l0.12,1.47l0.67,1.33l0.53,0.79l0.33,0.31l0.29,0.08l0.45,-0.3l0.61,0.04l-0.33,1.03l-0.55,1.93l-0.91,1.67l-0.37,0.26l-0.6,-0.68l-0.8,-0.56l0,0.04l1.11,8.83l-2.03,4.04l-3.77,3.87l-3.93,3.13l-4.83,5.44l-5.23,4.07l-1.89,19.99l-1.34,8.85l-1.78,5.01l-1.78,3.54l-2.17,2.73l-0.56,2.43l2.11,1.76l0.31,2.16l-1.66,2.68l-2.57,0.64l-3.09,0.37l1.3,2.45l1.2,1.83l1.82,2.33l1.9,-1.51l1.84,-1.12l1.89,1.07l0.71,1.75l-1.33,1.39l-1.13,2.2l0.09,2.66l1.88,0.67l0.8,1.88l0.52,0.19l0.15,-0.07l0.54,-0.46l0.21,-0.09l0.48,-0.02l0.44,-0.38l0.31,-0.22l0.16,-0.26l-0.04,-0.27l-0.44,-0.8l-0.13,-0.49l0.08,-0.32l0.25,-0.35l0.14,-0.19l0.17,-0.34l0.11,-0.18l0.45,-0.08l0.54,-0.03l0.37,0.08l0.52,0.04l0.47,0.06l0.24,0.06l0.18,-0.1l0.13,-0.18l0,-0.24l-0.19,-0.23l-0.7,-0.31l-0.3,-0.25l-0.23,0.03l-0.39,-0.08l-0.35,-0.17l-0.31,-0.06l-0.1,-0.23l0.06,-0.33l0.12,-0.19l0.23,-0.09l0.25,0.05l0.27,-0.14l0.08,-0.08l0.02,-0.1l-0.04,-0.15l-0.13,-0.12l-0.18,-0.03l-0.21,0.1l-0.25,0.07l-0.42,-0.15l-0.33,-0.18l0.02,-0.17l0.25,-0.25l0.11,-0.2v-0.28v-0.33l0.09,-0.39l0.25,-0.27l0.29,-0.14l0.74,0.26l0.93,0.23l0.16,-0.04l0.05,-0.12l0.11,-0.11l1.29,-0.05l0.25,-0.15l0.13,-0.12l1.24,-0.17l0.15,-0.16l0.18,-0.15l0.29,0l0.34,-0.06l0.47,-0.19l0.33,-0.1l0.06,-0.01l0.35,0.04l0.44,-0.15l0.09,-0.06l0.07,-0.11l0.38,-0.21l0.74,-0.18l0.18,0.11l0.35,0.05l0.45,-0.08l0.33,-0.13l0.19,0.13l0.26,0.14l0.2,-0.12l0.1,-0.37l0.13,-0.36l0.22,-0.17l0.17,-0.06l0.16,-0.14l0.12,-0.15l0.65,0.02l0.58,-0.36l0.11,0.16l0.75,-0.04l0.93,-0.23l0.56,-0.11l0.96,-0.24l0.45,-0.2l0.64,-0.12l0.59,-0.09l0.38,-0.35l0.31,-0.05l0.38,-0.03l0.23,-0.08l0.15,-0.13l0.1,-0.24l-0.05,-0.31l-0.05,-0.22l0.27,-0.13l0.38,-0.04l0.24,-0.05l0.53,-0.51l0.36,-0.25l0.38,-0.15l0.76,0.08l0.69,0.08l0.69,0.24l0.36,0.3l0.31,0.23l0.3,0.11l0.27,0.07l0.31,-0.1l0.22,-0.14l0.13,-0.2l0.19,-0.14l0.71,-0.11l0.15,0.22l0.34,0.65l0.23,0.87l0.38,1.14l0.17,0.56l-0.07,0.29l0,0.4l-0.02,0.44l-0.28,0.5l0.11,0.23l0.68,0.26l0.96,-0.09l0.59,-0.21l0.33,0.08l0.17,-0.12l0.11,-0.37l0.23,-0.08l0.23,0.26l0.17,0.43l0.16,0.28l-0.01,0.33l0.06,0.42l0.12,0.11l0.23,-0.16l0.16,-0.1l0.04,-0.13l-0.07,-0.16l-0.03,-0.16l0.05,-0.15l0.11,-0.06l0.33,0.05l0.49,0.08l0.58,0.6l0.31,0.11l0.13,0.01l0.29,-0.03l0.35,-0.17l0.24,-0.22l0.08,-0.11l0.14,0.02l0.13,0.1l0.01,0.22l-0.1,0.32l-0.35,0.29l-0.43,0.27l-0.26,0.49l-0.06,0.51l0.12,0.26l0.1,0.17l0.03,0.24l0.1,0.03l0.18,-0.1l0.49,-0.51l0.25,-0.13l0.36,-0.08l0.59,0.04l0.4,0.16l0.19,0.23l0.21,0.19l0.14,-0.08l0.07,-0.22l0,-0.25l0.06,-0.21l0.64,-0.51l0.43,-0.34l0.15,-0.04l0.29,0.07l0.18,-0.04l0.47,-0.32l0.44,-0.36l0.04,-0.25l0.02,-0.22l0.11,-0.1l0.62,-0.08l0.1,-0.04l0.53,-0.25l0.73,-0.43l0.35,-0.26l0.64,-0.11l0.12,-0.07l0.21,-0.17l0.4,-0.24l0.22,-0.03l-0.14,0.58l-0.24,0.67l-0.14,0.18l-0.65,-0.03l0,0.18l0.1,0.28l0.07,0.16l0.08,0.14l0.18,0.24l0.69,0.57l0.88,0.72l0.95,0.81l0.66,0.56l0.27,0.29l0.17,0.23l0.49,0.81l0.46,0.77l0.78,1.35l0.69,1.29l0.76,1.41l0.44,0.81l0.9,1.69l0.24,0.52l0.46,0.98l0.4,0.91l0.36,0.8l0.22,0.07l0.02,-0.22l0.04,-0.15l0.11,-0.08l0.26,-0.24l0.14,-0.06l0.21,0.02l0.22,-0.12l0.08,-0.23l-0.05,-0.42l-0.03,-0.19l0.08,-0.21l0.12,-0.08l0.17,-0.07l0.15,-0.03l0.13,-0.24l0.24,-0.07l0.22,0.04l0.18,0.01l0.16,0.17l0.09,0.24l0.17,0.02l0.28,-0.02l0.04,0.2l-0.08,0.33l-0.1,0.26l-0.02,0.21l0.15,0.1l0.55,-0.09l0.19,0.04l0.06,0.21l0.08,0.17l0.04,0.21l-0.06,0.23l0.1,0.14l0.47,0l0.33,-0.11l0.51,-0.01l0.46,0.25l0.32,-0.04l0.32,-0.1l0.47,0.06l0.33,-0.19l0.23,-0.24l0.07,-0.19l0.12,-0.11l0.44,0l0.28,-0.02l0.21,-0.28l0.19,-0.13l0.32,-0.02h0.23l0.63,0.26l0.38,0.22l0.4,0.31l0.24,0.19l0.16,0.43l0.27,0.32l0.22,0.37l0.05,0.37l0.18,0.65l0.18,0.21h0.22l0.28,0.09l0.3,0.07l0.65,0.49l0.24,0.01l0.18,0.12l0.03,0.22l-0.07,0.26l0.07,0.25l0.21,0.32l0.17,0.31l0.21,0.37l0.06,0.21l0.17,0.07l0.22,-0.11l0.36,0.08l1.07,0.21l0.15,0.03l0.11,0.22l0.16,-0.02l0.18,-0.01l0.25,0.03l0.17,-0.2l0.14,-0.18l0.35,-0.22l0.29,-0.3l0.25,-0.27l0.18,-0.04l0.15,0.12l0.01,0.23l-0.18,0.17l-0.14,0.2l0.03,0.2l0.25,0.02l0.27,0.3l0.4,0.71l0.13,0.15l0.2,0.14l0.22,0.06l0.24,0.1l0.18,0.29l0.07,0.26l0.26,0.04l0.17,-0.06l0.11,-0.13l0.17,-0.04l0.26,-0.06l0.26,-0.08l0.15,0.02l0.01,0l0.33,-0.01l0.15,-0.1l0.11,-0.14l0.25,-0.16l0.05,-0.18l0,-0.36l0.16,-0.3l0.41,-0.09l0.16,-0.04l0.17,0.04l0.26,-0.04l0.25,-0.02l0.14,0.09l0.18,0.08l0.24,-0.01l0.08,-0.14l0.01,-0.2l0.1,-0.05l0.13,0.14l0.07,0.1l0.11,0.05l0.28,-0.12l0.2,-0.13l0.06,-0.27l0.12,-0.14l0.15,0.07l0.27,0l0.22,-0.21l0.29,-0.17l0.21,-0.08l0.04,-0.14l-0.1,-0.32l0.03,-0.35l0.28,-0.2l0.38,-0.02l0.28,-0.13l0.08,-0.37l0.14,-0.11l0.14,-0.04l0.34,-0.06l0.24,-0.15l0.15,-0.07l0.43,-0.2l0.39,-0.04l0.17,-0.16l0.13,-0.2l0.22,-0.08l0.22,-0.18l0.29,-0.23l0.12,-0.03l0.48,-0.13l0.19,-0.05l0.11,-0.03l0.21,0.01l0.09,-0.24l0.21,-0.18l0.21,-0.06l0.1,-0.17l0.2,-0.22l0.27,-0.12l0.43,-0.02l0.41,0.02l0.25,-0.04l0.2,-0.33l0.04,-0.16l0.05,-0.17l0.17,-0.06l0.2,0.27l0.17,0.17l0.26,0.18l0.13,0.16l0.15,0.02l0.16,-0.12l0.11,-0.3l0.22,-0.05l0.24,0.05l0.06,0.15l0.02,0.14l0.11,0.26l0.26,0.22l0.33,-0.01l0.13,-0.04l0.33,0.03l0.32,0.05l0.35,0.05l0.1,0.01l0.38,0.03l0.55,0.04l0.24,-0.02l0.49,0.07l0.1,0.2l0.09,0.47l0.08,0.45l0.02,0.36l0.13,0.18l0.16,0.06l0.11,0.14l0.19,0.2l0.14,0.28l0.17,-0.02l0.12,-0.07l0.26,-0.02l0.33,0.02l0.23,0.15l0.09,0.2l0.19,0.11l0.15,-0.04l0.46,0l0.16,0.01l0.16,0.11l0.23,0.02l0.13,-0.14l0.39,-0.1l0.23,-0.2l0.18,0l0.13,0.1l0.1,0.13l0.15,-0.06l0.08,-0.11h0.13l0.13,0.07l0.33,0.12l0.24,0.23l0.19,0.02l0.24,-0.07l0.11,-0.03l0.11,0.11l0.15,0.06l0.12,-0.08l0.2,-0.06l0.77,0.13l0.18,0.23l0.14,0.11l0.11,0.19l0.2,0.13l0.42,-0.05l0.16,-0.14l0.34,-0.3l0.14,-0.3l0.17,-0.1l0.2,-0.05l0.18,0l0.19,-0.01l0.23,-0.22l0.19,-0.08l0.28,-0.28l0.05,-0.13l0.14,-0.32l0.08,-0.21l0.14,-0.33l0.08,-0.53l0.04,-0.28l-0.04,-0.2l-0.17,-0.11l-0.21,-0.05l-0.19,-0.16l-0.14,-0.18l-0.08,-0.25l-0.11,-0.3l0.01,-0.21l-0.03,-0.17l-0.09,-0.14l-0.18,-0.25l-0.09,-0.19l0.03,-0.3l0.21,-0.51l0.02,-0.24l0.03,-0.15l-0.01,-0.13l0.07,-0.3l0.12,-0.13l0.14,-0.33l0.18,-0.15l0.23,-0.01l0.1,-0.09l0.05,-0.33l0.11,-0.25l0.07,-0.18l0.14,-0.2l0.81,-0.38l0.33,-0.47l0.12,-0.24l0.13,-0.51l0.13,-0.21l0.18,0.07l0.21,0.3l0.16,0l0.24,0.16l0.65,0.34l0.35,0.11l0.23,0.03l0.3,0.09l0.19,0.2l0.38,0.33l0.32,0.08l0.55,0.03l0.67,0.02l0.19,0.06l0.49,0.23l0.54,0.26l0.51,0.23l0.39,0.18l0.23,0.17l0.21,0.1l0.23,-0.08l0.3,0.02l0.7,0.21l0.44,0.17l0.37,0.13l0.12,0.18l0.01,0.24l-0.05,0.2l0.03,0.48l0.12,0.25l0.04,0.34l0.04,0.32l-0.03,0.32l0.06,0.17l0.12,0.1l0.11,0.22l-0.04,0.23l-0.05,0.14l0.01,0.22l0.13,0.18l0.2,0.04l0.17,0.05l0.22,0.28l0.38,0.33l0.23,0.09l0.26,0.15l0.5,0.14l0.34,0.04l0.2,0.12l0.2,0.28l0.33,0.06l0.21,0.1l0.38,0.12l0.25,-0.07l0.22,-0.1l0.15,0.02l0.29,0.06l0.34,0.01l0.28,-0.07l0.23,-0.2l0.26,-0.27l0.32,-0.14l0.37,-0.05l0.25,-0.11l0.82,-0.18l0.33,-0.03l0.26,-0.17l0.23,-0.14l0.33,-0.06l0.44,0.14l0.42,0.12l0.51,0.04l0.34,0.16l0.24,0.16l0.38,0.12l0.42,-0.06l0.58,-0.05l0.38,0.07l0.4,0.28l0.25,0.23l0.28,0.48l0.29,0.23l0.25,0.19l0.32,0.01l0.8,0.02l0.44,0.1l0.36,0.05l0.09,0.1l-0.04,0.33l0.01,0.47l0,0.22l0.08,0.16l0.12,0.03l0.07,0.23l0.18,0.14l0.32,0.16l0.54,0.55l0.32,0.24l0.26,0.08l0.33,-0.06l0.52,0l0.89,0l0.61,0.17l0.21,0.11l0.62,0.13l0.68,0.14l0.58,0.15l0.34,-0.19l0.3,-0.02l0.29,0.14l0.29,0.21l0.22,-0.02l0.33,-0.1l1.06,-0.59l0.37,-0.22l0.26,0.06l0.23,-0.08l0.18,-0.07l0.45,-0.09l0.27,-0.02l0.28,-0.05l0.41,-0.04l0.83,-0.39l0.34,-0.08l0.57,0.11l0.31,-0.07l0.3,-0.2l0.39,-0.2l0.1,-0.33l0.2,-0.45l0.44,-0.33l0.35,-0.29l0.36,-0.28l0.44,-0.24l0.42,-0.17l0.53,-0.45l0.42,-0.23l0.21,-0.08l0.25,0.08l0.47,0.06l0.34,-0.02l0.19,0.05l0.38,0.22l0.35,0.19l0.27,0.35l0.5,0.48l0.25,0.16l0.18,0.07l0.45,0.05l0.36,0.02l0.22,-0.11l0.37,-0.2l0.58,-0.26l0.23,0.01l0.38,0.14l0.56,0.25l0.23,0.19l0.15,0.23l0.58,0.37l0.37,0.19l0.63,0.29l0.65,0.07l0.62,0.32l0.32,0.1h0.17l0.88,-0.77l0.74,-0.66l0.85,-0.51l0.63,-0.07l0.47,-0.15l0.31,-0.23l0.19,-0.39l0.06,-0.54l-0.13,-0.33l-0.31,-0.11l-0.08,-0.11l0.15,-0.12l0.11,-0.23l0.07,-0.34l0.18,-0.32l0.29,-0.3l0.16,-0.34l0.03,-0.37l0.17,-0.37l0.31,-0.37l0.17,-0.35l0.03,-0.32l0.16,-0.39l0.43,-0.69l0.28,-0.8l0.48,-0.55l0.77,-0.57l0.48,-0.56l0.19,-0.56l-0.01,-0.5l-0.22,-0.43l-0.04,-0.44l0.14,-0.45l-0.12,-0.34l-0.38,-0.22l-0.45,-0.06l-0.53,0.11l-0.29,-0.14l-0.07,-0.39l0.14,-0.32l0.35,-0.24l0.57,-0.59l0.79,-0.95l0.79,-0.53l1.18,-0.15l0.95,-0.31l0.97,-0.32l0.7,-0.16l0.12,0.11l0.38,0.03l0.64,-0.05l0.6,-0.14l0.55,-0.22l0.44,-0.05l0.32,0.12l0.18,0.01l0.13,0.01l0.07,0l0.13,-0.09l0.37,0.17l0.71,0.5l0.45,0.22l0.18,-0.05l0.2,0.14l0.22,0.33l0.27,0.19l0.49,0.09l0.48,0.36l0.2,0.02l0.07,-0.2l0.18,-0.12l0.29,-0.03l0.42,0.18l0.55,0.38l0.35,0.17l0.14,-0.05l0.15,0.07l0.12,0.18l0.01,0.22l-0.04,0.12l0.13,0.19h0.15l0.25,0.09l0.2,0.33l0.18,0.15l0.12,0.13l0.02,0.11l0.01,0.11l-0.04,0.09l-0.07,0.14l-0.02,0.15l0.08,0.17l0.31,0.12l0.11,0.13l0.02,0.16l0.1,0.18l0.21,0.21l0.08,0.17l-0.05,0.14l0.06,0.12l0.1,0.09l0.02,0.33l0.01,0.19l0.17,0.21l0.04,0.43l0.12,0.48l0.4,0.66l0.13,0.35l-0.03,0.42l0.06,0.2l0.18,0.1l0.09,0.18l-0.01,0.26l0.07,0.16l0.06,0.17l-0.04,0.27l0.06,0.24l0.09,0.14l0.07,0.26l0.04,0.32l0.27,0.51l0.5,0.69l0.31,0.54l0.11,0.38l0,0.31l-0.11,0.25l-0.01,0.18l0.1,0.11l0.03,0.15l-0.04,0.19l0.16,0.23l0.55,0.39l-0.22,0.6l-0.06,0.42l0.03,0.44l0.14,0.31l0.24,0.18l0.15,0.19l0.06,0.2l0.29,0.21l0.52,0.23l0.67,0.04l0.81,-0.15l0.5,-0.03l0.18,0.1l0.06,0.15l-0.06,0.2l0.14,0.13l0.33,0.06l0.23,0.13l0.13,0.19l0.15,0.05l0.18,-0.08l0.18,0.01l0.17,0.11l0.11,-0.04l0.1,-0.12h0.16l0.16,0l0.1,0.28l0.16,0.16l0.22,0.04l0.34,0.34l0.69,0.97l0.45,0.34l0.45,0.11l0.56,0.02l0.18,0.37l-0.15,0.39l-0.04,0.33l0.13,0.12l0.17,0.39l0.25,0.22l0.05,0.18l0.11,0.2l-0.05,0.37l-0.21,0.53l0.06,0.45l0.33,0.38l0.19,0.36l0.05,0.35l0.08,0.21l0.12,0.07l0.33,-0.03l0.55,-0.13l0.41,0.02l0.26,0.17l0.64,0.01l1.02,-0.16l0.65,-0.05l0.27,0.06l0.24,-0.22l0.21,-0.51l0.2,-0.24l0.18,0.03l0.29,-0.16l0.4,-0.36l0.35,-0.17l0.44,0.02l0.47,0.02l0.29,-0.15l0.28,-0.31l0.48,-0.28l1.02,-0.36l0.25,-0.06l0.12,0.02l0.34,0.06l0.3,0.14l0.29,0.29l0.04,0.18l-0.03,0.24l-0.06,0.14l-0.12,0.16l-0.11,0.25l0.07,0.2l0.17,0.42l0.14,0.3l0.15,0.36l-0.07,0.13l-0.09,0.25l-0.28,0.42l-0.15,0.16l-0.16,0.16l-0.28,0.04l-0.12,0.04l-0.14,0.07l-0.09,0.15l-0.1,0.1l-0.16,0.21l-0.01,0.18l0.07,0.27l0.04,0.27l-0.18,0.24l-0.14,0.37l-0.04,0.11l-0.07,0.28l-0.02,0.1l-0.04,0.59l-0.18,0.4l-0.25,0.47l0.06,0.28l0.04,0.26l-0.06,0.13l-0.02,0.11l-0.04,0.25l-0.08,0.09l-0.23,0.16l-0.14,0.19l0.03,0.28l-0.07,0.24l-0.11,0.22l-0.11,0.14l-0.16,0.09l-0.11,0.08l-0.08,0.27l-0.02,0.21l-0.08,0.21l0.05,0.22l-0.08,0.19l-0.23,0.13l-0.13,0.08l-0.12,0.03l-0.23,0.2l-0.2,0.69l-0.05,0.4l0.05,0.36l-0.29,0.22l-0.21,0.18l-0.13,-0.06l-0.14,-0.06l-0.32,-0.08l-0.16,-0.05l-0.33,-0.12l-0.52,-0.15l-0.51,-0.17l-0.32,-0.09l-0.25,-0.07l-0.19,-0.12l-0.16,-0.21l-0.16,0.09l-0.15,0.25l-0.25,0.15l-0.11,0.27l-0.1,0.21l-0.26,0.28l-0.11,0.12l-0.5,0.19l-0.11,0.06l-0.41,0.04l-0.14,0.08l-0.14,0.18l-0.04,0.17l0.1,0.18l0.16,0.37l0.07,0.25l0.11,0.5l0.36,1.55l-0.12,0.27l-0.11,1.16l0.03,0.21l-0.01,0.32l0.01,0.24l0.08,0.06l0.1,0.08l0.05,0.14l-0.01,0.21l-0.05,0.16l-0.08,0.31l-0.1,0.44l-0.11,0.17l-0.07,0.13l-0.06,0.09l-0.01,0.31l-0.04,0.21l-0.18,0.07l-0.18,0.12l-0.21,-0.04l-0.18,0.02l-0.23,0.08l-0.41,0.09l-0.24,0.12l-0.11,0.09l-0.08,0.11l-0.01,0.1l0.05,0.05l0.23,0.04l0.16,0.19l0.02,0.21l-0.16,0.12l0.08,0.23l0.18,0.22l0.09,0.16l0.02,0.17l0.08,0.1l0.12,-0.09l0.29,-0.75l-0.35,-0.51l0.13,-0.06l0.53,0.15l0.22,-0.04l0.38,0.07l0.24,-0.27l0.13,-0.28l0.28,-0.19l0.35,-0.67l0.58,-0.79l0.2,-0.2l0.4,-0.18l0.1,0.02l0.1,0.06l-0.32,0.42l-0.09,0.29l0.23,0l0.23,-0.09l0.57,-0.48l0.21,-0.26l0.07,0.29l-0.09,1.36l0.5,-0.1l0.27,0.15l0.37,-0.02l0.43,0.31l0.17,-0.04l0.2,-0.01l0.18,0.32l0.28,0.1l0.48,-0.25l0.72,-0.25l0.34,-0.01l0.84,-0.45l0.41,-0.36l1.5,-0.95l0.63,-0.52l0.6,-0.38l0.36,-0.61l0.63,-0.58l0.02,-0.25l0.12,-0.28l0.96,-1.57l0.32,-0.26l0.44,-0.19l0.19,-0.29l0.12,-0.41l0.59,-0.61l0.4,-0.62l0.37,-0.4l0.19,-0.36l0.96,-0.88l0.78,-0.98l0.73,-0.71l0.23,-0.44l0.95,-1.3l0.29,-0.86l0.36,-0.33l0.15,-0.82l0.3,-0.59l0.08,-0.35l0.16,-0.33l1.16,-1.34l0.47,-1.04l0.58,-1.05l0.41,-0.37l0.44,-0.48l0.24,-0.38l0.67,-0.6l0.32,-0.42l0.16,-0.43l0.15,-1.06l0.43,-0.81l-0.13,-0.13l-0.07,-0.25l0.05,-0.28l0.06,-0.17l0.04,-0.26l0.1,-0.3l0.09,-0.18l0.24,-1.14l-0.02,-0.72l-0.13,-0.28l0,-0.37l0.34,-0.53l0.08,-0.09l0.03,-0.13l-0.17,-0.11l-0.08,-0.1l-0.17,-1.82l0.13,-1.12l0.35,-0.83l0.07,-0.29l0.05,-0.81l0.42,-0.81l0.26,-0.93l0.55,-0.49l0.36,-0.6l0.3,-0.27l0.05,-0.62l0.28,-0.55l-0.21,-0.25l-0.22,-0.17l-0.45,-0.45l-0.1,-0.31l0.32,-0.53l0.06,-0.47l-0.03,-0.87l-0.47,-0.27l-0.6,-0.66l-0.1,-0.22l0.13,-0.02l0.83,0.35l0.41,-0.38l0.21,-0.4l-0.08,-0.51l-0.44,-0.2l-0.57,-0.56l-0.03,-0.19l-0.89,-0.48l-0.96,-1.02l-0.3,-0.9l-0.18,-0.24l-0.9,-0.73l-0.18,-0.24l-0.25,-0.1l-1.09,0.4l-0.6,-0.12l-1.15,-0.49l-0.11,0.1l0.17,0.36l-0.03,0.36l0.05,0.5l-0.06,0.83l-0.11,0.59l-0.42,0.83l-0.17,0.16l-0.37,0.07l-0.2,-0.01l0.12,-0.32l0.32,-0.39l0.46,-0.68l0,-0.61l-0.11,-0.06l-0.1,0l-0.32,0.24l-0.35,0.87l-0.85,0.58l-0.6,0.2l-1.15,0.1l-0.21,-0.03l-0.09,-0.16l0.26,-0.25l0.57,-0.36l0.36,-0.75l0.4,-0.18l0.14,-0.21l-0.6,-0.11l-0.41,-0.27l-0.38,-0.35l0.18,-0.11l0.13,-0.03l0.17,-0.12l0.43,-0.61l-0.4,-0.04l-0.41,0.04l-0.66,0.48l-0.13,0.26l0.21,0.34l0.24,0.15l-0.29,0.97l-0.38,-0.13l-0.37,0.04l-0.23,0.27l-0.24,-0.1l-0.1,-0.6l0.13,-0.62l0.12,-1.4l0.14,-0.48l0.01,-0.53l-0.07,-0.29l-0.23,-0.02l-0.38,0.05l-0.96,0l-1.08,0.15l-1.16,-0.53l-0.32,-0.07l-0.19,-0.12l-0.13,-0.53l0.07,-0.3l0.08,-0.2l0.78,-0.83l0.59,-0.23l1.19,-0.94l0.49,-0.78l0.31,-0.33l0.94,-0.58l0.61,-0.5l0.5,-0.48l0.55,-0.41l0.53,-0.69l0.33,-0.14l1.07,-1.48l0.19,-0.33l0.11,-0.46l0.11,-0.21l1.25,-1.72l0.85,-0.63l0.61,-0.9l0.74,-0.35l0.18,-0.15l0.32,-0.51l0.52,-0.3l0.16,-0.18l0.4,-0.72l1.25,-0.66l0.13,-0.27l0.53,-1.83l0.29,-0.49l0.55,-0.61l1.01,-0.6l0.72,-0.65l0.43,-0.52l0.76,-1.38l0.86,-0.83l0.7,-0.48l1.72,-0.71l0.93,0.15l0.97,-0.37l0.71,0.02l1.01,0.18l3.01,-0.2l0.57,0.22l0.2,0.24l0.29,0.72l0.33,0.15l0.63,-0.28l0.48,-1.15l0.26,-0.15l0.75,0.46l0.66,0.04l1.33,0.53l0.49,-0.12l0.52,-0.53l1.07,-0.14l0.66,0.83l0.66,0.02l0.53,-0.14l0.14,-0.47l-0.21,-0.17l-0.41,0.15l-0.1,-0.41l0.25,-0.46l0.36,0.32l0.58,-0.03l0.2,-0.04l-0.08,-0.21l-0.13,-0.18l-0.18,-0.4l0.63,-0.54l0.38,-0.18l0.61,-0.05l1.57,0.66l0.34,0.07l0.37,0.27l0.59,0.19l-0.36,0.17l-0.16,0.17l0.37,-0.07l0.32,0.21l0.26,0.05l0.11,-0.08l0.14,-0.26l0.2,-0.27l0.14,-0.08l0.38,0.01l0.5,0.12l0.39,0.2l0.88,1.11l0.41,0.22l0.46,-0.04l0.18,0.07l0.25,0.3l-0.76,0.35l-0.72,0.07l-0.64,-0.09l-1.08,0.44l0.58,1.13l1.06,0.05l1.08,-0.24l0.22,-0.47l0.43,-0.18l0.23,0.02l0.49,0.39l0.68,0.15l0.18,-0.07l0.55,-0.78l0.33,-0.07l0.22,0.02l0.25,-0.67l0.94,-0.05l0.55,0.6l0.33,0.21l0.66,-0.18l0.36,-0.43l0.23,-0.16l0.69,0.41l0.34,-0.25l0.54,-0.04l0.4,0.03l-0.02,-0.44l0.04,-0.49l-0.55,-0.49l-1.09,-0.5l-0.63,0.32l-0.24,0.03l-0.17,-0.05l-0.18,-0.25l0.17,-0.4l0.17,-0.32l-0.01,-0.4l0.07,-0.57l0.27,-0.24l0.14,-0.04l0.39,-1.18l1.1,-1.59l1.28,-0.98l0.81,-0.76l0.38,-0.54l0.57,-1.26l0.81,-0.92l0.39,-0.3l0.41,-0.39l0.14,-1.22l0.31,-0.29l0.28,-0.21l0.54,-0.65l0.8,-0.42l0.28,-0.31l0.93,0.02l0.76,0.25l0.23,-0.07l0.51,-0.36l0.6,0.09l0.78,-0.23l0.71,-0.43l0.32,-0.04l0.3,0.09l0.36,0.63l0.21,0.16l0.16,0.37l0.48,-0.23l1.29,-0.86l0.16,-0.01l0.2,0.06l0.03,0.33l-0.01,0.27l-0.2,0.86l-0.24,0.65l-0.65,1.25l-0.13,0.19l0.09,0.33l0.1,0.62l-0.32,0.66l-0.12,0.33l0.26,0.08l0.34,-0.37l0.51,-0.23l0.27,0.02l0.27,0.11l-0.43,1.12l-0.07,0.58l-0.07,0.22l-0.01,0.3l0.32,-0.16l0.23,-0.24l0.32,-0.18l0.8,-0.08l0.42,-0.8l0.34,-0.4l3.23,-3.37l0.57,-0.72l0.32,-0.05l0.28,0.12l0.26,-0.01l0.05,-0.25l0.1,-0.1l0.29,0.04l0.18,0.63l0.2,0.31l0.15,-0.06l0.11,-0.1l0.15,-0.24l0.17,-0.2l0.17,-0.32l-0.14,-0.22l-0.56,-0.33l0.02,-0.59l0.32,-0.95l-0.04,-0.62l0.13,-0.64l0.14,-0.32l0.13,-0.14l0.12,-0.22l-0.16,-0.5l0.12,-0.34l0.13,-0.24l2.59,-0.89l0.46,-0.05l0.42,0.18l0.63,0.64l0.71,0.33l0.99,0.14l0.06,0.28l-0.38,-0.1l-0.19,0.09l0.03,0.26l-0.05,0.19l-0.24,-0.23l-0.66,-0.12l-0.61,-0.25l-0.2,0.02l-0.87,0.75l-0.23,0.33l-0.37,1.48l-0.02,1.02l-0.14,0.97l-0.38,0.42l-0.13,0.48l-0.09,0.57l0.47,0.24l0.05,0.19l0.04,0.26l-0.31,0.6l-0.77,0.75l-0.08,0.16l-0.1,0.34l0.44,0.63l-0.35,0.23l-0.33,0.16l-0.32,0.28l-1.06,0.1l-0.73,0.71l-1.25,0.7l-0.56,0.4l-0.18,0.26l-0.44,1.06l-0.26,0.45l-0.85,0.7l-0.65,1.02l-1.02,1.22l-0.4,0.14l-0.46,0.3l-0.55,0.85l-1.41,1.46l-0.72,1.76L923.2,259l-0.4,0.46l-0.27,0.49l-0.49,0.51l-0.98,0.76l-0.67,0.63l-0.36,0.42l-0.13,0.39l-0.18,-0.09l-0.66,0.21l-0.86,-0.18l-0.61,1.16l-0.66,0.12l-0.65,-0.28l-0.32,0.14l-0.12,0.13l-0.11,0.17l0.3,0.37l0.14,0.32l0.04,0.29l0.04,0.49l-0.36,0.92l-0.34,0.71l-0.56,0.68l-1.3,1.23l-0.12,0.15l-0.12,0.29l-0.75,3.15l-0.21,1.39l-0.25,2.2l0.02,0.73l0.16,1.63l0.24,1.66l0.56,2.84l0.13,0.87l0.42,3.46l0.03,0.65l0.12,0.55l0.21,0.56l0.38,0.54l0.04,0.66l0.32,2.07l0.03,1.98l0.06,0.43l0.06,0.31l0.36,0.38l0.12,0.46l0.03,0.34l0.07,0.35l0.28,-0.17l1,-0.92l0.81,-0.88l0.12,-0.32l0.27,-0.25l0.55,-0.32l0.79,-0.92l0.64,-1.28l0.37,-0.98l0.08,-0.36l0.02,-0.35l-0.05,-0.77l0.15,-0.28l0.21,-0.86l-0.14,-0.23l-0.36,-0.16l0.11,-0.35l0.26,-0.08l0.21,0.16l0.12,0.37l0.17,0.12l0.58,-0.64l0.52,-0.32l1.26,-0.56l0.52,0.04l0.49,0.49l0.22,-0.02l-0.06,-0.68l-0.29,-0.5l0,-0.31l0.16,-0.49l-0.12,-0.32l-0.12,-0.25l-0.08,-0.53l0.22,-1.07l0.25,-0.58l0.18,-0.28l0.6,-0.47l0.64,-0.69l0.72,-0.53l0.46,-0.18l0.54,-0.1l0.46,0.38l0.93,0.02l0.28,-0.08l0.68,-0.75l0.39,-0.31l-0.07,-0.65l-0.24,-0.55l-0.48,-0.69l-0.11,-0.33l-0.16,-0.75l-0.02,-0.68l0.15,-0.79l0.42,-0.92l0.45,-1.25l0.17,-0.19l0.53,-0.3l0.36,-0.24l0.19,-0.13l-0.11,-0.7l0.28,-0.28l0.23,-0.18l0.58,0.07l0.19,-0.16l0.26,-0.07l-0.18,0.37l-0.23,0.25l-0.5,0.35l-0.24,0.5l0.6,0.84l0.37,0.16l0.21,-0.05l0.4,-0.46l0.2,-0.18l0.21,-0.3l-0.12,-1.09l-0.14,-0.59l0.04,-0.63l-0.26,-0.19l-0.33,-0.08l-0.35,0.1l-0.2,-0.17l-0.13,-0.28l-0.03,-0.33l0.07,-0.76l-0.02,-0.41l-0.13,-0.73l0,-0.21l0.05,-0.38l0.5,-0.62l0.43,-0.46l0.22,-0.38l0.07,-0.26l0.03,-0.54l-0.23,-0.25l-1.2,-0.57l-0.18,-0.01l-0.37,0.23l-0.15,0.73l-0.21,0.26l0,-0.15l0.05,-0.18l-0.6,-0.27l-0.28,-0.24l-0.16,-0.23l-0.11,-0.33l-0.12,-0.51l0.25,-1.04l0.26,-0.93l0.87,-1.4l0.53,-0.49l0.57,-0.75l0.25,-0.13l0.1,-0.12l0.1,-0.18l-0.18,-0.51l0.1,-0.12l0.1,-0.06l0.21,0.09l0.53,-0.94l-0.01,-1.2l0.15,-1.03l0.12,-0.42l0.13,-0.3l0.24,-0.29l0.23,-0.15l0.33,-0.36l0.15,-0.28l0.1,-0.07l0.37,0.02l0.29,0.11l0.33,0.19l-0.06,0.49l0.39,-0.43l0.35,-0.47l0.18,-0.08l0.24,0.06l0.41,0.36l0.31,0.69l0.21,0.19l0.28,-0.01l0.18,-0.1l0.15,-0.47l0.03,-0.86l0.3,-0.15l0.26,-0.06l0.37,-0.4l0.47,-0.18l1.01,-0.68l0.67,-0.7l0.48,-0.03l-0.12,0.4l-0.04,0.39l-0.18,0.95l-0.17,0.5l-0.09,0.61l0.04,0.32l0.11,0.41l0.24,-0.04l0.17,-0.09l0.34,-0.42l1.44,-2.02l0.74,-0.56l1.12,-0.36l0.34,-0.23l1.1,-0.37l0.91,-0.1l0.58,0.17l0.33,-0.01l1.23,-0.18l0.14,0.22l0.96,0.68l0.55,0.98l0.11,0.09l0.09,0.18l0.03,0.4l0.08,0.25l0.16,0.21l0.48,0.45l0.55,0.12l0.13,-0.25l0.08,-0.21l0.25,-1.19l0.21,-0.47l0,-0.29l0.05,-0.23l0.54,-0.35l0.42,-0.15l1.52,-1.16l0.67,-0.67l0.28,0.03l0.25,-0.15l0.22,-0.21l0.2,-0.09l0.41,-0.47l0.5,-0.37l-0.08,-0.32l0.09,-0.29l0.28,-0.11l0.25,-0.03l0.31,-0.34l-0.02,-0.27l0.11,-0.11l0.16,0.02l0.22,0.1l0.11,-0.11l-0.2,-0.37l-0.09,-0.35l0.14,-0.19l0.56,0.37l0.22,0l0.73,-0.88l0.65,-0.94l0.56,0.22l0.89,-0.69l0.41,-0.13l0.64,-0.04l0.27,-0.26l0.29,-0.48l0.23,0.05l1.11,-0.57l0.21,-0.41l0.27,-0.11l0.21,-0.04l0.48,-0.34l2,-0.97l0.3,-0.39l0.75,-0.58l0.58,-0.18l0.71,-0.15l0.08,-0.19l-0.51,-0.21l-0.12,-0.2l0,-0.21l0.07,-0.18l0.09,-0.34l0.19,-0.08l0.23,0.24l0.24,0l0.11,-0.21l0.11,0.02l0.06,0.27l-0.12,0.32l-0.06,0.25l-0.01,0.28l0.17,0.07l0.88,0.03l1,0.22l2.65,1.16l0.23,0.19l0.21,0.02l0.04,-0.46l0.12,-0.44l0.31,-0.25l0.53,-0.63l0.26,-0.45v-0.53l-0.17,-0.55l-0.37,-0.13l-0.22,-0.35l-0.12,-0.42l0.2,-0.31l0.21,-0.12l-0.05,-0.43l-0.16,-0.27l-0.85,-0.57l-0.3,-0.39l-0.01,-0.35l-0.35,-0.88l-0.05,0.19l0.03,0.43l-0.12,0.3l-0.18,-0.05l-0.03,-0.24l0.11,-0.51l-0.15,-0.22l-0.53,-0.11l-0.07,-0.2l0.52,-0.28h0.15l0.14,-0.1l-0.11,-1.11l-0.12,-0.78l-0.32,-0.07l-0.24,-0.23l0.07,-0.5l0.01,-0.25l-0.27,-0.86l-0.19,-0.35l-0.23,-0.32l-0.18,0.36l-0.09,0.48l-0.24,0.1l-0.26,-0.02l-0.75,-0.53l-0.71,-0.91l-0.07,-0.84l0.16,-1.07l-0.11,-0.17l-0.11,-0.07l-0.95,0.36l-0.58,0.56l-0.31,0.06l-0.63,-0.38l-1.03,0.63l0.22,-0.37l0.18,-0.14l0.19,-0.27l-0.14,-0.52l-0.15,-0.39l-0.22,-0.28l-0.32,-0.13l-0.31,0.26l-0.25,0.26l-0.51,0.28l-0.97,0.24h-0.66l-1.12,0.43l-0.42,-0.02l1.54,-0.61l0.84,-0.04l1.08,-0.4l0.79,-0.77l1.03,0.7l0.36,0.1l0.77,-0.06l0.67,0.41l0.22,-0.12l0.21,-0.38l-0.28,-0.56l-0.24,-0.35l-0.27,-0.11l-0.83,0.06l-0.54,-0.12l-0.31,-0.15l0.2,-0.16l0.59,0.22l0.72,-0.29l0.84,0.45l0.2,0.4l0.24,0.15l0.69,1.01l0.47,0.4l1.51,0.29l0.66,0.45l0.5,-0.18l1.27,-0.99l0.84,-0.27l0.57,-0.65l0.49,-0.75l0.48,-0.22l0.83,-0.8l0.2,-0.38l0.32,-0.95l0.19,-0.4l0.28,-0.48l0.02,-0.4l-0.06,-0.43l-0.23,-0.33l-0.54,-0.48l-0.25,-0.32l-0.17,-0.67l0.02,-0.81l0.12,-0.61l0.16,-0.54l0.19,0.39l0.54,-0.09l0.27,-0.15l0.03,-0.4l-0.07,-0.47l0.13,-0.12l0.28,-0.05l0.04,-0.28l0.1,-0.15l0.1,0.2l0,0.8l0.22,0.2l0.31,0.16l0.13,-0.05l0.13,-0.11l0.19,-0.24l0.38,-0.82l0.25,-0.32l-0.02,0.59l-0.15,0.82l-0.08,0.23l-0.22,0.29l-0.1,0.6l-0.04,0.16l-0.31,-0.17l-0.23,0.03l0.17,0.66l0.25,0.49l0.31,0.48l0.34,0.28l0.09,-0.01l0.07,0.1l0.01,0.3l-0.08,0.7l0.06,0.38l0.26,0.28l0.29,0.07l1.72,-0.03l0.59,-0.09l0.88,-0.66l0.33,-0.08l0.38,0.08l1.05,0.36l1.27,0.52l0.48,0.8l0.19,0.8l0.07,0.85l-0.08,0.34l0.02,0.29l0.39,0.43l0.55,0.52l0.11,0.12l0.12,0.21l0.13,0.09l0.39,0.06l0.31,-0.1l0.31,-0.03l0.58,0.25l0.73,0.38l0.71,0.52l0.32,0.39l0.57,0.84l0.29,0.25l0.47,0.29l0.18,0.05l0.17,-0.05l0.36,-0.41l0.22,-0.33l0.19,-0.39l0.05,0.34v0.29l-0.19,0.21l0,0.36l0.28,0.42l0.33,0.06l0.42,-0.11l0.14,-0.2l0.12,-0.27l-0.09,-0.9l0.13,-0.12l0.31,0.18l0.1,0.25l0.05,0.31l0.12,0.03l0.82,-0.04l0.06,-0.11l-0.04,-0.28l-0.12,-0.27l-0.14,-0.19l-0.36,-0.22l-0.37,-0.17l-0.3,-0.04l-0.13,-0.12l0.03,-0.23l-0.1,-0.27l0.06,-0.16l0.25,-0.21l0.03,-0.19l-0.27,-0.23l-0.28,-0.07l-0.25,0.13l0.06,-0.2l0.19,-0.19l0.29,-0.08l0.29,0.04l0.56,-0.17l0.54,-0.38l0.26,-0.25l0.26,-0.31l-0.03,-0.54l-0.17,-0.51l-0.26,-0.14l-0.29,0.03l-0.25,-0.04l-0.25,-0.14l0.99,-0.18l0.11,-0.18l0.16,-0.82l-0.06,-0.21l-0.21,0.05l-0.31,-0.01l0.07,-0.17l0.11,-0.15l-0.57,-0.79l-0.64,-0.47l0.18,-0.08l0.31,0.02l0.48,0.14l0.32,0.35l0.11,0.24l0.14,0.08l0.29,0.02l0.49,0.17l0.03,0.23l0.11,0.08l0.33,-0.1l0.91,-0.15l0.29,0.04l0.42,0.17l0.13,0l0.18,-0.06l0.15,-0.26l-0.23,-0.53l-0.47,-0.48l-0.28,-0.36l-0.14,-0.29l0.08,-0.11l0.13,0.04l0.41,0.46l0.32,0.29l0.33,0.2l0.29,0.15l0.65,0.14l0.29,-0.24l0.06,-0.37l-0.06,-0.77l0.06,-0.29l0.39,-0.43l0.68,-0.55l0.44,-0.18l0.15,0.02l0.16,0.17l0.17,0.05l0.29,-0.41L1009.56,213.66zM946.86,279.46l-0.48,-0.39l-0.33,-0.13l-0.23,-0.29l-0.2,0.01l0.13,0.3l0.53,0.47l1.13,0.89l-0.12,-0.25L946.86,279.46zM628.42,64.16l0.06,-0.44l-0.08,-0.71l-0.57,-0.37l-0.08,-0.22l-0.84,-0.53l-0.05,0.72l0.12,0.35l0,0.46l-0.14,0.2l-0.11,0.47l1.3,0.93L628.42,64.16zM632.07,51.55l1.33,-0.65l0.48,0.83l0.42,0.06l0.44,-0.42l0.43,-0.73l0.95,1.09l0.82,0.78l0.89,-0.62l0.4,-0.51l0.29,-1.05l-0.29,-0.9l-0.15,-1.21l1.44,-0.35l0.54,-0.59l-0.36,-0.86l-1.18,-0.37l-0.43,-0.43l-0.15,-0.75l-0.26,-0.36l-0.73,0.42l-0.26,0.15l-0.77,-0.11l-0.33,0.58l-0.71,1.65L634,47.87l-0.7,1.56l-1.05,-0.49l-0.89,0.34l0.3,1.54L632.07,51.55zM623.18,68.69l0.16,0.18l0.08,0.2l0.62,0.09l1.87,-0.2l0.37,-0.62l0.35,-0.1l0.21,-0.66l-1.03,-0.92l-0.39,-0.72l-0.05,-0.61l-0.4,-0.17l-0.93,0.17l-0.39,0.92l-0.1,0.49l-0.29,0.36l-0.86,0.34l-0.16,0.21l0.37,0.84L623.18,68.69zM638.38,41.99l0.93,-0.38l2.98,-0.85l0,-0.43l0.14,-0.87l-0.41,-0.57l-3.16,0.52L638.43,40l-0.11,0.96l-0.1,0.51l0.03,0.22L638.38,41.99zM628.31,58.75l0.44,0.07l0.25,0.31l0.13,0.46l1.26,-0.23l1.19,0.85l0.48,1.14l0.48,0.15l1.21,-0.08l1.4,-0.53l2.15,-1.6l0.32,-0.64l-0.35,-0.48l-1.85,-1.65L634.19,55l-0.85,-0.56l-1.96,0.17l-2.11,-1.74l-0.24,0.05l-0.61,2.28l-0.14,1.48l-0.36,0.03l-0.55,0.53l0.06,1.03L628.31,58.75zM641.06,72.23l0.51,0.33l0.19,0.25l0.09,0.25l0.36,0.16l1.01,-0.53l0.62,-0.62l-0.31,-1.43l-0.72,-0.59l-1.52,1.06l-0.16,0.19L641.06,72.23zM652.83,55.56l-0.83,1.3l-0.64,0.72l-0.2,0.55l0.67,1.04l0.68,0.87l0.52,0.26l0.52,-0.04l3.3,-0.96l1.26,-1.11l1.23,-1.98l-0.18,-0.67l-0.03,-0.72l0.06,-0.87l-0.2,-0.72l-0.39,-0.87l-0.4,-0.46l-0.63,-0.51l-0.64,-0.02l-0.74,0.43l-0.15,0.56l-0.13,0.69l-0.13,1.28l-0.2,0.67l-0.67,0.31l-0.68,0L652.83,55.56zM642.14,61.68l-0.05,0.77l0.05,0.87l0.12,0.28l0.85,1.25l0.7,-0.25l1.06,-0.82l1.25,1.01l0.92,0.27l0.66,-1.46l0.88,-0.52l0.23,-0.88l0.25,-0.25l0.86,-0.27l0.11,-1.15l0.22,-0.81l0.1,-1.12l-0.17,-0.71l-0.18,-0.56L649.28,57l-0.71,-0.13l-0.8,0.54l-1.38,0.64l-0.95,0.39l-0.57,0.05l-0.12,-0.64l-0.39,-0.19l-1.06,0.22l-0.35,0.35l-0.12,0.58l-0.15,0.3l-0.3,0.94L642.14,61.68zM646.41,56.22l0.88,-0.37l0.93,-1.09l0.27,-0.71l-0.31,-0.97l-2.44,0.3l-1.23,1.28l-0.19,0.31l-0.06,0.26l0.74,0.52L646.41,56.22zM651.19,42.93l0.12,0.27l0.88,0.47l1.81,0.24l0.34,-0.25l0.37,-0.78l-0.04,-0.28l-0.16,-0.45l-2.57,-0.62l-1.43,0.24L650,42.3l1.15,0.39L651.19,42.93zM619.04,73.08l1,0.18l0.01,-0.18l-0.07,-0.2l-0.23,-0.45l-0.24,-0.31l-0.01,-0.31l0.05,-0.62l-0.89,-0.74l-0.73,0.74l-0.57,0.21l-1.07,0.89l1.02,0.9L619.04,73.08zM881.76,305.84l-0.22,-0.27l-0.49,-0.49l-0.25,-0.55l-0.19,-0.56l-0.09,-0.52l-0.11,-0.51l-0.16,-0.48l-0.26,-1.02l-0.65,-1.69l-0.22,-0.98l-0.57,-3.28l-0.13,-0.14l-0.04,-0.1l-0.02,-0.46l-0.03,-0.31l-0.11,-0.22l-0.27,-0.28l-0.06,-0.22l-0.01,-0.51l-0.12,-0.47l-0.17,-0.44l-0.1,-0.63l0.05,-1.21l0.08,-0.43l0.18,-0.16l0.09,-0.23l0.08,-0.39l0.03,-0.4l-0.02,-1.22l-0.1,-0.8l-0.08,-0.39l-0.1,-0.37l-0.36,-0.9l-0.5,-1.44l0.05,-0.08l-0.07,-0.32l0.04,-0.37l0.11,-0.35l0.05,-0.27l-0.03,-0.26l-0.6,-1.21l-0.19,-0.11l-0.08,0.28l-0.14,0.26l-0.18,0.12l-0.61,-0.01l0.37,0.63l0.57,0.86l0.1,0.35l-0.06,0.38l-0.11,0.38l0.13,0.03l-0.03,0.26l-0.36,0.1l-0.12,0.31l0.21,0.24l-0.16,0.42l-0.29,0.17l-0.15,0.04l-0.15,-0.01l-0.39,-0.37l-0.11,-0.05l-0.5,0.18l-0.31,0.31l-0.08,0.23l0.04,0.94l0.1,0.46l-0.05,1.14l-0.15,1.1l-0.16,0.46l-0.18,0.44l-0.06,0.4l0.02,1.55l0.15,0.39l0.25,0.26l-0.1,0.17l-0.14,0.07l0.14,0.21l0.28,0.27l0.37,0.49l0.24,0.41l0.33,0.93l0,1l-0.17,0.48l-0.13,0.5l-0.1,0.65l0.01,0.51l0.2,0.89l0.03,0.42l-0.03,2.81l-0.09,0.56l-0.12,0.55l-0.13,1l-0.11,0.45l-0.32,0.94l0.02,0.2l0.07,0.2l0.37,0.75l0.3,0.79l0.13,1.16l-0.09,0.46l-0.21,0.39l-0.17,0.45l-0.14,0.47l0,0.18l0.06,0.81l0.09,0.43l0.06,0.43l-0.08,0.45l-0.41,1.38l-0.1,0.99l0.24,1.14l0.04,0.33l0.09,0.3l0.15,0.21l0.17,0.18l0.2,-0.33l0.17,-0.36l0.27,-1.09l0.13,-0.41l0.16,-0.39l0.2,-0.36l0.28,-0.23l0.16,-0.06l0.16,0.02l0.16,0.16l0.13,0.21l0.09,0.06l0.61,0.05l0.66,0.14l0.2,0.34l0.05,0.48l0.14,0.55l0.04,0.78l0.09,-0.16l0.05,-0.19l0.02,-0.24l0.05,-0.22l0.2,-0.53l-0.01,-0.18l-0.11,-0.69l-0.15,-0.72l-0.11,-0.16l-0.18,-0.06l-0.18,-0.01l-0.28,0.05l-0.11,-0.2l-0.25,-0.64l-0.23,-0.91l-0.18,-0.41l-0.1,-0.16l-0.12,-0.12l-0.18,-0.1l-0.16,-0.15l-0.21,-0.35l-0.26,-0.61l-0.06,-0.22l-0.03,-0.61l0.08,-0.78l0.22,-0.73l0.9,-2.84l0.16,-0.8l0.22,-0.4l0.37,-0.27l0.41,-0.12l0.98,-0.09l0.24,0.01l0.42,0.14l0.23,0.12l0.21,0.17l0.44,0.59l0.36,0.36l0.35,0.4l0.24,0.33l0.15,0.58l0.12,0.16l-0.02,-0.76L881.76,305.84zM885.58,327.82l-0.06,0.05l0.01,0.05l0.04,-0.01l0.07,-0.05l0.05,-0.03l0.04,-0.04l-0.03,-0.03L885.58,327.82zM885.25,327.73l-0.05,0.01l-0.05,0l-0.04,-0.02l-0.04,0.01v0.03l0.04,0.03l0.01,0.04l0.02,0.05l0.04,-0.01l0.07,-0.01l0.03,0l-0.01,-0.07L885.25,327.73zM603.08,62.67l0.71,0.4l0.92,-0.56l0.15,0.49l0.1,0.97l0.23,0.63l0.66,-0.17l0.38,-0.32l0.31,-1.11l0.15,-0.35l0.94,-0.01l0.38,-0.81l0.15,-0.1l0.3,0.15l0.31,-1.18l0.27,-0.23l0.25,-0.94l0.29,-0.41l0.2,0.16l0.75,1.53l1.63,0.67l0.16,-0.07l0.01,-1.46l-0.39,-1.07l-0.29,-0.47l-0.28,-0.23l-0.29,-0.08l-0.96,0.19l-1.28,-0.72l-0.25,0.01l-0.93,0.68l-0.62,1.04l-1.32,0.35l-3.38,1.44l-0.62,0.71l0.69,0.22L603.08,62.67zM616.17,70.78l0.06,-0.57l0.69,-1.03l-0.03,-0.22l-0.17,-0.56l-1.03,-0.18l-0.92,1.18l0.09,0.37l1.07,1.23L616.17,70.78zM886.38,327l-0.06,-0.02l-0.07,0.05l-0.03,0.03l0.04,0.02l0.12,0.02l0.07,-0.02l-0.02,-0.07L886.38,327zM613.46,63.43l-1.3,0.13l-0.45,-0.85l-0.17,-0.18l-0.27,0.12l-0.27,0.3l-0.88,0.25l-0.67,0.49l-0.71,0.95l-2.13,2.42l0.26,0.71l0.3,0.34l0.41,0.9l0.72,0.04l0.27,-0.14l0.28,-0.69l0.56,-0.25l0.7,0.1l0.24,0.44l-0.71,1.01l-0.25,0.65l0.29,0.49l0.57,-0.11l0.24,-0.18l0.2,-0.37l0.2,-0.17l0.61,0.6l0.23,-0.23l0.19,-0.79l0.06,-0.41l0.08,-0.2l0.6,0.56l0.27,0.1l0.24,-0.12l0.09,-0.74l-0.06,-0.58l-0.09,-0.39l-0.1,-0.18l-0.65,-0.22l-0.03,-0.16l0.38,-0.9l0.24,-0.26l1.94,-0.12l0.58,-0.82l-0.12,-0.79l0.27,-0.43l1.22,-0.51l1.91,-0.22l0.52,-1.09l1.56,-1.44l-0.32,-0.92l-0.38,-0.07l-1.51,-2.56l-0.33,-0.42l-1.04,0.06l-0.43,-0.29l-0.43,0.06l-1.73,1.04l-0.74,0.78l-0.27,1.91l0.13,0.97l-0.02,1.67L613.46,63.43zM617.18,53.45l0.3,0.7l0.27,0.08l0.39,-0.11l0.1,-0.44l0.44,-0.66l-0.19,-0.78l-0.46,-0.36l-0.35,0.02l-0.2,0.2l-0.04,0.26l-0.12,0.33l-0.27,0.07l0.03,0.36L617.18,53.45z"/>
		<path id="KG" title="Kyrgyzstan" class="land" d="M700.81,332.56l0.06,0.23l0.05,0.26l-0.03,0.06l-0.05,0.04l-0.86,0.07l-0.19,0.07l-0.21,0.36l-0.74,0.29l-0.42,0.15l-0.17,-0.01l-0.41,0.24l-1.14,0.59l-0.56,0.38l-0.28,0.16l-0.23,0.17l-0.04,0.17l-0.01,0.16l-0.63,0.76l-0.47,0.09l-0.4,-0.02l-0.27,0.12l-0.39,0.12l-0.84,-0.08l-0.29,0.01l-0.55,-0.1l-0.22,0.06l-0.23,0.16l-0.33,0.61l-0.13,0.14l-0.06,0.14l-0.05,0.29l-0.12,0.31l-0.16,0.25l-0.12,0.23l-0.24,0.22l-0.22,0.14l-0.17,-0.29l-0.15,0.08l-0.14,0.12l-0.26,-0.04l-0.16,0.06l-0.37,0.25l-0.55,-0.01l-0.06,-0.09l-0.11,-0.69l-0.09,-0.33l-0.08,-0.07l-0.1,-0.01l-0.79,0.54l-0.36,0.1l-0.3,0.02l-0.39,-0.16l-0.08,0.04l-0.07,0.09l-0.03,0.11l0.11,0.31l-0.03,0.06l-0.18,0l-0.25,0.07l-0.19,0.14l-0.56,0.49l-0.47,0.17l-0.44,0.06l-0.18,0.05l-0.08,0.06l-0.15,0.23l-0.15,0.37l-0.08,0.18l-0.06,0.1l0.01,0.14l0.12,0.18l0.09,0.39l-0.02,0.1l-0.1,0.16l-0.14,0.16l-0.3,0.1l-0.24,0.05l-0.16,-0.03l-0.29,-0.01l-0.23,0.06l-0.14,0.11l-0.28,0.14l-0.35,0.05l-0.45,0.02l-0.22,-0.01l-0.65,-0.09l-0.21,0.03l-0.21,0.07l-0.37,0.07l-0.2,0.23l-0.1,0.21l-0.06,0.03l-0.23,-0.19l-0.18,-0.18l-0.12,-0.15l-0.15,0l-0.52,0.27l-0.08,-0.01l-0.15,-0.1l0.03,-0.26l-0.01,-0.16l-0.17,-0.09l-0.35,-0.02l-0.12,-0.09l0.01,-0.14l0.03,-0.13l-0.04,-0.1l-0.09,-0.08l-0.19,0.02l-0.21,0.11l-0.16,0.12l-0.2,0.06l-0.24,0.02l-0.15,0.07l-0.17,0.3l-0.58,0.06l-0.19,-0.07l-0.15,-0.21l-0.2,-0.34l-0.11,-0.04l-0.19,-0.04l-0.31,0.02l-0.41,0.14l-0.1,-0.12l-0.11,-0.03l-0.1,0.1l-0.1,-0.01l-0.41,0.03l-0.52,-0.01l-0.29,-0.07l-0.19,0l-0.38,0.15l-0.2,0l-0.26,0.03l-0.05,-0.51l-0.14,-0.35l0.04,-0.24l0.1,-0.33l0.08,-0.19l0.16,0.08l0.19,0.14l0.12,-0.04l0.03,-0.11l-0.05,-0.15l-0.01,-0.11l0.07,-0.14l0.1,-0.13l0.66,-0.22l0.57,-0.16l0.29,0.11l0.57,0.25l0.29,0.13l0.2,0.08l0.18,0.36l0.12,-0.02l0.12,-0.07l0.07,-0.09l0.06,-0.31l0.26,-0.17l0.58,-0.21l0.04,-0.12l-0.01,-0.07l0.09,-0.06l0.29,-0.06l0.59,-0.06l0.2,0.04l0.23,0.12l0.18,0.12l0.17,0l0.14,-0.03l0.06,0.03l0.04,0.11l0.07,0.1l0.23,-0.13l0.2,-0.17l0.16,-0.02l0.15,-0.06l0.04,-0.11l0.12,-0.19l0.33,-0.36l0.17,-0.06h0.11l0.01,0.06l0.05,0.05l0.29,0.08l0.09,-0.09l0.05,-0.13l-0.1,-0.21l0,-0.09l0.04,-0.08l0.05,-0.05l0.46,0.2l0.1,0l0.21,-0.11l0.19,-0.2l0.07,-0.15l0.95,-0.5l0.07,-0.09l-0.01,-0.07l-0.4,-0.12l-0.18,0.07l-0.17,0l-0.1,-0.07l-0.48,-0.03l-0.11,-0.05l-0.32,-0.36l-0.22,-0.14l-0.18,-0.09l-0.19,0.01l-0.23,0.1l-0.07,-0.04l-0.02,-0.15l0,-0.19l-0.05,-0.21l-0.14,-0.05l-0.18,0.08l-0.26,-0.08l-0.22,-0.03l-0.06,-0.43l-0.09,-0.19l-0.09,-0.19l-0.1,-0.06l-0.16,-0.1l-0.01,-0.23l-0.03,-0.06l-0.06,-0.03l-0.08,0.03l-0.1,0.12l0.05,0.25l-0.04,0.25l-0.06,0.13l-0.11,0.09l-0.13,0l-0.22,-0.13l-0.04,0.77l-0.04,0.05l-0.26,-0.11l-0.21,0.05l-0.32,-0.05l-0.24,-0.13l-0.18,-0.03l-0.29,-0.11l-0.22,-0.14l-0.13,-0.51l-0.13,-0.18l-0.12,-0.04l-0.49,0.18l-0.18,-0.14l-0.33,-0.18l-0.25,-0.07l-0.07,-0.1l0.01,-0.12l0.77,-0.58l0.3,-0.4l0.19,-0.17l0.27,-0.11l0.21,-0.07l0.11,-0.36l0.04,-0.04l0.15,-0.03l0.34,-0.15l0.55,-0.32l0.01,-0.09l-0.06,-0.08l-0.23,-0.16l-0.26,-0.13l-0.16,0.07l-0.09,0.07l-0.15,-0.17v-0.18l0.17,-0.3l0.14,-0.15l0.06,-0.29l0.2,-0.19l0.21,-0.31l0.25,-0.25l0.46,-0.19l0.26,0.06l0.24,-0.04l0.38,-0.15l0.07,-0.01l0.16,0l0.97,0.23l0.32,0.01l0.75,0.3l0.34,0.07l0.24,0.09l0.11,0.13l0.18,0.16l0.94,0.13l0.26,0.09l0.09,0.14l0.27,0.18l0.23,0.04l-0.2,-0.7l0.08,-0.42l0.3,-1.14l0.16,-0.17l0.3,-0.15l0.47,-0.17l0.18,-0.24l0.38,0.02l0.17,-0.02l0.12,-0.04l0.06,-0.13l0.43,0.23l0.73,0.47l0.55,0.3l0.65,0.28l0.89,0.26l0.76,0.08l0.13,-0.06l0.3,-0.39l0.14,-0.02l0.26,0.03l0.8,0.02l0.82,0.02l0.38,-0.04l0.84,-0.16l0.12,-0.01l0.19,0.01l0.5,0.22l0.37,0.03l0.25,0l0.15,0.02l0.31,-0.01l0.5,0.03l0.62,0.14l0.75,-0.03l0.24,-0.03l0.42,0.03l0.33,0.14l0.42,0.14l0.26,0.06l0.18,0.03l0.31,0.01l0.19,-0.05l0.11,0.06l0.11,0.35l0.26,0.23l0.2,0.22l0.17,0.24l0.17,0.1l0.3,0l0.58,0.07l0.33,0.1l0.42,0.42L700.81,332.56zM675.54,341.08l0.03,-0.05l-0.1,-0.27l0.14,-0.25l-0.28,-0.04l-0.14,-0.07l-0.16,-0.25l-0.05,-0.01l-0.08,0.07l-0.04,0.17l0.04,0.18l0.11,0.12l0.07,0.04l0.01,0.01l0,0.06l-0.09,0.3l0.15,0.04l0.26,0.01L675.54,341.08zM677.15,340.87l0.03,-0.16l-0.07,0.01l-0.08,0.04l-0.16,0.04l-0.03,0.08l0.1,0.1l0.13,0.04L677.15,340.87zM674.12,341.32l-0.01,-0.08l-0.1,-0.04l-0.27,-0.04l-0.19,-0.06l-0.04,0l0.02,0.07l0.08,0.13l0.11,0.14l0.15,0.02L674.12,341.32z"/>
		<path id="KZ" title="Kazakhstan" class="land" d="M720.77,304.92l-0.26,-0.09l-0.51,-0.02l-0.31,0.05l-0.15,0.03l-0.22,0.17l-0.16,0.17l-0.07,0.3l0.08,0.33l-0.11,0.69l-0.15,0.26l-0.32,0.45l-0.19,0.1l-0.31,0.08l-0.3,0.13l-0.59,0.13l-0.63,0.07l-0.23,0.1l-0.16,0.31l-0.11,0.26l-0.07,0.2l-0.18,0.64l-0.1,0.57l0.1,0.71l0.08,0.78l0,0.27l0.16,0.4l0.08,0.24l-0.04,0.35l-0.22,0.27l-0.13,0.36l-0.13,0.15l-0.36,0.07l-0.34,0.04l-0.34,0.31l-0.28,0.21l-0.43,0.27l-0.2,0.05l-0.11,-0.14l-0.07,-0.31l-0.15,-0.14l-0.21,-0.01l-0.17,0l-0.54,-0.08l-0.35,0.01l-0.26,0.07l-0.3,0.03l-0.51,-0.11l-0.33,-0.1l-0.22,-0.09l-0.54,-0.27l-0.7,-0.32l-0.29,-0.09l-0.17,0.1l-0.03,0.18l-0.04,0.44l-0.08,0.28l-0.49,1.4l-0.3,0.97l-0.38,0.92l-0.12,0.62l-0.23,0.78l-0.23,0.56l-0.09,0.31l-0.01,0.13l0.04,0.17l0.35,0.19l0.37,0.12l0.08,0.07l0.04,0.2l-0.01,0.32l-0.07,0.31l-0.11,0.24l-0.11,0.12l-0.12,0.01l-0.23,-0.15l-0.21,-0.17l-0.16,-0.05l-0.4,0.1l-0.37,0.13l-0.13,0l-0.22,-0.08l-0.22,-0.17l-0.09,-0.34l-0.19,-0.15l-0.25,0.15l-0.75,0.26l-0.83,0.31l-0.53,0.16l-0.21,-0.02l-0.41,0.04l-0.35,0.09l-0.26,0.12l-0.52,0.16l-0.47,0.11l-0.31,0.25l-0.22,0.24l0.01,0.09l0.16,0.14l0.18,0.11l0.37,-0.03l0.36,-0.02l0.3,0.15l0.27,0.1l0.07,0.12l-0.07,0.12l-0.15,0.03l-0.05,0.08l0.03,0.11l-0.1,0.29l-0.05,0.45l0.05,0.44l0.03,0.4l-0.02,0.2l-0.01,0.29l0.11,0.2l0.1,0.37l0.18,0.23l0.27,0.8l0.16,0.47l0.15,0.53l-0.11,0.29l0.01,0.17l0.17,0.14l0.08,0.27l0.08,0.16l-0.02,0.16l-0.07,0.06l-0.38,-0.1l-0.31,0.16l-0.33,0.16l-0.04,0.09l-0.01,0.09l0.03,0.08l0.19,0.15l0.26,0.09l-0.01,0.15l-0.32,0.07l-0.49,0.22l-0.13,0.24l-0.1,0.26l-0.01,0.15l0.05,0.41l0.07,0.45l0.14,0.47l0.01,0.15l-0.07,0.1l-0.07,0.07l-0.39,-0.43l-0.42,-0.42l-0.33,-0.1l-0.58,-0.07l-0.3,0l-0.17,-0.1l-0.17,-0.24l-0.2,-0.22l-0.26,-0.23l-0.11,-0.35l-0.11,-0.06l-0.19,0.05l-0.31,-0.01l-0.18,-0.03l-0.26,-0.06l-0.42,-0.14l-0.33,-0.14l-0.42,-0.03l-0.24,0.03l-0.75,0.03l-0.62,-0.14l-0.5,-0.03l-0.31,0.01l-0.15,-0.02l-0.25,0l-0.37,-0.03l-0.5,-0.22l-0.19,-0.01l-0.12,0.01l-0.84,0.16l-0.38,0.04l-0.82,-0.02l-0.8,-0.02l-0.26,-0.03l-0.14,0.02l-0.3,0.39l-0.13,0.06l-0.76,-0.08l-0.89,-0.26l-0.65,-0.28l-0.55,-0.3l-0.73,-0.47l-0.43,-0.23l-0.06,0.13l-0.12,0.04l-0.17,0.02l-0.38,-0.02l-0.18,0.24l-0.47,0.17l-0.3,0.15l-0.16,0.17l-0.3,1.14l-0.08,0.42l0.2,0.7l-0.23,-0.04l-0.27,-0.18l-0.09,-0.14l-0.26,-0.09l-0.94,-0.13l-0.18,-0.16l-0.11,-0.13l-0.24,-0.09l-0.34,-0.07l-0.75,-0.3l-0.32,-0.01l-0.97,-0.23l-0.16,0l-0.07,0.01l-0.38,0.15l-0.24,0.04l-0.26,-0.06l-0.46,0.19l-0.25,0.25l-0.21,0.31l-0.2,0.19l-0.06,0.29l-0.14,0.15l-0.17,0.3v0.18l0.15,0.17l-0.24,0.16l-0.27,0.05l-0.14,0.1l-0.15,0.23l-0.14,0.2l-0.08,0.07l-0.12,-0.01l-0.14,-0.15l-0.21,0.01l-0.24,0.19l-0.29,0.31l-0.37,0.47l-0.38,0.25l-0.48,0.21l-0.35,0.09l-0.28,0.16l-0.46,0.33l-0.09,0.19l-0.33,0.11l-0.27,0.13l-0.25,0.22l-0.06,0.38l-0.16,0.22l-0.38,0.3l-0.32,0.3l-0.21,0.3l-0.22,0.32l-0.07,0.17l-0.01,0.24l0.1,0.2l0.02,0.19l-0.08,0.14l-0.22,0.05l-0.23,-0.04l-0.35,-0.14l-0.37,-0.24l-0.13,-0.12l-0.18,-0.2l0.03,-0.19l0.09,-0.37l0.06,-0.25l-0.15,-0.12l-0.11,-0.13l-0.08,-0.13l-0.16,-0.25l-0.2,0.06l-0.17,0.06l-0.2,-0.09l-0.58,0.04l-0.44,0.03l-0.41,0.03l-0.52,0.03l-0.63,0.04l-0.18,-0.05l-0.11,-0.08l-0.11,-0.34l-0.07,-0.29l-0.12,-0.54l-0.08,-0.42l-0.1,-0.5l-0.06,-0.56l-0.05,-0.4l-0.48,-0.01l-0.38,-0.01l-0.51,-0.01l0,-0.32l0.01,-0.4l0.01,-0.45l0.1,-0.6l0.04,-0.5l0.04,-0.61l0.03,-0.41l0.03,-0.45l-0.27,0.14l-0.29,0.15l-0.28,0.14l-0.19,-0.36l-0.18,-0.35l-0.28,-0.54l-0.21,-0.4l-0.36,-0.24l-0.27,-0.17l-0.28,-0.3l-0.24,-0.31l-0.23,-0.29l-0.27,-0.25l-0.26,0.08l-0.3,0.16l-0.29,0.15l-0.3,0.16l-0.15,0.08l-0.35,-0.03l-0.31,-0.03l-0.55,-0.05l-0.46,-0.04l-0.47,-0.04l-0.66,-0.06l-0.67,-0.06l-0.45,0.08l-0.57,0.09l-0.59,0.1l-0.49,0.08l-0.62,0.1l-0.46,0.08l-0.23,-0.01l-0.29,-0.33l-0.46,-0.53l-0.28,-0.32l-0.27,-0.31l-0.4,-0.45l-0.32,-0.34l-0.31,-0.34l-0.18,-0.31l-0.09,-0.39l-0.16,-0.18l-0.36,-0.24l-0.39,-0.26l-0.39,-0.26l-0.39,-0.26l-0.39,-0.26l-0.39,-0.26l-0.39,-0.26l-0.39,-0.26l-0.39,-0.26l-0.39,-0.26l-0.39,-0.26l-0.39,-0.26l-0.39,-0.26l-0.39,-0.26l-0.39,-0.26l-0.39,-0.26l-0.39,-0.26l-0.32,-0.19l-0.3,0.05l-0.44,0.13l-0.47,0.14l-0.46,0.14l-0.83,0.25l-0.53,0.16l-0.42,0.13l-0.44,0.14l-0.58,0.19l-0.49,0.16l-0.57,0.18l-0.5,0.16l-0.42,0.14l-0.44,0.14l-0.35,0.11v0.91v0.9l0,0.9v0.9v0.89l0,0.89V328v0.88v0.88l0,0.88v0.87v0.87l0,0.87v0.86v0.86l0,0.86l-0.12,-0.01l-0.27,0.05l-0.45,0.12l-0.37,0.06l-0.16,-0.04l-0.15,-0.09l-0.13,-0.19l-0.19,-0.23l-0.2,-0.19l-0.25,-0.38l-0.17,-0.29l-0.42,-0.64l-0.06,-0.2l-0.08,-0.21l-0.14,-0.17l-0.49,-0.43l-0.58,-0.38l-0.56,-0.38l-0.16,-0.09l-0.26,-0.12l-0.33,0l-0.22,0.02l-0.68,0.12l-0.52,0.15l-0.7,0.2l-0.54,0.22l-0.12,0.06l-0.4,0.26l-0.49,0.44l-0.57,0.62l-0.07,-0.4l-0.03,-0.61l0.01,-0.2l0.16,-0.52l0.16,-0.35l0.13,-0.37l0.06,-0.48l-0.12,-0.78l-0.13,-0.17l-0.16,-0.06l-0.17,-0.02l-0.31,0.03l-0.14,0.06l-0.25,-0.26l-0.3,-0.04l-0.16,0.07l-0.16,0.04l-0.18,-0.07l-0.15,-0.16l-0.09,-0.17l-0.07,-0.19l-0.24,-0.38l-0.24,-0.21l-0.29,-0.05l-0.47,0.01l-0.15,-0.03l-0.01,-0.22l0.06,-0.48l0,-0.25l-0.03,-0.24l-0.08,-0.19l-0.1,-0.17l-0.28,-0.28l-0.21,-0.39l-0.35,-0.81l-0.31,-0.91l-0.13,-0.14l-0.27,-0.14l-0.6,-0.12l-0.39,-0.12l-0.16,-0.12l-0.07,-0.2l0,-0.22l0.03,-0.25l0.09,-0.22l0.31,-0.17l0.68,-0.04l0.58,0.02l0.53,0.39l0.17,0.09l0.19,0.03l0.37,-0.12l0.19,-0.03l0.47,0.04l-0.14,-0.18l-0.18,-0.1l-0.18,0.01l-0.16,-0.07l-0.26,-0.35l-0.45,-0.4l-0.1,-0.17l-0.03,-0.27l0.09,-0.23l0.32,-0.24l0.27,-0.32l0.12,-0.43l0.11,-0.2l0.23,-0.31l0.35,0.06l0.54,-0.23l0.89,0.04l1.06,-0.06l0.29,0.02l0.68,0.22l0.39,0.09l0.47,0.05l0.34,-0.1l-0.32,-0.3l-0.7,-0.36l-0.18,-0.3l0.32,-0.83l0.43,-0.76l0.26,-0.9l-0.07,-0.9l-0.13,-0.25l0.04,-0.29l0.15,-0.25l0.11,-0.25l-0.09,-0.3l-0.19,-0.47l-0.1,-0.15l-0.33,-0.25l-0.67,-0.01l-0.55,-0.14l-0.18,0.11l-0.1,0.17l-0.13,0.11l-0.42,0.23l-0.14,0.04l-0.15,-0.05l-0.21,-0.25l-0.19,0.03l-0.56,-0.16l-0.26,-0.35l-0.1,-0.05l-0.91,-0.28l-0.32,-0.05l-0.72,0.29l-0.53,0.37l-0.15,0.05l-0.27,0.23l-0.15,0.04l-0.16,-0.04l-0.15,0.01l-0.32,0.35l-0.57,0.4l-0.29,0.25l-0.32,0.16l-0.35,0.1l-0.36,0.02l-0.13,0.09l-0.41,0.03l-0.25,0.07l-0.01,0.14l0.05,0.31l-0.21,-0.11l-0.22,0.21l0.07,0.2l-0.13,-0.05l-0.63,-0.38l-0.52,-0.27l-0.46,-0.24l-0.07,-0.04l-0.13,-0.12l-0.09,-0.18l-0.02,-0.2l0.05,-0.15l0.11,-0.09l0.13,-0.04l0.12,0.03l0.13,0.09l0.23,0.11l0.3,0.02l0.19,-0.08l0.03,-0.2l-0.36,-0.74l-0.33,-0.6l-0.32,-0.67l-0.14,-0.24l-0.39,-0.56l-0.39,-0.55l-0.3,-0.49l-0.16,-0.15l-0.49,-0.06l-0.94,-0.12l-0.33,-0.06l-0.27,0.15l-0.27,0.12l-0.25,-0.21l-0.2,-0.35l-0.11,-0.3l0.05,-0.3l0.02,-0.45l-0.15,-0.44l-0.17,-0.22l-0.42,-0.16l-0.54,-0.37l-0.15,-0.68l0.26,-0.98l0.42,-0.7l0.31,-0.29l0.15,-0.26l0.05,-0.22l-0.04,-0.21l-0.18,-0.23l-0.28,-0.22l-0.14,-0.27l0.06,-0.58l0.19,-0.84l0.29,-0.67l0.39,-0.38l0.33,-0.27l0.13,-0.25l0.01,-0.36l-0.01,-0.34l0.09,-0.25l0.14,-0.2l0.15,-0.17l0.21,-0.2l0.27,-0.05l0.3,0.16l0.4,0.42l0.59,0.82l0.34,0.54l0.12,0.17l0.31,0.32l0.28,0.13l0.46,-0.2l0.45,-0.23l0.14,-0.15l0.09,-0.22l-0.07,-0.38l-0.09,-0.25l-0.1,-0.31l-0.14,-0.55l-0.1,-0.86l-0.11,-0.27l0.08,-0.03l0.22,0.06l0.21,0.02l0.3,-0.19l0.41,-0.36l0.74,-0.56l0.16,-0.37l0.13,-0.41l0.21,-0.25l0.47,-0.08l0.44,-0.13l0.31,-0.29l0.48,-0.26l0.4,-0.16l0.17,-0.14l0.13,-0.22l0.46,-0.61l0.36,-0.38l0.32,-0.39l0.11,-0.24l0.25,0.05l0.38,0.17l0.41,0.15l0.3,0.24l0.06,0.24l0.03,0.19l0.12,0.1l0.14,0.02l0.22,-0.05l0.38,-0.01l0.47,-0.32l0.65,-0.53l0.59,-0.17l0.31,0.13l0.26,0.39l0.21,0.37l0.21,0.14l0.13,0l0.05,0.01l0.26,-0.08l0.02,0l0.24,0.01l0.23,0.12l0.38,0.01l0.53,-0.1l0.06,-0.04l0.25,0.05l0.31,0.17l0.24,0.2l0.43,0.66l0.25,0.17l0.51,0.23l0.24,0.21l0.28,0.33l0.14,0.2l0.3,0.36l0.35,0.59l0.06,0.47l0.08,0.4l0.13,0.19l0.11,0.02l0.11,-0.07l0.11,-0.18l0.04,-0.3l-0.03,-0.53l-0.09,-0.44l-0.11,-0.14l-0.05,-0.15l0.08,-0.2l0.19,-0.1l0.24,0.06l0.39,0.25l0.41,0.32l0.51,0.55l0.46,0.35l0.51,0.28l0.4,0.08l0.31,-0.08l0.37,-0.23l0.34,-0.26l0.15,-0.28l0.11,-0.3l0.51,-0.41l0.47,-0.37l0.21,0.07l0.15,0.1l0.48,-0.23l0.17,-0.06l0.46,-0.09l0.47,0.13l0.38,0.4l0.36,0.26l0.33,-0.03l0.27,-0.13l0.18,-0.25l0.13,-0.29l0.18,-0.19l0.03,-0.01l0.58,0.1l0.36,-0.02l0.04,-0.04l0.48,0.08l0.53,0.41l0.33,0.46l0.42,0.58l0.2,0.19l0.28,0.08l0.22,0.03l0.3,0.09l0.79,0.12l0.12,0.07l0.08,0.09l-0.07,0.32l0.07,0.08l0.64,-0.22l0.17,-0.17l0.21,-0.48l0.19,-0.48l0.14,-0.18l0.15,-0.05l0.15,0.07l0.21,0.29l0.28,0.29l0.38,0.11l0.23,0.04l0.36,0.02l0.85,-0.14l0.8,-0.35l0.46,-0.38l0.21,-0.57l0.13,-0.65l0.2,-0.41l-0.08,-0.42l-0.4,-0.4l-0.14,-0.12l-0.98,-0.23l-0.06,-0.16l-0.06,-0.04l-0.96,-0.36l-0.46,-0.15l-0.13,-0.24l-0.09,-0.31l-0.3,-0.28l-0.6,-0.25l-0.1,-0.19l0.1,-0.2l0.47,-0.22l0.54,-0.46l0.21,-0.09l0.48,-0.02l0.44,-0.38l0.31,-0.22l0.16,-0.26l-0.04,-0.27l-0.44,-0.8l-0.13,-0.49l0.08,-0.32l0.25,-0.35l0.14,-0.19l0.17,-0.34l0.11,-0.18l0.45,-0.08l0.54,-0.03l0.37,0.08l0.52,0.04l0.47,0.06l0.24,0.06l0.18,-0.1l0.13,-0.18l0,-0.24l-0.19,-0.23l-0.7,-0.31l-0.3,-0.25l-0.23,0.03l-0.39,-0.08l-0.35,-0.17l-0.31,-0.06l-0.1,-0.23l0.06,-0.33l0.12,-0.19l0.23,-0.09l0.25,0.05l0.27,-0.14l0.08,-0.08l0.02,-0.1l-0.04,-0.15l-0.13,-0.12l-0.18,-0.03l-0.21,0.1l-0.25,0.07l-0.42,-0.15l-0.33,-0.18l0.02,-0.17l0.25,-0.25l0.11,-0.2v-0.28v-0.33l0.09,-0.39l0.25,-0.27l0.29,-0.14l0.74,0.26l0.93,0.23l0.16,-0.04l0.05,-0.12l0.11,-0.11l1.29,-0.05l0.25,-0.15l0.13,-0.12l1.24,-0.17l0.15,-0.16l0.18,-0.15l0.29,0l0.34,-0.06l0.47,-0.19l0.33,-0.1l0.06,-0.01l0.35,0.04l0.44,-0.15l0.09,-0.06l0.07,-0.11l0.38,-0.21l0.74,-0.18l0.18,0.11l0.35,0.05l0.45,-0.08l0.33,-0.13l0.19,0.13l0.26,0.14l0.2,-0.12l0.1,-0.37l0.13,-0.36l0.22,-0.17l0.17,-0.06l0.16,-0.14l0.12,-0.15l0.65,0.02l0.58,-0.36l0.11,0.16l0.75,-0.04l0.93,-0.23l0.56,-0.11l0.96,-0.24l0.45,-0.2l0.64,-0.12l0.59,-0.09l0.38,-0.35l0.31,-0.05l0.38,-0.03l0.23,-0.08l0.15,-0.13l0.1,-0.24l-0.05,-0.31l-0.05,-0.22l0.27,-0.13l0.38,-0.04l0.24,-0.05l0.53,-0.51l0.36,-0.25l0.38,-0.15l0.76,0.08l0.69,0.08l0.69,0.24l0.36,0.3l0.31,0.23l0.3,0.11l0.27,0.07l0.31,-0.1l0.22,-0.14l0.13,-0.2l0.19,-0.14l0.71,-0.11l0.15,0.22l0.34,0.65l0.23,0.87l0.38,1.14l0.17,0.56l-0.07,0.29l0,0.4l-0.02,0.44l-0.28,0.5l0.11,0.23l0.68,0.26l0.96,-0.09l0.59,-0.21l0.33,0.08l0.17,-0.12l0.11,-0.37l0.23,-0.08l0.23,0.26l0.17,0.43l0.16,0.28l-0.01,0.33l0.06,0.42l0.12,0.11l0.23,-0.16l0.16,-0.1l0.04,-0.13l-0.07,-0.16l-0.03,-0.16l0.05,-0.15l0.11,-0.06l0.33,0.05l0.49,0.08l0.58,0.6l0.31,0.11l0.13,0.01l0.29,-0.03l0.35,-0.17l0.24,-0.22l0.08,-0.11l0.14,0.02l0.13,0.1l0.01,0.22l-0.1,0.32l-0.35,0.29l-0.43,0.27l-0.26,0.49l-0.06,0.51l0.12,0.26l0.1,0.17l0.03,0.24l0.1,0.03l0.18,-0.1l0.49,-0.51l0.25,-0.13l0.36,-0.08l0.59,0.04l0.4,0.16l0.19,0.23l0.21,0.19l0.14,-0.08l0.07,-0.22l0,-0.25l0.06,-0.21l0.64,-0.51l0.43,-0.34l0.15,-0.04l0.29,0.07l0.18,-0.04l0.47,-0.32l0.44,-0.36l0.04,-0.25l0.02,-0.22l0.11,-0.1l0.62,-0.08l0.1,-0.04l0.53,-0.25l0.73,-0.43l0.35,-0.26l0.64,-0.11l0.12,-0.07l0.21,-0.17l0.4,-0.24l0.22,-0.03l-0.14,0.58l-0.24,0.67l-0.14,0.18l-0.65,-0.03l0,0.18l0.1,0.28l0.07,0.16l0.08,0.14l0.18,0.24l0.69,0.57l0.88,0.72l0.95,0.81l0.66,0.56l0.27,0.29l0.17,0.23l0.49,0.81l0.46,0.77l0.78,1.35l0.69,1.29l0.76,1.41l0.44,0.81l0.9,1.69l0.24,0.52l0.46,0.98l0.4,0.91l0.36,0.8l0.22,0.07l0.02,-0.22l0.04,-0.15l0.11,-0.08l0.26,-0.24l0.14,-0.06l0.21,0.02l0.22,-0.12l0.08,-0.23l-0.05,-0.42l-0.03,-0.19l0.08,-0.21l0.12,-0.08l0.17,-0.07l0.15,-0.03l0.13,-0.24l0.24,-0.07l0.22,0.04l0.18,0.01l0.16,0.17l0.09,0.24l0.17,0.02l0.28,-0.02l0.04,0.2l-0.08,0.33l-0.1,0.26l-0.02,0.21l0.15,0.1l0.55,-0.09l0.19,0.04l0.06,0.21l0.08,0.17l0.04,0.21l-0.06,0.23l0.1,0.14l0.47,0l0.33,-0.11l0.51,-0.01l0.46,0.25l0.32,-0.04l0.32,-0.1l0.47,0.06l0.33,-0.19l0.23,-0.24l0.07,-0.19l0.12,-0.11l0.44,0l0.28,-0.02l0.21,-0.28l0.19,-0.13l0.32,-0.02h0.23l0.63,0.26l0.38,0.22l0.4,0.31l0.24,0.19l0.16,0.43l0.27,0.32l0.22,0.37l0.05,0.37l0.18,0.65l0.18,0.21h0.22l0.28,0.09l0.3,0.07l0.65,0.49l0.24,0.01l0.18,0.12l0.03,0.22l-0.07,0.26l0.07,0.25l0.21,0.32l0.17,0.31l0.21,0.37l0.06,0.21l0.17,0.07l0.22,-0.11l0.36,0.08l1.07,0.21l0.15,0.03l0.11,0.22l0.16,-0.02l0.18,-0.01l0.25,0.03l0.17,-0.2l0.14,-0.18l0.35,-0.22l0.29,-0.3l0.25,-0.27l0.18,-0.04l0.15,0.12l0.01,0.23l-0.18,0.17l-0.14,0.2l0.03,0.2l0.25,0.02l0.27,0.3l0.4,0.71l0.13,0.15l0.2,0.14l0.22,0.06l0.24,0.1l0.18,0.29L720.77,304.92zM623.55,320.07l-0.05,0.04l-0.19,-0.11l-0.12,-0.18l0.15,-0.22l0.14,0.04l0.09,0.23L623.55,320.07zM616.9,321.82l-0.1,0.05l-0.06,-0.25l0.11,-0.21l0.15,-0.03l-0.05,0.33L616.9,321.82zM616.54,322.28l-0.1,0.11l-0.15,-0.02l-0.28,-0.42l0.08,-0.43l0.1,-0.09l0.14,-0.06l0.02,0.09l-0.2,0.19l-0.02,0.24l0.17,0.27L616.54,322.28z"/>
		<path id="TJ" title="Tajikistan" class="land" d="M674.84,339.81l0.01,0.07l-0.04,0.12l-0.58,0.21l-0.26,0.17l-0.06,0.31l-0.07,0.09l-0.12,0.07l-0.12,0.02l-0.18,-0.36l-0.2,-0.08l-0.29,-0.13l-0.57,-0.25l-0.29,-0.11l-0.57,0.16l-0.66,0.22l-0.1,0.13l-0.07,0.14l0.01,0.11l0.05,0.15l-0.03,0.11l-0.12,0.04l-0.19,-0.14l-0.16,-0.08l-0.08,0.19l-0.1,0.33l-0.04,0.24l0.14,0.35l0.05,0.51l0.26,-0.03l0.2,0l0.38,-0.15l0.19,0l0.29,0.07l0.52,0.01l0.41,-0.03l0.1,0.01l0.1,-0.1l0.11,0.03l0.1,0.12l0.41,-0.14l0.31,-0.02l0.19,0.04l0.11,0.04l0.2,0.34l0.15,0.21l0.19,0.07l0.58,-0.06l0.17,-0.3l0.15,-0.07l0.24,-0.02l0.2,-0.06l0.16,-0.12l0.21,-0.11l0.19,-0.02l0.09,0.08l0.04,0.1l-0.03,0.13l-0.01,0.14l0.12,0.09l0.35,0.02l0.17,0.09l0.01,0.16L677,343.2l0.15,0.1l0.08,0.01l0.52,-0.27l0.15,0l0.12,0.15l0.18,0.18l0.23,0.19l0.06,-0.03l0.1,-0.21l0.2,-0.23l0.37,-0.07l0.21,-0.07l0.21,-0.03l0.65,0.09l0.22,0.01l0.45,-0.02l0.35,-0.05l0.28,-0.14l0.14,-0.11l0.23,-0.06l0.29,0.01l0.16,0.03l0.01,0.19l-0.04,0.36l-0.04,0.25l0.23,0.45l0.15,0.22l0.15,0.15l0.03,0.12l-0.03,0.1l-0.18,0.1l-0.07,0.1l-0.03,0.11l0.06,0.13l0.1,0.42l0.13,0.33l0.19,0.16l0.28,0.1l0.16,-0.02l0.11,-0.25l0.19,-0.19l0.16,0.01l0.25,-0.01l0.66,0.21l0.65,0.32l0.19,0.18l0.07,0.2l-0.18,0.46l0.01,0.29l0.04,0.31l0.15,0.23l0.14,0.4l0.03,0.33l0.06,0.1l0.05,0.12l-0.07,0.3l-0.05,0.3l0.06,0.1l0.2,0.15l0.31,0.28l0.06,0.23l-0.11,0.15l-0.2,0.18l-0.25,0.15l-0.08,0.06l-0.04,-0.04l-0.13,-0.15l-0.28,-0.25l-0.2,-0.13l-0.38,0.04l-0.22,-0.05l-0.27,-0.08l-0.25,0.01l-0.16,0.15l-0.1,0.15l-0.25,0.05l-0.36,0.12l-0.56,0.18l-0.27,-0.03l-0.07,-0.08l0.06,-0.1l0.19,-0.13l0.05,-0.16l-0.04,-0.15l-0.18,-0.04l-0.07,-0.02l-0.08,-0.03l-0.35,-0.09l-0.28,0.03l-0.48,0.19l-0.89,0.5l-0.39,0.33l-0.28,0.5l-0.84,0.16l-0.58,0.29l-0.59,0.47l-0.39,0.25l-0.19,0.04l-0.19,-0.04l-0.19,-0.13l-0.19,-0.39l-0.17,-0.59l-0.11,-0.39l0.06,-0.51l0.07,-0.58l0.07,-0.59l0.12,-0.68l0.1,-0.24l0,-0.16l-0.08,-0.08l-0.18,0l-0.28,0.09l-0.2,0.02l-0.12,-0.06l0.01,-0.32l0.14,-0.58l-0.21,-0.49l-0.57,-0.4l-0.49,-0.14l-0.4,0.12l-0.34,0.31l-0.27,0.51l-0.28,0.41l-0.29,0.32l-0.21,0.15l-0.07,0.06l-0.04,0.14l0.16,0.43l-0.01,0.36l-0.18,0.29l-0.19,0.14l-0.21,-0.01l-0.17,-0.07l-0.12,-0.12l-0.34,-0.03l-0.55,0.06l-0.38,0.14l-0.2,0.23l-0.06,0.31l0.08,0.38l-0.04,0.29l-0.17,0.2l-0.14,0.12l-0.11,0.03l-0.24,-0.17l-0.37,-0.38l-0.25,-0.21l-0.14,-0.03l-0.07,0.02l-0.08,0.04l-0.05,0.05l-0.04,0.11l-0.12,0.04l-0.17,-0.04l-0.15,0.03l-0.09,0.12l-0.25,0.14l-0.45,0.16l-0.25,0.17l-0.04,0.18l-0.07,0.08l-0.14,-0.03l-0.4,0.25l-0.31,-0.08l-0.35,-0.32l-0.19,-0.27l-0.02,-0.11l0.11,-0.26l0.05,-0.85l0.14,-0.29l0.41,-0.53l0.21,-0.4l0.24,-0.33l0.17,-0.11l0.16,-0.26l0.13,-0.3l0.04,-0.19l-0.01,-0.15l-0.05,-0.1l-0.23,-0.2l-0.3,-0.32l-0.16,-0.32l-0.09,-0.41l-0.02,-0.29l0.28,-0.79l-0.04,-0.13l-0.08,-0.12l-0.17,-0.08l-0.24,-0.03l-0.24,0.04l-0.3,0l-0.21,-0.04l-0.05,-0.05l-0.03,-0.36l-0.05,-0.08l-0.09,-0.07l-0.61,-0.17l-0.12,-0.07l-0.02,-0.09l0.21,-0.81l0.09,-0.06l0.09,-0.13l0.14,-0.14l0.5,-0.23l0.53,0.1l0.47,0.11l0.47,0.06l0.16,0.04l0.27,0.03l0.18,-0.03l0.12,-0.09l0.22,-0.26l0.07,-0.39l0.08,-0.35l0.13,-0.03l0.14,0.04l0.06,-0.07l0.03,-0.1l0.03,-0.08l0.06,-0.02l0.1,0.09l0.06,-0.02l0.05,-0.06l-0.01,-0.07l-0.11,-0.12l-0.1,-0.19l0.01,-0.07l0.03,-0.07l0.29,-0.06l0.13,-0.01l0.05,-0.07l-0.02,-0.11l-0.11,-0.06l-0.4,0.03l-0.41,-0.01l-0.05,-0.07l0.02,-0.07l0.06,-0.06l0.84,-0.15l0.45,0.05l0.33,0.08l0.13,-0.04l-0.15,-0.33l0.21,-0.03l0.03,-0.11l-0.28,-0.88l0.15,-0.08l0.15,-0.17l-0.01,-0.33l0.13,-0.16l0.16,-0.11l0.24,0.11l0.37,0.32l0.12,0.06l0.12,0.02l0.17,-0.1l0.65,-0.32l0.37,-0.18l0.44,-0.26l0.08,-0.1l0.15,-0.4l0.08,-0.03l0.11,0.04l0.38,0.41l0.22,0.27v0.09l-0.06,0.07l0.01,0.07l0.31,0.14v0.07l-0.07,0.13l-0.04,0.07l-0.04,0.03l-0.42,0.36l-0.47,0.4l-0.02,0.05l-0.02,0.1l0,0.1l0.08,0.08l0.2,0.06l0.18,0.08l0.09,0.21l0.1,0.19l0.14,0.05l0.69,-0.12L674.84,339.81zM673.99,337.25l-0.08,0.01l-0.15,-0.18l-0.05,-0.12l0.06,-0.04l0.13,0.09l0.09,0.15L673.99,337.25zM674.12,341.32l-0.25,0.14l-0.15,-0.02l-0.11,-0.14l-0.08,-0.13l-0.02,-0.07l0.04,0l0.19,0.06l0.27,0.04l0.1,0.04L674.12,341.32z"/>
		<path id="TM" title="Turkmenistan" class="land" d="M662.39,350.18l-0.14,0.01l-0.34,-0.08l-0.68,-0.16l-0.58,-0.33l-0.38,-0.22l-0.06,0.03l-0.17,0.15l-0.12,0.18l-0.09,0.35l-0.15,0.41l-0.71,0.02l-0.6,0.03l-0.39,0.16l-0.38,0.22l-0.09,0.25l-0.08,0.33l-0.22,0.75l-0.2,0.68l-0.1,0.44l-0.15,0.3l-0.43,0.4l-0.49,0.27l-0.26,0.13l-0.11,0.16l-0.03,0.15l-0.09,0.04l-0.2,-0.03l-0.21,0.03l-0.47,0.15l-0.5,0.19l-0.6,0.19h-0.34l-0.14,0.04l-0.06,0.1l0.06,0.18l0.06,0.13l0.05,0.17l-0.14,0.14l-0.1,0.24l-0.08,0.42l-0.21,0.13l-0.34,0.2l-0.38,0.27l-0.1,0.05l-0.22,0.08l-0.22,-0.02l-0.2,-0.04l-0.21,0.07l-0.22,0.21l-0.1,-0.06l-0.05,-0.21l-0.11,-0.14l-0.35,-0.31l-0.3,-0.22l-0.13,-0.01l-0.27,0.06l-0.34,0.04l-0.28,-0.04l-0.22,-0.09l-0.34,-0.3l-0.12,-0.16l-0.09,-0.13l-0.23,0.03l-0.07,-0.14l-0.01,-0.16l0.06,-0.19l-0.02,-0.36l-0.13,-0.26l-0.15,-0.11l0.02,-0.08l0.07,-0.18l0.08,-0.16l0,-0.32l-0.1,-0.34l-0.04,-0.5l0.03,-0.48l-0.14,-0.24l-1.16,0l-1.03,0.02l-0.06,-0.06l-0.4,-0.61l-0.32,-0.47l-0.32,-0.28l-0.73,-0.34l-0.35,-0.14l-0.3,-0.26l-0.25,-0.28l-0.06,-0.39l-0.05,-0.13l-0.07,-0.1l-0.08,-0.05l-0.09,0.01l-0.85,-0.45l-0.34,-0.12l-0.32,0.1l-0.14,0.02l-0.28,-0.13l-0.32,0.18l-0.14,0.01l-0.19,-0.04l-0.16,-0.07l-0.43,-0.41l-0.36,-0.17l-0.26,-0.11l-0.5,-0.16l-0.53,-0.08l-0.27,-0.07l-0.2,-0.09l-0.05,-0.06l0,-0.15l-0.01,-0.2l-0.07,-0.15l-0.13,-0.17l-0.19,-0.13l-0.32,0.02l-0.48,-0.01l-0.37,-0.13l-0.29,-0.02l-0.35,0.02l-0.29,0l-0.21,0.1l-0.12,0.11l-0.08,0.34l-0.07,0.05l-0.12,0.03l-0.16,-0.02l-0.34,0l-0.59,-0.06l-0.74,-0.02l-0.55,0.17l-0.44,0.25l-0.42,0.28l-0.49,0.44l-0.14,0.2l-0.29,0.78l-0.13,0.11l-0.17,0.09l-0.17,0.02l-0.34,0.12l-0.45,0.19l-0.3,0.07l-0.78,-0.04l-0.05,-0.25l-0.14,-0.9l-0.07,-0.91l0,-0.42l0.08,-0.85l-0.01,-0.43l-0.03,-0.39l0.03,-0.38l0.06,-0.43l0.03,-0.44l-0.05,-0.31l-0.15,-0.25l-0.25,-0.31l-0.04,-0.18l-0.01,-0.2l-0.24,-0.02l-0.22,-0.21l-0.18,-0.11l-0.39,-0.13l-0.19,-0.01l-0.18,0.09l-0.13,0.19l-0.09,-0.29l0,-0.31l0.31,-0.64l0.2,0.19l0.24,0.07l0.3,0.01l0.3,-0.05l-0.06,-0.22l-0.14,-0.12l-0.17,-0.1l-0.06,-0.29l0.02,-0.3l0.08,-0.28l-0.09,-0.11l-0.14,-0.07l-0.33,0.01l-0.42,-0.08l-0.42,-0.03l-0.1,0.34l0.23,0.44l-0.2,-0.22l-0.19,-0.29l-0.26,-0.52l-0.17,-0.61l-0.03,-0.66l0.14,-0.54l0.18,-0.51l0.11,-0.66l0.15,-0.65l0.15,0.29l0.17,0.26l0.24,0.24l0.13,0.06l0.4,0.1l0.25,-0.04l0.27,-0.14l0.27,0.05l0.22,0.27l0.2,0.3l0.3,0.06l0.61,-0.22l0.29,-0.05l0.25,0.1l0.13,0.02l0.13,-0.02l-0.12,-0.26l-0.05,-0.26l0.15,-0.14l0.48,0.14l0.31,-0.1l0.08,-0.05l0.07,-0.07l0.04,-0.22l-0.01,-0.23l-0.04,-0.22l-0.09,-0.19l-0.22,-0.27l-0.86,-0.63l-0.29,-0.25l-0.24,-0.33l-0.15,-0.46l-0.13,-0.48l-0.12,-0.36l-0.3,-0.84l-0.12,-0.1l-0.15,-0.04l-0.36,-0.03l-0.36,0.06l-0.59,0.14l-0.34,-0.04l-0.16,0.09l-0.39,0.35l-0.18,0.3l-0.25,0.69l0.19,0.22l0,0.15l-0.15,1.01l0.09,0.49l-0.03,0.04l-0.07,-0.11l-0.22,-0.5l-0.39,-0.61l-0.32,-0.94l0.57,-0.62l0.49,-0.44l0.4,-0.26l0.12,-0.06l0.54,-0.22l0.7,-0.2l0.52,-0.15l0.68,-0.12l0.22,-0.02l0.33,0l0.26,0.12l0.16,0.09l0.56,0.38l0.58,0.38l0.49,0.43l0.14,0.17l0.08,0.21l0.06,0.2l0.42,0.64l0.17,0.29l0.25,0.38l0.2,0.19l0.19,0.23l0.13,0.19l0.15,0.09l0.16,0.04l0.37,-0.06l0.45,-0.12l0.27,-0.05l0.12,0.01l0.74,0.04l0.67,0.04l0.82,0.05l0.25,0.04l0.29,0.04l0.15,0.01l0.13,-0.16l0.09,-0.09l0.07,-0.07l-0.01,-0.08l-0.1,-0.07l-0.16,-0.23l-0.09,-0.82l-0.06,-0.7l0.2,-0.22l0.22,-0.16l0.32,-0.48l0.17,-0.15l0.25,-0.12l0.85,-0.03l0.36,-0.09l0.12,-0.16l0.19,-0.39l0.06,-0.32l0.11,-0.15l0.13,-0.11l0.13,0l0.25,0.09l0.19,0.05l0.14,0.07l0.13,0.11l0.12,0.2l0.02,0.13l0.06,0.08l0.1,0l0.07,0l0.05,-0.03l0.03,-0.07l-0.02,-0.09l-0.17,-0.25l-0.36,-0.46l-0.24,-0.19l-0.12,-0.1l-0.03,-0.1l0.15,-0.15l0.15,-0.08l0.26,0.06l0.35,0.03l0.15,-0.07l0.16,-0.37l0.4,0.39l0.41,0.44l0.15,0.08l0.29,0.05l0.25,0.02l0.1,0.05l0.11,0.11l0.22,0.48l0.22,0.12l0.27,0.09l0.88,-0.01l0.27,0.02l0.22,0.22l0.14,0.09l0.06,0.08l-0.01,0.1l-0.05,0.12l-0.01,0.24l-0.01,0.19l-0.07,0.09l-0.02,0.08l0.06,0.07l0.41,0.18l0.14,0.19l0.1,0.08l0.02,0.12l-0.07,0.08l-0.19,-0.04l-0.09,0.12v0.22l0.14,0.21l0.04,0.19l-0.09,0.18l-0.11,0.26l0,0.18l0.06,0.1l0.31,0.19l0.71,0.47l0.17,0.02l0.68,-0.11l0.32,-0.01l0.19,0.07l0.52,0.07l0.17,0.08l0.18,0l0.24,-0.02l0.16,-0.21l0.08,-0.05l0.07,-0.04l0.15,-0.01l0.41,0.13l0.44,0.28l0.29,0.26l0.14,0.23l0.18,0.51l0.22,0.78l0.26,0.52l0.31,0.27l0.22,0.5l0.19,1.08l0.12,0.22l0.12,0.11l0.35,0.31l0.72,0.52l0.42,0.3l0.66,0.48l0.6,0.44l0.6,0.68l0.12,0.1l0.53,0.37l0.59,0.38l0.41,-0.08l0.62,0.58l0.25,0.21l0.11,0.07l0.45,0.23l0.72,0.48l0.91,0.68l0.6,0.39l0.16,0.05l0.16,0l0.17,-0.08l0.19,-0.07l0.32,0.09l0.35,0.16l0.22,0.12l0.25,0.17l0.2,0.16l0.15,0.08l0.52,0.14l0.09,0.08l0.06,0.1l0.01,0.1l-0.29,0.52l-0.04,0.66l0,0.5L662.39,350.18zM624.75,345.02l-0.03,0.17l-0.15,-0.51l-0.08,-0.56l0.1,-0.16l0.11,0.01l-0.1,0.2L624.75,345.02z"/>
		<path id="UZ" title="Uzbekistan" class="land" d="M674.81,332.34l0.09,-0.07l0.16,-0.07l0.26,0.13l0.23,0.16l0.06,0.08l-0.01,0.09l-0.55,0.32l-0.34,0.15l-0.15,0.03l-0.04,0.04l-0.11,0.36l-0.21,0.07l-0.27,0.11l-0.19,0.17l-0.3,0.4l-0.77,0.58l-0.01,0.12l0.07,0.1l0.25,0.07l0.33,0.18l0.18,0.14l0.49,-0.18l0.12,0.04l0.13,0.18l0.13,0.51l0.22,0.14l0.29,0.11l0.18,0.03l0.24,0.13l0.32,0.05l0.21,-0.05l0.26,0.11l0.04,-0.05l0.04,-0.77l0.22,0.13l0.13,0l0.11,-0.09l0.06,-0.13l0.04,-0.25l-0.05,-0.25l0.1,-0.12l0.08,-0.03l0.06,0.03l0.03,0.06l0.01,0.23l0.16,0.1l0.1,0.06l0.09,0.19l0.09,0.19l0.06,0.43l0.22,0.03l0.26,0.08l0.18,-0.08l0.14,0.05l0.05,0.21l0,0.19l0.02,0.15l0.07,0.04l0.23,-0.1l0.19,-0.01l0.18,0.09l0.22,0.14l0.32,0.36l0.11,0.05l0.48,0.03l0.1,0.07l0.17,0l0.18,-0.07l0.4,0.12l0.01,0.07l-0.07,0.09l-0.95,0.5l-0.07,0.15l-0.19,0.2l-0.21,0.11l-0.1,0l-0.46,-0.2l-0.05,0.05l-0.04,0.08l0,0.09l0.1,0.21l-0.05,0.13l-0.09,0.09l-0.29,-0.08l-0.05,-0.05l-0.01,-0.06h-0.11l-0.17,0.06l-0.33,0.36l-0.12,0.19l-0.04,0.11l-0.15,0.06l-0.16,0.02l-0.2,0.17l-0.23,0.13l-0.07,-0.1l-0.04,-0.11l-0.06,-0.03l-0.14,0.03l-0.17,0l-0.18,-0.12l-0.23,-0.12l-0.2,-0.04l-0.59,0.06l-0.29,0.06l-0.09,0.06l-0.16,0.02l-0.69,0.12l-0.14,-0.05l-0.1,-0.19l-0.09,-0.21l-0.18,-0.08l-0.2,-0.06l-0.08,-0.08l0,-0.1l0.02,-0.1l0.02,-0.05l0.47,-0.4l0.42,-0.36l0.04,-0.03l0.04,-0.07l0.07,-0.13v-0.07l-0.31,-0.14l-0.01,-0.07l0.06,-0.07v-0.09l-0.22,-0.27l-0.38,-0.41l-0.11,-0.04l-0.08,0.03l-0.15,0.4l-0.08,0.1l-0.44,0.26l-0.37,0.18l-0.65,0.32l-0.17,0.1l-0.12,-0.02l-0.12,-0.06l-0.37,-0.32l-0.24,-0.11l-0.16,0.11l-0.13,0.16l0.01,0.33l-0.15,0.17l-0.15,0.08l0.28,0.88l-0.03,0.11l-0.21,0.03l0.15,0.33l-0.13,0.04l-0.33,-0.08l-0.45,-0.05l-0.84,0.15l-0.06,0.06l-0.02,0.07l0.05,0.07l0.41,0.01l0.4,-0.03l0.11,0.06l0.02,0.11l-0.05,0.07l-0.13,0.01l-0.29,0.06l-0.03,0.07l-0.01,0.07l0.1,0.19l0.11,0.12l0.01,0.07l-0.05,0.06l-0.06,0.02l-0.1,-0.09l-0.06,0.02l-0.03,0.08l-0.03,0.1l-0.06,0.07l-0.14,-0.04l-0.13,0.03l-0.08,0.35l-0.07,0.39l-0.22,0.26l-0.12,0.09l-0.18,0.03l-0.27,-0.03l-0.16,-0.04l-0.47,-0.06l-0.47,-0.11l-0.53,-0.1l-0.5,0.23l-0.14,0.14l-0.09,0.13l-0.09,0.06l-0.21,0.81l0.02,0.09l0.12,0.07l0.61,0.17l0.09,0.07l0.05,0.08l0.03,0.36l0.05,0.05l0.21,0.04l0.3,0l0.24,-0.04l0.24,0.03l0.17,0.08l0.08,0.12l0.04,0.13l-0.28,0.79l0.02,0.29l0.09,0.41l0.16,0.32l0.3,0.32l0.23,0.2l0.05,0.1l0.01,0.15l-0.04,0.19l-0.13,0.3l-0.16,0.26l-0.17,0.11l-0.24,0.33l-0.21,0.4l-0.41,0.53l-0.14,0.29l-0.05,0.85l-0.11,0.26l-0.02,-0.1l-0.15,-0.1l-0.26,0.02l-0.17,-0.05l-0.08,-0.11l-0.21,0.03l-0.34,0.17l-0.35,-0.09l-0.36,-0.35l-0.68,-0.13l-0.86,0.08l-0.03,-0.39l0,-0.5l0.04,-0.66l0.29,-0.52l-0.01,-0.1l-0.06,-0.1l-0.09,-0.08l-0.52,-0.14l-0.15,-0.08l-0.2,-0.16l-0.25,-0.17l-0.22,-0.12l-0.35,-0.16l-0.32,-0.09l-0.19,0.07l-0.17,0.08l-0.16,0l-0.16,-0.05l-0.6,-0.39l-0.91,-0.68l-0.72,-0.48l-0.45,-0.23l-0.11,-0.07l-0.25,-0.21l-0.62,-0.58l-0.41,0.08l-0.59,-0.38l-0.53,-0.37l-0.12,-0.1l-0.6,-0.68l-0.6,-0.44l-0.66,-0.48l-0.42,-0.3l-0.72,-0.52l-0.35,-0.31l-0.12,-0.11l-0.12,-0.22l-0.19,-1.08l-0.22,-0.5l-0.31,-0.27l-0.26,-0.52l-0.22,-0.78l-0.18,-0.51l-0.14,-0.23l-0.29,-0.26l-0.44,-0.28l-0.41,-0.13l-0.15,0.01l-0.07,0.04l-0.08,0.05l-0.16,0.21l-0.24,0.02l-0.18,0l-0.17,-0.08l-0.52,-0.07l-0.19,-0.07l-0.32,0.01l-0.68,0.11l-0.17,-0.02l-0.71,-0.47l-0.31,-0.19l-0.06,-0.1l0,-0.18l0.11,-0.26l0.09,-0.18l-0.04,-0.19l-0.14,-0.21v-0.22l0.09,-0.12l0.19,0.04l0.07,-0.08l-0.02,-0.12l-0.1,-0.08l-0.14,-0.19l-0.41,-0.18l-0.06,-0.07l0.02,-0.08l0.07,-0.09l0.01,-0.19l0.01,-0.24l0.05,-0.12l0.01,-0.1l-0.06,-0.08l-0.14,-0.09l-0.22,-0.22l-0.27,-0.02l-0.88,0.01l-0.27,-0.09l-0.22,-0.12l-0.22,-0.48l-0.11,-0.11l-0.1,-0.05l-0.25,-0.02l-0.29,-0.05l-0.15,-0.08l-0.41,-0.44l-0.4,-0.39l-0.16,0.37l-0.15,0.07l-0.35,-0.03l-0.26,-0.06l-0.15,0.08l-0.15,0.15l0.03,0.1l0.12,0.1l0.24,0.19l0.36,0.46l0.17,0.25l0.02,0.09l-0.03,0.07l-0.05,0.03l-0.07,0l-0.1,0l-0.06,-0.08l-0.02,-0.13l-0.12,-0.2l-0.13,-0.11l-0.14,-0.07l-0.19,-0.05l-0.25,-0.09l-0.13,0l-0.13,0.11l-0.11,0.15l-0.06,0.32l-0.19,0.39l-0.12,0.16l-0.36,0.09l-0.85,0.03l-0.25,0.12l-0.17,0.15l-0.32,0.48l-0.22,0.16l-0.2,0.22l0.06,0.7l0.09,0.82l0.16,0.23l0.1,0.07l0.01,0.08l-0.07,0.07l-0.09,0.09l-0.13,0.16l-0.15,-0.01l-0.29,-0.04l-0.25,-0.04l-0.82,-0.05l-0.67,-0.04l-0.74,-0.04l0,-0.86v-0.86v-0.86l0,-0.87v-0.87v-0.87l0,-0.88v-0.88V328v-0.89l0,-0.89v-0.89v-0.9l0,-0.9v-0.9v-0.91l0.35,-0.11l0.44,-0.14l0.42,-0.14l0.5,-0.16l0.57,-0.18l0.49,-0.16l0.58,-0.19l0.44,-0.14l0.42,-0.13l0.53,-0.16l0.83,-0.25l0.46,-0.14l0.47,-0.14l0.44,-0.13l0.3,-0.05l0.32,0.19l0.39,0.26l0.39,0.26l0.39,0.26l0.39,0.26l0.39,0.26l0.39,0.26l0.39,0.26l0.39,0.26l0.39,0.26l0.39,0.26l0.39,0.26l0.39,0.26l0.39,0.26l0.39,0.26l0.39,0.26l0.39,0.26l0.36,0.24l0.16,0.18l0.09,0.39l0.18,0.31l0.31,0.34l0.32,0.34l0.4,0.45l0.27,0.31l0.28,0.32l0.46,0.53l0.29,0.33l0.23,0.01l0.46,-0.08l0.62,-0.1l0.49,-0.08l0.59,-0.1l0.57,-0.09l0.45,-0.08l0.67,0.06l0.66,0.06l0.47,0.04l0.46,0.04l0.55,0.05l0.31,0.03l0.35,0.03l0.15,-0.08l0.3,-0.16l0.29,-0.15l0.3,-0.16l0.26,-0.08l0.27,0.25l0.23,0.29l0.24,0.31l0.28,0.3l0.27,0.17l0.36,0.24l0.21,0.4l0.28,0.54l0.18,0.35l0.19,0.36l0.28,-0.14l0.29,-0.15l0.27,-0.14l-0.03,0.45l-0.03,0.41l-0.04,0.61l-0.04,0.5l-0.1,0.6l-0.01,0.45l-0.01,0.4l0,0.32l0.51,0.01l0.38,0.01l0.48,0.01l0.05,0.4l0.06,0.56l0.1,0.5l0.08,0.42l0.12,0.54l0.07,0.29l0.11,0.34l0.11,0.08l0.18,0.05l0.63,-0.04l0.52,-0.03l0.41,-0.03l0.44,-0.03l0.58,-0.04l0.2,0.09l0.17,-0.06l0.2,-0.06l0.16,0.25l0.08,0.13l0.11,0.13l0.15,0.12l-0.06,0.25l-0.09,0.37l-0.03,0.19l0.18,0.2l0.13,0.12l0.37,0.24l0.35,0.14l0.23,0.04l0.22,-0.05l0.08,-0.14l-0.02,-0.19l-0.1,-0.2l0.01,-0.24l0.07,-0.17l0.22,-0.32l0.21,-0.3l0.32,-0.3l0.38,-0.3l0.16,-0.22l0.06,-0.38l0.25,-0.22l0.27,-0.13l0.33,-0.11l0.09,-0.19l0.46,-0.33l0.28,-0.16l0.35,-0.09l0.48,-0.21l0.38,-0.25l0.37,-0.47l0.29,-0.31l0.24,-0.19l0.21,-0.01l0.14,0.15l0.12,0.01l0.08,-0.07l0.14,-0.2l0.15,-0.23l0.14,-0.1l0.27,-0.05L674.81,332.34zM673.99,337.25l-0.01,-0.09l-0.09,-0.15l-0.13,-0.09l-0.06,0.04l0.05,0.12l0.15,0.18L673.99,337.25zM675.54,341.08l-0.14,0.03l-0.26,-0.01l-0.15,-0.04l0.09,-0.3l0,-0.06l-0.01,-0.01l-0.07,-0.04l-0.11,-0.12l-0.04,-0.18l0.04,-0.17l0.08,-0.07l0.05,0.01l0.16,0.25l0.14,0.07l0.28,0.04l-0.14,0.25l0.1,0.27L675.54,341.08zM677.15,340.87l-0.08,0.16l-0.13,-0.04l-0.1,-0.1l0.03,-0.08l0.16,-0.04l0.08,-0.04l0.07,-0.01L677.15,340.87z"/>
	
	</g>
</svg>