<svg xmlns="http://www.w3.org/2000/svg"><defs><style>.land{fill:#ccc;fill-opacity:1;stroke:#fff;stroke-opacity:1;stroke-width:.5}</style></defs><path id="RU" d="m709.08 147.41-.96-.17.24-.38.69-.23 1.02.3.29.34-.19.18-.15.24-.13-.03-.11.12-.7-.37zm4.36-3.35.14-.62.32-.59-.54.03-.39.23-.42.38.11.25.78.32zm5.56-4.75.66.19.24-.33.32-.84-.2-.46-.15-.1-.74.31-.24-.2-.13-.12-.28.29-.49.29-.2.49.37.46.84.02zm27.78-15.43.07-.5-.23-.17-.73-.32-.34.4-1.02-.26-.54.52-.6-.47-.16.32-.03.55 1.03.25.46.39.74.06.54.4.15-.65-.01-.41.38-.25.29.14zm-42.13 10.17.21.47.12.09.46-.4.13.59.21.17.2-1.04.36.02.12-.13-.04-.4-.1-.36-.02-1.08-.4.02-.31.18-.01.42.05.56-.24.03-.37-.49-.59.93.09.31.13.11zm2.52 13.35.38.2.27-.35-.06-.21-.22-.38-.24-.13-.4.12-.15.19.15.33.27.23zm21.05-94.47 3.5.89.97-1.4-.25-.78-1.04-.28-2.92-.27-.47.79.05.4.16.65zm-1.9 59.2.6-.06.43-.83.04-.33-.18-.39-.94.12-.23.38-.16.57.11.21.33.33zm17.91 2.05.24.38.25.2.66-.34.33.13.12-.19.09-.24.39-.56.38-.73v-.31l-.09-.65-1.89 1.36-1.22.52-.42.47.26.09.9-.13zm-5.83-39.26.56-1.4-.9-.59-2.5-.89-1.18-.79-1.18-.11-.92.05-.55.3-.45.8.16 1.23.7 1.11.86.71 1.32 1.67.8.14.68-.15.68-.3.64-.52.64-.73.64-.53zm-5.52-7.36.71.34.56.43.31.73 2.25 1.27 1.83 1.5.61-.01 1.28-1.07.66-.82.27.05.84-.45 2.51-.44 3.7-1.06.35-.53.33-.84-.37-.32-.1-.34-.38-2.25-.12-.4-.12-.26.25-1.34.3-.66 1.25-.44.23-.36.31.01.04-1.14-.11-.61-.36-.5-.81-.27-1.85-2.06-.17-.65-.37-.65-.1-.82-.16-.43-.8-1.54-.31-.16-.26-.34-.23-.91-.29-.37-1.8.18-.28 1.53-.63.89-.63.45-.66.13-.66.32-.71.56-.71.36-.39-.02-.39.14-.82.78-.36 1.12-.49.58-.15.37-.28 1.1-.05.51.51.21 1.37-.4-.79 1.54-.43 1.46-.7 1.46-.93.58-.98.37-.59 1-.46 1.01.33 1.48zm-35.8 92.86 1.54.39.2-.11.1-.45.01-1.42-.36-.62-.16-.53-.54-.54-1.42 1.94-.07.4.16.45.54.49zm.61-102.11 2.6-.64.89-.35.08-.26.15-.8-.41-.39-1.33-.46-1.65.27-.3.65-.37 1.33.08.24.26.41zm-4.83 103.87-.33.74-.31.44-.69.68-.09.45.1.18.67.15 1.37-.09.42-.16.64-.78.41-.23.59-.61-.04-.2-.21-.46-1.49-.73h-.48l-.56.62zm-30.7 15.99-.06.13-.07.25.04.94.11.46.19.39.15.11-.02-.34-.29-1.33.01-.6-.06-.01zM639.01 53.26l-.25-.36-.15-.08-1.1 1.57-.69-.27-.56.53.54 1.82.97.46.53 1.69.98.5 1-.05.61-.2.2-.92-.08-1.17-.25-.64-.15-1.02-.39-.91-.32-.36-.89-.59zm-6.92 17.02.25.29 1.09.17 2.21.08.26-.38-.02-.73.13-.9.01-2.04-.12-.57-.38-.26-.67.05-.15.55-1.77-.18-.1.36.06 1.93-.2.67-.6.96zm-1.49-2 .8-.78-.13-.47-.23-.26-.32-.13-.42.5-.3.65.19.46.41.03zm58.82 10.37.85.52.5.02.04.79.45.06 2.19-.19-.11-.35-.53-.5-2.5-1.34-.27.44-.35-.56-.28-.21-.27.31.06.3.22.71zm-.04 74-.16.31.42.47 1.19.36.27-.06-1.42-1.08h-.3zm-4.78 6.29.43.25.14.17.06-.09.1-.33-.1-.21-.04-.38.27-.61.61-.29-.66-.44-.35-.13-.54-.08-.59.21-.16.33-.12.51.23.44.72.65zm3.91-5.35.21-.22.42-.67-.03-.11-.31-.14-1.01.33-.55.63-.09.44.45-.24.91-.02zm-16.02 3.92.5.11.23-.03.82-.45.6-.24 1.32-.41.76-.11.01-.49-.11-.57-.41-.58-.26-.29-.34-.74-.25-.3-.33-.26-.23-.1-1.66.36-.56.32-.43.84.06 1.32-.09.53-.16.41-.03.41.34.46.22-.19zm221.95-39.09.18-.86.39-.43-1.93.44-.76.85-.14.35 2.11-.14.15-.21zm-26.71 35.5.28.69h.39l.29-.06 1.03-.73.76-.16.26.06 1.2.56 1.16.77 1.49.28.61.28h.69l.71.08.99.23.72-.1.11-.15-.08-2.08-.15-.61-.19-.47-1.98-2.34-.57-.49-.7-.45-.71-.19-.7.11-1.04.33-.34-.05-.29.11-.28.35-.28.54-.52 1.48-.29.64-.6.81-.63.25-.66.09-.68.22zm-7.52-18.81.59 1.22.64.76.34.15.32.35.65 1.49.24.47.26.32 2.17 1.03.33.29.33.18.33-.03.31-.29.29-.66.23-.95.1-.71.16-.45.21-.2h.22l.71.74.72.51.55-.1.55-.28 1.82-.45.62-.26.61-.38.67-.09.32.44.24.55.29.53.26.23.26.09.43-.18.43-.33.98-1.11-.56-1-.65-.44-.23-.33-.99-2.34-.19-.52-.13-.72-.18-2.28.62-.35.68-.33 1.1.09.17.61-.05.3-.33.69-.37.31-.1 1.07.08 1.24.25.77.29.55.7 1.1.63.37.65-.01 1.11.43.55-.16.54-.47 1.33-1.83-.19-.61-.25-.46.21-.56.62-.82.94-.46-.14-.38-.15-.24-4.4-3.16-.35.04-.7.44-.35.1-.72-.15-.72-.42-.59-.46-1.29-1.62-.73-.75-.72-.34-.52.86-.75.87-.13.28-.1.43-.07.7v.78l.04.56.01.56-.15.55-.21.24-.45-.04-.15-.11-.16-.22-.14-.3-.3-1.21-.32-.3-.34.14-.29-.22-.86-1.43-.6-.7-.89-.78-.29-.32-.26-.61-.28-.43-.3-.03-1.08.82-.63.18-.31.4-.16.39-.17.23-.57.14-.42.32-.18.38-.17.53.26.99.32.73-.98-.25-.25.37-.15 2.21.21 2.3-.35.02-.52-.21-.1.44.04.61.15.35zm27.83 1.89.61.7.32.15 1.04.27.32.29.65.8.34.34.57.27 2.11.3h1.53l.68-.24 1.38-.77.7-.56.19-.28.49-2.3-.18-.06-.19.08-.22.38-.23.22-.32-.38-.38-.33-.5-.61-1.29-.28-1.58-.19-.54.37-.85-.09-.32-.4.04-.41.08-.3-.03-.57-.21-.29-2.63-.3-.15.03-1.08.82-.74-.07-.13-.64.01-.91-.6-.8-.28.27-.27.87-.24.97-.2 1.09-.11 1.07 1.56.92.65.57zm-25.56 34.08-1.5.07-.32.2-.11.01-.13.12-.05.11.04.25.52.41.22-.04.17-.15.15-.05.15.08.28.36.28.09.7-.75-.07-.31-.21-.36-.12-.04zm7.28-22.11.27.03 1.41-.82.1-.52.14-1.2-.05-.43-.12-.34-.26-.23-.27-.09-1.24.08-.3.1-.3.21-.26.54.23 1.84.65.83zM641.55 49.64l.61-.24.17-.37-.26-.77-.58-.59-.55.11-.69.59-.07.43.31.44 1.06.4zm335.93 128.11.19-.04.82-.46 1.39-.16.66-.66.33-.15.75.18.64.41.25.04.73-.18 1.76-.64 1.31-.23.68-.22.84-.86.07-.45-.09-.38-.15-.16-.65-.51-.44-.44-.23-.41-.22-.25-.23-.14-.39-.42-.24-.11-1.23-.32-.33-.14-.33-.03-.41.22-.41.04-.4-.14-.41.04-.43.24-.44.12-.32.13-.48.5-.47.16-.88 1.08-.97.82-.17.46-.41.63-.16.5.06.4.41 1.53zm-30.31 8.71.43.51.57.4 1.59.75.8-.07.13-.17.05-.22.1-.86.09-.28.24-.08.04-.43-.04-.19-.13-.22-2.85-1.09-.45.06-.38.27-.55.6-.14.23-.07.29.09.14.48.36zm-89.93-53.28.2-.32-.16-.53.05-.4.52-.94-.12-.23-.63-.78-.16-.4-.17-.79-.25-.54-.24.9-.1.64-.05.83.09.68-.19.91-.14.36-.06.82.83.08.58-.29zm70.66 57.91.03.68.13.23.51.29.27.38-.01.23-.09.52.13-.01.11-.21.03-.33-.06-.36-.28-.71-.05-.69-.01-.78-.06-.61.07-.35.47-.18.19-.51.02-.73-.27-.33-.04-.04-.27.35-.24.44-.6.57-.08.51.23.57-.13 1.07zm-23.13-66.04-.06-.49-.08-.26-.1-.11-.44.24-.24.37.64.68.28-.43zm21.8 52.84.19-.14-.21-.52-.22-.34-.33-.09-.02.1-.01.61.19.27.41.11zM749.58 69.24l-1.31.25-1.98.8-.39-.09-.32.22-.85-.22-1.01.07-.3.53-.15.5-.16.19-.83-1.08-.11.12-.37.89-.27.38-1.04 1.12-.25 1.79-.61 1.17-.54.86-1.24 1.1-.94 2.11.57.57.58-.07.79.17 1.29.75.27 1.44.47 1.34.39.39.03.77.06.2.39.61.64.5.32.05.85-.74.26.02.48 1.27.26.16 1.55-.21.23.19 1.06.27.18.31.17.44.88.96.86.6.37-.01.61.25.42-.16.64.38.36.1 1.15-.44 1.74-.23.28-.27 1.09-1.58-.08-.66-.24-1.32-.18-.18-.66-.33-.56-1.45-.77-.99.18-.19.18-.01.62.48.42-.03.4-.71.12-.94-.04-1.2.04-.44.08-.36.06-.81.03-.94.07-.39.09-.25.21-1.09.41-.61-.32-1.14-.36-.79-.26-.35-.53-.34-.18-.46-.29-.26-.21-.48-1.2-.47-.76-.11-.18.14-.17.56.08.9-.41 1.1-.22.16-.59-.43-.54.77-.41 1.13-.2.33-.17-.23.1-1.2.37-.72.13-.97.28-.77.31-.31-.32-1.17-.64-1.04-.26-.17zm7.5 23.48-.01.82-.12.54-.15.45-.1.47-.19 1.26-.11.58-.96 1.46-.37.75-.3 1.29-.43.62.29.51.31.33.97.26.67-.24 1.29-.98 1.4-1.3.46-.67 1.37-.03 1.37-.15 1.23-.27.16.31.17.16.17.03.58-.93 2.01-.03 1.62-1.06.62-.2.62.13.25-.18 1.35-2.06.08-1.33-.09-1.03-.15-.96-.14-.67-.17-.56-.37-.35-.38-.17-.7.29-.51-.65.07-.63-.08-.59-.13-.19-.88-.53-.24-.73-.22-.9-.35-.39-.36-.01-.67.36-.66.81-.35.22-.35.01-.3.61-.27.95-.45 1.14-.49.52.1-.6.84-3.37.12-1.05.27-1.16.15-.26.32-.17.13-.25-.16-.49-.71-.92-1.08-.63-.34.05-.16.26-.12.6-.01.92.21.85-.34.05-.35-.17-.26-.72-.25-.89-.18-.03-.33.16-.15.17-.1.57-.03.88-.65.33-.32.42-.13.71-.27.5.04.4-.1 1.08-.18.25-.18.39-.1.79-.02.41.12 1.24.16.35-.22.07-.72-.2-.29.14-.28.5-.37 1.06-.07.67zm16.87 5.95.57-.53.09-.23.49-.05h.11v-.4l-.08-.31-.14-.27-.51-.05-.3.93-.82.11-.1.61.36.29.33-.1zm-17.76-21.46-.08 1.09.62-.2.46-.88-.45-.21-.21-.27-.32.17-.02.3zm-7.39 41.06.09.74.25.46.29.08.15-.18-.58-1.3-.2.2zm107.03 28.07.52.6.23.63.95 1.33.2.45.21-.29.17-.72-.62-1.07-1.15-1.33-.68-.35.04.53.13.22zM747.59 122.3l-.12.12-.01.25-.26.78v.6l.04.13.12.09.16-.13.34-.44.22-.78-.02-.15-.15-.33-.32-.14zm77.47 27.42.17-.02.31-.38-.04-.13-.25-.34-.33-.09-.26.15v.18l.09.36.31.27zm-12.56 7.9.71-.43-.07-.17-.44-.48-.32-.11-.57.12-.34.3.43.76.6.01zm-38.15-58.04 1.64.6.96-.04.39.55.35-.34.25-.66-.34-.75-.18-.05-2.6.3-.47.39zm3.31 10.7-.3-.22-.34.01-.27.74.09.6.32-.02.74-.33-.04-.4-.1-.25-.1-.13zm12.8 9.69.4.14.27.65.38.4.12-.03.03-.37.08-.2.13-.12-.08-.52-.43-.82-.24-.28-.32.31-.76-.18-.12.08.09.28.45.66zm114.77 190.39-.18.29.06.06.14.03.13-.24-.06-.19-.09.05zm3.02-4.67-.1.31-.28.25.02.07.12.07.11-.22.35-.28.07-.15-.08-.05h-.21zm5.27-8.03-.33.32-.31.89-.26.36-.69.14-.3.33-.3-.02-.07.15.13.23v.52l.13.15.3.09.15-.16.19-.3.26-.14.52-.11.36-.44.35-.66.16-.47.06-.49-.07-.44-.28.05zm-3.9 6-.01.37.29.11.27-.19.05-.15-.08-.52.23-.42.05-.28-.21-.07-.59 1.15zm4.95-6.47-.46.34-.13.23.08.13.36.28.11.02.11-.1.22-.41.01-.41-.09-.07-.21-.01zm-2.31.23.26-.05.02-.1-.04-.29-.2-.11-.28.09.04.2.08.14.12.12zm-24.5 28.75-.57.18-.02.06-.01.22.21.09.09-.11.52-.23-.04-.1-.18-.11zm49.81-70.02-.16-.03-.88.71-1.24.44.02.23.05.23-.16.71-.42.85-.42.33.01.18.04.12.07.08.46-.5.91-.76.89-.51.95-.26.13-.46-.09-.77-.16-.59zm-34.82 57.05-.35.39-.49.6-.42.07.02.1.09.17h.17l.52-.45.81-1.01h-.15l-.2.13zm-9.37 6.7v-.12l-.04-.1-.11-.07-.19.02-.26.14-.81.81-.54.1-.21-.02-.26-.46-.11-.02-.14.33.04.3-.33.14-.31.39-.28.12-.36.46-.52.35-.26.35-.04.41-.47.38-.11.21-.1.43.56-.5.31-.09.29-.49.71-.62.13-.2.04-.23.1-.13.35.07.36-.13.26-.32.72-.58.43-.12.52-.28.54-.03.13-.15-.1-.2.06-.15zm4.16-2.99-.97.72-.47.59-.37.15-.61.99.26.01.42-.2.55-.56.2-.16.29-.11.39-.34.11-.32.89-.79-.57-.02-.12.04zm1-60.43-.21.34-.34.23v.11l.11.15.22-.06.39-.42-.04-.15-.13-.2zm-234.07-67.34.23-.7-.04-.34-.32-.03-.53.74.06.13.14.16.46.04zm221.56 134.55-.27-.01-.48.89-.14.09-.11.22-.22.25-.07.22-.23.28-.57.5-.1.23.04.28.33.28.09-.7.51-.37.34-.42.07-.22.56-.55.17-.09.35-.05.39-.37h.22l.14-.26-.59.06-.43-.26zm-95.77-181.2-.22.23-.05.32-.02.42-.09.71-.2.26-.68-.11-.19.06-.19.16.39.83.75.56.54.58.25.17 1.65.52.08-.08.47-.96.6-.44.19-.35.11-.46.15-.37.1-.49-.28-.42-.94-.4-2.42-.74zm-117.89 67.3-.45-.11-.33-.18-.52-.02-.32-.09-.09.25.51 1.07.54.53.49-.09.11-.11.14-.36-.15-.21v-.2l.07-.48zm-62.18 109.68.13.37.04-.07.01-.26-.11-.37-.08.12.01.21zM635.88 63.8l-.18.44.2.39.29.83.07.47.01.67.19 2.23.14.59.17.31 1.14.57.44-.31.58-1.2.26-.09.08-.77v-.82l.32-.35 2.41-.41-.39-.76-.4-.46-1.38-.83-2.69-.18-1.26-.32zm307.04 214.4-.21-.27-.44-.78-.05-.38.13-.34-.18-.06-.79-.14-.28.22-.22.06.68.51.21.27.04.29.1.23.31.46.27.35.16.13.23.05.16.29.35.36.01-.7-.2-.33-.28-.22zm-79.84-.51-.25-.19-.08-.09-.93-.43-.09.17-.3.72-.14.07-.31.53-.12.49.12-.01.52-.39.18.23.38.84.17-.05.19-.16.22-.26.25-.19.09-.15.07-.39.22-.44.31-.21-.1-.13-.4.04zm-2.9-.19-.56.41-.23.26.14.05.39-.07.19.18.24-.01.35-.85-.06-.04-.22.08-.24-.01zm149.38-63.84-.31-.14-1-.04.15-.22-.06-.24-.1-.25-.15-.15-.17-.03-.34.14-.34.2.17-.29.2-.2-.1-.16-.13-.09-1.04-1.21-.62-.44-.59-.59-.59-1.01-.63-.81-.66-.3-.68.06-.49-.19-.49-.25-1.08-.27.02.22 1.18.4.18.18-.08.16-.26.04-.9-.12-.27-.1-.25-.31-.13.04-.1.18.03.41.11.33-.23.17-.25-.08.01-.41.05-.33.28-.58.16-.12.03-.12-.94-.26-.26-.2-.26-.09-.57.28-1.58.02-.29.09-.01.2.1.1.25.08.25-.01.16.27.36.14.19.28.13.48.06.34.04.35-.15.63-.22.26-.26.15.1.36.26.28.51.13.22.24.19.38-.16.48-.19.39-.16.17-.11.29-.09.11h-.11l.13-1.07-.19-.63-.34.15-.14.17-.31.56-.08.03-.07-.19-.1-.41-.07-.44-.07-.32-.31-.33-.17-.13-.53-.07-.17-.07.15-.72.28-.42-.04-.94-.13-.32-.16-.28-.15-.67.02-.8.17-.47.06-.58-.19-.43-.24-.22-.18.18-.16.27-.09.08-.62.06.4-.65-.02-.54-.07-.33-.12-.26-.1-.56-4.38-3.29-.74-.42-.35-.36-.31-.17-.32.06-.19.1-.14-.13.13-.3.18-.1-.44-.52-1.59-1.36-.35-.19.25.36 1.19 1.07.18.31-.35.39-.38.16.1-.44-.08-.5-.14-.28-.41-.32-.64-.27-.61-.34-.12-.36-.04-.52.39.44.21.13-.42-.69-.52-.61-1.14-.55-.21-.22-.32-.46-.12-.04-.23.08-.57-.26-.57-.34-.37-.23-1.67-1.94-.9-.29-.07-.24-.05-.29-.17-.2-1.14-.52-1.43-.34-1.51-.93-1.32-.28-1.44-.99-.85-.75-.52-.29-.48-.07-1.28.36-1.43.04-1.31-.21-1.04.06-.6-.14-.83-.46-.24.19-.21.82-.62-.33-.52-.45-.87-.4-1.65-.26-2.07-.65-1.06-.16-1.07-.1.11 1.39-.06.66-.4.86-.44.55-.11.46 1.18.35.37 1.56.48.99.32 1.02v.7l-1.28 1.72-1.33.21-1.28.1-.55-1.04-.29-1.25-1.02-.66-1.01-.51-.46-.09-.34-.25-.21-1.4-.22-1.04-.29-.39-.27-.59-.26-.23-.64-.1-1.56 1.5-.53.44h-.18l-2.36-.37-.62-.31-3.5-.2-.99-.89-.6-.13-.67.27-.58.07-.83-.17-.72.26-1.6.27-.59.3-.62.53-1.15 1.32-.16.63v.78l.24 1.08v1.24l-.2.43-.37.21-.38 1.31-.35.7-.7.19.4-.53.37-.36.59-1.95-.09-.6-.47-.44-.3-.47-.15-1.87-.15-.99-.05-1.19-.48-.39-1.74-.6-.8-.45-.29-.69.31-.98-.02-.75.16-.64.26-.52.07-.73-.13-.95-.13-.69-.3-.83-.22-.38-1.06-1.2-1.82-1.23-1.87-.9-1.66-.3-2.14-.17-2.21-.02-.84.49-1.59.04-1.73.51-1.74.81-.94.01-1.86.37-.81.01-2.1-1.27.67-.17.26-.18-.93-1.69-.5-.6-1.23-.76-.5-.06-.41.15-1.62.84-.41.35.81-.98.39-.41.4-.61-.09-.39-.1-.19-1.51.08-.1-.09-.32-.53-.16-.18-1.01-.56-.73-.21-.76-.02-.13-.22.09-.26.03-.17.23-.3.65-.27 1.69-.16.38-.47-.05-.5-.1-.38-.55-.9-.74-.67-1.51-.81-1.58-.55-2.72-.27-.48.12-.38.33-.65.87-1.48 2.51-.83 1.02-.75.55-1.73.45-.32-.1-.24-.41.08-.36.16-.33.01-.21-.09-.42.05-.23.17-.01.41.29.38.04.98-.46v-.72l-.26-.42.13-1.01v-.26l.14-.18.11.04.71.73.24-.04.26.08-.63 1.75h.3l.81-.82.55-.8.58-1.04.07-.54-.67-.06-4.36.39-1.6.78-.49-.16-.35-.61.54-.06.64-.37.53-.71.34-.13.88.03.71.28 2.15.11.05-.86-.48-.27-1.04-.24-.64-.42-.8-.26-1.77-.37-.74-.31-1.75-.28-.46-.24-4.08-.21-1.52-.64-.59-.66-1.41-.32-.28.01-.09.18-.07.27.9 1.19.03.82.27.4-1.05.64-.71.24-2.38-.03-.36.28-.93 1.27.01.6.09.93h.71l.21-.41.31-.17 1.45.15.15.17-.49.27-.47.12-.58 1.37-.79.43.54.22.48.38-.08 1.66.68 1.27.13.59-.99.02-.88.39h-.31l-.57-.98-.63-.65-.31-.05-.41.64-.58-.36-.24.06-.33.27-.2.36-.15.55-.19.3-.03.4.29.18.21.04.61.29-.63.16-.16.19-.06.22-.47.3.16.29.2.22.05.22-.15.08-.4-.26-.41-.38-.65-.79-.29-.53-.56-.49-1.99-1.37-.89-.43-.58-.1-.91.18-.56.59-.95.25-.59.48-.31.65-1.68.07-1.16-.49-.74-.5-.83-1.03-.82-1.32-.1-.11-.1-.28-.15-.65-.17-.49-.26.28-.66 1.52-.28.74-.36 1.41-.27 1.18-.04.5.13.43-.36.36-.39.88-.58 1.73-.36.62-.46.53-.31.2-.38-.03-.35-.49-.19-1.13-.21-.23-.25.63-.37-.04-.72-.47-.72-1.02-.74-.47-1.04-2.49-.46-.92-.25-.75-.59-.08-.22-.55.3-.39.8-.33.64.05-.47-1-.23-.6-.25-.33.09.67-.11.49-.21.38-.36.24-1.55-3.01-.88-1.46-.52-.54-.32-.97.22-.19 1.1 1.15.78.59 1.29 1.52.98-.11.36-.68v-1.37l-.37-1.13-.46-.45-1.59-.09-.37-.37.25-.11.35-.03.51-.33.85-.86.37-.27-.06-.67-.59-.92-.96-.13-.21-.09.38-.46.33-.28.56-.7.13-.65-.12.05-.41-.03-.12-.28.05-.49-.44-.42-.4-.28-.92-.05.02-.32.05-.29-.39-.21-.33-.38-.08-.34-.12-.2-.6-.35-1.99-.65-.21.19-.33.93-.8.97-.61-.53-.12-.05-.1-.25.14-.43.1-.42-.14-.3-.12-.11-.41.3-.62.19-.26.29-.55.21.05-.72-2.3-1.9-.72-.4-.43-.04-1.04.43-.24.23-.38.62-.86-.39-.21.29-.31 1.03.05 1.01.09.28.08.54.33.84.34.66-.14.15-.14.04-.17.28-.16.56-.29.81-.39.45-.45-.09-1.08-.61-.25.11-.07.44.64.38.06.24-.17.15-.43.12-.78-.03-.65-.16-.4-.61-.39-.08-1.1-.01-1 .33-1.12-.42-1.9.09-.48-.07-.91-.81-1.3-.51-1.49-1.25-.15-1.18.23-.96h.83l.51-.16-.07-.37-.11-.19-1.18-.51-3.2-.09-2.28-.77-3.25-.26-1.46.95-2.12.22-.57.51-.97.28.08.7.48.54.24.11.25.21-.16.19-.18.08-.35.43-.23.4.06.88-.11.85-.35 1.17-.3.51-.27.69.23.63.26.26.67.32.23.22-.13.19-.99-.21-.35-.69-.08-.37-.08-.58.34-.63.34-.43.3-1.02.04-.94.01-1.96-.6-.44-.34-.67.58-1.22.15-.64-.25-.6-.41-1.3-.42-.77-.27-.32-.28-.17.29 1.28-.23.65-.17.25-1.11.35-.71.02-.96-.36-1.13-.83-.28-.58-.2-.85.65-.37.25-.24-.59-.19-.59-.06-.21 1.15-.38-.09-1.85-.71-.5.23-.6.65-.27.5-.3.82.12.57.13.21.95.14.83-.18.94-.54.22.2.19.29-.27.42-.97.6-1.61 1.55-.61.18-.86-.33-.46.86-.21.21-1.44.58-.63.09-.18.43-.38.08-.42.22-.7.61-1.07.1-.73-.14-1.77.37-.46.32-.3.44-.14.56-.26.5-1.01 1.08-.86.44-.73.12.7-.61.8-1.13 1.44-3.37 1.38-.22.32-.45 1.05-2.1.29-.31 1.39-.04 1.22-.69 2.46-3.41 1.22-.58.84-.82.15-.41.13-.54-.13-.33-.07-.3 1.08-.59.42-.91 1.46-.86 1.14-1.17 1.6-.87.91-1.21 2.06-1.75 1.93-3.04.32-1.75-.47-.58-.57-.36-.32-.87-.23-.1-.58.55-.63-1.88-.78-1.06.04-.16.09-.07.37.17 1.4 1.56.74.24.22.24.13.39-.09.65.23-.05.15-.27.36-1.27.34-1.73-.04-.75-.82.34-.38-2.56-.17-.78-.26-.86-.52-.08-.28.22.22.29.24.48-.16.49-.13.22-.64.65-.46.06.18-.27.21-.61-.16-.67-.16-.38-.18-1.95-.58-.3-.33-.31-.43.13-.56.52.21-.48.22-.72-.44-.88-.43-.61-.52-.23-.58-.78-.78-.44-1.81-.43-1.38.57-1.72-.46-2.05.36-.8.01-.48-.22-.43.24-.22.7-.13 1.1-.51.57-.28.15-1.31-.17-.93.53-.4-.42-.76.03-.08-.93.45.04.26.16.85-1.91.7-1.12.67-1.29-.42-.8-.95-.54-.44.03-.22.23-1.03-.43-.54.03-.91.6-.31-.05-.19-1.24-.91.1-3.14-.12.34-.39 1.65-.53 1.33-.8.98-1.46.91-.49-.21-.74-.25-.53-.52-.47-1.13-.31-.96-.59-.42-.75-1.77-1.03h-.48l-1.27 1.29-.64-.12-.56.19-1.46 1.54-3.07 3.98-.63 1.22-.3.91-.55.48-.24 1.12.04.97.25.51.26.95-.26 1.08-.22.71.21.32.59-.06 1.32.6-.24.56-.8-.48-.7.02-.61-.58-1.46.55-1.08-.13-1.01.22-1.98-.46-.23.32.46.6.35.56 1.03 1.3.44.41.59 1.23.07 2.39-.32.57-.36.8-.19.15-.28-.05.45-.56.24-1.2.23-.84-.3-.57-.13-.05-.15-.31-1.05-.8-.57-.35-.6-.19-.31-.22-.9.73-.41.17-.49.38-.29.53-.7.12-.09.57-.39.57-.42-.62-.41.17-.92 1.01-1.07.46.11-.35.18-.79-.26-.18-1.61.92-.54.62-.25-.23.93-1.36.25-.84-.44-.36-.96-.28-.62-.03-.9.3-1.3-.45-.19.51-.33.06-.8-.24-.73.26-.55.55-.81-.54-.28.02-.43.85-.37-.57-.32 1.11.09.8.27.08.23-.12.13-.37.17-.17.64.67.19-.36.28-.27.32.4 1.32-.43-.23.53-1.47.68-2.66.86-.55.34-1.58.3-1.03.84h-1.33l-2.3.66-1.66 1.49-.8-.13-1.62 1.12-.64.87-2.34 1.77-1.4-.68-.46.24-.24.62.05.49.57-.04.41.21.5.43-.13.78-1.06 1.74-.5.65-.59.38-1.26-1.43-.23.63-.17.31-.5-.13-.25 1.01.91.18.87.46.77.66.54.76.59.48.35.41-.93.4-.66-.93-.35-.31-.4-.06-.6.28-.51 1.11.5.38 1.1.37.35.5 1.44 3.23.36.33.47.14.19.22-.57.55-.21.51-.49.89-2.09.46-.62.34-.18.15-.26.33-.17.29-.08.65.17.43.42.39 1.67 1.76-.11.18-.46-.33-.58-.54-.59-.75-.79-.53-.04-.44-.03-.65.02-.2.08-.33.75-.85.76-.41.93-.97.93-1.08-.19-.37-.19-.27-.85-.07-1.72.38-1.03.36-.46.87-.7.13-.35.02-.95-.43-.9.41-2.11.36-.34.2-4.85.08-.98.18-2.49.71-.06.53.09.4-.39.59-.17.56.06.66.02.57.09.74.15.67.36.36.33.23.24.73-.19.84-.28.96-.05.45.18.6.22 1.2.08.3.76.92.52.29.85.07.58.23.84.56.25.26.07.24.2.97.11.3.92 1.33.31.2 1.25.25.39.42.54 1.29.05.3.05.49-.06.45-.05.26-.21.41-.54 1.68-.32 1.5.51.99.69 1.91.2.8.24 1.06-.1.67-.11.4-.46.61-.57.2-.62.37.06.46.11.53-.06.39-.08.14-.34.04-.29-.13-.25-.41-.24-.53.17-.57.5-1.01.31-1.45.08-.97-.02-1.03-.12-.69-.4-.51-.37.11-.41.45-.4 1.7-.54 1.24-.08.51.01.44-.04.29-.11-.97-.05-.73.3-.92.18-.86-.06-.62-.22-1.02.04-.5.06-.32.13-1.45.48-.29 1.19-1.11.17-.28.36-.98.17-.35.19-.59-.36-.47-.34-.25-.64-.14-.59.05-1.31.46-1.17-.08-.42-.27-1.84-2.02-.12-.76-.15-.32-.18-.08-.63-.5-1.46-.64-1.49-1.46-2.64-.13-.72.16-.72.45-.66.92-.3.25-.43.09-.09.33-.08.45.23.33.81-.39.66.2.35.43.26.84-.13.41-1.15.64-.64-.05-1.37-1.46-.53-.26-1.26.25-.83.72-.26.15.2.73.31 1.31.27.78.34.38 1.23.94.68.33 1.03.86.63.1.57-.21.85.5.49 1.56.29.53.27.27.38.15.22.02.24-.2.55-.04-.19.45-.21.14-1.17.19-.58-.16-.71-.48-1.34-1.57-1.67-.11-.19.46-.52-.64-1.77-.14-1.06-.41-1.13-.66-.1-.32-.05-.45.38-.57.14-.35.1-1.07-.72-1.42.07-1.31.34-.22.44-1.71.26-.56.14-.19.13-.39-.14-.5-.13-.3-.15-.7.03-.51v-.64l-.36-.98-.3-1.06-.61-.53-.59-.01-.22.15-.22.25.31.96.31.85.15.66.1 1.19-.02 1.46-.1.59-.17.5-.53.62-.88.73-.5.35-1.04.39-.75.63-1.64 3.56.18.53.6.57.4.49.19.41.43 1.28 1.63 3.55.09.63-.38 1.12-.76 1.44-.3.81-.71 3.05-.05.78.29.73.48.91.16.69-.32 1.74.17.43.4.23 1.08-.24 1.27.42.67-.2 1.03-.96.4-.1 1.23.13 1.81.93 1.92 1.24.39.42.52.02.38 2.11.34 1.14.15.8.1.89-.36.19-.31.09-.26.24-.36 1.37-.04.73.19 1.17 1.61.54 1.12.29.79.06.14.13.1.18-.93.08-1.69.14-.6-.08-.27-.14-.27-.4-.52-.4-.2-.27-.42-.32.21-1.21.04-2.82-.06-1.17-.36-.97-1.06-1.39-.36-.94-.41-.63-.4-.1-.58.12-1.45.58-1.3.31-1.53.86-.28.71-.25 1.83.34.89.34.64.31 1.09.1.66.03.66-.05.97-.26.53-1.69 2.06-.25.63-.29 1.76-.26.64-.78.96-.48.39-2.59 1.74-.09.38-.18 1.22-.71.55-.42.05-.99-.61-.58-.18-.6-.05-2.26.17-1-.41-.79-.58-.81-.18-.61-.48-.14-.44-.15-.59-.11-.3-.11-.16.18-.2.39-.09 1.47.1.38-.22.2.11.41.54.53.49.45-.08.38-.4h.14l.17.06-.34.32-.35.23-.09.15-.07.32.5.38.46.21.6-.2.35-.4.78-.58.55.03.03-.55-.29-.84-.23-.59.85.16.5-.49 2.1-4.21 1-.81.33-.52.24-.73.06-.81-.12-.88.03-.68.36-.86.56-1.04.35-.39-.05-.39-.07-.32-1-1.02-1.06-.84-.38-.46-.28-.73-.14-.88v-.58l.08-1.78.16-.84-.04-2.49-.2-3.11-.17-.85.26-.59.26-.48.13-.45.09-3.09-.08-1.2-.35-1.62-1.41-1.36-.59-1.32.05-.48.08-.32.61-.54.42-.77.27-1.13.56-1.73.14-.61.36-2.42.1-1.3.07-1.95-.5-.5-.53-.43-.97-.37-.48.09-.88-.78-.33-.11-2.37.22-1.36-.1-.8.18-.42-.02-.26-.12.04-.33.14-.23-.04-.2-.23-.04-.62.25-.99 2.71-.59 2.6-.62 3.48-.39 1.45-.56 1.52-.87 1.2-1.17 1.2-.75.56-1 .57-.42 1.24-.36.51.15.34.43-.19-.25.87-.26.53.03.31.08.4.34.18.9-.34.19.33.21.51-.11 2.02-.25 1.71-.03.62.14.4.12.52-.27.64-.21.21-.4-.07-.26 1.41-.08.83v.65l.1.4.16.45.11-.34.08-.47.28-.31 1.57.88.42.44.65.4.19.47.12 1.47.67 1.33.53.79.33.31.29.08.45-.3.61.04-.33 1.03-.55 1.93-.91 1.67-.37.26-.6-.68-.8-.56v.04l1.11 8.83-2.03 4.04-3.77 3.87-3.93 3.13-4.83 5.44-5.23 4.07-1.89 19.99-1.34 8.85-1.78 5.01-1.78 3.54-2.17 2.73-.56 2.43 2.11 1.76.31 2.16-1.66 2.68-2.57.64-3.09.37 1.3 2.45 1.2 1.83 1.82 2.33 1.9-1.51 1.84-1.12 1.89 1.07.71 1.75-1.33 1.39-1.13 2.2.09 2.66 1.88.67.8 1.88.52.19.15-.07.54-.46.21-.09.48-.02.44-.38.31-.22.16-.26-.04-.27-.44-.8-.13-.49.08-.32.25-.35.14-.19.17-.34.11-.18.45-.08.54-.03.37.08.52.04.47.06.24.06.18-.1.13-.18v-.24l-.19-.23-.7-.31-.3-.25-.23.03-.39-.08-.35-.17-.31-.06-.1-.23.06-.33.12-.19.23-.09.25.05.27-.14.08-.08.02-.1-.04-.15-.13-.12-.18-.03-.21.1-.25.07-.42-.15-.33-.18.02-.17.25-.25.11-.2v-.61l.09-.39.25-.27.29-.14.74.26.93.23.16-.04.05-.12.11-.11 1.29-.05.25-.15.13-.12 1.24-.17.15-.16.18-.15h.29l.34-.06.47-.19.33-.1.06-.01.35.04.44-.15.09-.06.07-.11.38-.21.74-.18.18.11.35.05.45-.08.33-.13.19.13.26.14.2-.12.1-.37.13-.36.22-.17.17-.06.16-.14.12-.15.65.02.58-.36.11.16.75-.04.93-.23.56-.11.96-.24.45-.2.64-.12.59-.09.38-.35.31-.05.38-.03.23-.08.15-.13.1-.24-.05-.31-.05-.22.27-.13.38-.04.24-.05.53-.51.36-.25.38-.15.76.08.69.08.69.24.36.3.31.23.3.11.27.07.31-.1.22-.14.13-.2.19-.14.71-.11.15.22.34.65.23.87.38 1.14.17.56-.07.29v.4l-.02.44-.28.5.11.23.68.26.96-.09.59-.21.33.08.17-.12.11-.37.23-.08.23.26.17.43.16.28-.01.33.06.42.12.11.23-.16.16-.1.04-.13-.07-.16-.03-.16.05-.15.11-.06.33.05.49.08.58.6.31.11.13.01.29-.03.35-.17.24-.22.08-.11.14.02.13.1.01.22-.1.32-.35.29-.43.27-.26.49-.06.51.12.26.1.17.03.24.1.03.18-.1.49-.51.25-.13.36-.08.59.04.4.16.19.23.21.19.14-.08.07-.22v-.25l.06-.21.64-.51.43-.34.15-.04.29.07.18-.04.47-.32.44-.36.04-.25.02-.22.11-.1.62-.08.1-.04.53-.25.73-.43.35-.26.64-.11.12-.07.21-.17.4-.24.22-.03-.14.58-.24.67-.14.18-.65-.03v.18l.1.28.07.16.08.14.18.24.69.57.88.72.95.81.66.56.27.29.17.23.49.81.46.77.78 1.35.69 1.29.76 1.41.44.81.9 1.69.24.52.46.98.4.91.36.8.22.07.02-.22.04-.15.11-.08.26-.24.14-.06.21.02.22-.12.08-.23-.05-.42-.03-.19.08-.21.12-.08.17-.07.15-.03.13-.24.24-.07.22.04.18.01.16.17.09.24.17.02.28-.02.04.2-.08.33-.1.26-.02.21.15.1.55-.09.19.04.06.21.08.17.04.21-.06.23.1.14h.47l.33-.11.51-.01.46.25.32-.04.32-.1.47.06.33-.19.23-.24.07-.19.12-.11h.44l.28-.02.21-.28.19-.13.32-.02h.23l.63.26.38.22.4.31.24.19.16.43.27.32.22.37.05.37.18.65.18.21h.22l.28.09.3.07.65.49.24.01.18.12.03.22-.07.26.07.25.21.32.17.31.21.37.06.21.17.07.22-.11.36.08 1.07.21.15.03.11.22.16-.02.18-.01.25.03.17-.2.14-.18.35-.22.29-.3.25-.27.18-.04.15.12.01.23-.18.17-.14.2.03.2.25.02.27.3.4.71.13.15.2.14.22.06.24.1.18.29.07.26.26.04.17-.06.11-.13.17-.04.26-.06.26-.08.15.02h.01l.33-.01.15-.1.11-.14.25-.16.05-.18v-.36l.16-.3.41-.09.16-.04.17.04.26-.04.25-.02.14.09.18.08.24-.01.08-.14.01-.2.1-.05.13.14.07.1.11.05.28-.12.2-.13.06-.27.12-.14.15.07h.27l.22-.21.29-.17.21-.08.04-.14-.1-.32.03-.35.28-.2.38-.02.28-.13.08-.37.14-.11.14-.04.34-.06.24-.15.15-.07.43-.2.39-.04.17-.16.13-.2.22-.08.22-.18.29-.23.12-.03.48-.13.19-.05.11-.03.21.01.09-.24.21-.18.21-.06.1-.17.2-.22.27-.12.43-.02.41.02.25-.04.2-.33.04-.16.05-.17.17-.06.2.27.17.17.26.18.13.16.15.02.16-.12.11-.3.22-.05.24.05.06.15.02.14.11.26.26.22.33-.01.13-.04.33.03.32.05.35.05.1.01.38.03.55.04.24-.02.49.07.1.2.09.47.08.45.02.36.13.18.16.06.11.14.19.2.14.28.17-.02.12-.07.26-.02.33.02.23.15.09.2.19.11.15-.04h.46l.16.01.16.11.23.02.13-.14.39-.1.23-.2h.18l.13.1.1.13.15-.06.08-.11h.13l.13.07.33.12.24.23.19.02.24-.07.11-.03.11.11.15.06.12-.08.2-.06.77.13.18.23.14.11.11.19.2.13.42-.05.16-.14.34-.3.14-.3.17-.1.2-.05h.18l.19-.01.23-.22.19-.08.28-.28.05-.13.14-.32.08-.21.14-.33.08-.53.04-.28-.04-.2-.17-.11-.21-.05-.19-.16-.14-.18-.08-.25-.11-.3.01-.21-.03-.17-.09-.14-.18-.25-.09-.19.03-.3.21-.51.02-.24.03-.15-.01-.13.07-.3.12-.13.14-.33.18-.15.23-.01.1-.09.05-.33.11-.25.07-.18.14-.2.81-.38.33-.47.12-.24.13-.51.13-.21.18.07.21.3h.16l.24.16.65.34.35.11.23.03.3.09.19.2.38.33.32.08.55.03.67.02.19.06.49.23.54.26.51.23.39.18.23.17.21.1.23-.08.3.02.7.21.44.17.37.13.12.18.01.24-.05.2.03.48.12.25.04.34.04.32-.03.32.06.17.12.1.11.22-.04.23-.05.14.01.22.13.18.2.04.17.05.22.28.38.33.23.09.26.15.5.14.34.04.2.12.2.28.33.06.21.1.38.12.25-.07.22-.1.15.02.29.06.34.01.28-.07.23-.2.26-.27.32-.14.37-.05.25-.11.82-.18.33-.03.26-.17.23-.14.33-.06.44.14.42.12.51.04.34.16.24.16.38.12.42-.06.58-.05.38.07.4.28.25.23.28.48.29.23.25.19.32.01.8.02.44.1.36.05.09.1-.04.33.01.47v.22l.08.16.12.03.07.23.18.14.32.16.54.55.32.24.26.08.33-.06h1.41l.61.17.21.11.62.13.68.14.58.15.34-.19.3-.02.29.14.29.21.22-.02.33-.1 1.06-.59.37-.22.26.06.23-.08.18-.07.45-.09.27-.02.28-.05.41-.04.83-.39.34-.08.57.11.31-.07.3-.2.39-.2.1-.33.2-.45.44-.33.35-.29.36-.28.44-.24.42-.17.53-.45.42-.23.21-.08.25.08.47.06.34-.02.19.05.38.22.35.19.27.35.5.48.25.16.18.07.45.05.36.02.22-.11.37-.2.58-.26.23.01.38.14.56.25.23.19.15.23.58.37.37.19.63.29.65.07.62.32.32.1h.17l.88-.77.74-.66.85-.51.63-.07.47-.15.31-.23.19-.39.06-.54-.13-.33-.31-.11-.08-.11.15-.12.11-.23.07-.34.18-.32.29-.3.16-.34.03-.37.17-.37.31-.37.17-.35.03-.32.16-.39.43-.69.28-.8.48-.55.77-.57.48-.56.19-.56-.01-.5-.22-.43-.04-.44.14-.45-.12-.34-.38-.22-.45-.06-.53.11-.29-.14-.07-.39.14-.32.35-.24.57-.59.79-.95.79-.53 1.18-.15.95-.31.97-.32.7-.16.12.11.38.03.64-.05.6-.14.55-.22.44-.05.32.12.18.01.13.01h.07l.13-.09.37.17.71.5.45.22.18-.05.2.14.22.33.27.19.49.09.48.36.2.02.07-.2.18-.12.29-.03.42.18.55.38.35.17.14-.05.15.07.12.18.01.22-.04.12.13.19h.15l.25.09.2.33.18.15.12.13.02.11.01.11-.04.09-.07.14-.02.15.08.17.31.12.11.13.02.16.1.18.21.21.08.17-.05.14.06.12.1.09.02.33.01.19.17.21.04.43.12.48.4.66.13.35-.03.42.06.2.18.1.09.18-.01.26.07.16.06.17-.04.27.06.24.09.14.07.26.04.32.27.51.5.69.31.54.11.38v.31l-.11.25-.01.18.1.11.03.15-.04.19.16.23.55.39-.22.6-.06.42.03.44.14.31.24.18.15.19.06.2.29.21.52.23.67.04.81-.15.5-.03.18.1.06.15-.06.2.14.13.33.06.23.13.13.19.15.05.18-.08.18.01.17.11.11-.04.1-.12h.32l.1.28.16.16.22.04.34.34.69.97.45.34.45.11.56.02.18.37-.15.39-.04.33.13.12.17.39.25.22.05.18.11.2-.05.37-.21.53.06.45.33.38.19.36.05.35.08.21.12.07.33-.03.55-.13.41.02.26.17.64.01 1.02-.16.65-.05.27.06.24-.22.21-.51.2-.24.18.03.29-.16.4-.36.35-.17.44.02.47.02.29-.15.28-.31.48-.28 1.02-.36.25-.06.12.02.34.06.3.14.29.29.04.18-.03.24-.06.14-.12.16-.11.25.07.2.17.42.14.3.15.36-.07.13-.09.25-.28.42-.15.16-.16.16-.28.04-.12.04-.14.07-.09.15-.1.1-.16.21-.01.18.07.27.04.27-.18.24-.14.37-.04.11-.07.28-.02.1-.04.59-.18.4-.25.47.06.28.04.26-.06.13-.02.11-.04.25-.08.09-.23.16-.14.19.03.28-.07.24-.11.22-.11.14-.16.09-.11.08-.08.27-.02.21-.08.21.05.22-.08.19-.23.13-.13.08-.12.03-.23.2-.2.69-.05.4.05.36-.29.22-.21.18-.13-.06-.14-.06-.32-.08-.16-.05-.33-.12-.52-.15-.51-.17-.32-.09-.25-.07-.19-.12-.16-.21-.16.09-.15.25-.25.15-.11.27-.1.21-.26.28-.11.12-.5.19-.11.06-.41.04-.14.08-.14.18-.04.17.1.18.16.37.07.25.11.5.36 1.55-.12.27-.11 1.16.03.21-.01.32.01.24.08.06.1.08.05.14-.01.21-.05.16-.08.31-.1.44-.11.17-.07.13-.06.09-.01.31-.04.21-.18.07-.18.12-.21-.04-.18.02-.23.08-.41.09-.24.12-.11.09-.08.11-.01.1.05.05.23.04.16.19.02.21-.16.12.08.23.18.22.09.16.02.17.08.1.12-.09.29-.75-.35-.51.13-.06.53.15.22-.04.38.07.24-.27.13-.28.28-.19.35-.67.58-.79.2-.2.4-.18.1.02.1.06-.32.42-.09.29h.23l.23-.09.57-.48.21-.26.07.29-.09 1.36.5-.1.27.15.37-.02.43.31.17-.04.2-.01.18.32.28.1.48-.25.72-.25.34-.01.84-.45.41-.36 1.5-.95.63-.52.6-.38.36-.61.63-.58.02-.25.12-.28.96-1.57.32-.26.44-.19.19-.29.12-.41.59-.61.4-.62.37-.4.19-.36.96-.88.78-.98.73-.71.23-.44.95-1.3.29-.86.36-.33.15-.82.3-.59.08-.35.16-.33 1.16-1.34.47-1.04.58-1.05.41-.37.44-.48.24-.38.67-.6.32-.42.16-.43.15-1.06.43-.81-.13-.13-.07-.25.05-.28.06-.17.04-.26.1-.3.09-.18.24-1.14-.02-.72-.13-.28v-.37l.34-.53.08-.09.03-.13-.17-.11-.08-.1-.17-1.82.13-1.12.35-.83.07-.29.05-.81.42-.81.26-.93.55-.49.36-.6.3-.27.05-.62.28-.55-.21-.25-.22-.17-.45-.45-.1-.31.32-.53.06-.47-.03-.87-.47-.27-.6-.66-.1-.22.13-.02.83.35.41-.38.21-.4-.08-.51-.44-.2-.57-.56-.03-.19-.89-.48-.96-1.02-.3-.9-.18-.24-.9-.73-.18-.24-.25-.1-1.09.4-.6-.12-1.15-.49-.11.1.17.36-.03.36.05.5-.06.83-.11.59-.42.83-.17.16-.37.07-.2-.01.12-.32.32-.39.46-.68v-.61l-.11-.06h-.1l-.32.24-.35.87-.85.58-.6.2-1.15.1-.21-.03-.09-.16.26-.25.57-.36.36-.75.4-.18.14-.21-.6-.11-.41-.27-.38-.35.18-.11.13-.03.17-.12.43-.61-.4-.04-.41.04-.66.48-.13.26.21.34.24.15-.29.97-.38-.13-.37.04-.23.27-.24-.1-.1-.6.13-.62.12-1.4.14-.48.01-.53-.07-.29-.23-.02-.38.05h-.96l-1.08.15-1.16-.53-.32-.07-.19-.12-.13-.53.07-.3.08-.2.78-.83.59-.23 1.19-.94.49-.78.31-.33.94-.58.61-.5.5-.48.55-.41.53-.69.33-.14 1.07-1.48.19-.33.11-.46.11-.21 1.25-1.72.85-.63.61-.9.74-.35.18-.15.32-.51.52-.3.16-.18.4-.72 1.25-.66.13-.27.53-1.83.29-.49.55-.61 1.01-.6.72-.65.43-.52.76-1.38.86-.83.7-.48 1.72-.71.93.15.97-.37.71.02 1.01.18 3.01-.2.57.22.2.24.29.72.33.15.63-.28.48-1.15.26-.15.75.46.66.04 1.33.53.49-.12.52-.53 1.07-.14.66.83.66.02.53-.14.14-.47-.21-.17-.41.15-.1-.41.25-.46.36.32.58-.03.2-.04-.08-.21-.13-.18-.18-.4.63-.54.38-.18.61-.05 1.57.66.34.07.37.27.59.19-.36.17-.16.17.37-.07.32.21.26.05.11-.08.14-.26.2-.27.14-.08.38.01.5.12.39.2.88 1.11.41.22.46-.04.18.07.25.3-.76.35-.72.07-.64-.09-1.08.44.58 1.13 1.06.05 1.08-.24.22-.47.43-.18.23.02.49.39.68.15.18-.07.55-.78.33-.07.22.02.25-.67.94-.05.55.6.33.21.66-.18.36-.43.23-.16.69.41.34-.25.54-.04.4.03-.02-.44.04-.49-.55-.49-1.09-.5-.63.32-.24.03-.17-.05-.18-.25.17-.4.17-.32-.01-.4.07-.57.27-.24.14-.04.39-1.18 1.1-1.59 1.28-.98.81-.76.38-.54.57-1.26.81-.92.39-.3.41-.39.14-1.22.31-.29.28-.21.54-.65.8-.42.28-.31.93.02.76.25.23-.07.51-.36.6.09.78-.23.71-.43.32-.04.3.09.36.63.21.16.16.37.48-.23 1.29-.86.16-.01.2.06.03.33-.01.27-.2.86-.24.65-.65 1.25-.13.19.09.33.1.62-.32.66-.12.33.26.08.34-.37.51-.23.27.02.27.11-.43 1.12-.07.58-.07.22-.01.3.32-.16.23-.24.32-.18.8-.08.42-.8.34-.4 3.23-3.37.57-.72.32-.05.28.12.26-.01.05-.25.1-.1.29.04.18.63.2.31.15-.06.11-.1.15-.24.17-.2.17-.32-.14-.22-.56-.33.02-.59.32-.95-.04-.62.13-.64.14-.32.13-.14.12-.22-.16-.5.12-.34.13-.24 2.59-.89.46-.05.42.18.63.64.71.33.99.14.06.28-.38-.1-.19.09.03.26-.05.19-.24-.23-.66-.12-.61-.25-.2.02-.87.75-.23.33-.37 1.48-.02 1.02-.14.97-.38.42-.13.48-.09.57.47.24.05.19.04.26-.31.6-.77.75-.08.16-.1.34.44.63-.35.23-.33.16-.32.28-1.06.1-.73.71-1.25.7-.56.4-.18.26-.44 1.06-.26.45-.85.7-.65 1.02-1.02 1.22-.4.14-.46.3-.55.85-1.41 1.46-.72 1.76-.47.54-.4.46-.27.49-.49.51-.98.76-.67.63-.36.42-.13.39-.18-.09-.66.21-.86-.18-.61 1.16-.66.12-.65-.28-.32.14-.12.13-.11.17.3.37.14.32.04.29.04.49-.36.92-.34.71-.56.68-1.3 1.23-.12.15-.12.29-.75 3.15-.21 1.39-.25 2.2.02.73.16 1.63.24 1.66.56 2.84.13.87.42 3.46.03.65.12.55.21.56.38.54.04.66.32 2.07.03 1.98.06.43.06.31.36.38.12.46.03.34.07.35.28-.17 1-.92.81-.88.12-.32.27-.25.55-.32.79-.92.64-1.28.37-.98.08-.36.02-.35-.05-.77.15-.28.21-.86-.14-.23-.36-.16.11-.35.26-.08.21.16.12.37.17.12.58-.64.52-.32 1.26-.56.52.04.49.49.22-.02-.06-.68-.29-.5v-.31l.16-.49-.12-.32-.12-.25-.08-.53.22-1.07.25-.58.18-.28.6-.47.64-.69.72-.53.46-.18.54-.1.46.38.93.02.28-.08.68-.75.39-.31-.07-.65-.24-.55-.48-.69-.11-.33-.16-.75-.02-.68.15-.79.42-.92.45-1.25.17-.19.53-.3.36-.24.19-.13-.11-.7.28-.28.23-.18.58.07.19-.16.26-.07-.18.37-.23.25-.5.35-.24.5.6.84.37.16.21-.05.4-.46.2-.18.21-.3-.12-1.09-.14-.59.04-.63-.26-.19-.33-.08-.35.1-.2-.17-.13-.28-.03-.33.07-.76-.02-.41-.13-.73v-.21l.05-.38.5-.62.43-.46.22-.38.07-.26.03-.54-.23-.25-1.2-.57-.18-.01-.37.23-.15.73-.21.26v-.15l.05-.18-.6-.27-.28-.24-.16-.23-.11-.33-.12-.51.25-1.04.26-.93.87-1.4.53-.49.57-.75.25-.13.1-.12.1-.18-.18-.51.1-.12.1-.06.21.09.53-.94-.01-1.2.15-1.03.12-.42.13-.3.24-.29.23-.15.33-.36.15-.28.1-.07.37.02.29.11.33.19-.06.49.39-.43.35-.47.18-.08.24.06.41.36.31.69.21.19.28-.01.18-.1.15-.47.03-.86.3-.15.26-.06.37-.4.47-.18 1.01-.68.67-.7.48-.03-.12.4-.04.39-.18.95-.17.5-.09.61.04.32.11.41.24-.04.17-.09.34-.42 1.44-2.02.74-.56 1.12-.36.34-.23 1.1-.37.91-.1.58.17.33-.01 1.23-.18.14.22.96.68.55.98.11.09.09.18.03.4.08.25.16.21.48.45.55.12.13-.25.08-.21.25-1.19.21-.47v-.29l.05-.23.54-.35.42-.15 1.52-1.16.67-.67.28.03.25-.15.22-.21.2-.09.41-.47.5-.37-.08-.32.09-.29.28-.11.25-.03.31-.34-.02-.27.11-.11.16.02.22.1.11-.11-.2-.37-.09-.35.14-.19.56.37h.22l.73-.88.65-.94.56.22.89-.69.41-.13.64-.04.27-.26.29-.48.23.05 1.11-.57.21-.41.27-.11.21-.04.48-.34 2-.97.3-.39.75-.58.58-.18.71-.15.08-.19-.51-.21-.12-.2v-.21l.07-.18.09-.34.19-.08.23.24h.24l.11-.21.11.02.06.27-.12.32-.06.25-.01.28.17.07.88.03 1 .22 2.65 1.16.23.19.21.02.04-.46.12-.44.31-.25.53-.63.26-.45v-.53l-.17-.55-.37-.13-.22-.35-.12-.42.2-.31.21-.12-.05-.43-.16-.27-.85-.57-.3-.39-.01-.35-.35-.88-.05.19.03.43-.12.3-.18-.05-.03-.24.11-.51-.15-.22-.53-.11-.07-.2.52-.28h.15l.14-.1-.11-1.11-.12-.78-.32-.07-.24-.23.07-.5.01-.25-.27-.86-.19-.35-.23-.32-.18.36-.09.48-.24.1-.26-.02-.75-.53-.71-.91-.07-.84.16-1.07-.11-.17-.11-.07-.95.36-.58.56-.31.06-.63-.38-1.03.63.22-.37.18-.14.19-.27-.14-.52-.15-.39-.22-.28-.32-.13-.31.26-.25.26-.51.28-.97.24h-.66l-1.12.43-.42-.02 1.54-.61.84-.04 1.08-.4.79-.77 1.03.7.36.1.77-.06.67.41.22-.12.21-.38-.28-.56-.24-.35-.27-.11-.83.06-.54-.12-.31-.15.2-.16.59.22.72-.29.84.45.2.4.24.15.69 1.01.47.4 1.51.29.66.45.5-.18 1.27-.99.84-.27.57-.65.49-.75.48-.22.83-.8.2-.38.32-.95.19-.4.28-.48.02-.4-.06-.43-.23-.33-.54-.48-.25-.32-.17-.67.02-.81.12-.61.16-.54.19.39.54-.09.27-.15.03-.4-.07-.47.13-.12.28-.05.04-.28.1-.15.1.2v.8l.22.2.31.16.13-.05.13-.11.19-.24.38-.82.25-.32-.02.59-.15.82-.08.23-.22.29-.1.6-.04.16-.31-.17-.23.03.17.66.25.49.31.48.34.28.09-.01.07.1.01.3-.08.7.06.38.26.28.29.07 1.72-.03.59-.09.88-.66.33-.08.38.08 1.05.36 1.27.52.48.8.19.8.07.85-.08.34.02.29.39.43.55.52.11.12.12.21.13.09.39.06.31-.1.31-.03.58.25.73.38.71.52.32.39.57.84.29.25.47.29.18.05.17-.05.36-.41.22-.33.19-.39.05.34v.29l-.19.21v.36l.28.42.33.06.42-.11.14-.2.12-.27-.09-.9.13-.12.31.18.1.25.05.31.12.03.82-.04.06-.11-.04-.28-.12-.27-.14-.19-.36-.22-.37-.17-.3-.04-.13-.12.03-.23-.1-.27.06-.16.25-.21.03-.19-.27-.23-.28-.07-.25.13.06-.2.19-.19.29-.08.29.04.56-.17.54-.38.26-.25.26-.31-.03-.54-.17-.51-.26-.14-.29.03-.25-.04-.25-.14.99-.18.11-.18.16-.82-.06-.21-.21.05-.31-.01.07-.17.11-.15-.57-.79-.64-.47.18-.08.31.02.48.14.32.35.11.24.14.08.29.02.49.17.03.23.11.08.33-.1.91-.15.29.04.42.17h.13l.18-.06.15-.26-.23-.53-.47-.48-.28-.36-.14-.29.08-.11.13.04.41.46.32.29.33.2.29.15.65.14.29-.24.06-.37-.06-.77.06-.29.39-.43.68-.55.44-.18.15.02.16.17.17.05.29-.41-.14-.53zm-62.7 65.8-.48-.39-.33-.13-.23-.29-.2.01.13.3.53.47 1.13.89-.12-.25-.43-.61zM628.42 64.16l.06-.44-.08-.71-.57-.37-.08-.22-.84-.53-.05.72.12.35v.46l-.14.2-.11.47 1.3.93.39-.86zm3.65-12.61 1.33-.65.48.83.42.06.44-.42.43-.73.95 1.09.82.78.89-.62.4-.51.29-1.05-.29-.9-.15-1.21 1.44-.35.54-.59-.36-.86-1.18-.37-.43-.43-.15-.75-.26-.36-.73.42-.26.15-.77-.11-.33.58-.71 1.65-.88.67-.7 1.56-1.05-.49-.89.34.3 1.54.41.73zm-8.89 17.14.16.18.08.2.62.09 1.87-.2.37-.62.35-.1.21-.66-1.03-.92-.39-.72-.05-.61-.4-.17-.93.17-.39.92-.1.49-.29.36-.86.34-.16.21.37.84.57.2zm15.2-26.7.93-.38 2.98-.85v-.43l.14-.87-.41-.57-3.16.52-.43.59-.11.96-.1.51.03.22.13.3zm-10.07 16.76.44.07.25.31.13.46 1.26-.23 1.19.85.48 1.14.48.15 1.21-.08 1.4-.53 2.15-1.6.32-.64-.35-.48-1.85-1.65-1.23-1.52-.85-.56-1.96.17-2.11-1.74-.24.05-.61 2.28-.14 1.48-.36.03-.55.53.06 1.03.88.48zm12.75 13.48.51.33.19.25.09.25.36.16 1.01-.53.62-.62-.31-1.43-.72-.59-1.52 1.06-.16.19-.07.93zm11.77-16.67-.83 1.3-.64.72-.2.55.67 1.04.68.87.52.26.52-.04 3.3-.96 1.26-1.11 1.23-1.98-.18-.67-.03-.72.06-.87-.2-.72-.39-.87-.4-.46-.63-.51-.64-.02-.74.43-.15.56-.13.69-.13 1.28-.2.67-.67.31h-.68l-1.4.25zm-10.69 6.12-.05.77.05.87.12.28.85 1.25.7-.25 1.06-.82 1.25 1.01.92.27.66-1.46.88-.52.23-.88.25-.25.86-.27.11-1.15.22-.81.1-1.12-.17-.71-.18-.56-.72-.33-.71-.13-.8.54-1.38.64-.95.39-.57.05-.12-.64-.39-.19-1.06.22-.35.35-.12.58-.15.3-.3.94-.24 1.63zm4.27-5.46.88-.37.93-1.09.27-.71-.31-.97-2.44.3-1.23 1.28-.19.31-.06.26.74.52 1.41.47zm4.78-13.29.12.27.88.47 1.81.24.34-.25.37-.78-.04-.28-.16-.45-2.57-.62-1.43.24-.51.53 1.15.39.04.24zm-32.15 30.15 1 .18.01-.18-.07-.2-.23-.45-.24-.31-.01-.31.05-.62-.89-.74-.73.74-.57.21-1.07.89 1.02.9 1.73-.11zm262.72 232.76-.22-.27-.49-.49-.25-.55-.19-.56-.09-.52-.11-.51-.16-.48-.26-1.02-.65-1.69-.22-.98-.57-3.28-.13-.14-.04-.1-.02-.46-.03-.31-.11-.22-.27-.28-.06-.22-.01-.51-.12-.47-.17-.44-.1-.63.05-1.21.08-.43.18-.16.09-.23.08-.39.03-.4-.02-1.22-.1-.8-.08-.39-.1-.37-.36-.9-.5-1.44.05-.08-.07-.32.04-.37.11-.35.05-.27-.03-.26-.6-1.21-.19-.11-.08.28-.14.26-.18.12-.61-.01.37.63.57.86.1.35-.06.38-.11.38.13.03-.03.26-.36.1-.12.31.21.24-.16.42-.29.17-.15.04-.15-.01-.39-.37-.11-.05-.5.18-.31.31-.08.23.04.94.1.46-.05 1.14-.15 1.1-.16.46-.18.44-.06.4.02 1.55.15.39.25.26-.1.17-.14.07.14.21.28.27.37.49.24.41.33.93v1l-.17.48-.13.5-.1.65.01.51.2.89.03.42-.03 2.81-.09.56-.12.55-.13 1-.11.45-.32.94.02.2.07.2.37.75.3.79.13 1.16-.09.46-.21.39-.17.45-.14.47v.18l.06.81.09.43.06.43-.08.45-.41 1.38-.1.99.24 1.14.04.33.09.3.15.21.17.18.2-.33.17-.36.27-1.09.13-.41.16-.39.2-.36.28-.23.16-.06.16.02.16.16.13.21.09.06.61.05.66.14.2.34.05.48.14.55.04.78.09-.16.05-.19.02-.24.05-.22.2-.53-.01-.18-.11-.69-.15-.72-.11-.16-.18-.06-.18-.01-.28.05-.11-.2-.25-.64-.23-.91-.18-.41-.1-.16-.12-.12-.18-.1-.16-.15-.21-.35-.26-.61-.06-.22-.03-.61.08-.78.22-.73.9-2.84.16-.8.22-.4.37-.27.41-.12.98-.09.24.01.42.14.23.12.21.17.44.59.36.36.35.4.24.33.15.58.12.16-.02-.76-.09-.26zm3.82 21.98-.06.05.01.05.04-.01.07-.05.05-.03.04-.04-.03-.03-.12.06zm-.33-.09-.05.01h-.05l-.04-.02-.04.01v.03l.04.03.01.04.02.05.04-.01.07-.01h.03l-.01-.07-.02-.06zM603.08 62.67l.71.4.92-.56.15.49.1.97.23.63.66-.17.38-.32.31-1.11.15-.35.94-.01.38-.81.15-.1.3.15.31-1.18.27-.23.25-.94.29-.41.2.16.75 1.53 1.63.67.16-.07.01-1.46-.39-1.07-.29-.47-.28-.23-.29-.08-.96.19-1.28-.72-.25.01-.93.68-.62 1.04-1.32.35-3.38 1.44-.62.71.69.22.67.65zm13.09 8.11.06-.57.69-1.03-.03-.22-.17-.56-1.03-.18-.92 1.18.09.37 1.07 1.23.24-.22zM886.38 327l-.06-.02-.07.05-.03.03.04.02.12.02.07-.02-.02-.07-.05-.01zM613.46 63.43l-1.3.13-.45-.85-.17-.18-.27.12-.27.3-.88.25-.67.49-.71.95-2.13 2.42.26.71.3.34.41.9.72.04.27-.14.28-.69.56-.25.7.1.24.44-.71 1.01-.25.65.29.49.57-.11.24-.18.2-.37.2-.17.61.6.23-.23.19-.79.06-.41.08-.2.6.56.27.1.24-.12.09-.74-.06-.58-.09-.39-.1-.18-.65-.22-.03-.16.38-.9.24-.26 1.94-.12.58-.82-.12-.79.27-.43 1.22-.51 1.91-.22.52-1.09 1.56-1.44-.32-.92-.38-.07-1.51-2.56-.33-.42-1.04.06-.43-.29-.43.06-1.73 1.04-.74.78-.27 1.91.13.97-.02 1.67-.3.71zm3.72-9.98.3.7.27.08.39-.11.1-.44.44-.66-.19-.78-.46-.36-.35.02-.2.2-.04.26-.12.33-.27.07.03.36.1.33z" class="land"/><path id="KG" d="m700.81 332.56.06.23.05.26-.03.06-.05.04-.86.07-.19.07-.21.36-.74.29-.42.15-.17-.01-.41.24-1.14.59-.56.38-.28.16-.23.17-.04.17-.01.16-.63.76-.47.09-.4-.02-.27.12-.39.12-.84-.08-.29.01-.55-.1-.22.06-.23.16-.33.61-.13.14-.06.14-.05.29-.12.31-.16.25-.12.23-.24.22-.22.14-.17-.29-.15.08-.14.12-.26-.04-.16.06-.37.25-.55-.01-.06-.09-.11-.69-.09-.33-.08-.07-.1-.01-.79.54-.36.1-.3.02-.39-.16-.08.04-.07.09-.03.11.11.31-.03.06h-.18l-.25.07-.19.14-.56.49-.47.17-.44.06-.18.05-.08.06-.15.23-.15.37-.08.18-.06.1.01.14.12.18.09.39-.02.1-.1.16-.14.16-.3.1-.24.05-.16-.03-.29-.01-.23.06-.14.11-.28.14-.35.05-.45.02-.22-.01-.65-.09-.21.03-.21.07-.37.07-.2.23-.1.21-.06.03-.23-.19-.18-.18-.12-.15h-.15l-.52.27-.08-.01-.15-.1.03-.26-.01-.16-.17-.09-.35-.02-.12-.09.01-.14.03-.13-.04-.1-.09-.08-.19.02-.21.11-.16.12-.2.06-.24.02-.15.07-.17.3-.58.06-.19-.07-.15-.21-.2-.34-.11-.04-.19-.04-.31.02-.41.14-.1-.12-.11-.03-.1.1-.1-.01-.41.03-.52-.01-.29-.07h-.19l-.38.15h-.2l-.26.03-.05-.51-.14-.35.04-.24.1-.33.08-.19.16.08.19.14.12-.04.03-.11-.05-.15-.01-.11.07-.14.1-.13.66-.22.57-.16.29.11.57.25.29.13.2.08.18.36.12-.02.12-.07.07-.09.06-.31.26-.17.58-.21.04-.12-.01-.07.09-.06.29-.06.59-.06.2.04.23.12.18.12h.17l.14-.03.06.03.04.11.07.1.23-.13.2-.17.16-.02.15-.06.04-.11.12-.19.33-.36.17-.06h.11l.01.06.05.05.29.08.09-.09.05-.13-.1-.21v-.09l.04-.08.05-.05.46.2h.1l.21-.11.19-.2.07-.15.95-.5.07-.09-.01-.07-.4-.12-.18.07h-.17l-.1-.07-.48-.03-.11-.05-.32-.36-.22-.14-.18-.09-.19.01-.23.1-.07-.04-.02-.15v-.19l-.05-.21-.14-.05-.18.08-.26-.08-.22-.03-.06-.43-.09-.19-.09-.19-.1-.06-.16-.1-.01-.23-.03-.06-.06-.03-.08.03-.1.12.05.25-.04.25-.06.13-.11.09h-.13l-.22-.13-.04.77-.04.05-.26-.11-.21.05-.32-.05-.24-.13-.18-.03-.29-.11-.22-.14-.13-.51-.13-.18-.12-.04-.49.18-.18-.14-.33-.18-.25-.07-.07-.1.01-.12.77-.58.3-.4.19-.17.27-.11.21-.07.11-.36.04-.04.15-.03.34-.15.55-.32.01-.09-.06-.08-.23-.16-.26-.13-.16.07-.09.07-.15-.17v-.18l.17-.3.14-.15.06-.29.2-.19.21-.31.25-.25.46-.19.26.06.24-.04.38-.15.07-.01h.16l.97.23.32.01.75.3.34.07.24.09.11.13.18.16.94.13.26.09.09.14.27.18.23.04-.2-.7.08-.42.3-1.14.16-.17.3-.15.47-.17.18-.24.38.02.17-.02.12-.04.06-.13.43.23.73.47.55.3.65.28.89.26.76.08.13-.06.3-.39.14-.02.26.03.8.02.82.02.38-.04.84-.16.12-.01.19.01.5.22.37.03h.25l.15.02.31-.01.5.03.62.14.75-.03.24-.03.42.03.33.14.42.14.26.06.18.03.31.01.19-.05.11.06.11.35.26.23.2.22.17.24.17.1h.3l.58.07.33.1.42.42.5.42zm-25.27 8.52.03-.05-.1-.27.14-.25-.28-.04-.14-.07-.16-.25-.05-.01-.08.07-.04.17.04.18.11.12.07.04.01.01v.06l-.09.3.15.04.26.01.13-.06zm1.61-.21.03-.16-.07.01-.08.04-.16.04-.03.08.1.1.13.04.08-.15zm-3.03.45-.01-.08-.1-.04-.27-.04-.19-.06h-.04l.02.07.08.13.11.14.15.02.25-.14z" class="land"/><path id="KZ" d="m720.77 304.92-.26-.09-.51-.02-.31.05-.15.03-.22.17-.16.17-.07.3.08.33-.11.69-.15.26-.32.45-.19.1-.31.08-.3.13-.59.13-.63.07-.23.1-.16.31-.11.26-.07.2-.18.64-.1.57.1.71.08.78v.27l.16.4.08.24-.04.35-.22.27-.13.36-.13.15-.36.07-.34.04-.34.31-.28.21-.43.27-.2.05-.11-.14-.07-.31-.15-.14-.21-.01h-.17l-.54-.08-.35.01-.26.07-.3.03-.51-.11-.33-.1-.22-.09-.54-.27-.7-.32-.29-.09-.17.1-.03.18-.04.44-.08.28-.49 1.4-.3.97-.38.92-.12.62-.23.78-.23.56-.09.31-.01.13.04.17.35.19.37.12.08.07.04.2-.01.32-.07.31-.11.24-.11.12-.12.01-.23-.15-.21-.17-.16-.05-.4.1-.37.13h-.13l-.22-.08-.22-.17-.09-.34-.19-.15-.25.15-.75.26-.83.31-.53.16-.21-.02-.41.04-.35.09-.26.12-.52.16-.47.11-.31.25-.22.24.01.09.16.14.18.11.37-.03.36-.02.3.15.27.1.07.12-.07.12-.15.03-.05.08.03.11-.1.29-.05.45.05.44.03.4-.02.2-.01.29.11.2.1.37.18.23.27.8.16.47.15.53-.11.29.01.17.17.14.08.27.08.16-.02.16-.07.06-.38-.1-.31.16-.33.16-.04.09-.01.09.03.08.19.15.26.09-.01.15-.32.07-.49.22-.13.24-.1.26-.01.15.05.41.07.45.14.47.01.15-.07.1-.07.07-.39-.43-.42-.42-.33-.1-.58-.07h-.3l-.17-.1-.17-.24-.2-.22-.26-.23-.11-.35-.11-.06-.19.05-.31-.01-.18-.03-.26-.06-.42-.14-.33-.14-.42-.03-.24.03-.75.03-.62-.14-.5-.03-.31.01-.15-.02h-.25l-.37-.03-.5-.22-.19-.01-.12.01-.84.16-.38.04-.82-.02-.8-.02-.26-.03-.14.02-.3.39-.13.06-.76-.08-.89-.26-.65-.28-.55-.3-.73-.47-.43-.23-.06.13-.12.04-.17.02-.38-.02-.18.24-.47.17-.3.15-.16.17-.3 1.14-.08.42.2.7-.23-.04-.27-.18-.09-.14-.26-.09-.94-.13-.18-.16-.11-.13-.24-.09-.34-.07-.75-.3-.32-.01-.97-.23h-.16l-.07.01-.38.15-.24.04-.26-.06-.46.19-.25.25-.21.31-.2.19-.06.29-.14.15-.17.3v.18l.15.17-.24.16-.27.05-.14.1-.15.23-.14.2-.08.07-.12-.01-.14-.15-.21.01-.24.19-.29.31-.37.47-.38.25-.48.21-.35.09-.28.16-.46.33-.09.19-.33.11-.27.13-.25.22-.06.38-.16.22-.38.3-.32.3-.21.3-.22.32-.07.17-.01.24.1.2.02.19-.08.14-.22.05-.23-.04-.35-.14-.37-.24-.13-.12-.18-.2.03-.19.09-.37.06-.25-.15-.12-.11-.13-.08-.13-.16-.25-.2.06-.17.06-.2-.09-.58.04-.44.03-.41.03-.52.03-.63.04-.18-.05-.11-.08-.11-.34-.07-.29-.12-.54-.08-.42-.1-.5-.06-.56-.05-.4-.48-.01-.38-.01-.51-.01V333l.01-.4.01-.45.1-.6.04-.5.04-.61.03-.41.03-.45-.27.14-.29.15-.28.14-.19-.36-.18-.35-.28-.54-.21-.4-.36-.24-.27-.17-.28-.3-.24-.31-.23-.29-.27-.25-.26.08-.3.16-.29.15-.3.16-.15.08-.35-.03-.31-.03-.55-.05-.46-.04-.47-.04-.66-.06-.67-.06-.45.08-.57.09-.59.1-.49.08-.62.1-.46.08-.23-.01-.29-.33-.46-.53-.28-.32-.27-.31-.4-.45-.32-.34-.31-.34-.18-.31-.09-.39-.16-.18-.36-.24-.39-.26-.39-.26-.39-.26-.39-.26-.39-.26-.39-.26-.39-.26-.39-.26-.39-.26-.39-.26-.39-.26-.39-.26-.39-.26-.39-.26-.39-.26-.39-.26-.32-.19-.3.05-.44.13-.47.14-.46.14-.83.25-.53.16-.42.13-.44.14-.58.19-.49.16-.57.18-.5.16-.42.14-.44.14-.35.11v14.06l-.12-.01-.27.05-.45.12-.37.06-.16-.04-.15-.09-.13-.19-.19-.23-.2-.19-.25-.38-.17-.29-.42-.64-.06-.2-.08-.21-.14-.17-.49-.43-.58-.38-.56-.38-.16-.09-.26-.12h-.33l-.22.02-.68.12-.52.15-.7.2-.54.22-.12.06-.4.26-.49.44-.57.62-.07-.4-.03-.61.01-.2.16-.52.16-.35.13-.37.06-.48-.12-.78-.13-.17-.16-.06-.17-.02-.31.03-.14.06-.25-.26-.3-.04-.16.07-.16.04-.18-.07-.15-.16-.09-.17-.07-.19-.24-.38-.24-.21-.29-.05-.47.01-.15-.03-.01-.22.06-.48v-.25l-.03-.24-.08-.19-.1-.17-.28-.28-.21-.39-.35-.81-.31-.91-.13-.14-.27-.14-.6-.12-.39-.12-.16-.12-.07-.2v-.22l.03-.25.09-.22.31-.17.68-.04.58.02.53.39.17.09.19.03.37-.12.19-.03.47.04-.14-.18-.18-.1-.18.01-.16-.07-.26-.35-.45-.4-.1-.17-.03-.27.09-.23.32-.24.27-.32.12-.43.11-.2.23-.31.35.06.54-.23.89.04 1.06-.06.29.02.68.22.39.09.47.05.34-.1-.32-.3-.7-.36-.18-.3.32-.83.43-.76.26-.9-.07-.9-.13-.25.04-.29.15-.25.11-.25-.09-.3-.19-.47-.1-.15-.33-.25-.67-.01-.55-.14-.18.11-.1.17-.13.11-.42.23-.14.04-.15-.05-.21-.25-.19.03-.56-.16-.26-.35-.1-.05-.91-.28-.32-.05-.72.29-.53.37-.15.05-.27.23-.15.04-.16-.04-.15.01-.32.35-.57.4-.29.25-.32.16-.35.1-.36.02-.13.09-.41.03-.25.07-.01.14.05.31-.21-.11-.22.21.07.2-.13-.05-.63-.38-.52-.27-.46-.24-.07-.04-.13-.12-.09-.18-.02-.2.05-.15.11-.09.13-.04.12.03.13.09.23.11.3.02.19-.08.03-.2-.36-.74-.33-.6-.32-.67-.14-.24-.39-.56-.39-.55-.3-.49-.16-.15-.49-.06-.94-.12-.33-.06-.27.15-.27.12-.25-.21-.2-.35-.11-.3.05-.3.02-.45-.15-.44-.17-.22-.42-.16-.54-.37-.15-.68.26-.98.42-.7.31-.29.15-.26.05-.22-.04-.21-.18-.23-.28-.22-.14-.27.06-.58.19-.84.29-.67.39-.38.33-.27.13-.25.01-.36-.01-.34.09-.25.14-.2.15-.17.21-.2.27-.05.3.16.4.42.59.82.34.54.12.17.31.32.28.13.46-.2.45-.23.14-.15.09-.22-.07-.38-.09-.25-.1-.31-.14-.55-.1-.86-.11-.27.08-.03.22.06.21.02.3-.19.41-.36.74-.56.16-.37.13-.41.21-.25.47-.08.44-.13.31-.29.48-.26.4-.16.17-.14.13-.22.46-.61.36-.38.32-.39.11-.24.25.05.38.17.41.15.3.24.06.24.03.19.12.1.14.02.22-.05.38-.01.47-.32.65-.53.59-.17.31.13.26.39.21.37.21.14h.13l.05.01.26-.08h.02l.24.01.23.12.38.01.53-.1.06-.04.25.05.31.17.24.2.43.66.25.17.51.23.24.21.28.33.14.2.3.36.35.59.06.47.08.4.13.19.11.02.11-.07.11-.18.04-.3-.03-.53-.09-.44-.11-.14-.05-.15.08-.2.19-.1.24.06.39.25.41.32.51.55.46.35.51.28.4.08.31-.08.37-.23.34-.26.15-.28.11-.3.51-.41.47-.37.21.07.15.1.48-.23.17-.06.46-.09.47.13.38.4.36.26.33-.03.27-.13.18-.25.13-.29.18-.19.03-.01.58.1.36-.02.04-.04.48.08.53.41.33.46.42.58.2.19.28.08.22.03.3.09.79.12.12.07.08.09-.07.32.07.08.64-.22.17-.17.21-.48.19-.48.14-.18.15-.05.15.07.21.29.28.29.38.11.23.04.36.02.85-.14.8-.35.46-.38.21-.57.13-.65.2-.41-.08-.42-.4-.4-.14-.12-.98-.23-.06-.16-.06-.04-.96-.36-.46-.15-.13-.24-.09-.31-.3-.28-.6-.25-.1-.19.1-.2.47-.22.54-.46.21-.09.48-.02.44-.38.31-.22.16-.26-.04-.27-.44-.8-.13-.49.08-.32.25-.35.14-.19.17-.34.11-.18.45-.08.54-.03.37.08.52.04.47.06.24.06.18-.1.13-.18v-.24l-.19-.23-.7-.31-.3-.25-.23.03-.39-.08-.35-.17-.31-.06-.1-.23.06-.33.12-.19.23-.09.25.05.27-.14.08-.08.02-.1-.04-.15-.13-.12-.18-.03-.21.1-.25.07-.42-.15-.33-.18.02-.17.25-.25.11-.2v-.61l.09-.39.25-.27.29-.14.74.26.93.23.16-.04.05-.12.11-.11 1.29-.05.25-.15.13-.12 1.24-.17.15-.16.18-.15h.29l.34-.06.47-.19.33-.1.06-.01.35.04.44-.15.09-.06.07-.11.38-.21.74-.18.18.11.35.05.45-.08.33-.13.19.13.26.14.2-.12.1-.37.13-.36.22-.17.17-.06.16-.14.12-.15.65.02.58-.36.11.16.75-.04.93-.23.56-.11.96-.24.45-.2.64-.12.59-.09.38-.35.31-.05.38-.03.23-.08.15-.13.1-.24-.05-.31-.05-.22.27-.13.38-.04.24-.05.53-.51.36-.25.38-.15.76.08.69.08.69.24.36.3.31.23.3.11.27.07.31-.1.22-.14.13-.2.19-.14.71-.11.15.22.34.65.23.87.38 1.14.17.56-.07.29v.4l-.02.44-.28.5.11.23.68.26.96-.09.59-.21.33.08.17-.12.11-.37.23-.08.23.26.17.43.16.28-.01.33.06.42.12.11.23-.16.16-.1.04-.13-.07-.16-.03-.16.05-.15.11-.06.33.05.49.08.58.6.31.11.13.01.29-.03.35-.17.24-.22.08-.11.14.02.13.1.01.22-.1.32-.35.29-.43.27-.26.49-.06.51.12.26.1.17.03.24.1.03.18-.1.49-.51.25-.13.36-.08.59.04.4.16.19.23.21.19.14-.08.07-.22v-.25l.06-.21.64-.51.43-.34.15-.04.29.07.18-.04.47-.32.44-.36.04-.25.02-.22.11-.1.62-.08.1-.04.53-.25.73-.43.35-.26.64-.11.12-.07.21-.17.4-.24.22-.03-.14.58-.24.67-.14.18-.65-.03v.18l.1.28.07.16.08.14.18.24.69.57.88.72.95.81.66.56.27.29.17.23.49.81.46.77.78 1.35.69 1.29.76 1.41.44.81.9 1.69.24.52.46.98.4.91.36.8.22.07.02-.22.04-.15.11-.08.26-.24.14-.06.21.02.22-.12.08-.23-.05-.42-.03-.19.08-.21.12-.08.17-.07.15-.03.13-.24.24-.07.22.04.18.01.16.17.09.24.17.02.28-.02.04.2-.08.33-.1.26-.02.21.15.1.55-.09.19.04.06.21.08.17.04.21-.06.23.1.14h.47l.33-.11.51-.01.46.25.32-.04.32-.1.47.06.33-.19.23-.24.07-.19.12-.11h.44l.28-.02.21-.28.19-.13.32-.02h.23l.63.26.38.22.4.31.24.19.16.43.27.32.22.37.05.37.18.65.18.21h.22l.28.09.3.07.65.49.24.01.18.12.03.22-.07.26.07.25.21.32.17.31.21.37.06.21.17.07.22-.11.36.08 1.07.21.15.03.11.22.16-.02.18-.01.25.03.17-.2.14-.18.35-.22.29-.3.25-.27.18-.04.15.12.01.23-.18.17-.14.2.03.2.25.02.27.3.4.71.13.15.2.14.22.06.24.1.18.29-.04.37zm-97.22 15.15-.05.04-.19-.11-.12-.18.15-.22.14.04.09.23-.02.2zm-6.65 1.75-.1.05-.06-.25.11-.21.15-.03-.05.33-.05.11zm-.36.46-.1.11-.15-.02-.28-.42.08-.43.1-.09.14-.06.02.09-.2.19-.02.24.17.27.24.12z" class="land"/><path id="TJ" d="m674.84 339.81.01.07-.04.12-.58.21-.26.17-.06.31-.07.09-.12.07-.12.02-.18-.36-.2-.08-.29-.13-.57-.25-.29-.11-.57.16-.66.22-.1.13-.07.14.01.11.05.15-.03.11-.12.04-.19-.14-.16-.08-.08.19-.1.33-.04.24.14.35.05.51.26-.03h.2l.38-.15h.19l.29.07.52.01.41-.03.1.01.1-.1.11.03.1.12.41-.14.31-.02.19.04.11.04.2.34.15.21.19.07.58-.06.17-.3.15-.07.24-.02.2-.06.16-.12.21-.11.19-.02.09.08.04.1-.03.13-.01.14.12.09.35.02.17.09.01.16-.06.28.15.1.08.01.52-.27h.15l.12.15.18.18.23.19.06-.03.1-.21.2-.23.37-.07.21-.07.21-.03.65.09.22.01.45-.02.35-.05.28-.14.14-.11.23-.06.29.01.16.03.01.19-.04.36-.04.25.23.45.15.22.15.15.03.12-.03.1-.18.1-.07.1-.03.11.06.13.1.42.13.33.19.16.28.1.16-.02.11-.25.19-.19.16.01.25-.01.66.21.65.32.19.18.07.2-.18.46.01.29.04.31.15.23.14.4.03.33.06.1.05.12-.07.3-.05.3.06.1.2.15.31.28.06.23-.11.15-.2.18-.25.15-.08.06-.04-.04-.13-.15-.28-.25-.2-.13-.38.04-.22-.05-.27-.08-.25.01-.16.15-.1.15-.25.05-.36.12-.56.18-.27-.03-.07-.08.06-.1.19-.13.05-.16-.04-.15-.18-.04-.07-.02-.08-.03-.35-.09-.28.03-.48.19-.89.5-.39.33-.28.5-.84.16-.58.29-.59.47-.39.25-.19.04-.19-.04-.19-.13-.19-.39-.17-.59-.11-.39.06-.51.07-.58.07-.59.12-.68.1-.24v-.16l-.08-.08h-.18l-.28.09-.2.02-.12-.06.01-.32.14-.58-.21-.49-.57-.4-.49-.14-.4.12-.34.31-.27.51-.28.41-.29.32-.21.15-.07.06-.04.14.16.43-.01.36-.18.29-.19.14-.21-.01-.17-.07-.12-.12-.34-.03-.55.06-.38.14-.2.23-.06.31.08.38-.04.29-.17.2-.14.12-.11.03-.24-.17-.37-.38-.25-.21-.14-.03-.07.02-.08.04-.05.05-.04.11-.12.04-.17-.04-.15.03-.09.12-.25.14-.45.16-.25.17-.04.18-.07.08-.14-.03-.4.25-.31-.08-.35-.32-.19-.27-.02-.11.11-.26.05-.85.14-.29.41-.53.21-.4.24-.33.17-.11.16-.26.13-.3.04-.19-.01-.15-.05-.1-.23-.2-.3-.32-.16-.32-.09-.41-.02-.29.28-.79-.04-.13-.08-.12-.17-.08-.24-.03-.24.04h-.3l-.21-.04-.05-.05-.03-.36-.05-.08-.09-.07-.61-.17-.12-.07-.02-.09.21-.81.09-.06.09-.13.14-.14.5-.23.53.1.47.11.47.06.16.04.27.03.18-.03.12-.09.22-.26.07-.39.08-.35.13-.03.14.04.06-.07.03-.1.03-.08.06-.02.1.09.06-.02.05-.06-.01-.07-.11-.12-.1-.19.01-.07.03-.07.29-.06.13-.01.05-.07-.02-.11-.11-.06-.4.03-.41-.01-.05-.07.02-.07.06-.06.84-.15.45.05.33.08.13-.04-.15-.33.21-.03.03-.11-.28-.88.15-.08.15-.17-.01-.33.13-.16.16-.11.24.11.37.32.12.06.12.02.17-.1.65-.32.37-.18.44-.26.08-.1.15-.4.08-.03.11.04.38.41.22.27v.09l-.06.07.01.07.31.14v.07l-.07.13-.04.07-.04.03-.42.36-.47.4-.02.05-.02.1v.1l.08.08.2.06.18.08.09.21.1.19.14.05.69-.12.22.01zm-.85-2.56-.08.01-.15-.18-.05-.12.06-.04.13.09.09.15v.09zm.13 4.07-.25.14-.15-.02-.11-.14-.08-.13-.02-.07h.04l.19.06.27.04.1.04.01.08z" class="land"/><path id="TM" d="m662.39 350.18-.14.01-.34-.08-.68-.16-.58-.33-.38-.22-.06.03-.17.15-.12.18-.09.35-.15.41-.71.02-.6.03-.39.16-.38.22-.09.25-.08.33-.22.75-.2.68-.1.44-.15.3-.43.4-.49.27-.26.13-.11.16-.03.15-.09.04-.2-.03-.21.03-.47.15-.5.19-.6.19h-.34l-.14.04-.06.1.06.18.06.13.05.17-.14.14-.1.24-.08.42-.21.13-.34.2-.38.27-.1.05-.22.08-.22-.02-.2-.04-.21.07-.22.21-.1-.06-.05-.21-.11-.14-.35-.31-.3-.22-.13-.01-.27.06-.34.04-.28-.04-.22-.09-.34-.3-.12-.16-.09-.13-.23.03-.07-.14-.01-.16.06-.19-.02-.36-.13-.26-.15-.11.02-.08.07-.18.08-.16v-.32l-.1-.34-.04-.5.03-.48-.14-.24h-1.16l-1.03.02-.06-.06-.4-.61-.32-.47-.32-.28-.73-.34-.35-.14-.3-.26-.25-.28-.06-.39-.05-.13-.07-.1-.08-.05-.09.01-.85-.45-.34-.12-.32.1-.14.02-.28-.13-.32.18-.14.01-.19-.04-.16-.07-.43-.41-.36-.17-.26-.11-.5-.16-.53-.08-.27-.07-.2-.09-.05-.06v-.15l-.01-.2-.07-.15-.13-.17-.19-.13-.32.02-.48-.01-.37-.13-.29-.02-.35.02h-.29l-.21.1-.12.11-.08.34-.07.05-.12.03-.16-.02h-.34l-.59-.06-.74-.02-.55.17-.44.25-.42.28-.49.44-.14.2-.29.78-.13.11-.17.09-.17.02-.34.12-.45.19-.3.07-.78-.04-.05-.25-.14-.9-.07-.91v-.42l.08-.85-.01-.43-.03-.39.03-.38.06-.43.03-.44-.05-.31-.15-.25-.25-.31-.04-.18-.01-.2-.24-.02-.22-.21-.18-.11-.39-.13-.19-.01-.18.09-.13.19-.09-.29v-.31l.31-.64.2.19.24.07.3.01.3-.05-.06-.22-.14-.12-.17-.1-.06-.29.02-.3.08-.28-.09-.11-.14-.07-.33.01-.42-.08-.42-.03-.1.34.23.44-.2-.22-.19-.29-.26-.52-.17-.61-.03-.66.14-.54.18-.51.11-.66.15-.65.15.29.17.26.24.24.13.06.4.1.25-.04.27-.14.27.05.22.27.2.3.3.06.61-.22.29-.05.25.1.13.02.13-.02-.12-.26-.05-.26.15-.14.48.14.31-.1.08-.05.07-.07.04-.22-.01-.23-.04-.22-.09-.19-.22-.27-.86-.63-.29-.25-.24-.33-.15-.46-.13-.48-.12-.36-.3-.84-.12-.1-.15-.04-.36-.03-.36.06-.59.14-.34-.04-.16.09-.39.35-.18.3-.25.69.19.22v.15l-.15 1.01.09.49-.03.04-.07-.11-.22-.5-.39-.61-.32-.94.57-.62.49-.44.4-.26.12-.06.54-.22.7-.2.52-.15.68-.12.22-.02h.33l.26.12.16.09.56.38.58.38.49.43.14.17.08.21.06.2.42.64.17.29.25.38.2.19.19.23.13.19.15.09.16.04.37-.06.45-.12.27-.05.12.01.74.04.67.04.82.05.25.04.29.04.15.01.13-.16.09-.09.07-.07-.01-.08-.1-.07-.16-.23-.09-.82-.06-.7.2-.22.22-.16.32-.48.17-.15.25-.12.85-.03.36-.09.12-.16.19-.39.06-.32.11-.15.13-.11h.13l.25.09.19.05.14.07.13.11.12.2.02.13.06.08h.17l.05-.03.03-.07-.02-.09-.17-.25-.36-.46-.24-.19-.12-.1-.03-.1.15-.15.15-.08.26.06.35.03.15-.07.16-.37.4.39.41.44.15.08.29.05.25.02.1.05.11.11.22.48.22.12.27.09.88-.01.27.02.22.22.14.09.06.08-.01.1-.05.12-.01.24-.01.19-.07.09-.02.08.06.07.41.18.14.19.1.08.02.12-.07.08-.19-.04-.09.12v.22l.14.21.04.19-.09.18-.11.26v.18l.06.1.31.19.71.47.17.02.68-.11.32-.01.19.07.52.07.17.08h.18l.24-.02.16-.21.08-.05.07-.04.15-.01.41.13.44.28.29.26.14.23.18.51.22.78.26.52.31.27.22.5.19 1.08.12.22.12.11.35.31.72.52.42.3.66.48.6.44.6.68.12.1.53.37.59.38.41-.08.62.58.25.21.11.07.45.23.72.48.91.68.6.39.16.05h.16l.17-.08.19-.07.32.09.35.16.22.12.25.17.2.16.15.08.52.14.09.08.06.1.01.1-.29.52-.04.66v.5l-.02.39zm-37.64-5.16-.03.17-.15-.51-.08-.56.1-.16.11.01-.1.2.15.85z" class="land"/><path id="UZ" d="m674.81 332.34.09-.07.16-.07.26.13.23.16.06.08-.01.09-.55.32-.34.15-.15.03-.04.04-.11.36-.21.07-.27.11-.19.17-.3.4-.77.58-.01.12.07.1.25.07.33.18.18.14.49-.18.12.04.13.18.13.51.22.14.29.11.18.03.24.13.32.05.21-.05.26.11.04-.05.04-.77.22.13h.13l.11-.09.06-.13.04-.25-.05-.25.1-.12.08-.03.06.03.03.06.01.23.16.1.1.06.09.19.09.19.06.43.22.03.26.08.18-.08.14.05.05.21v.19l.02.15.07.04.23-.1.19-.01.18.09.22.14.32.36.11.05.48.03.1.07h.17l.18-.07.4.12.01.07-.07.09-.95.5-.07.15-.19.2-.21.11h-.1l-.46-.2-.05.05-.04.08v.09l.1.21-.05.13-.09.09-.29-.08-.05-.05-.01-.06h-.11l-.17.06-.33.36-.12.19-.04.11-.15.06-.16.02-.2.17-.23.13-.07-.1-.04-.11-.06-.03-.14.03h-.17l-.18-.12-.23-.12-.2-.04-.59.06-.29.06-.09.06-.16.02-.69.12-.14-.05-.1-.19-.09-.21-.18-.08-.2-.06-.08-.08v-.1l.02-.1.02-.05.47-.4.42-.36.04-.03.04-.07.07-.13v-.07l-.31-.14-.01-.07.06-.07v-.09l-.22-.27-.38-.41-.11-.04-.08.03-.15.4-.08.1-.44.26-.37.18-.65.32-.17.1-.12-.02-.12-.06-.37-.32-.24-.11-.16.11-.13.16.01.33-.15.17-.15.08.28.88-.03.11-.21.03.15.33-.13.04-.33-.08-.45-.05-.84.15-.06.06-.02.07.05.07.41.01.4-.03.11.06.02.11-.05.07-.13.01-.29.06-.03.07-.01.07.1.19.11.12.01.07-.05.06-.06.02-.1-.09-.06.02-.03.08-.03.1-.06.07-.14-.04-.13.03-.08.35-.07.39-.22.26-.12.09-.18.03-.27-.03-.16-.04-.47-.06-.47-.11-.53-.1-.5.23-.14.14-.09.13-.09.06-.21.81.02.09.12.07.61.17.09.07.05.08.03.36.05.05.21.04h.3l.24-.04.24.03.17.08.08.12.04.13-.28.79.02.29.09.41.16.32.3.32.23.2.05.1.01.15-.04.19-.13.3-.16.26-.17.11-.24.33-.21.4-.41.53-.14.29-.05.85-.11.26-.02-.1-.15-.1-.26.02-.17-.05-.08-.11-.21.03-.34.17-.35-.09-.36-.35-.68-.13-.86.08-.03-.39v-.5l.04-.66.29-.52-.01-.1-.06-.1-.09-.08-.52-.14-.15-.08-.2-.16-.25-.17-.22-.12-.35-.16-.32-.09-.19.07-.17.08h-.16l-.16-.05-.6-.39-.91-.68-.72-.48-.45-.23-.11-.07-.25-.21-.62-.58-.41.08-.59-.38-.53-.37-.12-.1-.6-.68-.6-.44-.66-.48-.42-.3-.72-.52-.35-.31-.12-.11-.12-.22-.19-1.08-.22-.5-.31-.27-.26-.52-.22-.78-.18-.51-.14-.23-.29-.26-.44-.28-.41-.13-.15.01-.07.04-.08.05-.16.21-.24.02h-.18l-.17-.08-.52-.07-.19-.07-.32.01-.68.11-.17-.02-.71-.47-.31-.19-.06-.1v-.18l.11-.26.09-.18-.04-.19-.14-.21v-.22l.09-.12.19.04.07-.08-.02-.12-.1-.08-.14-.19-.41-.18-.06-.07.02-.08.07-.09.01-.19.01-.24.05-.12.01-.1-.06-.08-.14-.09-.22-.22-.27-.02-.88.01-.27-.09-.22-.12-.22-.48-.11-.11-.1-.05-.25-.02-.29-.05-.15-.08-.41-.44-.4-.39-.16.37-.15.07-.35-.03-.26-.06-.15.08-.15.15.03.1.12.1.24.19.36.46.17.25.02.09-.03.07-.05.03h-.17l-.06-.08-.02-.13-.12-.2-.13-.11-.14-.07-.19-.05-.25-.09h-.13l-.13.11-.11.15-.06.32-.19.39-.12.16-.36.09-.85.03-.25.12-.17.15-.32.48-.22.16-.2.22.06.7.09.82.16.23.1.07.01.08-.07.07-.09.09-.13.16-.15-.01-.29-.04-.25-.04-.82-.05-.67-.04-.74-.04v-14.12l.35-.11.44-.14.42-.14.5-.16.57-.18.49-.16.58-.19.44-.14.42-.13.53-.16.83-.25.46-.14.47-.14.44-.13.3-.05.32.19.39.26.39.26.39.26.39.26.39.26.39.26.39.26.39.26.39.26.39.26.39.26.39.26.39.26.39.26.39.26.39.26.36.24.16.18.09.39.18.31.31.34.32.34.4.45.27.31.28.32.46.53.29.33.23.01.46-.08.62-.1.49-.08.59-.1.57-.09.45-.08.67.06.66.06.47.04.46.04.55.05.31.03.35.03.15-.08.3-.16.29-.15.3-.16.26-.08.27.25.23.29.24.31.28.3.27.17.36.24.21.4.28.54.18.35.19.36.28-.14.29-.15.27-.14-.03.45-.03.41-.04.61-.04.5-.1.6-.01.45-.01.4v.32l.51.01.38.01.48.01.05.4.06.56.1.5.08.42.12.54.07.29.11.34.11.08.18.05.63-.04.52-.03.41-.03.44-.03.58-.04.2.09.17-.06.2-.06.16.25.08.13.11.13.15.12-.06.25-.09.37-.03.19.18.2.13.12.37.24.35.14.23.04.22-.05.08-.14-.02-.19-.1-.2.01-.24.07-.17.22-.32.21-.3.32-.3.38-.3.16-.22.06-.38.25-.22.27-.13.33-.11.09-.19.46-.33.28-.16.35-.09.48-.21.38-.25.37-.47.29-.31.24-.19.21-.01.14.15.12.01.08-.07.14-.2.15-.23.14-.1.27-.05.16-.15zm-.82 4.91-.01-.09-.09-.15-.13-.09-.06.04.05.12.15.18.09-.01zm1.55 3.83-.14.03-.26-.01-.15-.04.09-.3v-.06l-.01-.01-.07-.04-.11-.12-.04-.18.04-.17.08-.07.05.01.16.25.14.07.28.04-.14.25.1.27-.02.08zm1.61-.21-.08.16-.13-.04-.1-.1.03-.08.16-.04.08-.04.07-.01-.03.15z" class="land"/></svg>