<svg width="25" height="24" viewBox="0 0 25 24" fill="none" xmlns="http://www.w3.org/2000/svg">
<path d="M3.59521 12H8.59521M3.59521 12C3.59521 16.9706 7.62465 21 12.5952 21M3.59521 12C3.59521 7.02944 7.62465 3 12.5952 3M8.59521 12H16.5952M8.59521 12C8.59521 16.9706 10.3861 21 12.5952 21M8.59521 12C8.59521 7.02944 10.3861 3 12.5952 3M16.5952 12H21.5952M16.5952 12C16.5952 7.02944 14.8044 3 12.5952 3M16.5952 12C16.5952 16.9706 14.8044 21 12.5952 21M21.5952 12C21.5952 7.02944 17.5658 3 12.5952 3M21.5952 12C21.5952 16.9706 17.5658 21 12.5952 21" stroke="#656267" stroke-width="2.5" stroke-linecap="round" stroke-linejoin="round"/>
</svg>
