<svg xmlns="http://www.w3.org/2000/svg" width="36" height="36" fill="none"><path fill="#fff" d="M18.001 9.6a1.667 1.667 0 1 1 0-3.332 1.667 1.667 0 0 1 0 3.333Z"/><path fill="#fff" fill-rule="evenodd" d="M.085 11.333V9.128A2.917 2.917 0 0 1 1.918 6.42l15-6a2.916 2.916 0 0 1 2.167 0l15 6a2.917 2.917 0 0 1 1.833 2.708v2.205a2.917 2.917 0 0 1-2.917 2.917h-30a2.918 2.918 0 0 1-2.916-2.917Zm2.5-2.205v2.205A.417.417 0 0 0 3 11.75h30a.417.417 0 0 0 .417-.417V9.128a.418.418 0 0 0-.262-.387l-15-6a.417.417 0 0 0-.31 0l-15 6a.417.417 0 0 0-.261.387ZM.436 33.26l1.019-3.563a2.915 2.915 0 0 1 2.803-2.115h27.487c1.301 0 2.446.863 2.803 2.115l1.018 3.563a2.082 2.082 0 0 1-2.003 2.655H2.44A2.084 2.084 0 0 1 .436 33.26Zm2.555.155h30.02l-.866-3.031a.416.416 0 0 0-.4-.302H4.258a.417.417 0 0 0-.4.302l-.867 3.031Z" clip-rule="evenodd"/><path fill="#fff" fill-rule="evenodd" d="M3.42 28.833V13a1.25 1.25 0 1 1 2.5 0v15.833a1.25 1.25 0 1 1-2.5 0Zm7.5 0V13a1.25 1.25 0 0 1 2.5 0v15.833a1.25 1.25 0 1 1-2.5 0Zm11.666 0V13a1.25 1.25 0 1 1 2.5 0v15.833a1.25 1.25 0 1 1-2.5 0Zm7.5 0V13a1.25 1.25 0 1 1 2.5 0v15.833a1.25 1.25 0 1 1-2.5 0Z" clip-rule="evenodd"/></svg>