<svg xmlns="http://www.w3.org/2000/svg" width="16" height="18" fill="none"><path fill="#fff" stroke="#fff" d="M1.938.438c.281 0 .551.112.75.311l.072.077c.123.15.201.333.228.526l11.564 4.24.125.058c.08.045.152.1.214.167l.085.108.067.119c.039.082.064.17.075.26l.007.136a.877.877 0 0 1-.106.392l-.075.115a.874.874 0 0 1-.314.255l-.128.05L3 10.703V16.5c0 .247-.085.485-.24.674l-.072.077a1.062 1.062 0 0 1-1.424.071l-.077-.071c-.2-.2-.312-.47-.312-.751v-15c0-.282.112-.552.312-.751l.077-.071c.189-.155.427-.24.673-.24Z"/></svg>