<svg width="30" height="30" viewBox="0 0 30 30" fill="none" xmlns="http://www.w3.org/2000/svg">
<path d="M15.0001 21.9995C15.7141 21.9995 16.9751 19.7445 17.1711 15.9995H12.8291C13.0251 19.7445 14.2861 21.9995 15.0001 21.9995ZM8.08008 13.9995H10.8261C10.881 12.1933 11.2474 10.4101 11.9091 8.72852C10.8918 9.2315 10.0119 9.97396 9.34493 10.8921C8.67797 11.8102 8.24392 12.8766 8.08008 13.9995Z" fill="white"/>
<path d="M15 0C12.0333 0 9.13319 0.879735 6.66645 2.52796C4.19972 4.17618 2.27713 6.51886 1.14181 9.25975C0.00649941 12.0006 -0.290551 15.0166 0.288227 17.9264C0.867006 20.8361 2.29562 23.5088 4.3934 25.6066C6.49119 27.7044 9.16394 29.133 12.0737 29.7118C14.9834 30.2906 17.9994 29.9935 20.7403 28.8582C23.4811 27.7229 25.8238 25.8003 27.472 23.3336C29.1203 20.8668 30 17.9667 30 15C29.9955 11.0231 28.4137 7.21044 25.6016 4.39837C22.7896 1.5863 18.9769 0.00449947 15 0ZM15 24C13.22 24 11.4799 23.4722 9.99987 22.4832C8.51983 21.4943 7.36628 20.0887 6.68509 18.4442C6.0039 16.7996 5.82567 14.99 6.17294 13.2442C6.52021 11.4984 7.37737 9.89471 8.63604 8.63604C9.89472 7.37737 11.4984 6.5202 13.2442 6.17293C14.99 5.82567 16.7996 6.0039 18.4442 6.68508C20.0887 7.36627 21.4943 8.51982 22.4832 9.99987C23.4722 11.4799 24 13.22 24 15C23.9974 17.3861 23.0483 19.6738 21.361 21.361C19.6738 23.0483 17.3861 23.9974 15 24Z" fill="white"/>
<path d="M15.0001 8C14.2861 8 13.0251 10.255 12.8291 14H17.1711C16.9751 10.255 15.7141 8 15.0001 8ZM8.08008 16C8.24392 17.1229 8.67797 18.1893 9.34493 19.1074C10.0119 20.0256 10.8918 20.768 11.9091 21.271C11.2474 19.5894 10.881 17.8062 10.8261 16H8.08008ZM18.0911 8.729C18.7527 10.4106 19.1191 12.1938 19.1741 14H21.9201C21.7562 12.8771 21.3222 11.8107 20.6552 10.8926C19.9883 9.97444 19.1083 9.23198 18.0911 8.729ZM18.0911 21.271C19.1083 20.768 19.9883 20.0256 20.6552 19.1074C21.3222 18.1893 21.7562 17.1229 21.9201 16H19.1741C19.1191 17.8062 18.7527 19.5894 18.0911 21.271Z" fill="white"/>
</svg>
