<svg xmlns="http://www.w3.org/2000/svg" width="80" height="44" fill="none"><mask id="a" width="21" height="11" x="29.28" y="2.252" fill="#000" maskUnits="userSpaceOnUse"><path fill="#fff" d="M29.28 2.252h21v11h-21z"/><path d="M33.623 12.43c-2.312 0-3.934-1.2-4.036-3.256h1.456c.102 1.226.83 2.056 2.542 2.056 1.469 0 1.916-.639 1.916-1.469 0-1.162-.894-1.328-2.555-1.75-1.43-.383-3.001-.843-3.001-2.58 0-1.584 1.226-2.49 3.193-2.49 2.082 0 3.436 1.06 3.576 2.899h-1.456c-.153-1.099-.779-1.699-2.107-1.699-1.15 0-1.738.421-1.738 1.213 0 1.022.958 1.24 2.134 1.533 1.762.447 3.423.869 3.423 2.798 0 1.57-1.06 2.746-3.347 2.746Zm5.747-7.855h-1.418V3.221h1.418v1.354Zm-.09 7.677h-1.252V5.738h1.252v6.514Zm2.657 0h-1.252V3.119h1.252v9.133Zm7.217 0h-1.482L45.54 8.918l-.945.907v2.427h-1.252V3.119h1.252v5.378l2.849-2.76h1.443l-2.504 2.39 2.772 4.125Z"/></mask><path fill="#B4A297" d="M33.623 12.43c-2.312 0-3.934-1.2-4.036-3.256h1.456c.102 1.226.83 2.056 2.542 2.056 1.469 0 1.916-.639 1.916-1.469 0-1.162-.894-1.328-2.555-1.75-1.43-.383-3.001-.843-3.001-2.58 0-1.584 1.226-2.49 3.193-2.49 2.082 0 3.436 1.06 3.576 2.899h-1.456c-.153-1.099-.779-1.699-2.107-1.699-1.15 0-1.738.421-1.738 1.213 0 1.022.958 1.24 2.134 1.533 1.762.447 3.423.869 3.423 2.798 0 1.57-1.06 2.746-3.347 2.746Zm5.747-7.855h-1.418V3.221h1.418v1.354Zm-.09 7.677h-1.252V5.738h1.252v6.514Zm2.657 0h-1.252V3.119h1.252v9.133Zm7.217 0h-1.482L45.54 8.918l-.945.907v2.427h-1.252V3.119h1.252v5.378l2.849-2.76h1.443l-2.504 2.39 2.772 4.125Z"/><path fill="#B4A297" d="M29.587 9.174v-.17h-.18l.01.178.17-.008Zm1.456 0 .17-.015-.013-.156h-.157v.17Zm1.903-1.163-.044.165h.002l.042-.165Zm3.768-2.171v.17h.184l-.014-.183-.17.013Zm-1.456 0-.169.023.02.147h.15v-.17Zm-1.712 1.047.042-.165-.041.165Zm.077 5.544v-.17c-1.128 0-2.071-.293-2.741-.821-.667-.526-1.076-1.293-1.125-2.275l-.17.009-.17.008c.053 1.075.506 1.936 1.254 2.525.744.587 1.768.894 2.952.894v-.17Zm-4.036-3.257v.17h1.456v-.34h-1.456v.17Zm1.456 0-.17.014c.054.643.274 1.203.725 1.601.45.397 1.105.611 1.987.611v-.34c-.83 0-1.394-.201-1.762-.526-.367-.324-.562-.791-.61-1.375l-.17.015Zm2.542 2.056v.17c.755 0 1.283-.163 1.622-.466.344-.306.464-.728.464-1.173h-.34c0 .385-.103.698-.35.919-.252.224-.682.38-1.396.38v.17ZM35.5 9.761h.17c0-.312-.06-.573-.19-.791a1.411 1.411 0 0 0-.552-.51c-.456-.254-1.124-.407-1.94-.614l-.043.165-.042.165c.844.215 1.453.356 1.86.581.197.11.334.234.425.386.09.153.142.35.142.618h.17Zm-2.555-1.75.044-.164c-.72-.193-1.442-.398-1.987-.76-.531-.353-.888-.852-.888-1.656h-.34c0 .934.428 1.533 1.04 1.94.598.398 1.377.614 2.087.805l.044-.165Zm-3.001-2.58h.17c0-.743.285-1.314.792-1.704.514-.395 1.27-.616 2.23-.616V2.77c-1.006 0-1.846.232-2.437.687-.598.459-.926 1.133-.926 1.974h.17Zm3.193-2.49v.17c1.013 0 1.831.258 2.41.722.575.462.93 1.142.996 2.02l.17-.013.17-.013c-.073-.961-.466-1.732-1.123-2.26-.654-.525-1.555-.797-2.623-.797v.17Zm3.576 2.899v-.17h-1.456v.34h1.456v-.17Zm-1.456 0 .169-.024c-.08-.576-.288-1.045-.672-1.368-.383-.322-.916-.477-1.604-.477v.34c.64 0 1.084.145 1.384.398.3.252.482.632.554 1.154l.17-.023Zm-2.106-1.7v-.17c-.591 0-1.067.107-1.398.34-.342.24-.51.6-.51 1.043h.34c0-.347.126-.596.366-.764.25-.175.643-.279 1.202-.279v-.17Zm-1.738 1.213h-.17c0 .284.067.522.195.722.127.198.308.347.517.466.412.233.972.366 1.55.51l.041-.165.042-.165c-.598-.15-1.103-.272-1.465-.476a1.1 1.1 0 0 1-.398-.354.965.965 0 0 1-.141-.538h-.17Zm2.134 1.533-.042.165c.889.226 1.715.437 2.323.822.3.19.54.419.707.708.166.288.264.646.264 1.103h.341c0-.508-.11-.926-.31-1.273a2.4 2.4 0 0 0-.82-.826c-.663-.42-1.548-.642-2.422-.864l-.041.165Zm3.423 2.798h-.17c0 .745-.251 1.382-.76 1.835-.51.454-1.301.74-2.417.74v.341c1.171 0 2.053-.3 2.644-.827.593-.528.873-1.264.873-2.09h-.17Zm2.4-5.11v.17h.17v-.17h-.17Zm-1.418 0h-.17v.17h.17v-.17Zm0-1.354v-.17h-.17v.17h.17Zm1.418 0h.17v-.17h-.17v.17Zm-.09 9.031v.17h.17v-.17h-.17Zm-1.252 0h-.17v.17h.17v-.17Zm0-6.514v-.17h-.17v.17h.17Zm1.252 0h.17v-.17h-.17v.17Zm.09-1.163v-.17h-1.418v.34h1.418v-.17Zm-1.418 0h.17V3.221h-.34v1.354h.17Zm0-1.354v.17h1.418v-.34h-1.418v.17Zm1.418 0h-.17v1.354h.34V3.221h-.17Zm-.09 9.031v-.17h-1.252v.34h1.252v-.17Zm-1.252 0h.17V5.738h-.34v6.514h.17Zm0-6.514v.17h1.252v-.34h-1.252v.17Zm1.252 0h-.17v6.514h.34V5.738h-.17Zm2.657 6.514v.17h.17v-.17h-.17Zm-1.252 0h-.17v.17h.17v-.17Zm0-9.133v-.17h-.17v.17h.17Zm1.252 0h.17v-.17h-.17v.17Zm0 9.133v-.17h-1.252v.34h1.252v-.17Zm-1.252 0h.17V3.119h-.34v9.133h.17Zm0-9.133v.17h1.252v-.34h-1.252v.17Zm1.252 0h-.17v9.133h.34V3.119h-.17Zm7.217 9.133v.17h.32l-.178-.265-.142.095Zm-1.482 0-.143.092.05.078h.093v-.17ZM45.54 8.918l.144-.092-.112-.174-.15.143.118.123Zm-.945.907-.118-.123-.052.05v.073h.17Zm0 2.427v.17h.17v-.17h-.17Zm-1.252 0h-.17v.17h.17v-.17Zm0-9.133v-.17h-.17v.17h.17Zm1.252 0h.17v-.17h-.17v.17Zm0 5.378h-.17v.402l.289-.28-.119-.122Zm2.849-2.76v-.17h-.07l-.049.048.119.123Zm1.443 0 .117.124.308-.294h-.425v.17Zm-2.504 2.39-.117-.124-.104.099.08.12.141-.096Zm2.772 4.125v-.17h-1.482v.34h1.482v-.17Zm-1.482 0 .144-.092-2.133-3.334-.144.092-.143.092 2.133 3.334.143-.092ZM45.54 8.918l-.118-.123-.945.907.118.123.118.123.945-.907-.118-.123Zm-.945.907h-.17v2.427h.34V9.825h-.17Zm0 2.427v-.17h-1.252v.34h1.252v-.17Zm-1.252 0h.17V3.119h-.34v9.133h.17Zm0-9.133v.17h1.252v-.34h-1.252v.17Zm1.252 0h-.17v5.378h.34V3.119h-.17Zm0 5.378.119.122L47.56 5.86l-.118-.122-.119-.123-2.848 2.76.118.122Zm2.849-2.76v.17h1.443v-.34h-1.444v.17Zm1.443 0-.118-.123-2.503 2.389.117.123.118.123 2.504-2.388-.118-.123Zm-2.504 2.39-.141.094 2.772 4.126.141-.095.141-.095-2.771-4.126-.142.095Z" mask="url(#a)"/><mask id="b" width="29" height="11" x="29.28" y="16.377" fill="#000" maskUnits="userSpaceOnUse"><path fill="#fff" d="M29.28 16.377h29v11h-29z"/><path d="M31.592 26.377h-1.405v-9.133h3.807c2.018 0 3.103.945 3.103 2.631 0 1.163-.702 2.006-1.711 2.236v.025c2.12.396 1.341 3.998 1.84 4.152v.089h-1.508c-.409-.383.46-3.577-1.776-3.577h-2.35v3.577Zm0-4.79h2.095c1.29 0 1.993-.562 1.993-1.61 0-.983-.562-1.52-1.967-1.52h-2.12v3.13Zm9.548 4.982c-2.03 0-3.257-1.405-3.257-3.45 0-2.03 1.226-3.46 3.27-3.46 2.018 0 3.245 1.417 3.245 3.448 0 2.044-1.227 3.462-3.258 3.462Zm.013-1.035c1.328 0 1.942-1.06 1.942-2.414 0-1.367-.614-2.414-1.942-2.414-1.354 0-1.967 1.047-1.967 2.414 0 1.354.613 2.414 1.967 2.414Zm6.11 1.022c-1.302 0-2.132-.754-2.132-1.865 0-1.456 1.098-1.89 2.72-2.197 1.022-.192 1.648-.32 1.648-.958 0-.473-.28-.869-1.239-.869-1.137 0-1.481.358-1.545 1.226h-1.278c.064-1.251.882-2.235 2.874-2.235 1.342 0 2.414.562 2.414 2.248v2.99c0 .472.064.715.307.715.038 0 .077 0 .153-.013v.766a2.81 2.81 0 0 1-.638.077c-.626 0-.958-.243-1.035-.984h-.026c-.421.677-1.162 1.099-2.222 1.099Zm.282-1.01c1.124 0 1.954-.574 1.954-1.71v-.933c-.204.191-.766.332-1.43.472-1.15.23-1.635.55-1.635 1.227 0 .613.332.945 1.11.945Zm9.265-4.892v-3.41h1.252v9.133H56.81v-.766h-.025c-.358.46-.984.945-2.006.945-1.66 0-2.925-1.29-2.925-3.436s1.265-3.449 2.925-3.449c1.022 0 1.648.473 2.006.983h.025Zm-1.826 4.867c1.124 0 1.813-.932 1.813-2.401 0-1.482-.69-2.402-1.813-2.402-1.227 0-1.827 1.125-1.827 2.402 0 1.277.6 2.401 1.827 2.401Z"/></mask><path fill="#B4A297" d="M31.592 26.377h-1.405v-9.133h3.807c2.018 0 3.103.945 3.103 2.631 0 1.163-.702 2.006-1.711 2.236v.025c2.12.396 1.341 3.998 1.84 4.152v.089h-1.508c-.409-.383.46-3.577-1.776-3.577h-2.35v3.577Zm0-4.79h2.095c1.29 0 1.993-.562 1.993-1.61 0-.983-.562-1.52-1.967-1.52h-2.12v3.13Zm9.548 4.982c-2.03 0-3.257-1.405-3.257-3.45 0-2.03 1.226-3.46 3.27-3.46 2.018 0 3.245 1.417 3.245 3.448 0 2.044-1.227 3.462-3.258 3.462Zm.013-1.035c1.328 0 1.942-1.06 1.942-2.414 0-1.367-.614-2.414-1.942-2.414-1.354 0-1.967 1.047-1.967 2.414 0 1.354.613 2.414 1.967 2.414Zm6.11 1.022c-1.302 0-2.132-.754-2.132-1.865 0-1.456 1.098-1.89 2.72-2.197 1.022-.192 1.648-.32 1.648-.958 0-.473-.28-.869-1.239-.869-1.137 0-1.481.358-1.545 1.226h-1.278c.064-1.251.882-2.235 2.874-2.235 1.342 0 2.414.562 2.414 2.248v2.99c0 .472.064.715.307.715.038 0 .077 0 .153-.013v.766a2.81 2.81 0 0 1-.638.077c-.626 0-.958-.243-1.035-.984h-.026c-.421.677-1.162 1.099-2.222 1.099Zm.282-1.01c1.124 0 1.954-.574 1.954-1.71v-.933c-.204.191-.766.332-1.43.472-1.15.23-1.635.55-1.635 1.227 0 .613.332.945 1.11.945Zm9.265-4.892v-3.41h1.252v9.133H56.81v-.766h-.025c-.358.46-.984.945-2.006.945-1.66 0-2.925-1.29-2.925-3.436s1.265-3.449 2.925-3.449c1.022 0 1.648.473 2.006.983h.025Zm-1.826 4.867c1.124 0 1.813-.932 1.813-2.401 0-1.482-.69-2.402-1.813-2.402-1.227 0-1.827 1.125-1.827 2.402 0 1.277.6 2.401 1.827 2.401Z"/><path fill="#B4A297" d="M31.592 26.377v.17h.17v-.17h-.17Zm-1.405 0h-.17v.17h.17v-.17Zm0-9.133v-.17h-.17v.17h.17Zm5.199 4.867-.038-.166-.133.03v.136h.17Zm0 .025h-.17v.142l.139.026.03-.168Zm1.84 4.152h.17v-.126l-.12-.037-.05.163Zm0 .089v.17h.17v-.17h-.17Zm-1.508 0-.117.124.05.046h.067v-.17ZM31.592 22.8v-.17h-.17v.17h.17Zm0-1.213h-.17v.17h.17v-.17Zm0-3.13v-.17h-.17v.17h.17Zm0 7.92v-.17h-1.405v.34h1.405v-.17Zm-1.405 0h.17v-9.133h-.34v9.133h.17Zm0-9.133v.17h3.807v-.34h-3.807v.17Zm3.807 0v.17c.985 0 1.716.231 2.198.643.478.408.735 1.014.735 1.818h.34c0-.881-.285-1.59-.854-2.077-.565-.483-1.386-.724-2.42-.724v.17Zm3.103 2.631h-.17c0 1.086-.65 1.858-1.579 2.07l.038.166.038.166c1.089-.248 1.844-1.162 1.844-2.402h-.17Zm-1.711 2.236h-.17v.025h.34v-.025h-.17Zm0 .025-.031.168c.474.088.784.353.996.713.216.367.329.832.394 1.309.066.48.08.94.111 1.318.015.183.035.351.07.482a.67.67 0 0 0 .076.185.318.318 0 0 0 .173.14l.05-.163.05-.163c.02.006.023.017.014.004a.354.354 0 0 1-.034-.092 2.6 2.6 0 0 1-.06-.421c-.029-.354-.045-.846-.112-1.336-.068-.493-.188-1.011-.438-1.436-.254-.431-.642-.766-1.228-.875l-.031.167Zm1.84 4.152h-.171v.089h.34v-.09h-.17Zm0 .089v-.17h-1.508v.34h1.507v-.17Zm-1.508 0 .116-.124c.001 0-.008-.008-.02-.04a.672.672 0 0 1-.03-.127 3.687 3.687 0 0 1-.031-.435c-.011-.346-.01-.794-.069-1.229-.058-.433-.177-.88-.444-1.222-.275-.35-.692-.57-1.297-.57v.34c.511 0 .825.18 1.028.44.212.27.32.645.375 1.058.056.411.055.833.066 1.194.006.176.014.342.036.478.01.068.026.134.048.193.021.058.054.12.105.168l.117-.124ZM33.942 22.8v-.17h-2.35v.34h2.35v-.17Zm-2.35 0h-.17v3.577h.34V22.8h-.17Zm0-1.213v.17h2.095v-.34h-2.095v.17Zm2.095 0v.17c.666 0 1.209-.144 1.587-.45.385-.31.576-.765.576-1.33h-.34c0 .483-.16.832-.45 1.065-.295.238-.75.375-1.373.375v.17Zm1.993-1.61h.17c0-.524-.151-.961-.52-1.26-.36-.293-.899-.43-1.617-.43v.34c.686 0 1.13.133 1.402.354.265.215.394.538.394.997h.17Zm-1.967-1.52v-.17h-2.12v.34h2.12v-.17Zm-2.12 0h-.171v3.13h.34v-3.13h-.17Zm9.547 8.112v-.17c-.974 0-1.74-.337-2.265-.904-.525-.57-.822-1.387-.822-2.375h-.34c0 1.055.317 1.962.912 2.606.597.646 1.459 1.013 2.515 1.013v-.17Zm-3.257-3.45h.17c0-.98.297-1.802.824-2.376.526-.573 1.296-.914 2.276-.914v-.341c-1.064 0-1.929.373-2.527 1.024-.596.65-.913 1.558-.913 2.608h.17Zm3.27-3.46v.17c.967 0 1.73.338 2.254.907.524.571.82 1.39.82 2.371h.34c0-1.05-.316-1.956-.91-2.601-.594-.648-1.453-1.018-2.504-1.018v.17Zm3.245 3.448h-.17c0 .988-.297 1.81-.823 2.382-.524.57-1.29.91-2.265.91v.34c1.057 0 1.92-.37 2.516-1.02.595-.647.912-1.557.912-2.612h-.17Zm-3.245 2.427v.17c.716 0 1.253-.288 1.606-.768.348-.474.506-1.117.506-1.816h-.34c0 .654-.15 1.218-.44 1.614-.286.388-.72.63-1.332.63v.17Zm1.942-2.414h.17c0-.706-.158-1.35-.506-1.821-.353-.479-.89-.764-1.606-.764v.341c.613 0 1.047.239 1.332.625.29.394.44.958.44 1.619h.17Zm-1.942-2.414v-.17c-.727 0-1.27.283-1.628.762-.352.472-.51 1.116-.51 1.822h.341c0-.661.15-1.225.442-1.618.288-.386.728-.626 1.355-.626v-.17Zm-1.967 2.414h-.17c0 .7.158 1.343.51 1.816.356.48.9.768 1.627.768v-.34c-.626 0-1.066-.243-1.354-.631-.294-.395-.443-.959-.443-1.613h-.17Zm8.666-.626-.032-.168.032.168Zm-1.137-.6v.17h.158l.012-.158-.17-.012Zm-1.278 0-.17-.01-.009.18h.18v-.17Zm5.748 3.704h.17v-.201l-.198.033.028.168Zm0 .766.04.166.13-.03v-.136h-.17Zm-1.673-.907.17-.017-.016-.153h-.154v.17Zm-.026 0v-.17h-.094l-.05.08.144.09Zm.013-2.554h.17v-.394l-.286.27.116.124Zm-1.43.472.033.167h.002l-.035-.167Zm-.805 3.18v-.17c-.62 0-1.11-.178-1.443-.473-.33-.292-.52-.71-.52-1.221h-.34c0 .6.225 1.115.635 1.477.408.36.984.558 1.668.558v-.17Zm-2.133-1.864h.17c0-.675.25-1.094.678-1.39.446-.306 1.093-.486 1.904-.64l-.032-.167-.031-.168c-.812.154-1.524.344-2.034.695-.526.362-.826.888-.826 1.67h.17Zm2.72-2.197.032.167c.502-.094.94-.177 1.249-.325a.99.99 0 0 0 .392-.31.823.823 0 0 0 .145-.49h-.34c0 .13-.031.222-.082.293a.653.653 0 0 1-.262.2c-.26.124-.646.2-1.165.297l.032.168Zm1.648-.958h.17c0-.271-.082-.543-.321-.743-.233-.194-.59-.296-1.088-.296v.34c.46 0 .723.096.87.218.14.117.199.28.199.48h.17Zm-1.239-.869v-.17c-.578 0-1 .09-1.284.327-.29.243-.398.608-.431 1.057l.17.012.17.013c.03-.42.127-.668.31-.82.188-.159.506-.248 1.065-.248v-.17Zm-1.545 1.226v-.17h-1.278v.34h1.278v-.17Zm-1.278 0 .17.01c.03-.591.237-1.103.656-1.468.42-.367 1.079-.606 2.048-.606v-.341c-1.023 0-1.77.252-2.272.69-.504.44-.738 1.046-.772 1.707l.17.008Zm2.874-2.235v.17c.651 0 1.21.138 1.603.455.387.311.641.819.641 1.623h.34c0-.881-.282-1.498-.767-1.889-.478-.385-1.126-.53-1.817-.53v.171Zm2.414 2.248h-.17v2.99h.34v-2.99h-.17Zm0 2.99h-.17c0 .236.015.443.074.596.03.08.077.155.15.21a.413.413 0 0 0 .253.079v-.34c-.03 0-.042-.008-.048-.012-.007-.005-.022-.02-.037-.06-.034-.087-.051-.238-.051-.474h-.17Zm.307.715v.17c.044 0 .092 0 .181-.015l-.028-.168-.028-.168c-.064.01-.092.01-.125.01v.17Zm.153-.013h-.17v.766h.34v-.766h-.17Zm0 .766-.039-.166a2.598 2.598 0 0 1-.6.072v.341c.219 0 .45-.027.678-.081l-.039-.166Zm-.638.077v-.17c-.295 0-.484-.058-.61-.17-.126-.114-.22-.31-.256-.661l-.169.017-.17.018c.04.39.152.685.368.879.216.194.505.257.837.257v-.17Zm-1.035-.984v-.17h-.026v.34h.026v-.17Zm-.026 0-.144-.09c-.386.62-1.068 1.018-2.078 1.018v.341c1.11 0 1.91-.445 2.367-1.179l-.145-.09Zm-1.941.09v.17c.589 0 1.12-.15 1.507-.468.391-.322.617-.8.617-1.414h-.34c0 .523-.189.9-.493 1.15-.31.254-.756.391-1.291.391v.17Zm1.954-1.712h.17v-.932h-.34v.932h.17Zm0-.932-.116-.125c-.07.067-.227.14-.477.217-.24.075-.541.143-.873.214l.036.166.035.167c.332-.07.645-.142.902-.221.25-.077.476-.169.61-.294l-.117-.124Zm-1.43.472-.034-.167c-.579.116-1.019.259-1.315.475-.312.227-.457.529-.457.919h.341c0-.288.098-.484.316-.644.234-.17.611-.302 1.182-.416l-.033-.167Zm-1.635 1.227h-.17c0 .336.091.627.32.83.225.198.551.285.96.285v-.34c-.369 0-.598-.08-.734-.2-.132-.117-.206-.3-.206-.575h-.17Zm10.376-3.948v.17h.17v-.17h-.17Zm0-3.41v-.17h-.17v.17h.17Zm1.252 0h.17v-.17h-.17v.17Zm0 9.133v.17h.17v-.17h-.17Zm-1.252 0h-.17v.17h.17v-.17Zm0-.766h.17v-.17h-.17v.17Zm-.025 0v-.17H56.7l-.05.065.134.105Zm0-4.957-.14.098.05.073h.09v-.17Zm.025 0h.17v-3.41h-.34v3.41h.17Zm0-3.41v.17h1.252v-.34H56.81v.17Zm1.252 0h-.17v9.133h.34v-9.133h-.17Zm0 9.133v-.17H56.81v.34h1.252v-.17Zm-1.252 0h.17v-.766h-.34v.766h.17Zm0-.766v-.17h-.025v.34h.025v-.17Zm-.025 0-.135-.105c-.332.427-.912.88-1.87.88v.34c1.084 0 1.756-.518 2.14-1.01l-.135-.105Zm-2.006.945v-.17c-.784 0-1.468-.304-1.958-.857-.49-.553-.796-1.37-.796-2.41h-.341c0 1.107.326 2.009.883 2.637.557.628 1.336.97 2.212.97v-.17Zm-2.925-3.436h.17c0-1.04.306-1.86.798-2.417.49-.555 1.174-.862 1.957-.862v-.34c-.877 0-1.656.345-2.213.977-.556.63-.882 1.536-.882 2.642h.17Zm2.925-3.449v.17c.96 0 1.536.44 1.866.911l.14-.098.14-.097c-.386-.551-1.062-1.056-2.146-1.056v.17Zm2.006.983v.17h.025v-.34h-.025v.17Zm-1.801 4.867v.17c.614 0 1.119-.257 1.464-.717.342-.455.52-1.096.52-1.854h-.34c0 .71-.168 1.27-.452 1.649-.28.373-.683.582-1.192.582v.17Zm1.813-2.401h.17c0-.765-.177-1.405-.519-1.86-.346-.458-.85-.712-1.464-.712v.34c.51 0 .912.207 1.192.578.284.377.451.937.451 1.654h.17Zm-1.813-2.402v-.17a1.77 1.77 0 0 0-1.514.796c-.328.476-.483 1.113-.483 1.776h.34c0-.615.145-1.179.424-1.583a1.43 1.43 0 0 1 1.233-.648v-.17Zm-1.827 2.402h-.17c0 .662.155 1.3.483 1.776.333.483.84.796 1.514.796v-.341a1.43 1.43 0 0 1-1.233-.648c-.279-.405-.424-.968-.424-1.583h-.17Z" mask="url(#b)"/><mask id="c" width="52" height="11" x="28.28" y="31.023" fill="#000" maskUnits="userSpaceOnUse"><path fill="#fff" d="M28.28 31.023h52v11h-52z"/><path d="M33.253 41.023h-1.52l-2.274-9.132h1.469l1.61 7.19h.025l1.89-7.19h1.482l1.903 7.19h.026l1.61-7.19h1.468l-2.286 9.132h-1.507l-1.942-7.344h-.026l-1.928 7.344Zm10.93.192c-2.03 0-3.256-1.405-3.256-3.449 0-2.03 1.226-3.461 3.27-3.461 2.018 0 3.244 1.417 3.244 3.449 0 2.043-1.226 3.461-3.257 3.461Zm.014-1.035c1.328 0 1.941-1.06 1.941-2.414 0-1.366-.613-2.414-1.941-2.414-1.354 0-1.967 1.048-1.967 2.414 0 1.354.613 2.414 1.967 2.414Zm7.733-5.862c1.2 0 2.171.69 2.171 2.184v4.521H52.85v-4.176c0-.869-.383-1.457-1.328-1.457-1.073 0-1.763.652-1.763 1.635v3.998h-1.252V34.51h1.252v.818h.026c.345-.499 1.022-1.01 2.146-1.01Zm8.148.983v-3.41h1.252v9.132h-1.252v-.766h-.025c-.358.46-.984.945-2.006.945-1.66 0-2.925-1.29-2.925-3.436s1.265-3.448 2.925-3.448c1.022 0 1.648.472 2.006.983h.025Zm-1.826 4.867c1.124 0 1.814-.933 1.814-2.402 0-1.481-.69-2.401-1.814-2.401-1.227 0-1.827 1.124-1.827 2.401 0 1.278.6 2.402 1.827 2.402Zm10.465-2.542c0 .179 0 .37-.013.472h-5.007c.026 1.086.664 2.095 1.954 2.095 1.15 0 1.597-.74 1.712-1.175h1.277c-.344 1.252-1.302 2.197-3.014 2.197-2.07 0-3.219-1.469-3.219-3.462 0-2.043 1.226-3.448 3.219-3.448 1.98 0 3.091 1.303 3.091 3.32Zm-5.02-.511h3.717c0-1.022-.715-1.788-1.826-1.788-1.048 0-1.814.715-1.89 1.788Zm9.105-2.76c.23 0 .408.014.6.04v1.2a2.356 2.356 0 0 0-.421-.038c-1.137 0-1.955.855-1.955 2.094v3.372h-1.252V34.51h1.252v1.24h.026c.345-.818.868-1.393 1.75-1.393Zm3.843 6.847c-1.98 0-2.963-1.022-3.001-2.35h1.264c.051.754.511 1.341 1.724 1.341 1.099 0 1.393-.485 1.393-.958 0-.817-.869-.907-1.712-1.085-1.137-.269-2.44-.6-2.44-1.955 0-1.124.907-1.877 2.478-1.877 1.789 0 2.645.958 2.734 2.082h-1.264c-.09-.499-.358-1.073-1.444-1.073-.843 0-1.2.332-1.2.817 0 .677.727.74 1.647.945 1.2.281 2.504.626 2.504 2.082 0 1.265-.971 2.031-2.683 2.031Z"/></mask><path fill="#B4A297" d="M33.253 41.023h-1.52l-2.274-9.132h1.469l1.61 7.19h.025l1.89-7.19h1.482l1.903 7.19h.026l1.61-7.19h1.468l-2.286 9.132h-1.507l-1.942-7.344h-.026l-1.928 7.344Zm10.93.192c-2.03 0-3.256-1.405-3.256-3.449 0-2.03 1.226-3.461 3.27-3.461 2.018 0 3.244 1.417 3.244 3.449 0 2.043-1.226 3.461-3.257 3.461Zm.014-1.035c1.328 0 1.941-1.06 1.941-2.414 0-1.366-.613-2.414-1.941-2.414-1.354 0-1.967 1.048-1.967 2.414 0 1.354.613 2.414 1.967 2.414Zm7.733-5.862c1.2 0 2.171.69 2.171 2.184v4.521H52.85v-4.176c0-.869-.383-1.457-1.328-1.457-1.073 0-1.763.652-1.763 1.635v3.998h-1.252V34.51h1.252v.818h.026c.345-.499 1.022-1.01 2.146-1.01Zm8.148.983v-3.41h1.252v9.132h-1.252v-.766h-.025c-.358.46-.984.945-2.006.945-1.66 0-2.925-1.29-2.925-3.436s1.265-3.448 2.925-3.448c1.022 0 1.648.472 2.006.983h.025Zm-1.826 4.867c1.124 0 1.814-.933 1.814-2.402 0-1.481-.69-2.401-1.814-2.401-1.227 0-1.827 1.124-1.827 2.401 0 1.278.6 2.402 1.827 2.402Zm10.465-2.542c0 .179 0 .37-.013.472h-5.007c.026 1.086.664 2.095 1.954 2.095 1.15 0 1.597-.74 1.712-1.175h1.277c-.344 1.252-1.302 2.197-3.014 2.197-2.07 0-3.219-1.469-3.219-3.462 0-2.043 1.226-3.448 3.219-3.448 1.98 0 3.091 1.303 3.091 3.32Zm-5.02-.511h3.717c0-1.022-.715-1.788-1.826-1.788-1.048 0-1.814.715-1.89 1.788Zm9.105-2.76c.23 0 .408.014.6.04v1.2a2.356 2.356 0 0 0-.421-.038c-1.137 0-1.955.855-1.955 2.094v3.372h-1.252V34.51h1.252v1.24h.026c.345-.818.868-1.393 1.75-1.393Zm3.843 6.847c-1.98 0-2.963-1.022-3.001-2.35h1.264c.051.754.511 1.341 1.724 1.341 1.099 0 1.393-.485 1.393-.958 0-.817-.869-.907-1.712-1.085-1.137-.269-2.44-.6-2.44-1.955 0-1.124.907-1.877 2.478-1.877 1.789 0 2.645.958 2.734 2.082h-1.264c-.09-.499-.358-1.073-1.444-1.073-.843 0-1.2.332-1.2.817 0 .677.727.74 1.647.945 1.2.281 2.504.626 2.504 2.082 0 1.265-.971 2.031-2.683 2.031Z"/><path fill="#B4A297" d="M33.253 41.023v.17h.131l.033-.126-.164-.044Zm-1.52 0-.166.042.033.129h.133v-.17Zm-2.274-9.132v-.17h-.218l.053.21.165-.04Zm1.469 0 .166-.038-.03-.133h-.136v.17Zm1.61 7.19-.167.038.03.133h.136v-.17Zm.025 0v.171h.131l.034-.127-.165-.043Zm1.89-7.19v-.17h-.13l-.034.126.164.044Zm1.482 0 .165-.044-.034-.127h-.13v.17Zm1.903 7.19-.164.044.033.127h.131v-.17Zm.026 0v.171H38l.03-.133-.166-.037Zm1.61-7.19v-.17h-.137l-.03.132.166.038Zm1.468 0 .166.04.053-.21h-.219v.17Zm-2.286 9.132v.17h.133l.032-.128-.165-.042Zm-1.507 0-.165.044.033.127h.132v-.17Zm-1.942-7.344.165-.044-.034-.127h-.13v.17Zm-.026 0v-.17h-.13l-.034.127.164.043Zm-1.928 7.344v-.17h-1.52v.34h1.52v-.17Zm-1.52 0 .165-.04-2.274-9.134-.165.042-.165.04 2.273 9.134.166-.042Zm-2.274-9.132v.17h1.469v-.34h-1.469v.17Zm1.469 0-.166.037 1.61 7.191.165-.037.167-.037-1.61-7.192-.166.038Zm1.61 7.19v.171h.025v-.34h-.026v.17Zm.025 0 .165.044 1.89-7.191-.165-.043-.164-.044-1.89 7.192.164.043Zm1.89-7.19v.17h1.482v-.34h-1.482v.17Zm1.482 0-.165.043 1.904 7.192.164-.044.165-.044-1.903-7.191-.165.044Zm1.903 7.19v.171h.026v-.34h-.026v.17Zm.026 0 .166.038 1.61-7.191-.167-.037-.166-.038-1.61 7.192.167.037Zm1.61-7.19v.17h1.468v-.34h-1.469v.17Zm1.468 0-.165-.042-2.286 9.133.165.041.165.042 2.287-9.133-.166-.041Zm-2.286 9.132v-.17h-1.507v.34h1.507v-.17Zm-1.507 0 .164-.043-1.941-7.345-.165.044-.165.043 1.942 7.345.165-.044Zm-1.942-7.344v-.17h-.026v.34h.026v-.17Zm-.026 0-.164-.043-1.929 7.344.165.043.164.044 1.93-7.345-.166-.043Zm9.003 7.536v-.17c-.974 0-1.741-.336-2.265-.904-.526-.569-.822-1.386-.822-2.375h-.34c0 1.056.316 1.962.912 2.607.596.646 1.458 1.012 2.515 1.012v-.17Zm-3.257-3.449h.17c0-.981.296-1.803.824-2.377.526-.572 1.296-.914 2.276-.914v-.34c-1.064 0-1.93.373-2.527 1.024-.596.649-.914 1.558-.914 2.607h.17Zm3.27-3.461v.17c.967 0 1.73.338 2.253.908.525.57.82 1.389.82 2.37h.341c0-1.049-.317-1.955-.91-2.6-.595-.648-1.453-1.019-2.504-1.019v.17Zm3.244 3.449h-.17c0 .988-.296 1.809-.822 2.381-.525.571-1.291.91-2.265.91v.34c1.057 0 1.92-.37 2.516-1.02.594-.647.911-1.556.911-2.611h-.17Zm-3.244 2.426v.17c.715 0 1.253-.288 1.606-.768.348-.473.506-1.116.506-1.816h-.341c0 .655-.149 1.218-.44 1.614-.285.389-.719.63-1.331.63v.17Zm1.941-2.414h.17c0-.705-.157-1.349-.505-1.82-.354-.48-.891-.764-1.606-.764v.34c.613 0 1.046.24 1.332.626.29.394.439.957.439 1.618h.17Zm-1.941-2.414v-.17c-.727 0-1.271.284-1.628.763-.352.472-.51 1.116-.51 1.821h.341c0-.66.149-1.224.442-1.617.288-.387.727-.627 1.355-.627v-.17Zm-1.967 2.414h-.17c0 .7.157 1.343.509 1.817.356.48.9.768 1.628.768v-.34c-.627 0-1.066-.243-1.355-.632-.293-.395-.442-.958-.442-1.613h-.17Zm11.87 3.257v.17h.17v-.17h-.17Zm-1.252 0h-.17v.17h.17v-.17Zm-3.09 0v.17h.17v-.17h-.17Zm-1.252 0h-.17v.17h.17v-.17Zm0-6.514v-.17h-.17v.17h.17Zm1.251 0h.17v-.17h-.17v.17Zm0 .818h-.17v.17h.17v-.17Zm.026 0v.17h.09l.05-.074-.14-.096Zm2.146-1.01v.17c.569 0 1.067.164 1.42.488.352.321.58.818.58 1.527h.341c0-.786-.256-1.381-.69-1.779-.432-.394-1.02-.576-1.651-.576v.17Zm2.171 2.185h-.17v4.521h.34v-4.521h-.17Zm0 4.521v-.17h-1.25v.34h1.252v-.17Zm-1.252 0h.17v-4.176h-.34v4.176h.17Zm0-4.176h.17c0-.456-.1-.866-.349-1.164-.254-.303-.64-.463-1.149-.463v.34c.435 0 .714.134.888.342.178.213.27.532.27.945h.17ZM51.52 35.39v-.17c-.57 0-1.056.174-1.4.495-.345.321-.533.777-.533 1.31h.34c0-.45.157-.811.425-1.061.27-.251.666-.403 1.168-.403v-.17Zm-1.763 1.635h-.17v3.998h.34v-3.998h-.17Zm0 3.998v-.17h-1.252v.34h1.252v-.17Zm-1.252 0h.17V34.51h-.34v6.514h.17Zm0-6.514v.17h1.252v-.34h-1.252v.17Zm1.252 0h-.17v.818h.34v-.818h-.17Zm0 .818v.17h.026v-.34h-.026v.17Zm.026 0 .14.096c.315-.454.94-.935 2.006-.935v-.34c-1.183 0-1.911.54-2.286 1.082l.14.097Zm10.294-.026v.17h.17v-.17h-.17Zm0-3.41v-.17h-.17v.17h.17Zm1.252 0h.17v-.17h-.17v.17Zm0 9.132v.17h.17v-.17h-.17Zm-1.252 0h-.17v.17h.17v-.17Zm0-.766h.17v-.17h-.17v.17Zm-.025 0v-.17h-.084l-.05.066.134.104Zm0-4.956-.14.098.051.072h.089v-.17Zm.025 0h.17v-3.41h-.34v3.41h.17Zm0-3.41v.17h1.252v-.34h-1.252v.17Zm1.252 0h-.17v9.132h.34v-9.132h-.17Zm0 9.132v-.17h-1.252v.34h1.252v-.17Zm-1.252 0h.17v-.766h-.34v.766h.17Zm0-.766v-.17h-.025v.34h.025v-.17Zm-.025 0-.135-.104c-.332.427-.912.879-1.87.879v.34c1.084 0 1.756-.518 2.14-1.01l-.135-.105Zm-2.006.945v-.17c-.783 0-1.467-.303-1.957-.856-.491-.554-.797-1.37-.797-2.41h-.341c0 1.106.326 2.008.883 2.636.557.629 1.336.97 2.212.97v-.17Zm-2.925-3.436h.17c0-1.04.307-1.86.798-2.416.49-.556 1.174-.862 1.957-.862v-.34c-.877 0-1.655.344-2.213.976-.556.631-.882 1.536-.882 2.642h.17Zm2.925-3.448v.17c.96 0 1.537.44 1.866.91l.14-.097.14-.098c-.386-.55-1.062-1.056-2.146-1.056v.17Zm2.006.983v.17h.025v-.34h-.025v.17Zm-1.801 4.867v.17c.614 0 1.119-.258 1.464-.718.342-.455.52-1.095.52-1.854h-.34c0 .71-.168 1.271-.452 1.65-.28.373-.683.581-1.192.581v.17Zm1.814-2.402h.17c0-.764-.178-1.405-.52-1.859-.346-.459-.85-.712-1.464-.712v.34c.51 0 .912.206 1.192.578.284.376.451.936.451 1.653h.17Zm-1.814-2.401v-.17a1.77 1.77 0 0 0-1.514.795c-.328.477-.483 1.114-.483 1.776h.34c0-.615.145-1.178.424-1.583a1.43 1.43 0 0 1 1.233-.648v-.17Zm-1.827 2.401h-.17c0 .663.155 1.3.483 1.776.333.484.84.796 1.514.796v-.34a1.43 1.43 0 0 1-1.233-.649c-.279-.404-.423-.968-.423-1.583h-.17Zm12.28.332v.17h.15l.018-.148-.169-.022Zm-5.008 0v-.17h-.174l.004.174.17-.004Zm3.666.92v-.17h-.131l-.034.126.165.044Zm1.277 0 .165.045.059-.215h-.224v.17Zm-4.943-1.903-.17-.012-.013.182h.183v-.17Zm3.717 0v.17h.17v-.17h-.17Zm1.303.51h-.17c0 .186 0 .363-.012.452l.17.021.168.022c.015-.116.014-.322.014-.494h-.17Zm-.013.473v-.17h-5.007v.34h5.007v-.17Zm-5.007 0-.17.004c.013.573.189 1.137.542 1.56.358.428.888.702 1.582.702v-.341c-.595 0-1.03-.231-1.32-.58-.295-.352-.452-.836-.464-1.349l-.17.004Zm1.954 2.095v.17c.615 0 1.055-.199 1.357-.467.3-.266.455-.59.52-.834l-.165-.044-.165-.044a1.39 1.39 0 0 1-.416.667c-.237.21-.596.382-1.13.382v.17Zm1.712-1.175v.17h1.277v-.34h-1.277v.17Zm1.277 0-.164-.045c-.165.597-.473 1.113-.936 1.48-.462.365-1.09.592-1.914.592v.34c.888 0 1.594-.245 2.125-.665.53-.42.873-1.002 1.054-1.657l-.165-.045Zm-3.014 2.197v-.17c-.992 0-1.748-.35-2.258-.927-.513-.578-.79-1.4-.79-2.364h-.341c0 1.028.296 1.936.876 2.59.582.657 1.435 1.041 2.513 1.041v-.17Zm-3.219-3.462h.17c0-.988.297-1.806.818-2.375.52-.568 1.277-.903 2.23-.903v-.34c-1.038 0-1.89.367-2.481 1.013-.59.644-.907 1.55-.907 2.605h.17Zm3.219-3.448v.17c.95 0 1.674.312 2.162.848.49.539.759 1.324.759 2.303h.34c0-1.04-.286-1.915-.847-2.532-.563-.62-1.385-.96-2.414-.96v.17Zm-1.929 2.81v.17h3.717v-.34h-3.717v.17Zm3.717 0h.17c0-.552-.193-1.043-.546-1.398-.353-.354-.854-.56-1.45-.56v.34c.515 0 .926.177 1.209.46.283.285.447.687.447 1.158h.17Zm-1.826-1.788v-.17c-1.139 0-1.978.785-2.06 1.946l.17.012.17.012c.07-.986.763-1.63 1.72-1.63v-.17Zm7.814-.933h.17v-.149l-.148-.02-.022.17Zm0 1.2-.028.169.198.033v-.201h-.17Zm-2.376 5.43v.17h.17v-.17h-.17Zm-1.252 0h-.17v.17h.17v-.17Zm0-6.515v-.17h-.17v.17h.17Zm1.252 0h.17v-.17h-.17v.17Zm0 1.24h-.17v.17h.17v-.17Zm.026 0v.17h.113l.044-.105-.157-.066Zm1.75-1.393v.17c.222 0 .393.012.577.037l.023-.169.022-.169a4.559 4.559 0 0 0-.622-.04v.17Zm.6.038h-.17v1.2h.34v-1.2h-.17Zm0 1.2.028-.167a2.519 2.519 0 0 0-.45-.04v.34c.142 0 .247.011.394.036l.028-.168Zm-.421-.038v-.17c-.613 0-1.148.232-1.528.637-.38.404-.597.97-.597 1.628h.34c0-.581.192-1.062.505-1.395.313-.333.756-.53 1.28-.53v-.17Zm-1.955 2.095h-.17v3.372h.34v-3.372h-.17Zm0 3.372v-.17h-1.252v.34h1.252v-.17Zm-1.252 0h.17V34.51h-.34v6.514h.17Zm0-6.514v.17h1.252v-.34h-1.252v.17Zm1.252 0h-.17v1.24h.34v-1.24h-.17Zm0 1.24v.17h.026v-.341h-.026v.17Zm.026 0 .157.065c.166-.395.37-.717.628-.94.253-.219.565-.348.965-.348v-.34c-.482 0-.873.158-1.188.43-.311.27-.541.644-.72 1.066l.158.066Zm2.592 3.103v-.17h-.176l.005.175.17-.005Zm1.264 0 .17-.011-.01-.16h-.16v.171Zm1.405-.702-.039.165.004.001.035-.166Zm2.772-1.75v.17h.184l-.014-.184-.17.014Zm-1.265 0-.167.03.025.14h.142v-.17Zm-.996.69.039-.167h-.002l-.037.166Zm-.179 4.112v-.17c-.961 0-1.66-.248-2.119-.637-.457-.387-.694-.927-.712-1.548l-.17.005-.17.005c.02.707.293 1.342.832 1.798.537.455 1.321.718 2.34.718v-.17Zm-3.001-2.35v.17h1.264v-.34h-1.264v.17Zm1.264 0-.17.012c.028.408.168.79.484 1.069.314.277.778.43 1.41.43v-.34c-.58 0-.953-.14-1.185-.346-.23-.203-.346-.491-.369-.837l-.17.012Zm1.724 1.341v.17c.572 0 .966-.125 1.22-.342a1 1 0 0 0 .343-.786h-.34a.66.66 0 0 1-.225.527c-.168.144-.47.26-.998.26v.171Zm1.393-.958h.17a.957.957 0 0 0-.183-.591 1.151 1.151 0 0 0-.456-.346c-.345-.157-.802-.23-1.207-.315l-.036.167-.035.166c.438.093.836.155 1.136.292a.815.815 0 0 1 .326.24c.07.093.115.215.115.387h.17Zm-1.712-1.085.04-.166c-.574-.136-1.157-.28-1.597-.55-.427-.26-.712-.632-.712-1.239h-.34c0 .747.366 1.22.874 1.53.495.302 1.133.457 1.696.59l.04-.165Zm-2.44-1.955h.17c0-.511.205-.93.585-1.226.384-.299.963-.481 1.724-.481v-.34c-.811 0-1.471.193-1.933.552-.466.363-.716.883-.716 1.495h.17Zm2.478-1.877v.17c.864 0 1.483.23 1.894.579.41.347.629.824.67 1.346l.17-.013.17-.014a2.265 2.265 0 0 0-.79-1.579c-.486-.412-1.19-.66-2.114-.66v.17Zm2.734 2.082v-.17H77.82v.34h1.265v-.17Zm-1.265 0 .168-.03c-.047-.265-.146-.575-.397-.816-.255-.245-.64-.398-1.214-.398v.34c.512 0 .804.136.977.303.177.17.257.397.299.63l.167-.03Zm-1.443-1.073v-.17c-.44 0-.782.085-1.017.26a.867.867 0 0 0-.354.727h.34c0-.196.07-.346.216-.454.153-.113.412-.193.815-.193v-.17Zm-1.2.817h-.171c0 .202.055.372.165.51.107.135.255.227.418.297.316.134.756.206 1.198.305l.037-.167.037-.166c-.477-.106-.861-.168-1.139-.286a.698.698 0 0 1-.284-.194.457.457 0 0 1-.091-.299h-.17Zm1.647.945-.039.166c.606.142 1.202.293 1.65.578.22.14.399.31.523.524.124.212.2.477.2.814h.34c0-.39-.088-.715-.246-.986a1.895 1.895 0 0 0-.634-.639c-.505-.322-1.16-.483-1.755-.623l-.039.166Zm2.504 2.082h-.17c0 .584-.222 1.04-.633 1.355-.417.319-1.046.506-1.88.506v.34c.879 0 1.59-.196 2.087-.576.502-.384.766-.944.766-1.625h-.17Z" mask="url(#c)"/><mask id="d" width="25" height="44" x="-.496" y="-.037" fill="#000" maskUnits="userSpaceOnUse"><path fill="#fff" d="M-.496-.037h25v44h-25z"/><path d="m24.276 19.637-1.744-.003v-4.218s.012-2.554-.091-3.827c0-.254-.064-.5-.11-.745a2.715 2.715 0 0 0-.082-.373c0-.118-.082-.227-.119-.345a9.317 9.317 0 0 0-.767-1.964 11.396 11.396 0 0 0-1.06-1.636 7.556 7.556 0 0 0-1.445-1.409c-.265-.19-.52-.418-.785-.627a1.033 1.033 0 0 0-.201-.164 10.25 10.25 0 0 0-2.139-1.018l-1.188-.345a8.176 8.176 0 0 0-2.22-.182 7.863 7.863 0 0 0-1.829.155c-.77.15-1.52.385-2.239.7A8.82 8.82 0 0 0 6.183 4.88a12.77 12.77 0 0 0-1.426 1.29 13.26 13.26 0 0 0-1.188 1.71 10.947 10.947 0 0 0-.969 2.345c-.141.424-.247.8-.302 1.145-.05.398-.075.72-.09 1.073a43.324 43.324 0 0 0-.056 2.336v6.192l.001.35s.34.002.557-.014a4.83 4.83 0 0 0 .914-.145c.453-.103.899-.237 1.334-.4a13.89 13.89 0 0 0 1.654-.819c.274-.163.521-.354.777-.536a8.946 8.946 0 0 0 2.404-2.563 9.97 9.97 0 0 0 1.27-2.8 7.7 7.7 0 0 0 .256-1.364c.022-.305.072-.549.135-.849.037-.128 0-.452 0-.452s-.098-.248-.19-.344a3.982 3.982 0 0 0-1.197-.982l-.42-.19a1.61 1.61 0 0 1 .237-.155 4.68 4.68 0 0 0 1.49-1.291c.437-.61.613-1.227.776-2l.283-1.422c.403 1.604.15.634.403 1.604.193.716.295 1.285.685 1.818.252.352.56.659.914.909.22.145.439.264.658.4l.238.145-.366.2c-.622.334-1.16.6-1.552 1.185-.07.102-.13.552-.13.552s-.013.245.019.363c.08.702.205 1.397.375 2.082a11.833 11.833 0 0 0 1.453 2.973 10.03 10.03 0 0 0 2.742 2.608 7.454 7.454 0 0 0 1.827.964c.744.242 2.285.51 2.285.51s.23.03.925.102c.638.021.638.015.967.015h.356v10.491a11.707 11.707 0 0 1-2.787 7.517 11.466 11.466 0 0 1-2.532 2.255 10.8 10.8 0 0 1-2.559 1.254c-.43.136-.859.273-1.288.391-.254.071-.514.12-.777.145-.52.073-1.051.119-1.572.182a3.322 3.322 0 0 1-.85 0c-.457-.054-.914-.082-1.389-.154a8.058 8.058 0 0 1-1.033-.227 16.279 16.279 0 0 1-1.828-.619 11.39 11.39 0 0 1-2.193-1.254 12.275 12.275 0 0 1-2.742-2.782 10.887 10.887 0 0 1-1.535-3.009 15.851 15.851 0 0 1-.457-1.818 17.588 17.588 0 0 1-.183-2.836v-5.718a2.242 2.242 0 0 1 0-.245H2.18v5.427c0 1.027.082 2.045.182 3.063.065.432.175.855.33 1.264.156.469.342.927.557 1.372a9.097 9.097 0 0 0 2.742 3.518l.329.264a9.599 9.599 0 0 0 3.6 1.709 10.4 10.4 0 0 0 3.656.227 9.675 9.675 0 0 0 1.673-.382 10.64 10.64 0 0 0 2.248-.909 2.1 2.1 0 0 0 .338-.209c.557-.454 1.133-.909 1.663-1.381a8.003 8.003 0 0 0 1.536-2 8.37 8.37 0 0 0 .73-1.491l.494-1.445a1.552 1.552 0 0 0 0-.2c.082-1.082.21-2.146.201-3.228v-6.744c0-.173.004-.343-.014-.533-.139-.012-.21-.007-.348.002-.144.01-.369.049-.369.049s-1.936.387-2.815.836a9.73 9.73 0 0 0-2.805 2 9.853 9.853 0 0 0-1.874 2.654 15.955 15.955 0 0 0-.704 2.1.813.813 0 0 0-.054.2c-.074.618-.165 1.236-.22 1.818a.96.96 0 0 0 .302.745c.388.378 1.03.763 1.226.863l.318.165a3.48 3.48 0 0 1-.31.2 4.285 4.285 0 0 0-1.71 1.709c-.245.448-.35.934-.483 1.443-.33 1.144-.122.462-.313 1.146-.074-.211 0 0-.347-1.186-.153-.607-.33-1.254-.698-1.793a4.05 4.05 0 0 0-1.44-1.292l-.383-.227c.091-.046.238-.152.366-.219.197-.081 1.136-.749 1.571-1.381a.908.908 0 0 0 .12-.718c-.056-.319-.101-.637-.156-.91-.055-.272-.1-.6-.183-.908a6.635 6.635 0 0 0-.32-.91 10.118 10.118 0 0 0-3.911-4.9 7.9 7.9 0 0 0-2.23-1.117c-.32-.1-.65-.173-.97-.264-.09 0-.173-.045-.264-.054l-2.422-.164c-.164-.01-.33-.01-.493 0v-9.781c0-.682 0-1.364.1-2.046.11-.971.347-1.925.704-2.836a11.81 11.81 0 0 1 2.422-3.818c.803-.88 1.748-1.62 2.796-2.19.411-.244.835-.466 1.27-.664.558-.182 1.116-.318 1.664-.51.472-.142.96-.221 1.453-.235l.914-.082a3.04 3.04 0 0 1 .54-.082c.797.038 1.59.132 2.375.282 1.085.235 2.133.614 3.117 1.127a13.628 13.628 0 0 1 2.458 1.736 11.501 11.501 0 0 1 1.535 1.727 10.79 10.79 0 0 1 1.773 3.31c.408 1.231.618 2.52.622 3.817v6.4l.007.275Zm-5.49 2.652a20.953 20.953 0 0 1-1.033-.537 13.031 13.031 0 0 1-1.289-.79 11.73 11.73 0 0 1-1.828-1.628 10.653 10.653 0 0 1-1.471-1.954c-.183-.336-.347-.682-.53-1.027-.082-.146-.128-.327-.33-.382l-.063.055-.174.327a11.286 11.286 0 0 1-2.22 3.209 10.331 10.331 0 0 1-2.221 1.818c-.457.273-.914.509-1.399.754l-.237.164c.059.063.123.12.192.173l.795.427c.504.26.984.565 1.435.909.573.436 1.108.92 1.599 1.445a10.38 10.38 0 0 1 1.535 2.037c.238.427.457.909.695 1.3a.74.74 0 0 0 .128.172c.11-.19.2-.345.283-.5.238-.436.448-.909.713-1.3a12.088 12.088 0 0 1 2.678-2.981c.466-.391.975-.73 1.517-1.01l.868-.454c.128-.054.22-.127.356-.227Z"/></mask><path fill="#B4A297" d="m24.276 19.637-1.744-.003v-4.218s.012-2.554-.091-3.827c0-.254-.064-.5-.11-.745a2.715 2.715 0 0 0-.082-.373c0-.118-.082-.227-.119-.345a9.317 9.317 0 0 0-.767-1.964 11.396 11.396 0 0 0-1.06-1.636 7.556 7.556 0 0 0-1.445-1.409c-.265-.19-.52-.418-.785-.627a1.033 1.033 0 0 0-.201-.164 10.25 10.25 0 0 0-2.139-1.018l-1.188-.345a8.176 8.176 0 0 0-2.22-.182 7.863 7.863 0 0 0-1.829.155c-.77.15-1.52.385-2.239.7A8.82 8.82 0 0 0 6.183 4.88a12.77 12.77 0 0 0-1.426 1.29 13.26 13.26 0 0 0-1.188 1.71 10.947 10.947 0 0 0-.969 2.345c-.141.424-.247.8-.302 1.145-.05.398-.075.72-.09 1.073a43.324 43.324 0 0 0-.056 2.336v6.192l.001.35s.34.002.557-.014a4.83 4.83 0 0 0 .914-.145c.453-.103.899-.237 1.334-.4a13.89 13.89 0 0 0 1.654-.819c.274-.163.521-.354.777-.536a8.946 8.946 0 0 0 2.404-2.563 9.97 9.97 0 0 0 1.27-2.8 7.7 7.7 0 0 0 .256-1.364c.022-.305.072-.549.135-.849.037-.128 0-.452 0-.452s-.098-.248-.19-.344a3.982 3.982 0 0 0-1.197-.982l-.42-.19a1.61 1.61 0 0 1 .237-.155 4.68 4.68 0 0 0 1.49-1.291c.437-.61.613-1.227.776-2l.283-1.422c.403 1.604.15.634.403 1.604.193.716.295 1.285.685 1.818.252.352.56.659.914.909.22.145.439.264.658.4l.238.145-.366.2c-.622.334-1.16.6-1.552 1.185-.07.102-.13.552-.13.552s-.013.245.019.363c.08.702.205 1.397.375 2.082a11.833 11.833 0 0 0 1.453 2.973 10.03 10.03 0 0 0 2.742 2.608 7.454 7.454 0 0 0 1.827.964c.744.242 2.285.51 2.285.51s.23.03.925.102c.638.021.638.015.967.015h.356v10.491a11.707 11.707 0 0 1-2.787 7.517 11.466 11.466 0 0 1-2.532 2.255 10.8 10.8 0 0 1-2.559 1.254c-.43.136-.859.273-1.288.391-.254.071-.514.12-.777.145-.52.073-1.051.119-1.572.182a3.322 3.322 0 0 1-.85 0c-.457-.054-.914-.082-1.389-.154a8.058 8.058 0 0 1-1.033-.227 16.279 16.279 0 0 1-1.828-.619 11.39 11.39 0 0 1-2.193-1.254 12.275 12.275 0 0 1-2.742-2.782 10.887 10.887 0 0 1-1.535-3.009 15.851 15.851 0 0 1-.457-1.818 17.588 17.588 0 0 1-.183-2.836v-5.718a2.242 2.242 0 0 1 0-.245H2.18v5.427c0 1.027.082 2.045.182 3.063.065.432.175.855.33 1.264.156.469.342.927.557 1.372a9.097 9.097 0 0 0 2.742 3.518l.329.264a9.599 9.599 0 0 0 3.6 1.709 10.4 10.4 0 0 0 3.656.227 9.675 9.675 0 0 0 1.673-.382 10.64 10.64 0 0 0 2.248-.909 2.1 2.1 0 0 0 .338-.209c.557-.454 1.133-.909 1.663-1.381a8.003 8.003 0 0 0 1.536-2 8.37 8.37 0 0 0 .73-1.491l.494-1.445a1.552 1.552 0 0 0 0-.2c.082-1.082.21-2.146.201-3.228v-6.744c0-.173.004-.343-.014-.533-.139-.012-.21-.007-.348.002-.144.01-.369.049-.369.049s-1.936.387-2.815.836a9.73 9.73 0 0 0-2.805 2 9.853 9.853 0 0 0-1.874 2.654 15.955 15.955 0 0 0-.704 2.1.813.813 0 0 0-.054.2c-.074.618-.165 1.236-.22 1.818a.96.96 0 0 0 .302.745c.388.378 1.03.763 1.226.863l.318.165a3.48 3.48 0 0 1-.31.2 4.285 4.285 0 0 0-1.71 1.709c-.245.448-.35.934-.483 1.443-.33 1.144-.122.462-.313 1.146-.074-.211 0 0-.347-1.186-.153-.607-.33-1.254-.698-1.793a4.05 4.05 0 0 0-1.44-1.292l-.383-.227c.091-.046.238-.152.366-.219.197-.081 1.136-.749 1.571-1.381a.908.908 0 0 0 .12-.718c-.056-.319-.101-.637-.156-.91-.055-.272-.1-.6-.183-.908a6.635 6.635 0 0 0-.32-.91 10.118 10.118 0 0 0-3.911-4.9 7.9 7.9 0 0 0-2.23-1.117c-.32-.1-.65-.173-.97-.264-.09 0-.173-.045-.264-.054l-2.422-.164c-.164-.01-.33-.01-.493 0v-9.781c0-.682 0-1.364.1-2.046.11-.971.347-1.925.704-2.836a11.81 11.81 0 0 1 2.422-3.818c.803-.88 1.748-1.62 2.796-2.19.411-.244.835-.466 1.27-.664.558-.182 1.116-.318 1.664-.51.472-.142.96-.221 1.453-.235l.914-.082a3.04 3.04 0 0 1 .54-.082c.797.038 1.59.132 2.375.282 1.085.235 2.133.614 3.117 1.127a13.628 13.628 0 0 1 2.458 1.736 11.501 11.501 0 0 1 1.535 1.727 10.79 10.79 0 0 1 1.773 3.31c.408 1.231.618 2.52.622 3.817v6.4l.007.275Zm-5.49 2.652a20.953 20.953 0 0 1-1.033-.537 13.031 13.031 0 0 1-1.289-.79 11.73 11.73 0 0 1-1.828-1.628 10.653 10.653 0 0 1-1.471-1.954c-.183-.336-.347-.682-.53-1.027-.082-.146-.128-.327-.33-.382l-.063.055-.174.327a11.286 11.286 0 0 1-2.22 3.209 10.331 10.331 0 0 1-2.221 1.818c-.457.273-.914.509-1.399.754l-.237.164c.059.063.123.12.192.173l.795.427c.504.26.984.565 1.435.909.573.436 1.108.92 1.599 1.445a10.38 10.38 0 0 1 1.535 2.037c.238.427.457.909.695 1.3a.74.74 0 0 0 .128.172c.11-.19.2-.345.283-.5.238-.436.448-.909.713-1.3a12.088 12.088 0 0 1 2.678-2.981c.466-.391.975-.73 1.517-1.01l.868-.454c.128-.054.22-.127.356-.227Z"/><path fill="#B4A297" d="m12.286 39.25-.082.024.085.289.08-.29-.083-.023Zm.313-1.146-.082-.022-.313 1.146.082.022.082.023.313-1.147-.082-.022Zm-.313 1.146.082-.024-.348-1.186-.081.024-.082.024.347 1.186.082-.024Zm.147-34.255-.083.021.403 1.604.083-.021.082-.02-.403-1.605-.082.021Zm11.843 14.642v.17h.174l-.004-.174-.17.004Zm-1.744-.003h-.17v.17h.17v-.17Zm0-4.218h-.17.17Zm-.091-3.827h-.17v.014l.17-.014Zm-.11-.745-.168.025v.006l.168-.03Zm-.082-.373h-.17v.025l.007.024.163-.049Zm-.119-.345-.165.044.003.006.162-.05Zm-.767-1.964.15-.08-.15.08Zm-1.06-1.636.134-.104-.135.104Zm-1.445-1.409.102-.137-.002-.001-.1.138Zm-.785-.627-.124.117.009.01.01.007.105-.134Zm-.201-.164-.091.145.09-.145Zm-2.139-1.018.055-.161-.008-.002-.047.163Zm-1.188-.345.047-.164-.01-.003-.037.167Zm-2.22-.182-.006.17h.015l-.01-.17Zm-1.829.155.033.167h.001l-.034-.167Zm-2.239.7.067.156h.002l-.069-.157ZM6.183 4.88l.104.134.003-.002-.107-.132ZM4.757 6.17l-.124-.117-.008.01.132.108ZM3.569 7.88l-.147-.086-.002.003.149.083ZM2.6 10.226l.162.054.002-.008-.164-.046Zm-.302 1.145-.168-.027v.006l.168.021Zm-.09 1.073-.171-.008.17.008Zm-.056 2.336h.17v-.003l-.17.003Zm0 6.19h-.17v.001h.17Zm.001.35h-.17v.17h.169l.001-.17Zm.557-.013-.013-.17.013.17Zm.914-.145-.038-.167-.005.002.043.165Zm1.334-.4.06.16.005-.003-.065-.157Zm1.654-.819.086.148.001-.001-.087-.146Zm.777-.536.099.14v-.001l-.099-.139Zm2.404-2.563-.143-.094-.002.004.145.09Zm1.27-2.8-.164-.047v.001l.164.046Zm.256-1.364.17.016v-.003l-.17-.013Zm.135-.849-.164-.047-.002.012.166.035Zm0-.452.169-.02-.003-.022-.008-.02-.158.062Zm-.19-.344-.132.108.009.01.123-.118Zm-1.197-.982.08-.15-.01-.005-.07.155Zm-.42-.19-.105-.135-.223.173.257.116.07-.155Zm.237-.155.08.15h.002l-.082-.15Zm1.49-1.291.136.102.002-.003-.138-.099Zm.776-2 .167.035V6.45l-.167-.033Zm.283-1.422.165-.041-.333.008.168.033Zm.403 1.604-.165.043v.001l.165-.044Zm.685 1.818.139-.1h-.001l-.138.1Zm.914.909-.098.14.004.002.094-.142Zm.658.4-.09.145h.001l.09-.145Zm.238.145.082.15.258-.141-.251-.154-.09.145Zm-.366.2.08.15h.002l-.082-.15Zm-1.552 1.185.14.097.002-.002-.142-.095Zm-.13.552-.168-.022-.001.012.17.01Zm.019.363.17-.019-.002-.013-.004-.013-.164.045Zm.375 2.082-.166.041.004.012.162-.053Zm1.453 2.973-.141.095.002.003.139-.099Zm2.742 2.608.1-.138-.008-.005-.092.143Zm1.827.964-.058.16.006.002.052-.162Zm2.285.51-.029.167h.006l.023-.168Zm.925.102-.018.17h.012l.006-.17Zm1.323.015h.17v-.17h-.17v.17Zm0 10.49.17.001h-.17Zm-2.787 7.518-.13-.11-.001.001.13.11Zm-2.532 2.255-.093-.143h-.001l.094.143Zm-2.559 1.254.052.163.003-.001-.055-.162Zm-1.288.391-.045-.164h-.001l.046.164Zm-.777.145-.016-.17-.008.002.024.168Zm-1.572.182-.02-.169h-.002l.022.17Zm-.85 0 .022-.169h-.002l-.02.17Zm-1.389-.154.026-.169-.026.169Zm-1.033-.227.048-.164H9.49l-.045.163Zm-1.828-.619-.067.157.003.001.064-.158Zm-2.193-1.254-.1.137.1-.137Zm-2.742-2.782.14-.099H2.82l-.138.1Zm-1.535-3.009-.162.051v.002l.162-.053ZM.69 33.797l-.169.025.002.007.167-.032Zm-.183-2.836.17.003v-.003h-.17Zm0-5.718h.17v-.01l-.17.01Zm0-.245v-.17H.346l-.009.16.17.01Zm1.673 0h.17v-.17h-.17v.17Zm.182 8.49-.17.017.002.008.168-.025Zm.33 1.264.161-.054-.002-.007-.16.06Zm.557 1.372.156-.068-.003-.006-.153.074Zm2.742 3.518.106-.133-.002-.001-.104.134Zm.329.264-.107.133.003.002.104-.135Zm3.6 1.709.04-.166-.04.166Zm3.656.227.02.17.003-.001-.023-.169Zm1.673-.382-.046-.164-.007.002.053.162Zm2.248-.909-.076-.153-.006.004.082.15Zm.338-.209.103.136.005-.004-.108-.132Zm1.663-1.381.114.127.003-.004-.117-.123Zm1.536-2-.145-.09-.005.008.15.082Zm.73-1.491.16.06.002-.005-.161-.055Zm.494-1.445.162.055.007-.022.001-.022-.17-.011Zm0-.2-.17-.013v.024l.17-.011Zm.201-3.228h-.17v.002l.17-.002Zm-.014-7.277.17-.017-.014-.141-.142-.012-.014.17Zm-.348.002-.01-.17.01.17Zm-.369.049-.029-.168h-.004l.033.168Zm-2.815.836.073.154.005-.002-.078-.152Zm-2.805 2 .12.12.002-.001-.122-.12Zm-1.874 2.654-.154-.074-.003.009.157.065Zm-.704 2.1.158.066.004-.012.003-.011-.165-.043Zm-.054.2-.17-.024v.004l.17.02Zm-.22 1.818-.17-.016v.008l.17.008Zm.302.745.119-.122-.002-.002-.117.124Zm1.226.863.078-.152h-.001l-.077.151Zm.318.165.1.138.225-.162-.246-.128-.079.152Zm-.31.2.081.15.003-.002-.084-.148Zm-1.71 1.709.15.082-.15-.082Zm-.483 1.443.164.047.001-.004-.165-.043Zm-.313 1.146-.16.056.178.513.146-.523-.164-.046Zm-.347-1.186-.166.041.002.007.164-.048Zm-2.137-3.085-.087.147.006.003.08-.15Zm-.384-.227-.076-.153-.28.14.27.16.086-.147Zm.366-.219-.065-.157-.007.003-.006.003.078.151Zm1.571-1.381.14.096.003-.003-.143-.093Zm.12-.718-.17.029.004.013.165-.042Zm-.659-2.727-.16.06.004.008.156-.068Zm-3.911-4.9-.1.138.006.004.094-.142Zm-2.23-1.118.051-.163-.051.163Zm-.97-.264.048-.164-.023-.006h-.024v.17Zm-.264-.054.017-.17h-.006l-.011.17Zm-2.422-.164.012-.17h-.002l-.01.17Zm-.493 0h-.17v.18l.18-.01-.01-.17Zm.1-11.827.169.025V11.4l-.169-.02Zm.704-2.836.158.062-.158-.062Zm2.422-3.818.123.117.002-.002-.125-.115Zm2.796-2.19.082.15.005-.004-.087-.146Zm1.27-.664-.052-.162-.01.003-.008.004.07.155Zm1.664-.51-.05-.162-.006.002.056.16Zm1.453-.235.005.17h.01l-.015-.17Zm.914-.082.015.17.013-.002.012-.003-.04-.165Zm.54-.082.007-.17h-.019l.011.17Zm2.375.282.036-.167h-.004l-.032.167Zm3.117 1.127.082-.15-.004-.001-.078.15Zm2.458 1.736.115-.125-.002-.002-.113.127Zm1.535 1.727-.138.1.005.006.133-.106Zm1.773 3.31-.162.052.162-.053Zm.622 3.817h.17-.17Zm0 6.4h-.17v.004l.17-.004Zm-5.484 2.927.1.137.227-.165-.25-.125-.077.153Zm-1.032-.537.084-.148-.004-.002-.08.15Zm-1.289-.79-.1.138.003.001.097-.14Zm-1.828-1.628.126-.114-.002-.003-.124.117Zm-1.471-1.954-.15.081.003.005.147-.086Zm-.53-1.027.15-.08-.002-.004-.148.084Zm-.33-.382.045-.164-.086-.024-.069.058.11.13Zm-.063.055-.11-.13-.025.021-.016.029.15.08Zm-.174.327-.15-.08-.004.009.154.07Zm-2.22 3.209-.122-.12-.004.004.125.116ZM7.626 21.38l.087.146h.001l-.088-.146Zm-1.399.754-.077-.152-.01.006-.01.006.097.14Zm-.237.164-.097-.14-.163.112.135.144.125-.116Zm.192.173-.103.136.01.008.012.006.08-.15Zm.795.427-.08.15.002.001.078-.151Zm1.435.909-.104.135.104-.135Zm1.599 1.445-.125.117.003.002.122-.119Zm1.535 2.037.15-.083-.002-.003-.148.085Zm.695 1.3.15-.081-.005-.008-.145.088Zm.128.172-.12.12.156.158.111-.193-.147-.085Zm.283-.5-.15-.081v.001l.15.08Zm.713-1.3.141.096.003-.005-.144-.09Zm2.678-2.981.106.133.003-.003-.11-.13Zm1.517-1.01.078.152-.078-.151Zm.868-.454-.067-.157-.012.006.079.151Zm5.847-2.879v-.17l-1.743-.003v.34l1.742.004v-.17Zm-1.744-.003h.17v-.663h-.34v.663h.17Zm0-.663h.17v-3.554h-.34v3.555h.17Zm0-3.555.17.001v-.029l.001-.083a102.867 102.867 0 0 0-.007-1.327c-.01-.797-.033-1.76-.085-2.402l-.17.013-.17.014c.052.63.074 1.582.084 2.38a96.805 96.805 0 0 1 .007 1.321v.111l.17.002Zm-.091-3.827h.17c0-.275-.07-.547-.112-.776l-.168.031-.167.031c.049.262.107.48.107.714h.17Zm-.11-.745.169-.025a2.883 2.883 0 0 0-.087-.396l-.164.048-.163.049c.034.114.06.23.077.349l.168-.025Zm-.082-.373h.17a.596.596 0 0 0-.06-.241c-.031-.071-.052-.108-.066-.154l-.163.05-.162.05c.022.072.06.149.08.192a.275.275 0 0 1 .03.103h.171Zm-.119-.345.165-.044a9.499 9.499 0 0 0-.782-2l-.15.08-.151.08c.323.612.576 1.259.754 1.928l.164-.044Zm-.767-1.964.15-.08a11.49 11.49 0 0 0-1.076-1.66l-.135.104-.134.105c.394.506.743 1.046 1.044 1.611l.15-.08Zm-1.06-1.636.134-.105a7.726 7.726 0 0 0-1.477-1.44l-.102.136-.101.137c.53.394 1.005.857 1.411 1.377l.134-.105Zm-1.445-1.409.1-.138c-.262-.19-.503-.404-.78-.623l-.105.134-.106.134c.253.2.524.439.792.631l.1-.138Zm-.785-.627.123-.118a1.205 1.205 0 0 0-.234-.19l-.09.144-.09.145a.859.859 0 0 1 .167.136l.124-.117Zm-.201-.164.09-.144a10.42 10.42 0 0 0-2.174-1.035l-.055.161-.055.161a10.08 10.08 0 0 1 2.103 1.002l.09-.145Zm-2.139-1.018.047-.163-1.188-.346-.047.164-.048.163 1.188.346.048-.164Zm-1.188-.345.037-.167a8.346 8.346 0 0 0-2.267-.185l.01.17.009.17c.73-.04 1.46.02 2.174.178l.037-.166Zm-2.22-.182.005-.17a8.035 8.035 0 0 0-1.868.158l.034.167.034.166a7.694 7.694 0 0 1 1.789-.15l.005-.171Zm-1.829.155-.032-.168c-.783.153-1.546.392-2.275.711l.068.156.069.156a10.49 10.49 0 0 1 2.203-.688l-.033-.167Zm-2.239.7-.067-.157a8.99 8.99 0 0 0-2.114 1.27l.107.132.107.132a8.65 8.65 0 0 1 2.034-1.22l-.067-.158ZM6.183 4.88l-.105-.135c-.514.4-.997.837-1.445 1.308l.124.118.123.117a12.6 12.6 0 0 1 1.407-1.274l-.104-.134ZM4.757 6.17l-.132-.107a13.43 13.43 0 0 0-1.203 1.73l.147.087.147.086A13.09 13.09 0 0 1 4.889 6.28l-.132-.108ZM3.569 7.88l-.149-.083a11.12 11.12 0 0 0-.984 2.382l.164.046.164.046c.227-.803.547-1.578.954-2.309l-.15-.082ZM2.6 10.226l-.162-.054a7.506 7.506 0 0 0-.308 1.172l.168.027.169.027a7.18 7.18 0 0 1 .295-1.118l-.162-.054Zm-.302 1.145-.169-.021a13.1 13.1 0 0 0-.092 1.086l.17.008.17.008c.016-.349.041-.667.09-1.06l-.169-.02Zm-.09 1.073-.171-.008c-.023.5-.069 1.62-.055 2.347l.17-.003.17-.003c-.013-.715.032-1.823.055-2.325l-.17-.008Zm-.056 2.336h-.17v5.028h.34V14.78h-.17Zm0 5.027h-.17v.727h.34v-.727h-.17Zm0 .727h-.17v.436h.34v-.436h-.17Zm0 .437h-.17v.35h.171l.17-.001v-.35h-.17Zm.001.35-.001.17h.057l.143-.001c.113-.001.256-.005.37-.013l-.012-.17-.013-.17a6.175 6.175 0 0 1-.487.013h-.055l-.002.17Zm.557-.014.012.17c.384-.028.65-.075.944-.15l-.042-.165-.043-.165c-.273.07-.52.113-.884.14l.013.17Zm.914-.145.037.166c.461-.105.915-.24 1.357-.407l-.06-.16-.06-.159a9.843 9.843 0 0 1-1.312.393l.038.167Zm1.334-.4.065.157a14.13 14.13 0 0 0 1.675-.828l-.086-.148-.085-.147c-.526.305-1.072.575-1.634.808l.065.158Zm1.654-.819.087.147c.282-.168.54-.367.789-.544l-.099-.139-.099-.139c-.263.187-.499.37-.765.53l.087.146Zm.777-.536.099.139a9.115 9.115 0 0 0 2.45-2.613l-.145-.09-.145-.09A8.777 8.777 0 0 1 7.29 19.27l.099.138Zm2.404-2.563.142.093a10.144 10.144 0 0 0 1.292-2.848l-.164-.045-.164-.046A9.802 9.802 0 0 1 9.65 16.75l.143.094Zm1.27-2.8.164.046c.13-.455.217-.922.261-1.394l-.17-.016-.169-.016a7.37 7.37 0 0 1-.25 1.333l.164.047Zm.256-1.364.17.013a5.72 5.72 0 0 1 .132-.826l-.167-.036-.166-.035c-.064.3-.116.554-.14.872l.17.012Zm.135-.849.164.047a.715.715 0 0 0 .022-.165 2.055 2.055 0 0 0-.011-.297 4.778 4.778 0 0 0-.005-.052v-.003l-.001-.001-.17.019-.168.02v.012a2.87 2.87 0 0 1 .014.29.417.417 0 0 1-.008.083l.163.047Zm0-.452.158-.062v-.002l-.001-.002-.004-.01-.013-.031a2.392 2.392 0 0 0-.047-.103 1.052 1.052 0 0 0-.16-.252l-.123.118-.123.118c.025.027.063.09.1.165a2.104 2.104 0 0 1 .05.115l.003.007.001.001.159-.062Zm-.19-.344.132-.108a4.151 4.151 0 0 0-1.249-1.024l-.08.15-.08.15c.44.236.829.555 1.145.94l.132-.108Zm-1.197-.982.07-.155-.42-.19-.07.154-.071.155.42.191.07-.155Zm-.42-.19.104.134a1.53 1.53 0 0 1 .214-.14l-.081-.15-.08-.15c-.092.05-.18.107-.262.17l.104.135Zm.237-.155.082.15a4.851 4.851 0 0 0 1.544-1.339l-.136-.102-.137-.102a4.51 4.51 0 0 1-1.435 1.243l.082.15Zm1.49-1.291.138.1c.458-.64.64-1.286.805-2.065l-.167-.035-.166-.035c-.162.767-.333 1.356-.749 1.936l.139.099Zm.776-2 .168.033.282-1.422-.167-.033-.168-.033-.282 1.422.167.033Zm.283-1.422-.166.042c.401 1.593.153.639.404 1.605l.165-.043.165-.043c-.253-.973.003.012-.403-1.602l-.165.041Zm.403 1.604-.165.044c.189.698.3 1.309.713 1.875l.137-.101.138-.1c-.366-.501-.46-1.028-.659-1.763l-.164.045Zm.685 1.818-.138.1c.262.366.585.687.954.948l.098-.139.099-.14a3.702 3.702 0 0 1-.874-.868l-.139.099Zm.914.909-.094.142c.219.145.458.276.662.403l.09-.145.09-.145c-.234-.145-.434-.251-.654-.397l-.094.142Zm.658.4-.089.145.238.146.089-.146.089-.145-.238-.145-.089.145Zm.238.145-.082-.149-.366.2.082.15.082.149.366-.2-.082-.15Zm-.366.2-.08-.15c-.614.329-1.194.613-1.613 1.24l.141.095.142.095c.363-.544.86-.791 1.49-1.13l-.08-.15Zm-1.552 1.185-.14-.096a.627.627 0 0 0-.074.18 2.633 2.633 0 0 0-.044.199 5.18 5.18 0 0 0-.037.226l-.002.015v.006l.168.022.169.023v-.005l.002-.014a3.937 3.937 0 0 1 .073-.382c.016-.058.027-.078.025-.077l-.14-.097Zm-.13.552-.17-.01v.013l-.001.032-.002.104c0 .075.005.186.028.27l.164-.046.164-.045a.86.86 0 0 1-.015-.182 2.11 2.11 0 0 1 .002-.117v-.007l.001-.001-.17-.01Zm.019.363-.17.02c.081.708.208 1.41.38 2.103l.165-.041.165-.041a16.119 16.119 0 0 1-.37-2.06l-.17.02Zm.375 2.082-.162.053a12.008 12.008 0 0 0 1.474 3.015l.14-.096.142-.095a11.667 11.667 0 0 1-1.432-2.93l-.162.053Zm1.453 2.973-.139.099a10.2 10.2 0 0 0 2.788 2.653l.093-.144.092-.143a9.86 9.86 0 0 1-2.696-2.564l-.138.099Zm2.742 2.608-.1.139a7.627 7.627 0 0 0 1.87.985l.057-.16.058-.16a7.28 7.28 0 0 1-1.786-.942l-.1.138Zm1.827.964-.053.162c.383.125.963.253 1.44.35.241.05.458.09.615.12l.186.033.05.009.013.002h.005l.03-.167.028-.168h-.004l-.013-.003a31.52 31.52 0 0 1-.842-.16c-.478-.096-1.04-.222-1.402-.34l-.053.162Zm2.285.51-.023.168h.004l.009.002.036.004.157.019c.145.016.377.042.724.078l.018-.17.017-.169a61.01 61.01 0 0 1-.72-.078l-.154-.018-.035-.004-.008-.001h-.002l-.023.168Zm.925.102-.006.17c.641.022.644.016.973.016v-.341c-.33 0-.327.006-.961-.015l-.006.17Zm.967.015v.17h.356v-.34h-.356v.17Zm.356 0h-.17v.274h.34v-.273h-.17Zm0 .273h-.17v8.245h.34v-8.245h-.17Zm0 8.245h-.17v1.973h.34v-1.973h-.17Zm0 1.973-.17-.001a11.538 11.538 0 0 1-2.747 7.408l.13.11.13.11a11.878 11.878 0 0 0 2.828-7.627h-.17Zm-2.787 7.517-.131-.109a11.3 11.3 0 0 1-2.494 2.221l.093.143.094.142a11.638 11.638 0 0 0 2.569-2.288l-.131-.109Zm-2.532 2.255-.094-.142c-.78.52-1.628.936-2.519 1.235l.054.161.055.162a10.949 10.949 0 0 0 2.599-1.275l-.095-.141Zm-2.559 1.254-.051-.162c-.43.136-.857.272-1.282.389l.045.164.045.164c.433-.119.866-.256 1.295-.392l-.052-.163Zm-1.288.391-.046-.164a4.332 4.332 0 0 1-.747.14l.016.17.017.169a4.67 4.67 0 0 0 .806-.151l-.046-.164Zm-.777.145-.024-.168c-.521.072-1.037.116-1.569.181l.021.17.02.168c.511-.062 1.055-.11 1.575-.182l-.023-.169Zm-1.572.182-.022-.169a3.144 3.144 0 0 1-.806 0l-.022.17-.022.168c.297.038.597.038.894 0l-.022-.169Zm-.85 0 .02-.169c-.473-.056-.909-.081-1.383-.154l-.026.169-.026.168c.476.073.954.103 1.395.155l.02-.169Zm-1.389-.154.026-.169a7.861 7.861 0 0 1-1.011-.222l-.048.163-.047.164c.346.1.698.178 1.054.232l.026-.168Zm-1.033-.227.045-.165a16.117 16.117 0 0 1-1.808-.611l-.065.157-.064.158c.603.245 1.22.453 1.847.625l.045-.164Zm-1.828-.619.068-.156a11.227 11.227 0 0 1-2.16-1.236l-.1.138-.101.137c.692.506 1.438.933 2.226 1.274l.067-.157Zm-2.193-1.254.1-.137a12.106 12.106 0 0 1-2.703-2.743l-.139.098-.138.099a12.445 12.445 0 0 0 2.78 2.82l.1-.137Zm-2.742-2.782.138-.1a10.717 10.717 0 0 1-1.511-2.962l-.162.053-.162.053a11.056 11.056 0 0 0 1.56 3.056l.137-.1Zm-1.535-3.009.162-.05a15.74 15.74 0 0 1-.452-1.8l-.167.032-.167.032c.117.62.271 1.234.462 1.837l.162-.05ZM.69 33.797l.169-.024c-.136-.93-.197-1.87-.181-2.81l-.17-.002-.171-.003a17.82 17.82 0 0 0 .184 2.864l.169-.025Zm-.183-2.836h.17v-5.717h-.34v5.716h.17Zm0-5.718.17-.01a2.072 2.072 0 0 1 0-.226l-.17-.01-.17-.009a2.413 2.413 0 0 0 0 .265l.17-.01Zm0-.245v.17H2.18v-.34H.507v.17Zm1.673 0h-.17v.509h.34v-.51h-.17Zm0 .509h-.17v3.345h.34v-3.345h-.17Zm0 3.345h-.17v1.573h.34v-1.573h-.17Zm0 1.573h-.17c0 1.035.082 2.06.183 3.08l.17-.017.169-.017c-.1-1.016-.182-2.028-.182-3.046h-.17Zm.182 3.063-.168.025c.066.444.18.88.338 1.299l.16-.06.159-.06a5.958 5.958 0 0 1-.32-1.229l-.169.025Zm.33 1.264-.162.053c.158.476.347.942.566 1.394l.153-.075.153-.074a11.32 11.32 0 0 1-.549-1.352l-.161.054Zm.557 1.372-.156.069a9.267 9.267 0 0 0 2.793 3.584l.105-.135.104-.134a8.927 8.927 0 0 1-2.69-3.452l-.156.068Zm2.742 3.518-.107.133.33.264.106-.133.106-.133-.329-.264-.106.133Zm.329.264-.104.135a9.769 9.769 0 0 0 3.665 1.74l.04-.166.039-.166a9.43 9.43 0 0 1-3.537-1.678l-.103.135Zm3.6 1.709-.04.165a10.57 10.57 0 0 0 3.716.231l-.02-.169-.02-.169c-1.202.139-2.42.063-3.595-.224l-.04.166Zm3.656.227.023.169a9.84 9.84 0 0 0 1.702-.389l-.052-.162-.053-.162a9.508 9.508 0 0 1-1.643.375l.023.17Zm1.673-.382.045.165c.794-.22 1.56-.53 2.284-.924l-.081-.15-.082-.15c-.7.382-1.442.682-2.212.895l.046.164Zm2.248-.909.075.153c.13-.064.251-.14.366-.226l-.103-.136-.103-.136a1.932 1.932 0 0 1-.31.193l.075.152Zm.338-.209.108.132c.554-.452 1.135-.91 1.669-1.386l-.114-.127-.113-.128c-.527.47-1.097.92-1.658 1.377l.108.132Zm1.663-1.381.117.123a8.173 8.173 0 0 0 1.568-2.042l-.15-.081-.15-.081a7.834 7.834 0 0 1-1.502 1.957l.117.123Zm1.536-2 .144.09c.3-.482.549-.991.746-1.522l-.16-.06-.159-.059c-.19.51-.43.999-.716 1.46l.145.09Zm.73-1.491.162.055.494-1.445-.162-.055-.16-.056-.494 1.446.16.055Zm.494-1.445.17.01a1.716 1.716 0 0 0 0-.222l-.17.011-.17.012c.004.059.004.118 0 .177l.17.012Zm0-.2.17.012c.082-1.072.21-2.15.202-3.241l-.17.001-.171.002c.009 1.072-.118 2.121-.2 3.213l.17.013Zm.201-3.228h.17v-5.453h-.34v5.452h.17Zm0-5.454h.17v-1.291h-.34v1.291h.17Zm0-1.29h.17c0-.169.005-.349-.015-.55l-.17.017-.169.016c.018.18.014.34.014.516h.17Zm-.014-.533.014-.17c-.152-.013-.234-.007-.373.002l.012.17.01.17c.137-.009.197-.013.322-.003l.015-.17Zm-.348.002-.01-.17a3.39 3.39 0 0 0-.377.049l-.008.001h-.003l.03.169.028.167h.003l.007-.001.026-.005a5.908 5.908 0 0 1 .316-.04l-.012-.17Zm-.369.049-.033-.167h-.006a10.772 10.772 0 0 0-.314.067c-.197.045-.468.107-.767.185-.594.152-1.314.365-1.772.6l.077.15.078.153c.42-.215 1.107-.42 1.702-.574a23.38 23.38 0 0 1 .985-.23l.062-.013.016-.003.004-.001h.001l-.033-.167Zm-2.815.836-.072-.154a9.901 9.901 0 0 0-2.855 2.035l.122.119.122.119a9.561 9.561 0 0 1 2.756-1.965l-.073-.154Zm-2.805 2-.121-.12a10.043 10.043 0 0 0-1.906 2.7l.153.074.154.074a9.685 9.685 0 0 1 1.84-2.608l-.12-.12Zm-1.874 2.654-.157-.065c-.286.69-.524 1.4-.711 2.122l.165.043.164.043c.184-.708.417-1.402.697-2.078l-.158-.065Zm-.704 2.1-.157-.066a.984.984 0 0 0-.066.242l.169.024.168.024a.645.645 0 0 1 .044-.158l-.158-.066Zm-.054.2-.17-.02c-.072.61-.164 1.238-.22 1.822l.17.016.17.016c.054-.58.145-1.188.219-1.814l-.17-.02Zm-.22 1.818-.17-.008c-.008.163.02.326.081.477l.158-.063.158-.064a.79.79 0 0 1-.057-.334l-.17-.008Zm.07.406-.159.063c.062.152.155.288.274.4l.117-.123.117-.125a.794.794 0 0 1-.192-.28l-.158.065Zm.232.34-.119.122c.405.394 1.063.788 1.268.892l.077-.152.077-.153c-.189-.095-.813-.47-1.184-.832l-.12.123Zm1.226.861-.079.152.319.165.078-.151.079-.152-.319-.165-.078.151Zm.318.166-.1-.138a3.338 3.338 0 0 1-.295.19l.085.148.084.148c.112-.065.221-.135.326-.21l-.1-.138Zm-.31.2-.082-.15a4.454 4.454 0 0 0-1.777 1.777l.15.082.15.081a4.114 4.114 0 0 1 1.64-1.64l-.081-.15Zm-1.71 1.709-.149-.082c-.259.471-.368.984-.499 1.482l.165.043.165.043c.136-.52.235-.98.468-1.404l-.15-.082Zm-.483 1.443-.163-.047c-.165.57-.197.69-.212.755-.012.056-.007.053-.102.392l.164.046.164.046c.097-.346.093-.349.107-.41.011-.05.04-.16.206-.735l-.164-.047Zm-.313 1.146.16-.056c-.071-.206.007.02-.344-1.178l-.163.048-.164.048c.344 1.175.275.978.35 1.194l.16-.056Zm-.347-1.186.165-.041c-.152-.606-.336-1.28-.723-1.848l-.14.096-.141.096c.348.511.52 1.13.674 1.738l.165-.041Zm-.698-1.793.14-.096a4.22 4.22 0 0 0-1.499-1.346l-.08.15-.08.15a3.88 3.88 0 0 1 1.378 1.238l.14-.096ZM9.8 34.979l.087-.147-.383-.227-.087.147-.087.146.384.227.087-.146Zm-.383-.227.076.152a1.98 1.98 0 0 0 .184-.11c.065-.04.128-.08.185-.11l-.079-.15-.078-.152a2.948 2.948 0 0 0-.21.125c-.068.042-.118.074-.154.092l.076.153Zm.366-.219.066.158a1.99 1.99 0 0 0 .298-.179c.126-.086.28-.2.44-.331.318-.26.676-.597.908-.932l-.14-.097-.14-.097c-.205.297-.534.61-.843.862a6.391 6.391 0 0 1-.418.314 1.78 1.78 0 0 1-.236.145l.065.157Zm1.571-1.381.143.093c.081-.125.136-.265.16-.412l-.168-.028-.168-.028a.736.736 0 0 1-.11.282l.143.093Zm.135-.347.168.028a1.075 1.075 0 0 0-.019-.441l-.165.042-.165.042c.025.098.03.201.013.301l.168.028Zm-.016-.371.168-.03c-.053-.31-.1-.638-.156-.913l-.167.034-.167.033c.054.27.098.58.154.905l.168-.03Zm-.155-.91.167-.033c-.052-.258-.102-.604-.185-.92l-.165.045-.165.043c.081.304.123.612.18.9l.168-.034Zm-.183-.908.165-.044a6.821 6.821 0 0 0-.329-.933l-.156.068-.156.068c.116.266.232.585.311.884l.165-.043Zm-.32-.91.16-.06a10.289 10.289 0 0 0-3.978-4.981l-.093.142-.094.142a9.947 9.947 0 0 1 3.846 4.817l.16-.06Zm-3.911-4.9.1-.137a8.074 8.074 0 0 0-2.279-1.143l-.051.163-.052.162a7.732 7.732 0 0 1 2.182 1.094l.1-.138Zm-2.23-1.117.05-.163c-.318-.1-.67-.179-.972-.265l-.047.164-.047.164c.338.096.643.162.965.262l.05-.162Zm-.97-.264v-.17a.326.326 0 0 1-.084-.017c-.037-.011-.098-.03-.163-.037l-.017.17-.017.17c.027.002.052.01.102.024.044.012.108.03.18.03v-.17Zm-.264-.054.011-.17-2.421-.164-.012.17-.011.17 2.421.164.012-.17Zm-2.422-.164.01-.17a4.39 4.39 0 0 0-.513 0l.01.17.01.17c.157-.009.315-.009.473 0l.01-.17Zm-.493 0h.17v-.273h-.34v.273h.17Zm0-.273h.17v-9.508h-.34v9.508h.17Zm0-9.508h.17c0-.684 0-1.353.099-2.02l-.169-.026-.168-.024c-.103.696-.103 1.39-.103 2.07h.17Zm.1-2.046.17.02a11.08 11.08 0 0 1 .692-2.794l-.158-.062-.159-.062a11.42 11.42 0 0 0-.714 2.88l.17.018Zm.704-2.836.158.062a11.639 11.639 0 0 1 2.387-3.763l-.123-.117-.124-.117A11.98 11.98 0 0 0 1.17 8.482l.159.062Zm2.422-3.818.125.115c.79-.866 1.72-1.595 2.753-2.156l-.082-.15-.081-.15a10.882 10.882 0 0 0-2.841 2.226l.126.115Zm2.796-2.19.087.146c.406-.24.825-.46 1.254-.655l-.07-.155-.071-.155c-.44.2-.87.425-1.287.672l.087.147Zm1.27-.664.053.162c.276-.09.551-.169.83-.25.278-.08.558-.163.837-.26l-.056-.161-.056-.161c-.27.094-.542.175-.82.255-.276.08-.558.161-.84.253l.053.162Zm1.664-.51.05.164a5.414 5.414 0 0 1 1.408-.23l-.005-.17-.005-.17a5.754 5.754 0 0 0-1.497.244l.049.163Zm1.453-.235.015.17.914-.083-.015-.17-.015-.169-.914.082.015.17Zm.914-.082.04.165c.167-.04.338-.067.51-.077l-.01-.17-.011-.17a3.21 3.21 0 0 0-.57.086l.04.166Zm.54-.082-.01.17c.79.038 1.577.131 2.353.279l.032-.167.032-.168a17.305 17.305 0 0 0-2.4-.284l-.008.17Zm2.375.282-.036.166c1.07.232 2.104.606 3.074 1.112l.079-.151.078-.151a12.573 12.573 0 0 0-3.159-1.143l-.036.167Zm3.117 1.127-.083.149c.87.48 1.685 1.056 2.428 1.715l.113-.128.113-.127a13.797 13.797 0 0 0-2.489-1.758l-.082.149Zm2.458 1.736-.115.126a11.31 11.31 0 0 1 1.512 1.701l.138-.1.139-.1a11.678 11.678 0 0 0-1.559-1.752l-.115.125Zm1.535 1.727-.133.106a10.618 10.618 0 0 1 1.744 3.256l.162-.053.162-.053a10.96 10.96 0 0 0-1.8-3.361l-.135.105Zm1.773 3.31-.161.053c.402 1.215.608 2.486.613 3.765h.17l.17-.001a12.445 12.445 0 0 0-.63-3.871l-.162.053Zm.622 3.817h-.17V17.7h.34v-4.739h-.17Zm0 4.736h-.17v1.663h.34v-1.664h-.17Zm0 1.664-.17.004.006.275.17-.004.17-.004-.006-.275-.17.004Zm-5.484 2.927.076-.153c-.384-.191-.71-.352-1.024-.532l-.084.149-.084.148c.324.184.658.35 1.04.54l.076-.152Zm-1.032-.537.08-.15a12.862 12.862 0 0 1-1.271-.78l-.098.14-.097.14c.419.291.855.559 1.305.8l.08-.15Zm-1.289-.79.1-.139a11.555 11.555 0 0 1-1.802-1.603l-.126.114-.126.115a11.9 11.9 0 0 0 1.855 1.651l.1-.138Zm-1.828-1.628.124-.117a10.475 10.475 0 0 1-1.448-1.923l-.147.086-.147.086c.42.717.922 1.383 1.495 1.986l.123-.118Zm-1.471-1.954.15-.081c-.186-.341-.34-.666-.53-1.026l-.15.08-.15.08c.174.33.35.697.53 1.028l.15-.08Zm-.53-1.027.148-.084c-.017-.031-.032-.063-.053-.105a1.18 1.18 0 0 0-.073-.13.523.523 0 0 0-.307-.227l-.044.164-.045.165c.05.013.081.04.112.086a.825.825 0 0 1 .051.093c.017.035.039.08.063.122l.148-.084Zm-.33-.382-.11-.13-.064.055.11.13.111.13.064-.055-.11-.13Zm-.063.055-.15-.08-.174.327.15.08.15.08.174-.328-.15-.08Zm-.174.327-.154-.071a11.12 11.12 0 0 1-2.188 3.16l.121.12.122.12a11.459 11.459 0 0 0 2.254-3.258l-.155-.071Zm-2.22 3.209-.126-.116a10.163 10.163 0 0 1-2.184 1.788l.089.146.088.145a10.502 10.502 0 0 0 2.258-1.848l-.126-.115ZM7.626 21.38l-.088-.146c-.451.269-.904.503-1.388.748l.077.152.077.152c.485-.245.947-.484 1.409-.76l-.087-.146Zm-1.399.754-.096-.14-.238.164.097.14.096.14.238-.163-.097-.14Zm-.237.164-.125.116c.066.07.137.135.214.193l.103-.136.102-.136a1.316 1.316 0 0 1-.17-.153l-.124.116Zm.192.173-.081.15.795.427.08-.15.081-.15-.795-.427-.08.15Zm.795.427-.078.151a9.58 9.58 0 0 1 1.41.893l.103-.135.103-.135a9.842 9.842 0 0 0-1.46-.925l-.078.15Zm1.435.909-.103.136c.565.43 1.093.906 1.577 1.425l.125-.116.124-.116a12.828 12.828 0 0 0-1.62-1.465l-.103.136Zm1.599 1.445-.122.119a10.205 10.205 0 0 1 1.51 2.003l.147-.085.148-.086a10.548 10.548 0 0 0-1.56-2.07l-.123.12Zm1.535 2.037-.149.082c.117.21.23.434.345.659.114.223.23.446.353.647l.146-.088.145-.089a9.657 9.657 0 0 1-.34-.626c-.114-.22-.23-.451-.35-.668l-.15.082Zm.695 1.3-.15.08c.041.078.095.15.157.212l.12-.12.121-.12a.565.565 0 0 1-.098-.133l-.15.08Zm.128.172.148.085c.108-.188.201-.347.285-.505l-.15-.08-.15-.08c-.08.151-.17.302-.28.495l.147.085Zm.283-.5.15.082c.247-.454.445-.904.704-1.286l-.141-.096-.141-.095c-.27.399-.494.895-.721 1.314l.15.081Zm.713-1.3.144.091a11.914 11.914 0 0 1 2.64-2.94l-.106-.132-.106-.134a12.254 12.254 0 0 0-2.716 3.024l.144.091Zm2.678-2.981.11.13a8.115 8.115 0 0 1 1.485-.988l-.078-.151-.078-.152a8.465 8.465 0 0 0-1.549 1.03l.11.13Zm1.517-1.01.079.152.868-.455-.079-.15-.079-.152-.868.455.079.15Zm.868-.454.067.157c.15-.064.26-.152.39-.246l-.1-.138-.101-.138c-.145.106-.217.163-.323.208l.067.157Z" mask="url(#d)"/></svg>