<svg xmlns="http://www.w3.org/2000/svg" width="20" height="19" fill="none"><g fill="#656267" stroke="#656267" clip-path="url(#a)"><path d="m11.575 12.354.088.003a.897.897 0 0 1 .48.2l.064.06.06.065a.896.896 0 0 1 0 1.135l-.06.066a.896.896 0 0 1-.632.263h-3.96a.896.896 0 0 1-.567-.204l-.065-.06a.897.897 0 0 1-.259-.544l-.004-.089.004-.088a.896.896 0 0 1 .259-.545l.065-.06a.9.9 0 0 1 .568-.202h3.959Z"/><path d="M9.595.941c.736 0 1.45.249 2.027.705l5.146 4.062.142.12c.322.285.586.632.774 1.02l.076.17c.166.398.251.825.251 1.257v6.37l-.004.162a3.272 3.272 0 0 1-3.266 3.109H4.449a3.271 3.271 0 0 1-2.196-.847l-.117-.111a3.272 3.272 0 0 1-.958-2.313v-6.37l.005-.185c.025-.43.134-.852.322-1.241l.086-.164c.21-.377.492-.71.831-.977l5.146-4.062.223-.162A3.272 3.272 0 0 1 9.595.941Zm0 1.792a1.48 1.48 0 0 0-.816.246l-.1.073-5.147 4.062a1.48 1.48 0 0 0-.333.37l-.081.146a1.481 1.481 0 0 0-.148.645v6.37c0 .392.156.768.433 1.045l.108.1c.263.215.594.334.938.334H14.74a1.48 1.48 0 0 0 1.48-1.48V8.276l-.01-.167a1.48 1.48 0 0 0-.428-.883l-.126-.11-5.146-4.063a1.479 1.479 0 0 0-.916-.319Z"/></g><defs><clipPath id="a"><path fill="#fff" d="M.095 0h19v19h-19z"/></clipPath></defs></svg>