<svg width="48" height="48" viewBox="0 0 48 48" fill="none" xmlns="http://www.w3.org/2000/svg">
    <rect x="0.5" y="0.5" width="47" height="47" rx="23.5" stroke="white" />
    <path
        d="M20.0055 24.0614C20.0055 21.8504 21.7969 20.0576 24.0073 20.0576C26.2176 20.0576 28.01 21.8504 28.01 24.0614C28.01 26.2725 26.2176 28.0653 24.0073 28.0653C21.7969 28.0653 20.0055 26.2725 20.0055 24.0614ZM17.8417 24.0614C17.8417 27.4677 20.602 30.2288 24.0073 30.2288C27.4125 30.2288 30.1728 27.4677 30.1728 24.0614C30.1728 20.6552 27.4125 17.8941 24.0073 17.8941C20.602 17.8941 17.8417 20.6552 17.8417 24.0614ZM28.976 17.6496C28.9759 17.9346 29.0603 18.2133 29.2185 18.4504C29.3768 18.6875 29.6017 18.8723 29.865 18.9815C30.1282 19.0907 30.4179 19.1194 30.6974 19.0639C30.977 19.0084 31.2337 18.8712 31.4353 18.6697C31.6369 18.4682 31.7743 18.2115 31.83 17.9319C31.8857 17.6523 31.8573 17.3625 31.7483 17.0991C31.6394 16.8357 31.4548 16.6106 31.2179 16.4521C30.981 16.2936 30.7024 16.209 30.4175 16.2089H30.4169C30.0349 16.2091 29.6686 16.3609 29.3985 16.631C29.1283 16.9011 28.9764 17.2675 28.976 17.6496ZM19.1564 33.8378C17.9857 33.7845 17.3494 33.5895 16.9266 33.4247C16.366 33.2064 15.966 32.9464 15.5455 32.5263C15.1249 32.1062 14.8646 31.7065 14.6473 31.1457C14.4825 30.7229 14.2875 30.0863 14.2343 28.9153C14.1761 27.6493 14.1644 27.269 14.1644 24.0615C14.1644 20.8541 14.177 20.4749 14.2343 19.2078C14.2876 18.0368 14.484 17.4014 14.6473 16.9774C14.8656 16.4166 15.1255 16.0165 15.5455 15.5958C15.9654 15.1752 16.365 14.9148 16.9266 14.6975C17.3492 14.5326 17.9857 14.3375 19.1564 14.2843C20.422 14.2261 20.8022 14.2144 24.0073 14.2144C27.2123 14.2144 27.5929 14.227 28.8596 14.2843C30.0303 14.3376 30.6655 14.5341 31.0894 14.6975C31.65 14.9148 32.05 15.1758 32.4705 15.5958C32.8911 16.0159 33.1504 16.4166 33.3687 16.9774C33.5335 17.4001 33.7285 18.0368 33.7817 19.2078C33.8399 20.4749 33.8515 20.8541 33.8515 24.0615C33.8515 27.269 33.8399 27.6482 33.7817 28.9153C33.7284 30.0863 33.5324 30.7228 33.3687 31.1457C33.1504 31.7065 32.8905 32.1066 32.4705 32.5263C32.0506 32.946 31.65 33.2064 31.0894 33.4247C30.6667 33.5896 30.0303 33.7846 28.8596 33.8378C27.594 33.8961 27.2138 33.9077 24.0073 33.9077C20.8008 33.9077 20.4216 33.8961 19.1564 33.8378ZM19.0569 12.1235C17.7787 12.1817 16.9052 12.3845 16.1424 12.6814C15.3525 12.988 14.6837 13.3993 14.0154 14.0667C13.3472 14.7342 12.937 15.4042 12.6305 16.1944C12.3337 16.9579 12.131 17.8311 12.0728 19.1097C12.0136 20.3903 12.0001 20.7997 12.0001 24.0614C12.0001 27.3232 12.0136 27.7326 12.0728 29.0132C12.131 30.2919 12.3337 31.165 12.6305 31.9285C12.937 32.7183 13.3473 33.389 14.0154 34.0561C14.6836 34.7233 15.3525 35.134 16.1424 35.4415C16.9067 35.7384 17.7787 35.9411 19.0569 35.9994C20.3379 36.0576 20.7465 36.0721 24.0073 36.0721C27.268 36.0721 27.6773 36.0586 28.9576 35.9994C30.2359 35.9411 31.1088 35.7384 31.8721 35.4415C32.6616 35.134 33.3308 34.7236 33.9991 34.0561C34.6674 33.3887 35.0767 32.7183 35.384 31.9285C35.6809 31.165 35.8845 30.2918 35.9417 29.0132C36 27.7316 36.0135 27.3232 36.0135 24.0614C36.0135 20.7997 36 20.3903 35.9417 19.1097C35.8835 17.831 35.6809 16.9574 35.384 16.1944C35.0767 15.4046 34.6663 14.7352 33.9991 14.0667C33.3319 13.3983 32.6616 12.988 31.873 12.6814C31.1088 12.3845 30.2358 12.1808 28.9586 12.1235C27.6783 12.0653 27.269 12.0508 24.0082 12.0508C20.7475 12.0508 20.3379 12.0643 19.0569 12.1235Z"
        fill="white" />
</svg>