<svg xmlns="http://www.w3.org/2000/svg" width="48" height="48" fill="none"><rect width="47" height="47" x=".5" y=".5" stroke="#fff" rx="23.5"/><path fill="#fff" d="M24 20.026a3.976 3.976 0 0 0 0 7.952A3.984 3.984 0 0 0 27.978 24 3.98 3.98 0 0 0 24 20.026Z"/><path fill="#fff" d="M29.998 13.167H18.003a4.844 4.844 0 0 0-4.836 4.836v11.995a4.84 4.84 0 0 0 4.836 4.836h11.995a4.838 4.838 0 0 0 4.836-4.836V18.003a4.84 4.84 0 0 0-4.836-4.836ZM24 31.02c-3.87 0-7.02-3.15-7.02-7.02 0-3.87 3.15-7.015 7.02-7.015 3.87 0 7.02 3.146 7.02 7.015 0 3.87-3.15 7.02-7.02 7.02Zm7.168-12.761a1.485 1.485 0 0 1-1.487-1.482c0-.82.668-1.487 1.487-1.487a1.485 1.485 0 1 1 0 2.968Z"/></svg>