<svg width="22" height="22" viewBox="0 0 22 22" fill="none" xmlns="http://www.w3.org/2000/svg">
<path d="M10.833 6.85938C8.64038 6.85938 6.85938 8.64038 6.85938 10.833C6.85938 13.0257 8.64038 14.811 10.833 14.811C13.0257 14.811 14.811 13.0257 14.811 10.833C14.811 8.64038 13.0257 6.85938 10.833 6.85938Z" fill="white"/>
<path d="M16.8307 0H4.836C2.171 0 0 2.171 0 4.836V16.8307C0 19.5 2.171 21.6667 4.836 21.6667H16.8307C19.5 21.6667 21.6667 19.5 21.6667 16.8307V4.836C21.6667 2.171 19.5 0 16.8307 0ZM10.8333 17.8533C6.96367 17.8533 3.81333 14.703 3.81333 10.8333C3.81333 6.96367 6.96367 3.81767 10.8333 3.81767C14.703 3.81767 17.8533 6.96367 17.8533 10.8333C17.8533 14.703 14.703 17.8533 10.8333 17.8533ZM18.0007 5.09167C17.1817 5.09167 16.5143 4.42867 16.5143 3.60967C16.5143 2.79067 17.1817 2.12333 18.0007 2.12333C18.8197 2.12333 19.487 2.79067 19.487 3.60967C19.487 4.42867 18.8197 5.09167 18.0007 5.09167Z" fill="white"/>
</svg>
