<svg xmlns="http://www.w3.org/2000/svg" width="42" height="42" fill="none"><path fill="#A5958B" stroke="#A5958B" d="M21 .75C32.192.75 41.25 9.807 41.25 21c0 11.192-9.057 20.25-20.25 20.25C9.808 41.25.75 32.193.75 21 .75 9.808 9.807.75 21 .75Zm0 3.625C11.811 4.375 4.375 11.81 4.375 21c0 9.189 7.435 16.625 16.625 16.625 9.189 0 16.625-7.436 16.625-16.625S30.189 4.375 21 4.375Z"/><path fill="#A5958B" stroke="#A5958B" d="M21 10.818c1.001 0 1.813.812 1.813 1.813v10.061a1.813 1.813 0 0 1-3.625 0V12.631c0-1.001.811-1.813 1.812-1.813Zm0 15.1a2.36 2.36 0 1 1 0 4.719 2.36 2.36 0 0 1 0-4.719Z"/></svg>