<svg width="42" height="42" viewBox="0 0 42 42" fill="none" xmlns="http://www.w3.org/2000/svg">
<path d="M21 0.75C32.1922 0.75 41.25 9.807 41.25 21C41.25 32.1922 32.193 41.25 21 41.25C9.8078 41.25 0.75 32.193 0.75 21C0.75 9.8078 9.807 0.75 21 0.75ZM21 4.375C11.8111 4.375 4.375 11.8105 4.375 21C4.375 30.1889 11.8105 37.625 21 37.625C30.1889 37.625 37.625 30.1895 37.625 21C37.625 11.8111 30.1895 4.375 21 4.375Z" fill="#A5958B" stroke="#A5958B" stroke-width="0.5"/>
<path d="M21 10.8184C22.001 10.8184 22.8125 11.6298 22.8125 12.6309V22.6924C22.8125 23.6934 22.001 24.5049 21 24.5049C19.999 24.5049 19.1875 23.6934 19.1875 22.6924V12.6309C19.1875 11.6298 19.999 10.8184 21 10.8184Z" fill="#A5958B" stroke="#A5958B" stroke-width="0.5"/>
<path d="M21 25.918C22.303 25.918 23.3594 26.9743 23.3594 28.2773C23.3594 29.5804 22.303 30.6367 21 30.6367C19.697 30.6367 18.6406 29.5804 18.6406 28.2773C18.6406 26.9743 19.697 25.918 21 25.918Z" fill="#A5958B" stroke="#A5958B" stroke-width="0.5"/>
</svg>
