<svg width="912" height="515" viewBox="0 0 912 515" fill="none" xmlns="http://www.w3.org/2000/svg">
<path d="M986.624 237.951L986.106 235.461L985.73 234.743L984.436 233.869L983.777 233.599L983.048 233.442L981.001 233.622L980.39 233.555L980.061 233.42L979.755 233.196L979.59 232.859V232.366L979.473 232.074L979.19 231.783L977.567 230.549L977.073 230.033L976.861 229.562L977.144 228.934L977.497 228.552L977.544 228.216L976.885 227.7L975.662 227.117L975.05 226.691L974.674 226.107V225.3L974.885 224.605L974.932 224.021L974.415 223.55L972.698 222.541L972.157 222.406L971.051 222.653H970.534L969.945 222.294L969.498 221.733L969.31 221.262L969.404 220.724L969.781 220.073L970.651 218.885L971.145 218.526L972.298 218.436L972.792 218.234L973.262 217.898L973.756 217.427L973.168 216.843L972.886 216.44L972.839 216.013L972.98 215.654L973.192 215.251L973.356 214.847L973.333 214.443L973.098 214.309H972.674L971.921 214.488L971.545 214.466L970.534 213.905L969.757 213.86L969.404 214.376L969.146 215.116L968.652 215.722L968.51 215.767L968.346 215.744L968.205 215.722L967.993 215.856L967.687 216.193L967.57 216.305L966.44 216.955L966.582 217.337L966.676 217.741L966.652 218.077L966.488 218.279L966.088 218.481L964.488 219.916L962.959 220.432L961.571 221.374L960.96 222.563L960.183 224.47L959.289 225.636L958.325 224.582L957.69 223.618L956.702 223.416L955.69 223.775L954.914 224.605L954.514 224.941L954.114 225.098L953.714 225.008L953.361 224.605V223.976L953.62 222.541L953.573 222.227L952.585 222.07L952.115 222.092L951.644 222.294L950.844 222.9L950.397 223.034L950.045 222.855L949.692 222.361L949.339 221.98L948.892 221.756H948.374L947.504 222.115L947.104 222.204L946.704 222.047L946.375 221.599L946.022 220.567L945.716 220.186L945.269 220.118L944.869 220.32L944.117 220.971L943.693 221.195L943.246 221.307L942.329 221.397L941.741 221.217L940.682 220.455L940.141 220.23L939.647 220.298L939.106 220.5L938.589 220.814L938.165 221.15L937.201 221.442L936.236 220.948L935.554 219.894L935.319 217.068L934.778 216.036L933.202 214.331L932.825 213.703L932.684 213.209L932.543 211.908L932.214 211.078L931.649 210.675L930.261 210.338L929.744 209.89L929.65 208.947L929.767 206.906L929.932 206.839L929.979 206.816L931.061 206.637L931.461 206.413L931.532 205.83L931.32 205.381L930.52 204.17L930.261 203.878L928.685 203.16L928.144 203.093L927.791 203.25L927.368 203.519L926.945 203.676L926.639 203.452L926.051 202.128L925.792 201.792L925.368 201.612L924.521 201.725L924.098 201.657L923.345 201.141L922.781 200.468L922.193 199.93L921.322 199.84L920.428 199.908L919.629 199.728L918.876 199.235L918.17 198.427L917.347 197.799L916.476 198.293L915.606 198.966L914.689 198.898L914.524 198.674L914.218 198.091L914.03 197.844L913.724 197.665L912.995 197.463L912.736 197.238L912.477 196.588V195.825L912.525 195.018L912.477 194.188L911.96 192.999L911.301 191.922L910.948 190.778L911.466 188.849L911.395 188.176L911.16 187.57L910.337 186.696L910.172 186.202L910.125 185.641L909.89 184.946L909.137 183.937L906.103 181.85L905.467 180.706L905.491 178.419L904.785 177.678L903.844 177.274L903.515 176.938L902.762 175.682L902.339 175.233L901.868 174.964L901.327 174.829H900.198L899.728 174.717L899.187 174.381L897.799 173.17L897.258 172.9L894.553 172.429L894.059 172.138L893.682 171.734L893 170.702L890.318 170.343L887.637 170.702L887.26 170.837L886.837 170.882L886.46 170.859L885.825 170.612H885.614L885.355 170.635L885.096 170.702L884.602 172.16L883.896 173.461L883.026 174.381L881.944 174.74L878.745 174.381L876.839 173.843L875.898 174.044L875.263 174.762L875.216 177.319L874.605 178.082L872.958 178.845L869.853 180.841L868.747 179.854L868.206 179.585L867.101 179.809L866.842 179.697L866.607 179.518L866.301 179.45L865.924 179.607L865.619 179.854L865.313 179.989L864.96 179.787L864.536 179.72L864.043 180.101L863.572 180.639L863.172 181.021L862.537 181.245L861.902 181.29L860.655 181.043L860.114 180.774L858.656 179.54L858.115 179.181L857.033 178.845L855.809 178.665L854.045 178.957L853.551 178.89L852.634 178.284L852.163 178.261L851.716 178.643L851.034 179.72L850.469 180.034L845.318 180.258L844.612 179.877L844.306 179.091L844.471 178.149L844.942 177.23L845.459 176.489L844.8 175.547L844.236 174.448L843.883 173.237L843.859 171.913L840.895 171.801L838.026 172.676L836.708 172.743L836.073 172.586L835.579 172.362L835.438 172.048L835.509 171.532L836.12 169.311L837.743 165.453L837.955 164.668L838.026 164.062L837.861 163.614L837.39 163.322L836.92 163.255L836.567 163.434L835.885 164.13L835.273 164.085L834.732 163.928L833.603 163.434L832.639 162.896L832.356 162.515L832.168 161.819L832.098 160.541L831.909 160.047L831.345 160.002L830.898 160.316L830.663 160.743L830.38 160.989L829.745 160.877L826.523 159.374L826.076 159.442L825.605 159.823L825.299 160.249L825.041 160.743L824.852 161.281L824.805 161.864L824.5 162.806L823.582 163.031L821.536 162.761L820.948 162.829L820.524 163.098L820.218 163.569L820.006 164.264L819.865 165.453L819.842 166.149L819.936 166.597L820.265 167.068L820.924 167.741L821.159 168.28L821.23 168.84L821.253 169.491L821.206 170.141L821.112 170.702L820.618 171.958L819.748 172.856L818.736 173.371L817.772 173.573L816.784 173.461L816.478 173.506L816.266 173.663L815.913 174.134L815.702 174.314L814.737 174.717L814.408 174.964L814.079 175.547L813.749 176.736L813.467 177.095L812.903 177.162L812.479 176.938L811.632 176.018L811.209 175.816L810.385 176.288L810.762 177.387L812.103 179.45L811.35 179.428L810.55 178.912L809.774 178.149L809.209 177.342L808.951 176.781L808.268 174.852L806.974 172.25L805.845 169.984L803.681 165.588L801.541 161.191L799.376 156.772L797.212 152.353L794.625 147.732L792.061 143.089L789.473 138.446L786.885 133.78L783.475 127.746L780.04 121.69L776.629 115.611L773.218 109.532L770.584 105.158L767.972 100.806L765.361 96.4321L762.75 92.0356L761.127 89.299L758.469 85.3062L755.27 81.8742L752.329 78.7563L749.012 76.2215L740.05 69.38L735.581 65.9256L731.088 62.4936L728.124 60.2056L726.054 58.613L725.324 57.4017L725.019 55.9212L724.878 55.4502L722.407 51.3228L722.455 51.0536L722.878 50.762L723.325 50.605L724.878 50.6723L727.959 51.7938L729.417 51.8387L730.664 50.4031L730.923 50.0442L731.511 49.5059L731.793 49.147L731.981 48.7432L732.264 47.5992L732.687 46.8814L733.205 46.2085L733.605 45.4458L733.746 44.4364L733.511 43.5167L733.064 43.1354L731.864 42.7765L731.558 42.3054L731.84 41.7446L732.381 41.2736L732.805 40.982L734.757 40.4885L735.204 40.0847L735.369 39.2099L735.016 38.851L734.451 38.8286L733.958 38.9632L732.264 39.8155L731.652 39.9277L730.311 39.7931L729.629 39.9277L729.112 40.4885L728.971 41.2287L728.947 42.0138L728.853 42.7092L728.429 43.1129L728.053 43.1802L727.3 43.0905L726.947 43.1129L726.406 43.3148L724.878 44.414L723.819 44.6607L719.02 43.4494L718.55 43.6513L718.056 44.3243L717.632 45.0645L717.468 45.6701L717.515 46.3206L717.797 47.2403L714.386 48.8105L710.105 50.762L707.376 51.9958L704.671 53.2294L703.777 53.4089L701.283 53.0949L700.413 53.1622L699.566 53.5659L697.919 54.7772L699.684 57.626L695.92 60.3177L693.003 62.359L689.875 64.6021L689.216 64.647L687.357 63.7049L686.51 63.4806L684.511 63.4357L683.688 63.7049L683.452 64.0189L683.264 64.5797L683.005 65.7013L682.794 66.262L682.559 66.4863L681.335 66.5761L681.053 66.6658L680.865 66.9125L680.606 67.4509L680.183 69.2903L679.924 69.537L675.996 69.38L675.643 69.8286L675.407 70.5913L675.196 72.5428L675.337 72.812L675.784 73.2157L676.043 73.5522L676.09 73.8438L674.913 77.4104L674.419 77.9936L673.714 77.859L672.443 76.8272H672.42L671.55 75.9524L671.385 75.3691L671.573 74.4719L671.079 74.3373L670.867 73.9111L670.726 73.3728L670.444 72.8793L670.209 72.7895L668.609 72.7447L668.35 72.9017L667.903 73.8438L667.645 74.0233L666.892 73.9784L666.563 73.7092L666.516 73.0812L666.563 72.3409L666.445 71.7128L666.092 71.511L664.469 71.3091L663.505 71.1296L662.705 71.1521L661.952 71.4212L660.282 72.7447L659.905 72.8568L659.082 72.4082L658.659 72.296L656.824 72.2288L656.659 72.3185L656.612 72.5652V72.8793L656.448 73.4849L656.424 73.8214L656.353 74.0905L656.142 74.1803L655.554 74.0905L655.365 74.113L654.942 74.27L654.801 74.4943L654.707 74.8757L654.495 75.5486L654.283 75.9748L654.072 76.2664L653.531 76.8272L651.108 79.1376L650.802 79.2498L649.249 78.1058L650.331 75.7505L646.45 73.7541L647.132 72.4307L646.309 71.511L646.191 70.9951L646.426 70.2548L646.779 69.7613L647.25 69.537L648.285 69.3575L648.873 65.8583L649.273 65.3872L651.461 64.5797L650.331 63.7946L650.802 62.9422L651.319 62.359L651.884 62.045L652.59 62.0001L656.189 62.673L656.871 62.5384L657.365 62.0225L657.718 60.9683L658.776 54.8445L657.412 55.2034L657.177 55.0912L657.106 54.2613L657.083 54.1267L656.683 54.037L655.412 54.3062L655.083 54.508L655.177 54.8445L655.389 55.2707L655.483 55.7418L655.06 56.3474L653.625 56.6839L653.436 57.4017L653.483 58.3214L653.389 58.8148L653.107 59.0616L652.519 59.241L652.213 59.1738L651.649 58.5232L651.343 58.2541L651.108 58.1644L650.355 58.1195L650.167 58.2541L650.096 58.6578L650.049 59.1065L649.908 59.398L649.579 59.5102L645.486 58.613L642.38 57.9176L641.957 57.4017L641.722 56.3026L641.439 55.7642L640.31 55.2259L640.24 53.7229L640.099 53.0276L639.816 52.4892L639.463 52.3322L638.099 52.5117L635.018 52.1752L631.795 51.8163L630.548 52.063L629.443 53.1846L629.254 53.6556L628.996 54.4183L628.854 55.1137L629.019 55.4053L631.136 54.9567L631.983 54.9791L632.571 55.4277L633.042 56.2577L633.489 57.4017L633.63 58.7476L632.994 59.0392L630.525 58.0073L630.172 57.9849L629.842 58.2316L629.231 59.3308L628.219 60.4748L627.725 60.7888L626.949 60.8785L626.196 60.6766L625.726 60.228V59.6L625.961 58.7924L626.573 57.4017L626.831 56.482L626.502 55.8988L625.937 55.4053L625.491 54.7772L625.396 54.4183L625.326 53.9024L625.373 53.4538L625.608 53.3192L626.337 53.5884H626.573L626.667 53.4762L626.831 52.9827L626.925 52.8481H627.325L627.678 52.893L627.984 52.7808L628.219 52.2649L628.36 52.063L628.408 51.906L628.384 51.7938L626.079 50.919L623.914 50.1115L624.761 48.317L624.855 47.8235L624.55 47.1506L623.444 46.7917L623.162 46.3655L622.809 45.1766L622.056 44.0102L621.162 43.0905L620.386 42.6419L617.751 42.2381L617.304 42.5297L617.351 43.1354L617.634 43.5167L618.434 44.0102L618.998 44.5037L619.21 44.8626L619.092 45.3112L618.598 46.3431L618.457 46.7917L618.339 47.2627L618.292 47.6441V48.16L618.316 48.3843L618.763 48.7432L619.398 49.0124L620.151 49.1245L620.809 49.3937L621.233 50.0667L621.303 51.1433L620.998 51.7714L620.456 52.063L619.821 52.1752L619.116 51.9285L618.575 51.3004L617.163 48.6759L616.763 48.2497L616.316 48.0254L615.705 47.8459L610.976 47.3749L610.459 47.5992L610.083 48.1151L609.824 48.8329L609.753 49.618L609.871 51.3677L609.683 51.9285L609.001 52.4444L608.177 52.8481L607.824 52.893L607.401 52.8033L607.142 52.6462L606.672 52.1752L606.389 52.0406L605.825 52.1303L604.602 52.736L604.084 52.8033L603.849 50.8966L603.708 50.3807L603.496 49.9994L603.261 49.8423L602.532 49.8647L601.755 49.7077L601.003 49.3488L600.297 49.2143L599.709 49.6853L598.486 51.7938L597.803 52.5565L596.957 53.1173L596.439 53.0949L596.016 52.6462L595.263 51.2106L594.886 50.6274L594.534 50.2685L593.616 49.8199L593.781 49.2367L593.898 48.3394L593.922 47.3973L593.804 46.7693L593.475 46.6122L591.993 46.5001L591.828 45.1318L592.064 44.3243L592.628 44.0102L593.499 44.0551L593.993 44.2121L594.886 44.7056L595.357 44.8626H595.78L597.145 44.6158L597.286 42.9335L597.262 42.3952L597.333 41.6998V41.4082L597.215 41.2287L596.792 41.0941L596.627 40.9596L596.557 40.7128L596.674 39.3669L596.58 38.8958L596.086 38.3799L596.063 38.2005V37.9762L596.133 37.7294L595.968 34.9031L596.11 33.804L596.862 33.1086L598.109 32.7721L598.65 32.4581L598.932 31.8973V31.0001L598.65 30.1925L597.827 28.9139L597.38 28.5326L596.909 28.398L595.851 28.4204L594.886 28.1737L593.687 27.5456L592.675 26.5362L592.393 25.2128L592.464 24.1136L592.299 23.5753L591.405 22.5659L591.24 22.0051L591.287 21.2649L591.452 20.5919L591.734 20.1209L591.922 19.6274L591.499 18.5731L591.664 17.8104L591.805 17.317L591.899 16.7786L591.993 15.657V15.5897V15.4327V15.3654L592.017 14.872L591.993 14.3785L591.593 13.2793L589.194 10.2511L587.547 8.14257L587.288 7.5145L587.429 6.84155L587.829 6.19106L588.206 5.67511L587.171 5.1592L585.806 4.91246L584.466 5.06949L583.501 5.7424L583.031 6.2359L582.49 6.52751L581.948 6.6621L581.407 6.68451L579.502 5.94431L579.032 6.10131L578.044 7.62666L577.761 8.25473L577.691 8.56877V8.90522L577.62 9.21926L577.385 9.44359L575.244 10.1614L574.75 10.5427L573.974 11.8213L573.551 12.2026L573.151 12.1353L569.787 10.0044L568.869 9.66788L566.94 9.46601L566.235 8.99497L564.282 6.39293L563.6 5.76486L560.495 4.06006L555.743 3.43198L552.309 1.99638L551.721 2.15342L549.674 4.08251L548.71 4.39655L548.192 3.52173L547.792 2.26558L547.181 1.48047L542.829 0L542.452 0.0224532L542.076 0.291618L541.864 0.605654V0.897272L541.958 1.18886L542.217 2.57962L542.57 2.98337L543.064 3.18524L543.676 3.54415L543.817 5.09191L543.746 5.78728L543.511 6.30319L542.899 6.63968L542.358 6.39293L541.864 5.8097L540.994 4.39655L540.5 3.94793L539.935 3.67873L537.513 3.2974L536.972 2.98337L536.689 3.67873L536.548 4.32926L536.501 5.04704L536.572 5.89944L536.383 6.52751L535.278 7.26775L534.878 7.73879L534.854 8.07528L534.996 8.86035L534.925 9.24172L534.666 9.64546L534.384 9.73517L533.749 9.57817L533.208 9.60059L531.585 10.1614L529.75 9.69033L529.162 9.66788L527.915 10.2062L527.444 10.2287L527.045 10.0717L526.739 9.84734L526.386 9.71275L525.868 9.82492L524.339 10.6549L524.528 10.7894L525.045 11.3054L524.645 12.4718L525.563 13.4364L527.492 14.5803L527.397 15.3879L526.856 15.6122L526.174 15.6795L525.727 15.9711L525.516 16.6665L525.421 17.2048L525.186 17.5637L524.669 17.8104L524.481 18.8199L524.057 19.2685L520.293 19.7844L517.964 18.7526L517.212 18.6853L516.341 18.9544L515.636 19.4255L515.165 20.0312L514.201 21.6013L512.766 22.7902L510.931 23.351L506.579 23.2164L505.027 23.5529L503.403 23.1042L502.745 23.3734L502.157 24.0239L501.686 24.9885L501.051 25.6165L500.087 25.8409L498.275 25.8184L497.499 25.9979L496.088 26.783L495.335 26.9624L490.607 27.1643L490.113 27.4559L489.172 28.398L488.654 28.7345L487.125 28.9364L484.044 28.8242L482.515 29.0485L471.176 32.9964L470.776 32.3459L470.565 29.7439L470.094 29.385L468.33 30.0579L467.53 30.5739L466.848 31.5608L466.166 32.7721L465.531 33.4226L464.778 33.5796L461.437 32.4581L459.085 32.1665L458.426 32.3684L458.309 32.9067L458.591 34.3423L458.403 35.1723L457.885 35.3293L456.497 34.948L455.815 34.9928L452.734 36.3163L452.357 36.7873L452.334 37.7294L452.381 37.9089L452.451 38.5145L451.934 39.4342L452.71 43.6289L452.005 44.9075L451.746 44.9299L451.04 44.6383L450.852 44.6831L450.57 44.9747L450.405 45.0645L449.982 45.1093L449.629 44.9972L449.276 44.7504L448.946 44.3915L447.018 41.9017L445.394 41.2736L443.865 42.0138L442.36 43.2251L440.784 43.9878L439.937 43.8981L439.161 43.4719L437.679 42.2381L437.373 41.9465L436.361 42.6195L435.75 42.754L435.468 42.7092L434.973 42.5297L434.668 42.4849L434.55 42.6195L434.362 42.8886L434.127 43.1802L433.844 43.2924L431.469 43.5616L430.857 43.2924L430.504 43.2251L430.222 43.427L430.057 43.584L429.587 43.8083L428.834 43.9653L427.658 44.5261L427.07 44.6383L426.011 44.3467L425.658 44.3691L425.423 44.5261L425.023 45.0196L424.835 45.1766L424.553 45.2215L424.247 45.1766L423.964 45.0196L423.494 44.5485L423.306 44.7056L423.118 45.0196L422.929 45.1766L422.882 45.4682L423.235 46.0963L424.012 47.0833L423.588 48.1376L422.835 48.5189L421.941 48.6535L421.165 48.9675L420.906 49.4834L420.577 49.3488L419.918 49.1918L417.919 47.6889L417.213 47.3525L416.343 47.2852L412.391 49.0124L410.768 49.1021L410.109 49.4161L408.815 50.4031L408.133 50.7172H407.239L404.463 50.0891L403.005 50.0442L402.205 50.2909L401.876 50.919L402.041 51.6368L402.252 52.22L402.299 52.7808L401.947 53.4314L401.264 53.7454L398.888 53.4762L396.865 54.037L396.207 53.9921L395.148 53.4762L394.678 53.3865L393.36 53.9248L391.267 54.0594L390.279 54.3062L389.103 55.0015L388.373 56.0558L388.679 57.4017L388.82 57.5811L389.244 58.2765L388.209 59.3308L387.903 59.8242V60.1383L388.021 60.4299L388.232 61.6412L388.138 61.9104L387.762 62.1123L387.432 62.0674L387.127 61.8655L386.844 61.5515L386.609 61.1926L386.092 60.6542L384.915 60.0486L384.492 59.3756L384.398 58.613L384.727 58.0971L385.786 57.4017L385.856 56.5268L385.551 56.1455L385.033 56.0558L375.13 56.4147V57.1774L375.153 57.4017V59.757L372.448 59.6L371.601 59.3308L371.107 59.0167L370.966 58.6578L370.919 58.1419L370.731 57.4017L370.378 57.1998L370.025 57.0652L369.672 57.1101L369.155 57.7606L368.825 57.8279L368.496 57.6709L368.19 57.4017H365.885L365.791 58.1195L365.673 58.6803L365.414 59.0392L364.968 59.1513L364.521 58.9943L364.332 58.6354L364.262 57.4017L362.474 56.9755L362.051 56.6615L361.368 55.2483L360.992 54.9118L359.063 54.6202L358.428 54.7548L357.981 55.2932L357.534 55.9885L356.946 56.2801L355.582 56.3923L355.77 57.1774L355.84 57.4017L356.334 58.6578L356.475 59.3308L356.381 60.0037L355.982 60.6991L355.558 60.7215L355.158 60.3626L354.829 59.8915L354.664 59.5102L354.57 59.241L354.405 59.0616L353.229 58.8148L352.429 58.8597L351.324 59.1065L350.806 59.398L350.359 59.9588L350.218 60.385L350.171 60.8337L350.218 61.2823L350.359 61.6861L350.9 61.8206L352.476 61.8431L352.947 61.9777L353.206 62.1795L353.676 62.8749L354.335 63.2787L355.182 63.6151L355.77 64.1311L355.723 65.0283L355.229 65.6564L354.57 66.262L353.982 66.9574L353.7 67.8771L353.488 68.3033L352.547 68.4379L352.171 68.6622L351.982 69.1333L351.959 69.6043L351.982 70.0754L351.935 70.5689L351.089 71.2866L348.595 70.4567L348.007 71.3988L348.666 72.139L352.03 72.3409L353.229 72.6998L353.394 72.969L353.676 73.5971L353.841 73.8438L354.288 74.113L357.675 74.8981L358.546 74.7859L359.628 73.3503L360.333 73.1036H363.062L363.391 73.2157L363.674 73.7765L364.309 76.3113L363.344 76.8272L362.709 77.3431L361.462 78.5993L360.874 79.0254L360.122 79.003L359.439 78.4871L358.828 77.6572L358.31 76.8272L357.84 76.4234L357.205 76.2888L356.593 76.4234L356.17 76.8272L356.076 78.016L355.958 78.4871L355.746 79.003L354.664 80.5284L354.217 81.4256L354.123 82.3901L354.358 83.3547L354.829 84.2744L355.793 85.1492L356.922 85.4184L359.228 85.3959L360.075 85.71L362.45 87.5045L363.321 87.7512L364.121 87.6615L366.449 86.4278L366.943 86.6072L367.931 87.9531L369.366 89.2765L371.084 89.9719L376.282 90.9813L377.082 91.4075L377.67 92.3721L377.858 93.2917L377.811 94.1441L377.341 96.0284L376.823 96.9032L375.906 97.5537L374.071 98.2266L373.201 98.1145L371.601 96.9032L370.707 96.5667L368.237 96.9032L367.226 96.7686L366.755 96.8583L366.285 97.2621L365.532 97.7331L364.779 97.4415L363.344 96.0284L362.45 95.2881L361.721 94.9292L361.157 95.0862L360.004 96.0284L359.345 96.32L358.593 96.4097L357.84 96.32L357.158 96.0284L356.334 95.5124L355.511 95.2433L354.664 95.3779L353.864 96.0284L353.041 96.5891L352.171 96.8135L350.312 96.8359L350.289 96.8583L350.312 96.8807L352.312 98.7201L348.125 102.421L347.678 102.892L347.113 103.969L346.76 104.44L345.772 104.978L344.573 105.248L343.561 105.853L343.02 107.401L342.973 107.827L342.996 108.231L343.091 108.545L343.326 108.747L343.632 108.949L343.749 109.173L343.796 109.42L343.937 109.734L344.243 109.958L344.667 110.003L345.89 109.868L346.149 109.913L346.266 110.16L346.384 110.743L346.407 111.484L346.313 113.278L346.431 113.906L346.831 114.243L349.066 114.983L349.371 115.162L349.56 115.521L349.724 116.217L349.842 117.764L349.96 118.437L350.359 118.976L351.865 120.95L351.112 121.712L350.077 122.273L349.63 122.654L348.407 123.978L347.913 124.292L345.608 125.256L345.161 125.638L344.196 127.163L342.973 128.105L341.679 128.172L340.315 127.881L338.974 127.836L337.022 128.666L335.14 130.169L331.635 133.78H326.812L326.436 134.677L326.389 135.283L326.601 135.889L327.706 138.311L328.2 138.782L328.977 138.917L329.588 138.581L329.8 138.02L330.082 137.638L330.882 137.975L333.375 139.747L337.657 140.756L338.339 141.541L338.221 141.833L337.986 142.102L337.516 142.439L337.374 142.663L337.398 143.336L337.304 143.605L336.833 143.942L335.704 144.48L335.328 144.951L335.304 145.736L335.822 146.05L338.456 146.476L338.715 146.656L338.786 146.992L338.809 147.374L338.95 147.643L339.186 147.71L348.995 147.957H349.395L349.301 148.428L349.324 149.639L349.395 149.976L349.56 150.424L349.912 151.142L350.195 151.501L350.995 152.039L351.159 152.219L351.277 152.376L351.347 152.488L351.465 152.6L351.606 152.712L351.818 152.802L352.077 152.847L352.876 152.802L353.37 152.869L354.311 153.206L354.876 153.273L356.522 153.161L357.111 153.273L357.934 153.744L358.263 153.811L358.593 153.789L359.157 153.609L359.51 153.565L360.404 153.924L361.486 154.574L362.356 154.798L362.45 154.978L362.944 155.74L363.909 158.589L364.497 159.599L365.226 160.249L366.943 160.967L365.673 161.303L364.615 161.864L363.815 162.896L363.297 164.601L362.145 170.702L361.933 171.712L361.58 174.987L361.204 176.512L360.663 177.611L359.886 178.351L346.502 182.68L344.102 183.062L333.987 181.895L332.67 181.267L331.799 180.639L331 179.809L330.482 178.777L330.411 177.432L330.035 176.108L328.741 175.637L327.259 175.749L326.201 176.131L325.989 176.355L325.824 176.646L324.813 179.069L324.672 179.675L324.648 180.392L324.789 181.671L324.695 182.299L324.413 182.793L323.637 183.667L323.331 184.161L322.272 186.314L321.284 187.369L320.108 187.593L318.838 187.526L317.615 187.705L316.768 188.356L315.992 189.163L315.192 189.5L313.827 188.333L313.474 187.795V187.234L314.133 186.696L315.498 186.898L316.109 186.651L316.18 185.709L315.897 185.484L314.604 184.968L314.133 184.452L313.145 183.847L311.922 183.869L309.593 184.408L309.17 184.385L308.84 184.228L308.535 183.892L308.276 183.353L307.876 182.86L307.335 182.703L300.772 182.142L299.831 181.738L298.02 180.415L297.596 179.989L297.384 179.54L296.984 178.351L296.467 177.903L295.785 177.947L295.079 178.149L294.468 178.082L294.044 177.678L293.973 177.185L294.138 175.772L293.903 175.413L292.68 175.502L292.209 175.413L291.927 174.987L291.692 174.314L291.621 173.641L291.809 173.147L292.209 172.766L292.539 172.34L292.821 171.801L292.962 171.106L292.774 169.581L292.021 168.638L290.986 168.167L288.022 168.1L287.528 167.853L287.363 167.427L287.34 166.956L287.246 166.44L286.94 165.969L286.211 165.251L285.858 164.937L284.893 165.498L284.329 165.655L283.811 165.924L283.529 166.597L283.294 167.382L283.012 168.033L282.471 168.414L281.812 168.369L281.153 168.055L280.612 167.651L280.565 167.517V167.293L280.542 167.068L280.447 166.889L280.283 166.844L278.448 167.136L278.119 167.225L277.436 167.607L277.201 167.539L276.825 167.001L276.59 166.799L276.284 166.642H274.966L274.59 166.552L273.484 165.924L272.826 166.059L272.449 166.866L271.979 167.741L271.838 169.065L272.073 171.487L272.05 172.676L271.697 173.753L270.897 174.201L268.662 173.506L267.674 173.394L267.11 173.708L266.804 174.201L266.545 174.762L266.122 175.278L265.534 175.592L264.945 175.615L264.357 175.458L262.758 174.583L262.311 174.179L261.958 173.596L261.746 173.013L261.44 171.712L261.205 171.106L260.829 170.523L260.429 170.209L259.982 170.074L259.394 170.052L259.018 169.805L258.829 169.154L258.618 167.741L258.312 167.001L257.982 166.777L257.583 166.911L255.983 167.876L254.854 168.145L252.807 167.943L252.219 168.078L251.608 168.369L250.972 168.549H250.337L249.749 168.347L248.832 167.651L248.455 167.494L247.844 167.584L247.373 167.786L246.856 168.1L246.527 168.616L246.574 169.311L247.068 170.5L247.232 171.106L247.162 171.51L246.715 171.555L244.974 171.218L244.504 171.016L242.363 168.01L241.634 167.764L240.857 168.369L240.481 168.773L240.246 169.199V169.738L240.505 170.792L240.528 171.308L240.128 171.801L238.905 171.958L238.552 172.34L238.387 173.663L238.199 174.224L237.705 174.672L237.047 174.785L236.317 174.628L234.294 173.753L233.894 173.887L233.636 174.358L233.4 175.211L232.507 179.607L231.989 180.46L228.437 183.286L224.391 185.439L222.697 187.189L221.85 187.503L220.815 186.785L220.086 185.754L219.686 185.395L218.581 184.946L218.322 184.452L218.134 183.869L217.781 183.309L217.216 182.905L216.605 182.748H215.969L214.77 183.084L214.323 183.107L213.876 182.972L213.288 182.613L207.948 177.835L207.407 176.893L207.454 175.458L207.078 174.65L203.361 173.618L202.561 172.833L201.832 171.913L201.361 171.442L199.785 170.68L198.821 169.827L198.327 169.558L197.762 169.424H197.174L195.104 170.052L194.657 170.321L194.445 170.747L194.939 172.138L194.681 172.497L194.21 172.721L193.904 173.057L194.469 173.484L195.857 173.865L197.174 174.605L197.503 176.041L197.362 176.332L196.962 176.983L196.892 177.297L196.986 177.589L197.339 177.97L197.456 178.217L197.48 178.957L197.174 180.325L197.198 181.088L198.021 183.735L198.092 184.879L197.386 185.933L196.045 187.055L195.057 187.458L193.81 187.75L193.316 187.66L192.752 187.301L192.281 186.875L191.411 185.754L191.011 184.968L190.917 184.273L191.058 183.533L191.576 181.895L191.717 181.2L191.764 179.585L191.952 178.845L193.316 177.14L193.481 176.781L193.528 176.422L193.481 176.086L193.316 175.772L192.963 175.615L191.881 175.368L191.646 175.211L191.223 174.785L190.964 174.605L189.012 174.269L188.423 173.91L188.047 173.439L187.741 172.945L187.388 172.497L186.447 171.958L186.024 171.599L185.271 170.702L185.342 170.074L185.271 169.715L185.083 169.379L184.895 168.885L184.66 167.472L184.448 166.911L183.977 166.575L182.707 166.395L182.166 166.081L181.602 164.825L181.131 164.332L180.19 163.636L179.555 163.457L178.308 163.681L173.862 162.38L173.274 161.73L173.11 161.079L172.757 160.63L171.933 159.823L171.816 159.24L171.91 158.612V158.006L171.463 157.49L172.31 157.086L172.522 156.772L172.333 156.189L172.028 155.853L171.016 155.18L168.546 154.215L168.217 153.879L167.723 153.004L167.417 152.645L166.523 152.286L166.452 152.308L165.958 151.972L165.37 152.241L165.018 152.286L163.206 152.039L163.042 152.084L162.924 152.196L162.759 152.264L162.548 152.174L162.383 151.972L162.289 151.77L162.195 151.613L161.959 151.546H161.583L161.301 151.613L161.183 151.905L161.371 152.555L158.478 152.443L157.561 152.802L157.255 153.071L156.949 153.408L156.62 153.699L156.243 153.811L155.867 153.722L155.255 153.363L154.761 153.273L155.091 152.623L154.597 152.443L153.256 152.555L153.021 152.421L152.503 151.905L152.268 151.77L151.891 151.882L151.727 152.151L151.609 152.421L151.444 152.555L150.856 152.623L150.574 152.735L150.362 152.937L150.151 153.228L149.845 153.587L149.586 153.722L149.468 153.43L147.328 153.273L146.81 153.632L146.622 153.565L146.105 153.273L145.634 152.847L145.258 152.353L144.999 151.882L144.834 151.523L144.152 149.101L142.553 146.14L142.223 145.041L141.941 143.56L141.518 142.304L140.859 141.9L140.482 142.237L140.177 143.358L139.659 143.762L138.977 143.829L137.636 143.74L137.001 144.076L136.648 144.592L136.107 145.781L135.637 146.207L135.025 146.409L134.272 146.431L133.52 146.342L132.908 146.14L132.273 145.736L131.614 145.489L130.932 145.422L130.25 145.669L129.826 146.095L129.074 147.149L127.733 148.63L127.803 149.751L128.18 150.963L128.156 152.331L127.239 153.049L126.016 153.767L124.91 153.879L124.345 152.78L124.322 151.905L124.251 151.389L123.992 151.052L123.381 150.783L122.793 150.806L122.416 151.187L122.111 151.748L121.711 152.331L120.417 152.981L118.417 153.295L116.606 153.116L115.853 152.353V152.331L115.642 151.882L115.242 151.299L114.983 150.738L115.101 150.447L117.453 150.043L117.923 149.796L118.276 149.415L118.464 148.854L118.488 148.002L118.253 147.284L117.782 147.037L116.7 147.015L116.23 146.79L115.924 146.454L115.336 145.467L114.912 145.22L114.395 145.355L113.854 145.624L113.36 145.803L107.455 145.422L106.867 145.153L106.467 144.458L106.209 143.852L105.832 143.358L105.362 142.977L104.938 142.73L103.621 142.461L103.08 143.089L103.151 144.323L104.28 147.418L104.209 148.473L103.551 149.168L102.492 149.572L101.927 149.639L101.316 149.572L101.01 149.258L101.41 148.585L101.857 147.957L101.669 147.8L100.54 147.777L99.5986 147.082L99.1516 147.06L99.0576 147.89L99.0105 148.809L98.6812 149.078L98.2107 149.213L97.7873 149.639L97.7167 150.2L97.9284 152.331L97.8343 153.183L97.6226 153.565L97.2462 153.677L96.6582 153.767L96.47 154.417L96.1406 154.776L95.7172 154.91L94.2588 154.978L93.9765 155.068L93.7883 155.269L93.9059 155.516L94.0941 155.718L94.1882 155.875L93.8353 156.234L93.459 156.458L93.2473 156.795L93.3178 157.49L93.4825 158.141L93.5295 158.612L93.3649 158.971L92.965 159.307L90.0951 160.698L85.7903 161.528L84.7788 162.021L81.2973 164.915L80.1682 166.418L79.7447 166.687L73.9815 166.754L72.0525 166.193L71.488 166.328L71.1587 166.687L70.8529 167.315L70.6176 167.966L70.4294 169.177L70.1942 169.715L69.6061 170.702L69.3238 171.734L69.9119 172.654L70.7352 173.596L71.1587 174.74L70.8058 175.951L69.8649 176.736L67.7948 177.589L64.4074 178.374L63.3959 179.248L61.2317 181.963L56.8328 185.125L55.7743 185.305L54.6451 185.058L51.4695 183.241L50.8814 183.174L50.505 183.645L50.5991 184.363L51.2107 184.677L52.4339 184.924L53.0456 185.709L53.1631 186.83L53.0691 189.365L53.7042 194.547L54.3864 197.036L55.3979 198.988L55.8213 200.356L55.6331 201.635L55.6802 202.577L57.3503 203.07L57.6797 203.474L57.8914 204.057L58.1737 205.471V205.852L57.9855 206.211L57.5856 206.816L55.7272 208.925L53.2808 210.293L48.3409 212.155L48.0115 212.424L47.4705 213.165L47.1411 213.344L46.8589 213.277L45.4474 212.492L44.3183 211.437L44.0831 211.325L43.3774 211.437L42.554 211.392L42.2482 210.854L42.0836 210.069L41.6131 209.239L40.6487 208.476L40.3663 208.162L40.2017 207.848L39.9664 207.131L39.8018 206.816L39.4725 205.785L39.3313 204.753L39.0961 203.743L38.5551 202.801L37.3553 201.859L37.0496 201.478L36.8849 200.962L36.7672 200.491L36.6026 200.042L35.6381 199.212L34.6737 197.822L33.7092 197.014L33.2387 196.341L32.1331 195.085L31.8273 194.905L31.3569 194.726L31.1216 194.457L30.9805 194.098L30.6982 193.627L30.3688 193.268L29.2633 192.685L27.6872 190.733L27.0756 190.307H26.0641L24.9585 190.868L23.9469 191.788L23.1942 192.797L22.4179 194.569L22.0886 194.973L20.3949 195.623L19.995 195.982L19.7127 196.678L19.9244 197.126L20.2538 197.485L20.3949 198.046L20.1596 198.584L19.2658 199.392L19.007 199.885L19.1952 200.872L20.5125 202.644L20.536 203.945L20.0656 204.955L18.5365 206.839L16.8899 208.454L11.5971 210.697L10.7267 211.505L10.1857 212.963L7.17468 230.257L8.5155 230.751L12.0911 233.375L13.2908 234.878L13.573 236.673L13.1026 238.534L12.0911 240.284L10.9149 241.787L10.4445 242.191L9.90338 242.617L8.06855 243.559L7.24525 244.187L6.65716 244.95L0.0235106 262.424L0 262.446V262.469H0.0235106L12.0911 266.484L14.4905 267.134L14.9845 267.471L15.2903 267.964L15.3138 268.301L14.9845 268.951L14.8198 269.131L14.5611 269.31L14.4199 269.557L14.5375 269.871L15.0786 270.409L15.2197 270.634L15.4079 271.329L15.2903 271.935L15.1021 272.518V273.123L15.4785 273.572L16.7958 273.707L17.2427 274.133L16.9134 274.828L15.9019 275.681L14.02 276.802L13.6672 277.094L13.8318 277.475L15.5491 279.516L16.3488 280.817L16.4429 281.019L16.3959 281.311L16.2783 281.445L16.1136 281.558L15.9489 281.759L15.6196 282.365L15.4785 282.791L15.5961 283.195L15.996 283.711L16.8193 284.474L21.2888 287.457L21.6416 287.367L21.8533 286.694L22.018 285.124L21.9945 283.06L22.1356 282.545L22.5591 282.23L23.1236 282.275L28.2988 284.653L37.8493 284.496L39.4725 285.214L40.978 286.448L45.471 293.94H45.4945L46.6942 295.532L47.3293 296.093L48.1997 296.407L49.0936 296.497L49.4464 296.744L49.7052 297.327L49.9639 298.134L53.6101 307.219L61.0906 318.367L59.6792 320.027L58.9264 320.61L55.2332 321.261L54.6451 321.014L53.9865 319.736L53.6101 319.175L53.1161 318.749L51.7047 318.345L50.2227 318.636L48.976 319.601L48.3409 321.239L47.7528 322.001L48.2232 322.046L48.6937 322.248L49.564 322.764L49.7993 323.1L49.8699 323.594L49.9875 324.065L50.3638 324.334L49.7993 325.119L50.6226 325.433L52.8338 325.478L53.7983 325.702L54.4805 326.241L55.0921 326.936L56.5741 328.058L57.1622 328.103L57.7503 327.968H58.4324L58.9499 328.237L59.9614 329.202L61.7257 330.548L66.4304 333.127L66.4069 332.925L66.3598 332.634L66.3128 332.005L66.1481 331.377L65.7482 331.086L65.513 331.063L65.2542 330.951L65.066 330.749L64.9955 330.413L65.1367 330.278L65.4189 330.256L67.3243 330.862L67.6536 331.086L67.8889 330.906L67.983 330.839L67.1126 329.919L66.995 329.605L66.9479 329.089L66.8068 328.775L66.6186 328.574L66.3363 328.349L66.995 328.417L67.3714 328.574L67.6536 328.932L67.983 329.471L68.3358 329.919L68.8063 330.368L69.7943 331.086L69.9119 330.749L69.9354 330.368L69.9119 330.032L69.7943 329.718L68.9004 328.82L68.2653 328.506L68.1241 327.833L68.0535 327.116L67.6536 326.734V326.532L68.1477 326.6L68.4064 326.981L68.6416 327.474L68.9945 327.901L69.0886 327.878L69.9825 327.923L70.453 328.103L70.0766 327.048L68.5005 325.321L68.3123 324.469L68.7357 325.119L69.4885 325.59L70.3588 325.927L71.1116 326.061L71.1351 325.927L71.1822 325.702L71.2998 325.545L71.535 325.702L72.0055 326.173L72.0996 326.286V326.51L72.0055 326.802L71.982 327.071L72.1937 327.183L72.4289 327.228L72.8524 327.407L73.1111 327.43L72.9464 327.093L72.6877 326.241L72.3584 325.837L72.2878 325.299V324.244V324.917L72.5701 325.366L72.9699 325.635L74.4284 326.241L74.7342 326.644L74.9224 327.43L75.2047 327.071L75.3929 326.689L75.6281 326.487L76.0986 326.734L75.9104 325.254L75.981 324.626L76.3573 324.805L77.9099 326.734L77.957 326.487L77.8628 325.635L77.9099 325.366L78.1922 325.343L78.498 325.568L78.992 326.173L79.2508 326.33L79.3213 325.994V325.276L79.5801 325.142L79.7682 325.321L80.0741 325.815L80.6857 326.039L80.8268 325.613L80.8974 325.007L81.2267 324.693L81.9324 324.872L82.2618 324.85L82.5205 324.356L83.3674 323.998L83.5791 323.773L83.9555 323.257L84.1907 323.078L84.5436 322.966L85.4374 323.078L85.9314 322.876L86.3313 322.383L87.0135 321.239L89.1777 319.063L89.9304 318.592L90.2598 318.502L90.495 318.659L90.4244 319.018L90.2598 319.444V319.758L90.6832 319.825L91.1772 319.287L92.2122 317.425L92.3298 317.291L92.4945 317.134L92.7062 317.044L93.1531 316.977L93.3178 316.887L93.506 316.573L93.6236 316.169L93.8353 315.788L94.1411 315.519L94.0941 316.707L93.9765 317.134L94.3764 316.752L95.1527 314.576L95.3879 314.24L95.5055 314.105H95.5996L95.8113 314.15L96.0701 314.262L96.8464 314.935L97.0345 315.137L97.2462 315.204L97.5285 314.935L97.6932 314.846L98.5165 314.576L99.0811 314.711L99.1281 315.07L98.8694 315.586L98.4224 316.191L98.8458 316.371L99.2458 316.102L99.5751 315.586L99.7632 315.07L99.8574 313.477L99.9985 312.804L100.351 312.849L100.845 313.051L101.48 312.894L102.116 312.558L102.962 311.66L103.268 311.481L103.409 311.705L103.315 312.131L102.845 312.804L102.751 313.208L103.009 313.791L103.409 313.477L105.362 310.292L105.479 309.978L105.385 309.866L105.409 309.642L105.55 309.395L105.832 309.283L106.091 309.395L106.632 309.866L106.985 309.978L107.408 309.776L108.114 308.856L108.561 308.61L111.737 307.914L112.701 307.443L113.783 306.681L114.395 306.546L115.383 307.152L118.511 307.802L119.852 308.296L121.405 308.565L122.017 308.834L122.463 309.283L123.099 310.471L123.593 311.055L124.04 311.01L124.275 310.382L124.416 309.642L124.628 308.991L125.098 308.61L125.71 308.699L126.039 309.215L126.086 309.911L125.592 311.346L125.921 311.93L126.839 312.625L127.239 313.096L127.733 313.455L128.25 313.679H128.744L129.803 313.051L130.391 312.804L130.908 312.961L130.673 313.163L129.897 314.15L130.461 314.419L131.238 314.621L132.014 314.666L132.484 314.464L132.978 313.208L133.402 312.602L133.896 312.737L133.966 313.118L133.778 313.41L133.52 313.679L133.378 313.881L133.425 314.307L133.614 314.487L133.849 314.644L134.625 315.429L134.931 315.676L135.072 315.631L135.096 316.102L135.166 316.349L135.307 316.483L135.566 316.64L136.154 316.932L139.212 317.111L139.353 316.999L139.306 316.64L139.165 316.259L139.001 315.945L138.859 315.72L138.648 315.608L138.013 315.384L137.848 315.272L137.801 314.823L137.989 314.532L138.318 314.487L139.118 315.025L139.777 315.003L142.059 314.195L142.482 313.859L143.564 312.513L143.658 312.176V311.324L143.752 310.965L143.987 310.651L144.458 310.584L145.987 310.808L146.41 311.01L147.234 311.907L147.681 312.154L148.292 312.311H151.021L152.338 312.513L154.573 312.087L155.655 312.064L156.032 312.356L156.972 313.702L157.419 314.15L157.819 314.173L158.854 314.038L159.066 314.24L159.16 314.689L159.607 315.563L160.054 317.919L160.007 318.995L160.148 319.444L160.642 319.646L161.395 319.736L162.148 320.095L162.618 320.857L162.548 322.181L162.453 322.607L162.336 322.719L162.054 322.876H161.818L161.277 322.786L161.042 322.876L160.83 323.28L160.642 323.818L160.43 323.998L160.219 323.325L160.007 323.863L159.913 325.097L159.725 325.613L159.325 325.882L158.901 325.859L158.596 325.545L158.572 324.917L157.819 326.33L157.514 327.228L157.561 327.901L158.031 328.103L158.572 327.721L159.113 327.205L159.56 326.981L159.419 327.587V328.192L159.631 328.708L160.054 329.022V329.269L159.607 329.045L158.878 328.439L158.384 328.349L159.607 329.561L160.689 330.929L161.395 332.656L161.371 334.966L160.666 337.927L160.454 340.215L160.336 340.754L160.148 341.225L159.584 341.987L159.466 342.414L159.56 342.907V342.705L159.678 343.311L159.584 343.827L159.066 344.724L158.901 345.083L158.69 345.801L158.572 346.092L158.36 346.406L157.655 347.102L157.278 347.752L156.808 349.031L156.502 349.592L155.655 350.713L155.443 350.915L154.855 351.139L154.597 351.296L154.173 351.745L153.256 353.315L152.856 354.527L152.574 355.11L152.174 355.357L151.727 355.491L151.444 355.872L151.303 356.478L151.28 357.263L151.327 357.577L151.397 357.802L151.374 358.048L151.186 358.385L151.115 358.676L151.256 358.901L151.397 359.192L151.28 359.618L151.68 359.91L152.856 360.426L153.75 360.538L153.961 360.65L154.15 360.83L154.597 361.391L154.832 361.525L155.42 361.637L158.454 363.118L159.56 363.432L160.313 363.522L160.548 363.656L160.713 363.836L160.854 364.06L161.042 364.239L163.583 364.71L164.03 365.002L164.053 365.338L163.912 365.585L163.677 365.787L163.536 365.877L163.465 365.832L162.877 365.675L162.736 365.742L162.43 366.056L162.289 366.124L161.724 366.258L160.713 366.819L160.219 366.998L159.607 366.931L158.29 366.46L157.655 366.325L155.42 366.572L154.808 366.393L153.609 365.787L151.186 365.428L147.116 363.701L145.987 363.432L144.199 363.701L143.164 363.409L135.707 364.329L135.166 364.262L134.202 363.948L133.637 363.88L133.19 364.015L132.414 364.643L131.99 364.8L131.52 364.643L130.885 364.015L130.485 363.88L128.415 363.544L128.344 363.095L128.156 362.602L127.874 362.153L127.592 361.839L127.145 362.198L126.815 362.759L126.533 363.409L126.18 363.993L125.945 364.105L125.404 364.06L125.192 364.217L124.439 365.002L123.593 365.54L122.416 365.854H121.193L120.299 365.451L119.664 364.351L119.311 364.06L119.17 364.665L119.076 365.406L118.864 365.922L116.747 368.389L116.512 368.927L116.371 369.421L115.618 370.498L115.336 371.058L115.171 371.507L115.265 371.664L115.453 372.158L115.5 372.382L115.406 372.718L115.242 373.1L115.148 373.481L115.265 373.817L115.571 374.266L115.924 374.917L116.065 375.545L115.853 375.971L115.336 375.926L114.865 375.433L114.418 374.894L114.019 374.625L113.501 374.737L112.913 375.029L111.854 375.724L111.643 375.948L111.36 376.397L111.172 376.599L110.843 376.868L110.561 376.913L109.949 376.823L109.478 376.891L108.843 377.092L108.302 377.451L108.044 377.945L108.161 378.326L108.443 378.416H108.773L109.055 378.595L109.126 378.82V379.134L109.032 379.38L108.796 379.515L108.443 379.784L108.302 380.435L108.373 381.175L108.561 381.713L110.09 382.678L110.372 382.925L110.466 383.126L110.725 383.239L111.596 383.351L111.784 383.508L111.948 383.71L112.184 383.956L114.113 385.168L114.936 385.863L115.5 386.828L116.324 389.228L116.982 389.811L118.159 389.676L119.311 389.318L119.876 389.385L120.864 390.26L122.322 391L122.652 391.314L123.005 391.718L123.146 392.166L122.816 392.57L122.275 392.637L120.652 391.92L118.982 392.234L118.3 392.032L118.488 391H118.112L117.453 391.179L117.077 391.247L116.488 391.202L116.324 391.247L116.183 391.359L116.112 391.493L116.065 391.605L115.994 391.695L114.701 392.929L114.16 393.221L113.43 393.4L112.725 393.422L112.043 393.288L110.067 392.435L109.455 392.009L109.055 391.471L109.29 391.426L109.478 391.269L109.549 391.067L109.384 390.798L109.126 390.731L108.538 390.82L108.302 390.686L107.573 389.811L106.726 389.048L106.185 388.779L105.597 388.645L104.35 388.6L104.045 388.645L103.927 388.802L103.833 389.048L103.668 389.385L103.386 389.542L103.127 389.407L102.751 389.048H100.634L100.257 388.936L100.022 388.42H99.4104L98.2813 388.824L97.1286 388.869L93.3178 388.151L93.0591 387.994L92.8474 387.77L92.6356 387.702L92.3298 387.927L92.2357 388.263V388.712L92.1887 389.093L91.9064 389.273L91.8358 389.766L91.5771 390.663L91.2477 391.067L90.8478 390.147L90.542 390.753L90.4715 391.807L90.6126 392.862L90.8478 393.445L90.6596 393.692L90.8478 394.297L90.8243 394.993L90.6596 396.428L90.8478 397.146L91.2713 397.729L91.8123 398.178L92.3298 398.514L93.4354 399.008L101.927 400.511L103.974 401.408L104.962 402.081L105.574 402.911L105.715 403.404L105.809 404.077L105.903 406.747L105.832 407.15L105.738 407.442L105.715 407.711L105.903 408.16L106.091 408.317L106.632 408.451L106.891 408.608L107.126 408.878L107.432 409.506L107.785 410.044L107.996 410.65L108.138 410.919L108.867 411.547L109.055 411.883L109.102 412.197L109.032 412.893L109.055 413.207L109.149 413.386L109.314 413.611L109.478 413.88L109.549 414.171L109.62 414.732L109.831 415.293L112.043 419.757L112.701 420.609L113.031 420.901L113.219 420.968L113.525 421.035L113.807 420.968L114.066 420.856L114.277 420.901L114.348 421.372L114.536 421.91L115.5 422.561L115.853 422.987L115.924 423.278L115.947 423.996L115.994 424.288L116.112 424.579L116.865 426.038L116.982 426.666L116.818 430.815L116.559 432.139L115.712 434.718L115.618 435.436L115.924 435.75H118.159L120.393 435.302L120.699 435.369L121.24 435.683L121.546 435.75L121.805 435.683L121.969 435.504L122.111 435.279L122.322 435.1L122.863 434.988L124.063 435.055L125.004 434.606L125.404 434.965L125.686 435.593L125.78 436.176L125.686 436.558L125.545 436.805L125.474 437.074L125.592 437.478L125.804 437.59L126.157 437.657L126.462 437.769L126.768 438.397L127.921 439.631L128.18 440.259L128.438 441.425L128.674 441.919L129.027 442.457L129.568 443.467L129.897 443.938L131.308 445.553L131.802 445.777L132.343 445.62L133.237 445.014L134.837 444.431L136.954 444.117L137.519 444.162L138.412 444.812L140.036 446.921L140.671 447.168L140.788 447.011L141.047 446.472L141.188 446.293L141.494 446.091L141.776 445.957L142.059 445.889L142.411 445.867L144.811 446.069L147.304 446.921L148.528 447.661L148.645 448.446L149.774 448.559L150.645 449.052L151.233 449.972L151.421 451.34L151.35 451.946L151.139 452.708L150.856 453.336L150.598 453.583L150.362 453.336L150.127 452.776L149.798 451.654L149.657 451.632L149.61 451.475L149.586 451.228L149.468 451.004L148.622 450.443L148.386 450.375L147.939 450.084L147.657 449.433L147.493 448.783L147.328 448.446L147.069 448.693V449.366L147.351 450.039L148.386 450.689L148.857 451.385L149.468 452.731L149.774 453.92V455.041L149.539 456.185L149.139 457.441L149.069 457.688L149.045 458.226L148.951 458.473L148.763 458.787L148.057 459.46L147.963 459.707L147.939 460.043L147.963 460.716L147.916 461.075L147.798 461.367L147.634 461.636L146.316 463.341L145.14 465.517L144.74 465.786L144.317 465.943L143.964 466.19L143.846 466.683L143.776 467.244L143.635 467.872L143.423 468.455L143.141 468.904L143.846 469.666L143.987 469.958V470.272L143.846 471.326L143.917 471.73L144.105 471.999L144.34 472.179L144.576 472.403L144.881 472.919L145.14 473.547L145.305 474.781L145.093 475.947L144.152 478.213L143.964 478.886L144.011 479.491L144.999 478.527L148.669 475.005L151.891 471.954V471.932L157.067 467.827L160.854 466.548L162.218 465.786L167.558 463.745L169.134 463.43L173.392 462.69L177.109 462.04L182.895 461.053L184.707 461.277L186.471 461.905L190.211 464.283L194.281 466.885L196.727 468.433L199.597 470.25L203.667 473.839L204.231 474.556L204.49 475.162L204.466 475.678L204.372 476.216L204.349 476.867L204.466 477.495L204.725 478.056L207.242 481.308L208.324 482.721L209.9 485.368L211.429 487.97L212.182 488.823L213.029 489.54L214.535 490.527L214.911 490.954L215.217 491.47L215.875 493.017L216.299 493.533L216.793 493.892L217.475 494.273L218.228 494.52L221.262 494.341L222.697 493.802L224.932 493.511L227.096 492.501L227.896 492.434L229.566 492.591L229.543 485.548V478.504V471.438V464.328V457.195V450.039L229.519 442.861V435.661V428.415V421.17V413.857V406.545L229.495 399.187V391.807V384.405V376.98V376.935V376.913H229.519V376.891H229.543V376.868H229.566L231.824 376.173L234.083 375.5L236.341 374.804L238.623 374.109L240.881 373.414L243.139 372.718L245.421 372.023L247.679 371.328L249.937 370.632L252.196 369.959L254.478 369.264L256.736 368.569L258.994 367.873L261.276 367.178L263.534 366.482L265.792 365.765L268.827 364.89L274.872 363.14L277.883 362.243L279.271 361.839L280.683 361.458L282.071 361.054L283.482 360.65L284.917 360.269L286.375 359.865L289.292 359.058L291.245 358.519L291.809 358.564L292.468 358.856L294.326 360.045L294.867 360.381L296.373 361.346L298.725 362.871L301.807 364.845L305.477 367.223L309.64 369.87L314.157 372.763L318.908 375.814L323.754 378.909L328.6 381.982L333.281 384.966L337.704 387.792L341.75 390.349L345.278 392.57L348.148 394.409L350.265 395.733L351.771 396.697L352.406 397.348L352.829 398.2L352.994 398.985L353.159 400.645L353.394 401.408L354.805 403.584L357.581 406.433L358.898 407.801L360.239 409.147L361.933 411.031L363.297 412.556L364.709 414.082L367.484 417.132L368.825 418.613L370.19 420.116L371.554 421.596L372.895 423.077L374.73 425.051L375.2 425.252L375.694 425.454L377.741 425.095L378.588 424.938L379.458 424.804L380.305 424.647L381.152 424.512L382.516 424.265L383.88 424.019L385.245 423.794L386.609 423.548L388.82 423.211L391.032 422.852L393.219 422.516L395.43 422.179L397.642 421.843L399.853 421.484L402.041 421.148L404.252 420.811L411.615 421.439L415.308 421.753L418.978 422.09L422.318 422.381L425.682 422.65L429.022 422.942L432.362 423.234L433.703 423.346L434.127 423.234L434.55 423.121L436.973 421.843L439.302 420.609L441.701 419.331L444.054 418.097L444.501 417.94L444.924 417.783L445.3 417.828L445.7 417.895L446.1 418.231L446.5 418.59L449.111 421.82L451.722 425.051L452.922 426.262L454.122 427.473L456.615 428.954L459.085 430.456L459.579 430.838L460.05 431.242L462.096 435.302L463.413 437.859L465.225 441.425L466.777 444.454L466.989 444.476L467.201 444.498L470.682 442.704L474.164 440.909L473.646 448.693L473.129 456.432L473.058 457.262L473.011 458.069L472.893 458.339L472.776 458.608L472.47 458.72L472.188 458.832L472.141 459.034L472.047 459.258L471.976 465.292L471.882 471.326L471.905 471.506L471.929 471.663L472.023 471.73L472.141 471.82L475.058 471.842H477.692H480.35L483.267 471.865L483.338 471.842H483.432H483.526H483.62L483.691 471.865L483.785 471.887L483.855 471.909L483.902 471.954L484.326 475.835L484.749 479.738L485.502 483.529L486.278 487.32L487.313 491.828L488.348 496.337L488.889 496.965L489.43 497.571L490.442 497.84L491.43 498.087L494.229 497.907L496.582 497.773L500.11 497.571L502.698 497.436L505.779 497.257L507.732 497.145L510.884 496.965L513.966 496.786L514.248 496.853L514.507 496.943L515.024 497.19L515.542 497.436L515.8 497.526L516.059 497.616L516.294 497.593L516.53 497.548L517.235 497.122L517.917 496.674L518.223 496.494L518.529 496.292L518.694 496.719L518.835 497.167L518.858 497.19L518.882 497.212L518.976 497.369L519.047 497.548L519.588 498.199L520.129 498.872L520.246 499.141L520.364 499.41L520.458 500.016L520.576 500.599L520.717 500.846L520.881 501.093L521.023 500.98L521.164 500.868L521.328 500.801L521.47 500.734L521.634 500.756L521.775 500.779L521.916 500.936L522.034 501.093L522.363 500.42L522.622 500.397L522.881 500.375L522.928 500.689L522.975 501.003V501.048V501.07L522.951 501.227L522.928 501.362L523.046 501.407L523.163 501.429L523.187 501.474L523.234 501.496L522.951 501.698L522.669 501.878L522.552 501.945L522.457 501.99L522.552 502.035L522.669 502.08L522.716 502.147L522.763 502.237L522.857 502.416L522.975 502.573V503.022V503.448L522.857 503.964L522.716 504.48L522.552 504.973L522.363 505.467L522.175 505.87L521.987 506.252L521.869 506.454L521.728 506.656L521.375 507.037L521.187 507.194L520.975 507.351L520.129 507.71L520.011 507.8L519.917 507.889L519.87 508.001L519.823 508.136L519.917 508.181L519.988 508.248L520.482 508.338L520.952 508.428L521.681 508.831L522.787 509.886L523.892 510.918L524.692 511.523L525.516 512.129L528.362 513.564L531.208 515L531.255 514.91L531.279 514.843L531.443 514.686L531.585 514.551H531.773L531.961 514.574L532.055 514.462L532.126 514.349L532.196 514.215L532.267 514.08L532.384 514.013L532.502 513.946L532.643 513.968L532.761 513.991L533.255 514.215L533.725 514.439L534.055 514.484L534.384 514.529L534.643 514.394L534.901 514.26L534.972 514.058L535.043 513.856L534.807 513.744L534.572 513.609L534.878 513.161L535.16 512.712L535.184 512.6L535.207 512.488L535.113 512.331L534.996 512.151L534.925 511.972L534.831 511.792L534.807 511.59L534.76 511.389V511.209L534.784 511.03L534.478 510.94L534.172 510.895L534.055 510.828L533.937 510.76L533.843 510.626L533.725 510.514L533.655 510.222L533.584 509.953L533.443 508.674L533.325 507.396L533.372 507.171L533.419 506.947L533.49 506.857L533.561 506.79L533.631 506.723L533.725 506.678L533.796 506.499L533.866 506.319L533.89 506.184V506.027L533.866 505.691L533.843 505.355V505.018L533.89 505.063L533.961 505.085L534.055 505.13L534.172 505.175L534.243 505.198L534.29 505.242L534.431 504.883L534.549 504.525L534.878 504.3L535.231 504.076L535.96 503.784L536.713 503.47L536.948 503.179L537.207 502.887L537.63 501.676L538.077 500.465L538.406 500.106L538.759 499.747L539.583 499.388L540.406 499.051L540.712 498.558L541.018 498.064L541.159 497.862L541.323 497.661L541.559 497.571L541.817 497.504L542.335 497.436L542.852 497.369L543.299 497.167L543.723 496.965L544.146 496.696L544.546 496.427L544.758 496.225L544.97 496.046L545.064 495.866L545.158 495.687L545.346 494.229L545.534 492.771V492.524L545.511 492.277L545.487 492.098L545.44 491.918L545.417 491.851L545.393 491.806L545.322 491.761L545.275 491.716L545.158 491.604L545.04 491.447L545.016 491.335L544.97 491.2L545.04 491.088L545.087 490.976L545.181 490.909L545.275 490.819L545.84 490.572L546.404 490.303L546.64 490.236L546.851 490.169L547.087 490.258L547.322 490.348L547.439 490.034L547.557 489.698L547.839 489.428L548.145 489.159L548.804 488.755L549.463 488.352L549.651 488.307L549.862 488.284L550.215 488.396L550.568 488.531L550.756 488.509L550.921 488.464L551.391 488.195L551.862 487.903L552.027 487.858L552.215 487.813L553.65 488.06L553.791 487.97L553.932 487.903V487.746L553.908 487.589L553.697 487.23L553.509 486.871L553.461 486.714L553.414 486.557L553.579 486.153L553.72 485.75L554.05 485.525L554.379 485.301L555.061 485.099L555.743 484.897L556.966 483.978L558.213 483.035L558.543 482.654L558.895 482.273L559.107 482.116L559.319 481.959L560.942 481.533L562.565 481.106L563.906 481.039L565.27 480.994L565.764 480.792L566.258 480.59L566.635 480.187L566.987 479.76L567.152 479.536L567.34 479.289L567.505 479.155L567.693 478.998L568.375 478.773L569.058 478.527L570.069 477.831L571.057 477.114L571.363 476.777L571.669 476.441L572.492 475.072L573.315 473.726L573.48 473.547L573.668 473.39L573.856 473.278L574.068 473.166L574.303 473.076L574.515 473.009L574.703 472.896L574.915 472.807L575.056 472.65L575.221 472.47L575.315 472.201L575.385 471.932L575.691 471.304L575.997 470.676L576.515 470.25L577.032 469.823L578.208 469.33L579.384 468.836L579.549 468.881L579.737 468.926L579.973 469.061L580.184 469.218L580.372 469.42L580.561 469.621L580.655 469.823L580.749 470.025L580.843 470.317L580.913 470.608L581.102 470.788L581.29 470.967L581.549 471.08L581.807 471.169L582.09 471.214L582.372 471.237L582.748 471.08L583.125 470.9L583.642 469.98L584.089 468.859L584.348 468.365L584.654 467.849L584.983 467.468L585.336 467.087L585.453 466.862L585.571 466.661L585.665 466.369L585.783 466.1L585.947 465.853L586.112 465.651L586.418 465.629H586.7L587.265 465.763L587.829 465.92L588.276 465.853L588.723 465.786L589.194 465.561L589.641 465.337L590.464 464.709L591.287 464.059L590.582 463.902L590.064 463.655L589.123 462.735L588.982 462.264L589.288 461.793L590.135 461.008L590.911 460.088L591.076 459.729L591.029 459.505L590.887 459.303L590.84 458.967L591.005 458.361L591.287 457.755L591.617 457.239L591.993 456.903L593.146 457.621L593.546 457.643L593.875 457.464L594.087 457.15L594.134 456.791L593.945 456.432L593.099 455.737L592.84 455.423L592.628 454.256L593.522 453.718L595.616 453.404L595.992 453.045L596.11 452.574L596.086 451.34L596.157 450.689L596.345 450.375L597.262 450.084L597.662 449.837L597.944 449.433L598.486 448.536L598.885 448.334L599.426 448.491L599.991 448.738L600.508 448.85L600.932 448.648L601.308 448.312L601.638 447.863L601.896 447.392L602.32 447.033L602.908 447.011L604.084 447.392L604.461 447.213L604.719 447.19L604.978 447.325L605.919 448.087L606.225 448.222L606.648 448.132L609.306 446.495L610.106 446.248L611.8 446.181L612.647 445.889L613.023 445.799L613.399 445.957L613.776 446.203L614.176 446.36L615.658 446.742L618.457 448.222L619.233 448.424L619.61 448.379L620.292 448.065L620.668 447.975L623.773 448.087L625.373 448.716L628.219 450.532L629.066 450.712L630.83 450.689L634.241 451.475L634.994 451.878L635.559 452.484L636.405 453.964L637.017 454.503L637.84 454.862L638.664 455.086L639.487 455.108L642.569 454.615L643.651 454.66L644.568 455.019L645.039 455.378L645.439 455.602L645.862 455.692L647.603 455.826L648.144 456.028L648.52 456.432L648.449 457.374L648.473 458.047L648.755 458.451L650.966 458.81L652.401 459.37L653.084 459.258V458.697L651.343 455.467L650.966 454.503L650.778 453.449L650.849 452.26L651.108 451.161L652.401 448.402L653.037 447.056L653.131 446.585L653.06 446.001L652.754 444.97L652.707 444.431L652.778 443.893L652.989 443.444L653.483 442.614L654.401 440.057L654.66 439.608L655.036 439.272L656.189 438.644L660.329 437.006L660.752 436.917L661.764 436.962L662.658 436.491L663.481 434.337L664.21 433.776L664.681 433.956L665.551 434.741L665.998 434.898L669.809 434.449L670.209 434.225L670.279 433.776L670.021 433.238L669.362 432.363L670.068 432.744L671.291 433.821L671.973 434.09L672.773 434.27L673.455 434.606L674.702 435.593L675.196 435.84L676.207 435.93L677.078 436.491L678.066 436.737L678.513 436.984L678.865 437.388L679.477 438.397L679.806 438.779L682.276 440.618L683.123 440.909L685.899 441.358L687.946 442.345L688.651 442.906L689.333 443.22L690.792 443.668L691.474 444.05L692.062 444.476L693.521 445.328L694.156 445.463L695.755 445.441L701.189 446.136L702.154 446.024L702.624 446.091L704.2 446.719L704.812 446.674L705.518 446.383L706.2 445.912L706.788 445.351L707.047 444.947L707.823 442.928L708.105 442.704L708.458 442.614L709.964 442.48L710.904 442.614L712.81 443.153L713.351 443.197L714.927 442.682L715.562 442.659L717.326 443.085H719.514L721.584 443.691L721.843 443.646L722.313 443.444L722.619 443.422L722.878 443.579L723.137 444.072L723.372 444.207L723.795 444.072L724.525 443.399L724.972 443.22L725.607 443.287L726.877 443.803L727.489 443.915L728.006 443.781L728.923 443.399L730.006 443.422L730.476 443.31L731.393 442.839L731.488 442.726L731.535 442.569L731.582 442.457L731.77 442.435L732.217 442.502H732.334L732.523 442.39L733.04 441.807L733.511 441.493L733.981 441.425L735.063 441.403L736.028 441.044L736.475 440.977L736.968 441.156L739.697 441.605L740.521 441.896L740.803 442.121L741.485 443.04L741.838 443.332L742.238 443.422H743.085L745.461 443.826L746.237 443.601L747.272 443.13L747.648 443.04L748.025 443.063L748.683 443.287H749.648L750.118 443.512L750.542 443.848L751.012 444.117H751.412L752.682 443.534L753.176 443.444L754.776 443.512L756.422 443.87L756.564 444.072L756.658 444.274L756.822 444.454L757.105 444.633L757.716 444.364L758.116 444.117L758.328 444.027L758.892 443.96L759.457 444.005L759.975 444.207L761.362 444.992L762.421 445.171L765.032 444.925L766.138 444.992L767.243 444.835L767.714 444.925L768.702 445.261L769.219 445.284L769.619 445.149L770.513 444.611L771.007 444.431L772.066 444.341L773.689 444.498L776.041 445.306L777.053 445.867L777.876 446.517L778.299 446.742L781.216 447.011L783.169 447.773L784.745 447.863L785.686 448.222L786.603 448.245L788.485 447.325L789.449 447.145L790.061 447.325L790.226 447.639L790.085 448.85L790.108 449.568L790.249 450.196L790.508 450.779L790.837 451.362L791.708 452.192L793.613 453.045L794.389 453.83L795.495 456.342L796.154 457.195L797.377 457.666L799.682 457.8L801.635 457.441L802.693 457.486L808.033 458.585L809.068 459.236L809.398 459.617L810.315 460.918L811.891 462.286L812.691 463.273L813.326 464.35L814.055 465.292L815.114 465.876L816.031 465.404L816.313 465.046L816.502 464.373L816.055 462.152L815.725 461.703L815.466 461.255L815.302 460.761L814.761 458.271L814.737 457.912L814.996 457.307L815.137 456.903L815.114 456.522L814.855 455.983L814.22 455.086L813.938 454.615L813.726 453.381L813.537 452.91L813.396 452.394L813.491 451.721L813.702 451.25L814.596 449.949L814.973 449.03L815.514 447.145L816.031 446.36L816.431 446.136L816.831 446.158L817.678 446.383L818.101 446.338L819.254 445.889L819.701 445.53L821.536 444.88L822.759 444.723L823.276 444.409L823.417 443.781L823.135 443.22L822.618 442.951L821.536 442.794L819.865 442.031L819.066 441.381L818.595 440.595L818.924 439.721L819.936 439.07L822.053 438.218L823.935 436.849L824.97 436.378L825.982 436.423L827.181 437.32L827.699 437.433L828.216 437.343L828.71 437.051L829.063 436.58L829.181 435.907L829.063 435.324L828.522 434.315L828.404 433.731L828.357 433.103L828.287 432.498L828.122 431.937L827.793 431.511L826.828 431.062L825.934 430.838L825.558 430.344L826.805 428.168L827.181 427.182L827.252 426.15L821.536 411.816L820.642 410.582L820.242 409.842L819.983 409.169V408.519L819.936 407.935L819.771 407.375L819.513 406.859L818.713 406.096L818.36 405.647L818.219 405.064L818.383 403.875L819.042 401.565V400.309L818.078 395.576L818.007 394.432L818.195 393.108L818.83 390.686L819.207 389.968L819.301 389.609L819.136 389.205L818.689 388.645L818.595 388.353L818.619 387.994L819.113 387.411L819.96 387.029L821.536 386.671L821.912 386.424L822.053 385.998L821.912 385.571L821.536 385.325L817.631 383.867L816.384 382.925L815.937 382.723L815.302 382.655L810.974 383.53L809.821 383.441L806.857 381.646L806.222 380.861L806.598 379.874L807.069 379.515L808.198 378.977L810.597 376.98V376.958L811.515 376.128L812.526 375.702L813.585 375.634L815.325 375.904L817.043 375.253L818.854 375.343L819.442 375.275L819.842 374.917L820.312 373.75L820.783 373.369L821.324 373.302L822.994 373.459L826.875 372.09L828.028 372.068L830.028 372.673L830.663 372.651L833.603 371.507H834.709L835.697 371.148L837.673 370.094L847.294 367.2L849.223 365.854L850.258 365.406L851.222 365.675L852.046 365.742L852.681 366.729L853.081 368.075L853.198 369.197L853.245 369.959L853.363 370.385L853.692 370.61L855.339 370.857L855.715 371.103L856.186 371.619L857.15 372.045L858.373 371.754L862.984 369.533L864.278 369.219L865.478 369.331L866.607 370.094L868.677 372.292L869.853 372.988L871.382 372.741L872.487 370.991L873.193 368.658L873.664 365.697L873.734 364.419L873.617 363.207L873.24 362.557L870.747 361.57L867.101 361.054L866.277 360.65H866.254L865.407 359.349L865.713 357.712L866.465 356.007L867.336 352.754L869.147 349.749L869.853 348.179L870.159 347.236L870.817 344.208L871.429 339.632L872.088 337.479L873.029 335.527L874.652 333.015L875.005 331.961L875.287 330.144L875.451 329.583L876.416 327.609L878.627 319.601L882.156 312.558L882.32 311.997L882.344 311.436L882.226 310.853L882.156 310.18L882.273 309.529L882.65 308.273L882.673 307.892L882.509 307.241L882.461 306.905L882.556 306.524L882.814 305.806L882.885 305.402L882.838 304.056L883.026 303.675L883.638 303.383L884.249 303.249L884.908 303.204L885.567 303.271L886.131 303.473L887.378 304.527L887.872 304.819L890.107 305.29L891.048 305.716L895.188 308.363L904.385 311.481H906.667L908.361 311.817L908.949 311.705L910.502 310.853H910.525L913.089 310.606L916.077 310.853H916.1L916.476 310.808L916.876 310.853L918.17 311.458L919.276 311.638L921.558 311.077L922.71 311.167L923.581 311.616L924.357 312.378L924.851 313.365L924.804 314.576L924.521 315.115L924.169 315.653L923.981 316.147L924.075 316.618L924.545 316.842L925.204 316.73L926.992 316.012L928.826 315.653L929.297 315.294L929.861 314.285L930.261 313.904L930.591 313.724L931.696 313.477L932.002 313.275L932.708 312.535L934.354 311.346L934.895 310.853L935.484 309.843L935.789 309.485L936.307 309.215L936.777 309.126L938.189 309.283L941.294 308.812L942.893 308.879L943.082 308.453L943.129 307.825L943.34 307.241L943.646 306.77L943.858 306.299L943.999 305.783L944.07 305.155L944.305 304.594L944.799 304.236L945.387 304.056L946.469 303.944L946.775 303.652L946.892 303.136L946.987 302.464L947.245 301.342V300.804L947.034 300.176L946.963 299.592L947.128 298.987L947.245 298.314L947.057 297.618L945.34 294.949L944.963 293.94L944.869 292.885L945.246 290.597L945.222 289.476L943.293 279.359L943.34 278.507L943.599 277.767L944.07 276.847L944.422 275.568L945.011 271.755L948.21 264.241L948.892 263.164L949.786 262.558L955.149 261.818L959.642 262.199L960.96 261.526L961.924 260.405L962.441 259.956L963.077 259.687L965.429 259.844L968.205 258.767L968.652 258.408L968.91 257.982L969.357 256.793L969.64 256.233L970.016 255.784L971.169 254.707L973.004 252.285L973.168 251.881V251.41L972.886 249.907L972.862 249.503L973.027 249.167L973.474 248.673L974.086 247.574L973.686 246.879L972.933 246.183L972.368 244.995L972.204 244.142L972.157 243.536L972.251 242.998L972.58 242.28L972.98 241.675L973.38 241.226L974.321 240.463L974.721 239.88L975.262 238.646L975.779 238.243L976.461 238.198L977.896 238.624L978.579 238.714L981.99 237.39L983.072 237.637L984.013 238.131L987 238.961L986.624 237.951Z" fill="#B4A297"/>
</svg>
