<svg width="302" height="147" viewBox="0 0 302 147" fill="none" xmlns="http://www.w3.org/2000/svg">
<path opacity="0.3" d="M300.711 39.6222L300.879 40.1798L300.964 41.3638L301.094 41.9596L301.386 42.502L301.724 42.9527L301.977 43.4645L302 44.1596L301.279 45.3207L299.928 45.779L293.051 45.695L291.639 46.0616L290.641 46.4818L290.196 46.8331L289.813 47.3755L289.567 48.0172L289.26 49.3769L289.007 50.0261L288.032 50.9504L286.812 51.1261L285.515 51.0956L284.294 51.3935L282.752 52.4858L280.979 53.158L278.815 54.6399L278.262 54.8538H277.617L275.891 54.3115L275.292 54.4643L274.816 54.7927L273.519 55.9996L272.928 56.4274L272.337 56.6719L271.063 56.9774L269.996 57.4052L266.911 59.6128L265.261 59.926L264.762 60.178L262.299 61.912L258.599 63.3634L258.223 63.5773L257.863 63.8981L257.655 64.2953L257.425 65.1967L257.157 65.5557L256.19 65.9911L254.179 66.4112L251.639 68.3591L250.549 68.8633L250.065 69.1994L249.62 69.757L249.505 70.4063L249.988 71.7966L250.065 72.4459L249.781 73.0646L249.29 73.4847L248.193 74.134L247.747 74.5618L247.064 75.5854L245.813 77.9916L245.43 78.5721L245.031 79.0075L242.26 81.3832L241.777 81.5665L241.209 81.5054L240.149 81.0165L236.565 80.5047L235.591 80.5429L234.67 80.8332L231.055 82.7582L230.64 82.9033L230.134 82.9491L228.737 82.888L226.627 83.4838L225.844 83.4457L225.03 83.0255L223.488 82.3762L221.96 82.0554L221.085 82.1089L219.497 82.5901L216.097 82.3762L215.268 82.0936L213.802 81.345L213.058 81.2075L210.111 81.8644L209.036 82.3151L208.322 83.0179L207.939 83.5832L206.933 84.3241L206.465 84.7824L206.204 85.4547L206.304 86.1421L206.504 86.8449L206.573 87.5553L206.342 88.281L205.92 88.7317L204.83 89.3351L203.925 90.1296L203.203 91.2219L202.735 92.5128L202.559 96.1413L202.467 96.7142L202.16 97.2259L200.709 98.3488L200.018 99.4488L199.136 101.962L198.522 102.978L197.77 103.711L195.383 105.27L194.516 106.11L194.055 106.285L193.664 105.842L193.226 103.65L192.958 103.047L192.152 102.795L191.369 103.673L190.54 104.819L189.619 105.392L189.105 105.27L188.084 104.704L187.562 104.536L186.895 104.597L184.454 105.774L184.093 106.285L183.786 106.881L183.334 107.492L182.796 107.859L182.213 107.981L181.614 107.943L179.842 107.5L179.251 107.454L178.66 107.531L177.401 108.073L176.779 108.119L176.319 107.622L176.089 107.004L175.644 105.43L175.59 104.758L175.812 104.07L176.173 103.581L176.442 103.115L176.38 102.474L176.112 102.084L175.337 101.366L175.037 100.908L174.845 100.236L174.707 98.219L174.208 96.6989L173.449 95.9503L172.466 95.935L171.315 96.6148L165.336 101.397L165.068 101.542L164.745 101.611L164.408 101.748L164.262 102.023L164.154 102.359L163.947 102.657L163.441 102.779L162.926 102.543L162.412 102.184L161.906 101.977L161.223 102.084L159.887 102.695L159.189 102.795L158.184 102.565L157.193 102.145L154.814 100.503L154.193 100.213L153.617 100.274L153.195 100.893L153.088 101.267L153.057 101.397L152.834 102.046L152.497 102.802L152.297 103.513L152.497 104.055L153.778 105.239L154.116 105.713L154.339 106.881L153.487 107.095L151.177 106.507L150.578 106.469L150.064 106.69L148.659 108.111L148.199 108.447L147.132 109.013L146.219 109.692L143.786 112.335L140.862 114.703L139.872 115.131L139.027 115.261L138.191 115.131L137.247 114.772L136.295 114.566L135.321 114.688L134.369 115.078L133.502 115.666L132.634 116.055L130.839 116.308L130.094 116.919L129.81 117.285L129.58 117.705L129.426 118.171L129.357 118.683L129.204 119.516L128.743 120.112L128.206 120.654L127.807 121.357L127.592 122.831L127.462 123.236L127.247 123.526L126.456 124.183L126.126 124.695L125.881 125.337L125.758 126.032L125.789 126.712L126.057 127.407L126.433 127.643L126.894 127.758L127.423 128.079L127.807 128.705L127.976 129.439L128.099 130.951L128.713 132.838L128.574 133.212L127.961 133.586L127.515 133.961L127.17 134.465L126.863 135.259L126.556 136.474L126.287 136.97L125.812 137.238L120.662 137.933L119.887 137.536L117.362 137.261L116.395 137.36L113.402 138.093L112.734 138.552L112.527 139.094L112.465 139.59L112.273 139.949L110.708 140.232L107.93 141.187L107.062 141.256L106.103 140.988L105.619 140.752L105.282 140.66L104.929 140.729L103.586 141.431L103.179 141.462L102.695 141.309L100.984 140.935L100.416 140.897L99.234 141.149L98.8196 141.164L93.762 139.842L93.3015 139.82L92.8257 139.965L92.5494 140.202L92.0275 140.858L91.7205 141.049H91.2754L90.5846 140.591L90.1702 140.469L89.8709 140.599L89.0113 141.508L88.5662 141.577L88.1057 141.554L87.2078 141.317L86.7319 141.332L85.7112 141.844L85.1126 141.928L84.6214 142.104L84.2914 142.638L83.6621 144.533L82.5339 146.977L82.2269 147L81.9429 146.595L81.682 146.022L81.6129 145.686V145.411L81.5208 145.197L80.9529 144.899L80.5308 144.579L80.3005 144.433L79.1186 144.242L78.5507 144.006L78.3051 143.479L78.2591 142.738L78.0979 141.852L77.7909 141.088L77.3227 140.713L76.8162 140.79L75.8569 141.309L74.8361 141.515L74.3757 141.752L71.6742 143.647L70.6688 144.074L69.6711 144.189L69.1415 144.029L68.6426 143.647L68.2436 143.089L68.0363 142.386L68.0901 141.661L68.374 141.233L68.7424 140.858L69.0571 140.331L69.1568 139.629L69.0878 138.72L68.8422 137.918L68.4124 137.536L67.8752 137.551L65.0892 138.139L63.7615 138.07L62.6257 137.551L62.0577 136.329L62.288 135.786L62.9787 134.77L63.1322 134.243L62.9634 133.678L62.5643 133.151L62.0731 132.731L61.1521 132.166L60.6533 132.211L59.7093 132.654L58.9341 132.8L58.6655 132.899L58.4736 133.029L58.0976 133.426L57.898 133.586L56.9541 134.098L56.5703 134.388L55.6954 135.381L55.3961 135.595H55.0584L53.5004 135.297L52.3339 135.359L51.198 135.672L50.2924 136.26L49.7245 137.245L49.3177 138.399L48.8189 139.361L47.9439 139.812L47.1918 139.613L46.5164 139.178L45.9178 138.903L45.4036 139.14L45.0659 139.522L44.8434 139.606L44.5978 139.568L44.1833 139.583L43.8533 139.682L43.0168 140.148L42.2647 140.255L41.4358 140.11L40.7144 139.682L40.2999 138.956L40.3153 138.529L40.4381 138.063L40.5071 137.574L40.3536 137.093L40.085 136.848L39.4404 136.581L39.1487 136.344L38.6038 134.633L38.2277 133.892L37.5601 133.388L37.0765 133.327L36.0712 133.51L35.5953 133.464L35.25 133.258L34.636 132.723L34.2599 132.57L33.7918 132.632L32.9015 132.968L32.4487 133.059L32.1801 133.159L32.0112 133.342L31.8731 133.533L31.7042 133.64H31.4279L30.86 133.464L30.5837 133.434L30.2307 133.563L27.7901 135.343L27.299 135.458L26.8308 135.282L26.7847 134.786L27.0764 133.518V132.922L26.9459 132.265L26.685 131.913L26.2629 132.234L25.5031 133.877L25.2728 134.213L24.82 134.358L24.3749 134.197L23.4539 133.663L22.8937 133.541L22.295 133.525L21.7271 133.709L21.2666 134.121L20.8368 134.725L20.6066 134.9L19.7854 134.534L18.6649 134.411L16.5467 134.839L15.4876 134.518L14.344 133.869L13.2619 133.51L12.1414 133.38L9.75457 133.525L9.27873 133.709L8.35776 134.503L7.8896 134.786L7.39075 134.961L6.87655 135.03H6.27024L5.08834 135.221L4.52041 135.03L3.86038 134.35L3.70689 134.243L3.44595 134.366L3.34618 134.587L3.27711 134.862L3.10826 135.122L2.03379 135.557L1.64239 134.709L1.77286 130.508L1.68076 129.843L1.47354 129.255L1.08214 128.782L0.598627 128.369L0.191868 127.903L0 127.254L0.0844223 125.856L0.391406 124.496L1.64239 120.723L2.17195 119.562L2.29474 119.203V118.989L2.40219 118.912L2.77824 118.989L3.58409 119.882L4.90414 122.121L7.53657 121.189L7.50587 120.723L6.87655 119.569L6.89957 119.332L6.87655 119.096L6.81515 118.882L6.7077 118.668L6.48513 117.545L6.66166 116.636L7.09911 115.826L7.66704 115.009L7.74378 114.78L7.85891 114.161L7.9817 114.008L8.20427 114.077L8.48823 114.619L8.66476 114.795L9.09454 114.841L9.54735 114.772L20.338 110.937L21.2973 111.037L25.1961 113.58L25.787 113.771L27.1455 113.687L27.7748 113.733L28.3734 114.031L28.7648 114.459L29.1025 114.948L29.54 115.429L30.0312 115.689L30.9905 115.811L32.0343 116.262L34.2139 116.59L34.8969 116.804L35.5339 117.232L35.8102 117.866L35.4035 118.653L34.9737 118.958L34.5209 119.195L34.0988 119.485L33.7457 119.989L33.4925 120.646L33.4157 121.257L33.6229 121.731L34.2139 121.937L34.4518 121.624L34.6744 120.845L34.8585 120.532L35.1809 120.371L36.3474 120.333L36.9384 120.119L37.4833 119.776L37.9591 119.287L38.3275 118.645L38.5654 117.415L38.5271 116.315L38.6575 115.414L39.379 114.734L41.1288 114.146L41.5049 113.917L42.5793 113.015L42.7482 112.786L42.8403 112.702L42.9937 112.679L43.1319 112.748L43.224 112.832L43.2393 112.885L43.7382 112.618L43.9301 112.458L44.2908 112.328L45.749 112.649L46.5932 112.366L47.5142 111.686L47.967 110.815L47.4067 109.952L48.3967 108.951L49.9854 108.676L53.1627 109.127L54.03 109.043L54.4137 108.447L54.6593 107.66L55.0891 107.011L55.4805 106.889L55.7568 107.11L56.0024 107.485L56.2863 107.813L56.6624 107.981L57.1152 108.019L57.9671 107.935L58.5197 107.974L59.3793 108.776L60.5995 109.15L60.8682 109.578L61.083 110.105L61.5819 110.578L62.1652 110.945L62.7868 111.182L64.0762 111.442L64.7516 111.373L64.9895 110.968L65.0585 110.349L65.2274 109.677L65.7262 109.226L66.2098 109.647L66.6012 110.456L66.793 111.174V112.633L66.9542 113.176L67.5068 113.412L67.8828 113.306L69.3257 112.458L69.7708 112.037L70.0625 111.549L70.5767 110.418L71.4286 109.57L72.4263 109.517L73.5007 109.776L74.5829 109.868L74.8975 109.769L75.051 109.746L75.2659 109.792L75.5959 109.929L76.0257 109.998L76.4094 109.899L76.586 109.509L76.4325 109.234L76.0564 108.982L75.2659 108.615L74.7517 108.241L74.5522 107.706L74.7057 107.202L77.0695 106.003L77.7909 105.285L78.19 104.292L78.3588 103.62L78.6121 103.253L80.4387 102.252L80.8992 102.13L82.3574 102.061L82.8562 102.115L83.1171 102.321L83.002 102.68L82.6106 102.81L82.1425 102.848L81.8278 102.94L81.6973 103.276L82.0427 103.383L83.286 103.329L83.6851 103.482L85.3044 104.429L86.0412 104.704L86.6859 104.567L87.2461 103.803L87.5378 102.902L87.5685 102.069L87.2768 101.359L86.0873 100.503L85.8494 100.182V99.7849L86.0335 99.2044V98.5627L85.4426 97.5773L85.5347 96.9815L86.3482 96.6225L87.2615 97.4169L88.1671 98.4711L88.9576 98.8606L90.0167 98.9981L91.9507 100.312L93.0329 100.251L93.455 99.9148L93.7159 99.4794L93.8464 98.9676L93.8848 98.4405L94.092 97.8447H94.5908L95.5962 98.3106L96.3944 97.944L96.7167 95.5607L97.3691 94.56L98.3284 94.1552L100.301 93.651L102.649 92.1844L105.22 91.2372L106.517 90.5039L107.354 89.4039L107.208 88.6858L106.364 88.4949L104.752 88.5942L104.2 88.2046L103.824 87.6775L103.386 87.3796L101.36 88.3115L100.094 89.19L99.7406 89.2435L99.8096 88.6476L99.6945 87.5935L98.6354 87.3032L95.1051 87.6241L93.9308 87.4789L92.8717 87.0206L92.0275 86.0963L90.8533 84.2783L90.3237 84.072L89.6483 84.0262L89.1495 83.7741V82.9491L89.2032 82.7352L89.1878 82.5519L89.1111 82.3992L88.973 82.2922L87.5148 82.1547L86.7396 81.9179L86.1717 81.5665L85.3889 80.3367L85.0282 80.0999L84.5293 80.4971L84.3835 80.7568L84.0688 81.704L83.8616 81.8721L82.8562 82.0096L80.4464 82.7429L80.8224 81.8873L81.0066 81.2381V80.5353L80.7533 78.6485L80.7073 77.6249L80.5768 76.6395L80.2621 75.952L79.5638 75.5319L78.896 75.6389L78.2591 76.059L77.6681 76.5861L76.8469 77.0749L76.3711 76.8229L75.9566 76.227L75.2966 75.6847L73.1247 76.059L72.4109 75.7152L72.2728 74.1951L72.3419 72.6521L72.1884 71.4681L71.7509 70.3987L69.1799 66.5869L68.9573 66.3807L68.7271 66.289L68.5506 66.4418L68.5275 67.2057L68.305 67.3966L68.0517 67.2744L67.8982 66.6939L67.6066 66.5717L67.4761 66.7779L67.3686 67.1751L67.2075 67.473L66.9465 67.3737L66.9235 66.9307L67.4224 64.8988V64.1425L67.2765 63.4398L66.9312 62.9585L66.3326 62.8669L65.7262 63.1189L65.3962 63.5162L64.8513 64.9064V64.9217L65.1276 65.5251L65.8951 66.5106L65.9949 67.1675L65.8797 67.8932L65.4883 69.1077L64.575 71.0709L63.8229 71.8577L62.8866 72.041L61.7047 71.5292L60.3847 70.2917L60.0086 70.2077L59.8397 70.666L60.0853 76.8916L59.9395 78.152L59.3255 78.6791L57.4529 77.0673L56.7699 77.9458L56.4782 78.6332L56.1175 78.6562L55.7721 78.2819L55.5112 77.7777L55.1735 76.4257L54.8588 75.9902L54.2065 75.9368L53.6386 76.2423L53.5618 76.7465L53.7 77.3881L53.7537 78.152L53.4851 78.8548L53.0553 78.5645L52.3646 77.4034L51.9271 77.052L50.9064 76.9145L50.4075 76.6319L49.8473 76.1889L49.2333 75.9138L47.9363 75.677L46.762 75.8527L46.2171 75.7916L45.7183 75.3257L45.3422 74.8062L44.8894 74.3479L44.3982 73.9965L43.8763 73.775L43.2547 73.8361L42.7251 74.0882L42.28 74.1646L41.9423 73.6757L41.8963 73.0417L42.303 70.8264L42.2493 70.0626L41.9884 69.3292L40.4534 66.6862L39.9929 66.0751L39.4787 65.7543L38.5501 65.8995L35.1962 67.8168L34.2676 68.1758L33.6076 68.1376L33.1931 67.7557L32.5254 66.5029L32.1264 65.9835L31.6659 65.5786L30.6451 64.9522L26.7847 64.5168L25.7794 63.9898L25.2805 62.8287L25.8561 61.8815L30.2844 59.2919L31.9115 58.001L32.8094 57.5732L33.6306 57.0232L34.2753 56.0684L35.0734 54.3497L36.2707 52.9518L38.9722 50.6449L39.8164 50.1484L42.5486 49.8352L43.4926 49.4685L43.7996 48.8574L43.884 46.7644L44.3598 45.4276L45.488 45.1297L46.8311 45.1908L47.9593 44.9235L51.8273 42.0436L54.0837 41.3944L55.1044 40.684L55.5112 39.3166L54.5442 38.9958L50.7068 36.2535L49.8319 35.8945L48.9647 36.0167L47.7521 36.9028L47.1534 37.468L46.3553 37.2771L45.7873 36.9792L44.6975 35.8945L44.544 35.3445L44.8741 34.7792L45.8487 33.8549L46.7313 32.7702L46.9232 32.3424L46.8541 32.0827L46.7006 31.8383L46.6469 31.4411L46.8158 30.7307L47.1304 30.005L47.5218 29.3863L47.9363 28.989L49.241 29.8369L49.6861 29.8751L50.0622 29.6689L50.3231 29.3022L50.3768 28.8668L50.1466 28.4543H50.1389L49.1872 27.6064L48.9109 27.2474L48.65 25.8724L49.6784 25.2461L52.0422 24.8718L52.472 24.4363L52.6178 23.8864L52.5718 22.4274L52.6409 21.6482L52.8711 21.2815L53.8995 20.9302L54.3446 20.6399L54.6823 20.1663L55.2733 19.0892L55.7415 18.8524L56.3477 19.0434L57.0001 19.3566L57.5834 19.4635L58.0746 19.2496L58.4967 18.8371L58.8574 18.3177L59.149 17.7677L59.6325 17.3323L60.2925 17.3094L61.6126 17.7601L62.0654 17.5615L62.357 17.5386L62.6333 17.6837L63.7155 18.6003L64.0608 18.7378L64.529 18.6462L67.5375 16.7136L68.4354 16.4233L70.3541 16.3316L71.3058 15.9879L71.7509 15.8962L72.173 16.0796L72.6028 16.3698L73.0556 16.5608L74.744 16.9886L77.9137 18.7378L78.7963 18.9899L79.2107 18.9364L80.0012 18.5622L80.4156 18.4476L83.923 18.6003L85.7342 19.3337L88.973 21.5031L89.9323 21.694L91.9047 21.6635L95.7881 22.603L96.64 23.069L97.2847 23.8023L98.2287 25.5516L98.9271 26.1856L99.8557 26.6134L100.784 26.8731L101.713 26.9037L105.22 26.3231L106.441 26.3613L107.469 26.7891L108.014 27.2092L108.459 27.4689L108.943 27.5988L110.9 27.7363L111.537 27.9731L111.951 28.462L111.867 29.5849L111.89 30.3793L112.212 30.8529L114.714 31.2807L116.341 31.9452L117.116 31.8001L117.131 31.1355L115.144 27.3161L114.722 26.1703L114.514 24.9329L114.583 23.5426L114.89 22.2287L116.341 18.9746L117.07 17.3781L117.17 16.8129L117.093 16.133L116.755 14.8956L116.686 14.2692L116.778 13.6352L117.001 13.1081L117.569 12.1151L118.605 9.09775L118.912 8.55539L119.342 8.17346L120.639 7.41722L125.336 5.47698L125.804 5.38532L126.94 5.43115L127.968 4.87351L128.881 2.31454L129.71 1.66524L130.255 1.87149L131.245 2.81105L131.744 2.97911L136.057 2.45968L136.51 2.2076L136.587 1.66524L136.303 1.03122L135.551 0L136.349 0.443049L137.746 1.71107L138.521 2.02426L139.427 2.23815L140.209 2.63536L141.629 3.81173L142.182 4.102L143.333 4.21659L144.308 4.86588L145.428 5.17143L145.942 5.4617L146.318 5.94294L147.001 7.12695L147.385 7.57763L150.194 9.7394L151.146 10.1137L154.269 10.6408L156.61 11.7866L157.385 12.4664L158.168 12.8407L159.834 13.3525L160.601 13.8032L161.253 14.315L162.911 15.3157L163.625 15.4761L165.444 15.4608L171.614 16.2705L172.696 16.1483L173.241 16.2247L175.014 16.958L175.72 16.9275L176.518 16.5761L177.294 16.0184L177.946 15.3462L178.238 14.865L179.12 12.4893L179.435 12.2067L179.849 12.0998L181.538 11.9623L182.604 12.1151L184.753 12.7491L185.367 12.7873L187.163 12.1838H187.877L189.88 12.6574H192.367L194.723 13.3831L195.014 13.3449L195.552 13.0928L195.882 13.0775L196.166 13.2532L196.473 13.849L196.734 13.9865L197.225 13.8338L198.038 13.0393L198.545 12.8178L199.266 12.9171L200.686 13.5129L201.408 13.6428L201.975 13.4977L203.035 13.0317L204.247 13.0622L204.769 12.94L205.82 12.3748L205.936 12.2449L205.966 12.0769L206.028 11.9394L206.235 11.8935L206.734 11.9928L206.887 11.9775L207.102 11.8477L207.678 11.1678L208.207 10.7935L208.752 10.7019L209.965 10.6866L211.055 10.2588L211.584 10.1672L212.121 10.3963L215.222 10.9158L216.158 11.2595L216.465 11.5192L217.248 12.6268L217.655 12.9553L218.108 13.0699H219.052L221.753 13.5282L222.643 13.2685L223.802 12.7032L224.224 12.6116L224.647 12.6421L225.414 12.9018H226.504L227.033 13.1768L227.509 13.5741L228.039 13.8796H228.492L229.927 13.1921L230.502 13.0852L232.306 13.1539L234.156 13.597L234.324 13.8185L234.439 14.0629L234.616 14.2692L234.938 14.4983L235.637 14.1775L236.097 13.8796L236.343 13.7727L236.964 13.681L237.601 13.7497L238.215 13.9865L239.773 14.9108L240.994 15.1171L243.933 14.8421L245.184 14.9108L246.45 14.7351L246.98 14.8344L248.1 15.2393L248.676 15.2698L249.144 15.0942L250.142 14.4525L250.71 14.2386L251.915 14.147L253.734 14.3303L256.42 15.2698L257.548 15.9268L258.492 16.7136L258.96 16.9656L262.268 17.2941L264.463 18.1955L266.274 18.2948L267.333 18.7073L268.369 18.7455L270.503 17.6684L271.585 17.4622L272.268 17.6608L272.475 18.0351L272.322 19.4635L272.345 20.3191L272.506 21.0677L272.79 21.7628L273.174 22.4426L274.156 23.428L276.32 24.444L277.188 25.3606L278.423 28.3245L279.175 29.3328L280.564 29.9057L283.182 30.0661L285.384 29.6383L286.589 29.6842L292.652 30.9827L293.803 31.7543L294.179 32.1973L295.223 33.7403L297.004 35.3445L297.909 36.5361L298.631 37.7965L299.452 38.9041L300.649 39.6069M53.1627 116.957L53.0553 116.896L52.9632 116.812L51.4283 116.178L50.6915 115.689L50.2233 115.101L49.8473 114.13L49.3868 113.267L48.7651 112.878L47.9056 113.351L47.4297 114.451L47.2686 115.078L47.2379 115.666L47.3914 116.239L48.0667 117.721L48.3814 118.164L48.7421 118.355L49.4712 118.507L49.7859 118.76L49.9087 119.798L48.7344 121.624L48.7805 122.525L49.1258 122.701L49.5173 122.464L49.8933 122.098L50.2003 121.876L50.7222 121.907L50.8526 122.212L50.9217 122.594L51.2441 122.892L51.6508 122.93L52.9479 122.579L53.8688 122.564L54.2449 122.419L54.5365 121.991L54.5902 120.898L53.3853 119.607L53.3162 118.698L53.7614 118.263L55.0277 117.385L55.2119 116.827L55.0047 116.498L54.6593 116.43L53.9609 116.613L53.8151 116.697L53.5081 116.942L53.37 116.987L53.1627 116.957ZM69.2566 121.899L69.5252 121.471L70.1469 119.21L70.0318 118.836L69.3487 119.05L68.351 119.791L67.8752 120.028L67.1921 120.066L66.747 120.593L67.0156 121.097L67.5989 121.525L68.1284 121.777L68.8268 121.983L69.2489 121.899M38.1126 123.755L34.7971 122.655H34.3904L34.3597 123.19L34.5669 123.778L34.9276 124.298L35.8563 124.939L36.1249 125.283L36.9077 126.612L37.0612 126.734L38.4657 125.612L39.2485 125.214L40.1464 125.031L40.4304 124.771L40.4688 124.137L40.2616 123.488L39.9239 123.404L39.0566 123.801L38.0973 123.763" fill="#B4A297"/>
</svg>
