<svg xmlns="http://www.w3.org/2000/svg" width="30" height="30" fill="none" viewBox="0 0 31 30"><path fill="#fff" d="M15.095 22c.714 0 1.975-2.255 2.171-6h-4.342c.196 3.745 1.457 6 2.171 6Zm-6.92-8h2.746a15.7 15.7 0 0 1 1.083-5.271A7.009 7.009 0 0 0 8.175 14Z"/><path fill="#fff" d="M15.095 0a15 15 0 1 0 15 15 15.017 15.017 0 0 0-15-15Zm0 24a9 9 0 1 1 9-9 9.01 9.01 0 0 1-9 9Z"/><path fill="#fff" d="M15.095 8c-.714 0-1.975 2.255-2.17 6h4.341c-.196-3.745-1.457-6-2.17-6Zm-6.92 8a7.009 7.009 0 0 0 3.83 5.271A15.7 15.7 0 0 1 10.92 16H8.175Zm10.011-7.271A15.703 15.703 0 0 1 19.27 14h2.746a7.01 7.01 0 0 0-3.829-5.271Zm0 12.542A7.008 7.008 0 0 0 22.016 16h-2.747a15.703 15.703 0 0 1-1.083 5.271Z"/></svg>