<svg xmlns="http://www.w3.org/2000/svg" width="67" height="37" fill="none"><mask id="a" width="17" height="9" x="24.702" y="1.736" fill="#000" maskUnits="userSpaceOnUse"><path fill="#fff" d="M24.702 1.736h17v9h-17z"/><path d="M28.358 9.887c-1.946 0-3.312-1.01-3.398-2.742h1.226c.086 1.032.7 1.731 2.14 1.731 1.237 0 1.613-.538 1.613-1.237 0-.978-.753-1.118-2.15-1.473-1.205-.322-2.528-.71-2.528-2.172 0-1.333 1.033-2.097 2.689-2.097 1.752 0 2.892.893 3.01 2.441h-1.225c-.13-.925-.656-1.43-1.775-1.43-.967 0-1.462.355-1.462 1.022 0 .86.806 1.043 1.796 1.29 1.484.376 2.882.731 2.882 2.355 0 1.323-.893 2.312-2.818 2.312Zm4.838-6.613h-1.194v-1.14h1.194v1.14Zm-.075 6.462h-1.054V4.252h1.054v5.484Zm2.236 0h-1.053V2.048h1.053v7.688Zm6.076 0h-1.247L38.39 6.93l-.796.763v2.043H36.54V2.048h1.054v4.527l2.398-2.323h1.215L39.1 6.263l2.333 3.473Z"/></mask><path fill="#fff" d="M28.358 9.887c-1.946 0-3.312-1.01-3.398-2.742h1.226c.086 1.032.7 1.731 2.14 1.731 1.237 0 1.613-.538 1.613-1.237 0-.978-.753-1.118-2.15-1.473-1.205-.322-2.528-.71-2.528-2.172 0-1.333 1.033-2.097 2.689-2.097 1.752 0 2.892.893 3.01 2.441h-1.225c-.13-.925-.656-1.43-1.775-1.43-.967 0-1.462.355-1.462 1.022 0 .86.806 1.043 1.796 1.29 1.484.376 2.882.731 2.882 2.355 0 1.323-.893 2.312-2.818 2.312Zm4.838-6.613h-1.194v-1.14h1.194v1.14Zm-.075 6.462h-1.054V4.252h1.054v5.484Zm2.236 0h-1.053V2.048h1.053v7.688Zm6.076 0h-1.247L38.39 6.93l-.796.763v2.043H36.54V2.048h1.054v4.527l2.398-2.323h1.215L39.1 6.263l2.333 3.473Z"/><path fill="#fff" d="M24.96 7.145v-.05h-.052l.002.052.05-.002Zm1.226 0 .05-.004-.004-.046h-.046v.05Zm1.602-.979-.013.048h.001l.012-.048Zm3.172-1.828v.05h.054l-.004-.054-.05.004Zm-1.225 0-.05.007.006.043h.044v-.05Zm-1.441.882.012-.048-.012.048Zm.064 4.667v-.05c-.965 0-1.781-.25-2.366-.711-.583-.46-.94-1.132-.982-1.984l-.05.003-.05.002c.044.88.413 1.579 1.02 2.057s1.447.733 2.428.733v-.05ZM24.96 7.145v.05h1.226v-.1H24.96v.05Zm1.226 0-.05.004c.044.525.223.971.579 1.286.356.314.883.49 1.611.49v-.099c-.713 0-1.213-.173-1.545-.466-.332-.293-.503-.712-.545-1.22l-.05.005Zm2.14 1.731v.05c.624 0 1.042-.136 1.303-.369.263-.234.36-.56.36-.918h-.1c0 .341-.091.634-.326.844-.236.21-.625.343-1.237.343v.05Zm1.613-1.237h.05c0-.25-.049-.452-.147-.618a1.095 1.095 0 0 0-.43-.396c-.37-.205-.916-.33-1.611-.507l-.013.048-.012.048c.703.179 1.232.3 1.588.498a.998.998 0 0 1 .393.36c.086.146.132.33.132.567h.05Zm-2.15-1.473.012-.048c-.603-.161-1.227-.337-1.7-.652-.47-.312-.79-.76-.79-1.472h-.1c0 .75.342 1.227.835 1.555.489.325 1.129.504 1.73.665l.012-.048ZM25.26 3.994h.05c0-.652.252-1.161.704-1.509.453-.349 1.113-.538 1.935-.538v-.1c-.835 0-1.52.193-1.996.56-.478.367-.742.906-.742 1.587h.05Zm2.689-2.097v.05c.868 0 1.58.221 2.087.629.507.407.816 1.004.874 1.766l.05-.004.05-.004c-.06-.786-.381-1.41-.912-1.836-.53-.425-1.265-.65-2.15-.65v.05Zm3.01 2.441v-.05h-1.225v.1h1.226v-.05Zm-1.225 0 .049-.007c-.066-.47-.233-.84-.534-1.093-.3-.252-.724-.38-1.29-.38v.1c.552 0 .95.125 1.226.356.276.232.436.576.5 1.031l.049-.007Zm-1.775-1.43v-.05c-.488 0-.866.09-1.122.27-.26.183-.39.454-.39.802h.1c0-.32.117-.559.347-.72.233-.164.586-.252 1.065-.252v-.05ZM26.498 3.93h-.05c0 .223.053.405.15.556.096.15.235.267.402.362.333.188.79.297 1.282.42l.012-.048.012-.048c-.498-.125-.939-.23-1.257-.41a1.016 1.016 0 0 1-.368-.33.905.905 0 0 1-.133-.502h-.05Zm1.796 1.29-.012.048c.744.189 1.456.37 1.983.704.262.166.476.369.626.628.15.259.235.576.235.975h.1c0-.413-.09-.749-.249-1.025a1.928 1.928 0 0 0-.66-.662c-.542-.344-1.271-.529-2.011-.716l-.012.048Zm2.882 2.355h-.05c0 .65-.219 1.213-.67 1.615-.452.402-1.143.647-2.098.647v.1c.97 0 1.688-.25 2.164-.673.476-.424.703-1.016.703-1.69h-.05Zm2.02-4.301v.05h.05v-.05h-.05Zm-1.194 0h-.05v.05h.05v-.05Zm0-1.14v-.05h-.05v.05h.05Zm1.194 0h.05v-.05h-.05v.05Zm-.075 7.602v.05h.05v-.05h-.05Zm-1.054 0h-.05v.05h.05v-.05Zm0-5.484v-.05h-.05v.05h.05Zm1.054 0h.05v-.05h-.05v.05Zm.075-.978v-.05h-1.194v.1h1.194v-.05Zm-1.194 0h.05v-1.14h-.1v1.14h.05Zm0-1.14v.05h1.194v-.1h-1.194v.05Zm1.194 0h-.05v1.14h.1v-1.14h-.05Zm-.075 7.602v-.05h-1.054v.1h1.054v-.05Zm-1.054 0h.05V4.252h-.1v5.484h.05Zm0-5.484v.05h1.054v-.1h-1.054v.05Zm1.054 0h-.05v5.484h.1V4.252h-.05Zm2.236 5.484v.05h.05v-.05h-.05Zm-1.053 0h-.05v.05h.05v-.05Zm0-7.688v-.05h-.05v.05h.05Zm1.053 0h.05v-.05h-.05v.05Zm0 7.688v-.05h-1.053v.1h1.053v-.05Zm-1.053 0h.05V2.048h-.1v7.688h.05Zm0-7.688v.05h1.053v-.1h-1.053v.05Zm1.053 0h-.05v7.688h.1V2.048h-.05Zm6.076 7.688v.05h.093l-.052-.077-.04.027Zm-1.247 0-.042.027.014.023h.028v-.05ZM38.39 6.93l.042-.027-.033-.051-.044.042.035.036Zm-.796.763-.034-.036-.016.015v.021h.05Zm0 2.043v.05h.05v-.05h-.05Zm-1.054 0h-.05v.05h.05v-.05Zm0-7.688v-.05h-.05v.05h.05Zm1.054 0h.05v-.05h-.05v.05Zm0 4.527h-.05v.117l.085-.081-.035-.036Zm2.398-2.323v-.05h-.02l-.014.014.034.036Zm1.215 0 .035.036.09-.086h-.125v.05ZM39.1 6.263l-.035-.036-.03.029.023.035.042-.028Zm2.333 3.473v-.05h-1.247v.1h1.247v-.05Zm-1.247 0 .042-.026-1.796-2.807-.042.027-.042.027 1.796 2.806.042-.027ZM38.39 6.93l-.035-.036-.795.763.034.036.035.036.795-.763-.034-.036Zm-.796.763h-.05v2.043h.1V7.693h-.05Zm0 2.043v-.05H36.54v.1h1.054v-.05Zm-1.054 0h.05V2.048h-.1v7.688h.05Zm0-7.688v.05h1.054v-.1H36.54v.05Zm1.054 0h-.05v4.527h.1V2.048h-.05Zm0 4.527.035.036 2.398-2.323-.035-.036-.034-.036L37.56 6.54l.034.036Zm2.398-2.323v.05h1.215v-.1h-1.215v.05Zm1.215 0-.034-.036-2.108 2.011.035.036.034.036 2.108-2.01-.035-.037ZM39.1 6.263l-.042.028 2.334 3.473.041-.028.041-.027-2.333-3.474-.041.028Z" mask="url(#a)"/><mask id="b" width="25" height="9" x="24.702" y="13.627" fill="#000" maskUnits="userSpaceOnUse"><path fill="#fff" d="M24.702 13.627h25v9h-25z"/><path d="M26.648 21.627h-1.182V13.94h3.204c1.7 0 2.613.795 2.613 2.215 0 .978-.591 1.688-1.44 1.882v.021c1.784.334 1.128 3.366 1.548 3.495v.075h-1.27c-.343-.322.388-3.01-1.494-3.01h-1.979v3.01Zm0-4.032h1.764c1.086 0 1.678-.473 1.678-1.355 0-.828-.474-1.28-1.657-1.28h-1.785v2.635Zm8.039 4.194c-1.71 0-2.742-1.183-2.742-2.904 0-1.71 1.032-2.914 2.752-2.914 1.7 0 2.732 1.194 2.732 2.903 0 1.72-1.033 2.915-2.742 2.915Zm.01-.872c1.119 0 1.635-.892 1.635-2.032 0-1.15-.516-2.032-1.635-2.032-1.14 0-1.656.881-1.656 2.032 0 1.14.517 2.032 1.656 2.032Zm5.145.86c-1.097 0-1.796-.634-1.796-1.57 0-1.225.925-1.59 2.29-1.849.86-.161 1.388-.269 1.388-.806 0-.398-.237-.732-1.043-.732-.957 0-1.248.302-1.302 1.033h-1.075c.054-1.054.742-1.882 2.42-1.882 1.129 0 2.032.473 2.032 1.893v2.516c0 .398.054.602.258.602.032 0 .064 0 .129-.01v.644a2.362 2.362 0 0 1-.538.065c-.527 0-.806-.204-.87-.828h-.022c-.355.57-.979.925-1.871.925Zm.236-.849c.947 0 1.646-.484 1.646-1.44v-.786c-.172.162-.646.28-1.205.398-.968.194-1.376.463-1.376 1.032 0 .517.28.796.935.796Zm7.8-4.118v-2.871h1.054v7.688h-1.054v-.645h-.021c-.301.387-.828.796-1.688.796-1.398 0-2.463-1.086-2.463-2.893 0-1.806 1.065-2.903 2.463-2.903.86 0 1.387.398 1.688.828h.021Zm-1.537 4.097c.946 0 1.527-.785 1.527-2.022 0-1.247-.581-2.022-1.527-2.022-1.033 0-1.538.947-1.538 2.022 0 1.075.505 2.022 1.538 2.022Z"/></mask><path fill="#fff" d="M26.648 21.627h-1.182V13.94h3.204c1.7 0 2.613.795 2.613 2.215 0 .978-.591 1.688-1.44 1.882v.021c1.784.334 1.128 3.366 1.548 3.495v.075h-1.27c-.343-.322.388-3.01-1.494-3.01h-1.979v3.01Zm0-4.032h1.764c1.086 0 1.678-.473 1.678-1.355 0-.828-.474-1.28-1.657-1.28h-1.785v2.635Zm8.039 4.194c-1.71 0-2.742-1.183-2.742-2.904 0-1.71 1.032-2.914 2.752-2.914 1.7 0 2.732 1.194 2.732 2.903 0 1.72-1.033 2.915-2.742 2.915Zm.01-.872c1.119 0 1.635-.892 1.635-2.032 0-1.15-.516-2.032-1.635-2.032-1.14 0-1.656.881-1.656 2.032 0 1.14.517 2.032 1.656 2.032Zm5.145.86c-1.097 0-1.796-.634-1.796-1.57 0-1.225.925-1.59 2.29-1.849.86-.161 1.388-.269 1.388-.806 0-.398-.237-.732-1.043-.732-.957 0-1.248.302-1.302 1.033h-1.075c.054-1.054.742-1.882 2.42-1.882 1.129 0 2.032.473 2.032 1.893v2.516c0 .398.054.602.258.602.032 0 .064 0 .129-.01v.644a2.362 2.362 0 0 1-.538.065c-.527 0-.806-.204-.87-.828h-.022c-.355.57-.979.925-1.871.925Zm.236-.849c.947 0 1.646-.484 1.646-1.44v-.786c-.172.162-.646.28-1.205.398-.968.194-1.376.463-1.376 1.032 0 .517.28.796.935.796Zm7.8-4.118v-2.871h1.054v7.688h-1.054v-.645h-.021c-.301.387-.828.796-1.688.796-1.398 0-2.463-1.086-2.463-2.893 0-1.806 1.065-2.903 2.463-2.903.86 0 1.387.398 1.688.828h.021Zm-1.537 4.097c.946 0 1.527-.785 1.527-2.022 0-1.247-.581-2.022-1.527-2.022-1.033 0-1.538.947-1.538 2.022 0 1.075.505 2.022 1.538 2.022Z"/><path fill="#fff" d="M26.648 21.627v.05h.05v-.05h-.05Zm-1.182 0h-.05v.05h.05v-.05Zm0-7.688v-.05h-.05v.05h.05Zm4.376 4.097-.01-.049-.04.009v.04h.05Zm0 .021h-.05v.041l.041.008.01-.049Zm1.549 3.495h.05v-.037l-.036-.01-.014.047Zm0 .075v.05h.05v-.05h-.05Zm-1.27 0-.033.037.014.013h.02v-.05Zm-3.473-3.01v-.05h-.05v.05h.05Zm0-1.022h-.05v.05h.05v-.05Zm0-2.635v-.05h-.05v.05h.05Zm0 6.667v-.05h-1.182v.1h1.182v-.05Zm-1.182 0h.05V13.94h-.1v7.688h.05Zm0-7.688v.05h3.204v-.1h-3.204v.05Zm3.204 0v.05c.843 0 1.483.197 1.911.563.428.365.652.903.652 1.602h.1c0-.721-.233-1.29-.687-1.678-.453-.387-1.12-.587-1.976-.587v.05Zm2.613 2.215h-.05c0 .956-.576 1.645-1.402 1.833l.011.049.011.048c.873-.199 1.48-.93 1.48-1.93h-.05Zm-1.44 1.882h-.05v.021h.099v-.021h-.05Zm0 .021-.01.049c.43.08.712.322.902.645.191.325.289.731.344 1.137.056.406.069.803.094 1.114.013.154.029.289.056.39.013.05.03.094.053.13a.174.174 0 0 0 .094.078l.015-.048.014-.048c-.011-.003-.025-.013-.04-.036a.377.377 0 0 1-.04-.102 2.274 2.274 0 0 1-.053-.372c-.025-.304-.038-.71-.094-1.12-.056-.41-.156-.832-.357-1.174a1.378 1.378 0 0 0-.97-.692l-.009.05Zm1.548 3.495h-.05v.075h.1v-.075h-.05Zm0 .075v-.05h-1.27v.1h1.27v-.05Zm-1.27 0 .035-.036a.179.179 0 0 1-.04-.068.662.662 0 0 1-.03-.126 3.183 3.183 0 0 1-.029-.378c-.009-.295-.008-.665-.057-1.025-.048-.36-.145-.716-.355-.983-.212-.27-.534-.444-1.018-.444v.099c.457 0 .749.162.94.406.193.247.288.582.335.935.047.353.047.716.056 1.015.005.149.012.283.029.391a.76.76 0 0 0 .035.145.276.276 0 0 0 .066.105l.034-.036Zm-1.494-3.01v-.05h-1.979v.099h1.98v-.05Zm-1.979 0h-.05v3.01h.1v-3.01h-.05Zm0-1.022v.05h1.764v-.1h-1.764v.05Zm1.764 0v.05c.55 0 .982-.12 1.277-.358.298-.24.45-.594.45-1.047h-.1c0 .429-.143.752-.412.97-.272.218-.678.335-1.215.335v.05Zm1.678-1.355h.05c0-.424-.122-.76-.404-.99-.279-.226-.706-.34-1.303-.34v.1c.587 0 .988.112 1.24.318.252.204.367.508.367.912h.05Zm-1.657-1.28v-.05h-1.785v.1h1.785v-.05Zm-1.785 0h-.05v2.635h.1V14.96h-.05Zm8.039 6.828v-.05c-.843 0-1.515-.29-1.976-.79-.462-.5-.717-1.212-.717-2.063h-.1c0 .87.262 1.609.744 2.13.482.523 1.182.823 2.049.823v-.05Zm-2.742-2.903h.05c0-.845.254-1.56.717-2.064.463-.504 1.137-.8 1.985-.8v-.1c-.872 0-1.574.306-2.058.832-.483.526-.744 1.267-.744 2.132h.05Zm2.752-2.914v.05c.838 0 1.506.293 1.966.794.46.501.716 1.214.716 2.06h.1c0-.865-.262-1.604-.742-2.127-.481-.524-1.178-.827-2.04-.827v.05Zm2.732 2.903h-.05c0 .85-.255 1.567-.717 2.069-.461.502-1.133.796-1.975.796v.1c.867 0 1.566-.304 2.048-.829.482-.524.743-1.266.743-2.136h-.05Zm-2.732 2.044v.05c.575 0 .998-.23 1.277-.61.277-.377.408-.896.408-1.473h-.1c0 .563-.128 1.06-.388 1.414-.26.352-.653.569-1.197.569v.05Zm1.635-2.033h.05c0-.582-.13-1.101-.408-1.477-.279-.378-.703-.605-1.277-.605v.1c.545 0 .938.213 1.197.564.26.353.388.85.388 1.418h.05Zm-1.635-2.032v-.05c-.584 0-1.013.227-1.295.605-.28.375-.41.895-.41 1.477h.1c0-.569.127-1.065.39-1.418.261-.35.66-.564 1.215-.564v-.05Zm-1.656 2.032h-.05c0 .577.131 1.096.411 1.473.282.38.71.61 1.295.61v-.1c-.555 0-.954-.217-1.215-.569-.263-.354-.39-.85-.39-1.414h-.05Zm7.295-.527-.009-.049.01.05Zm-.957-.505v.05h.047l.003-.046-.05-.004Zm-1.075 0-.05-.003-.002.053h.052v-.05Zm4.839 3.118h.05v-.058l-.058.01.008.048Zm0 .645.011.049.039-.01v-.039h-.05Zm-1.409-.763.05-.005-.005-.045h-.045v.05Zm-.021 0v-.05h-.028l-.014.024.042.026Zm.01-2.15h.05v-.116l-.084.079.035.036Zm-1.204.397.01.049-.01-.049Zm-.677 2.678v-.05c-.54 0-.976-.156-1.276-.422-.3-.265-.47-.644-.47-1.098h-.1c0 .48.18.887.504 1.173.322.285.784.447 1.342.447v-.05Zm-1.796-1.57h.05c0-.598.224-.98.611-1.247.393-.27.956-.425 1.639-.554l-.01-.049-.009-.049c-.683.13-1.265.287-1.676.57-.416.287-.655.7-.655 1.329h.05Zm2.29-1.85.01.05c.427-.081.782-.15 1.028-.267a.741.741 0 0 0 .294-.23.6.6 0 0 0 .105-.36h-.1a.5.5 0 0 1-.086.302.642.642 0 0 1-.256.198c-.232.111-.571.177-1.004.258l.01.05Zm1.388-.806h.05c0-.21-.063-.408-.238-.553-.172-.144-.447-.228-.855-.228v.1c.397 0 .644.082.792.204.145.121.2.288.2.477h.05Zm-1.043-.732v-.05c-.482 0-.809.076-1.022.254-.214.18-.302.455-.33.825l.05.004.05.003c.026-.36.11-.602.294-.755.185-.155.482-.23.958-.23v-.05Zm-1.302 1.033v-.05h-1.075v.1h1.075v-.05Zm-1.075 0 .05.002c.026-.516.208-.973.584-1.3.376-.33.954-.534 1.785-.534v-.1c-.846 0-1.45.21-1.85.558-.402.35-.591.834-.619 1.371l.05.003Zm2.42-1.882v.05c.558 0 1.053.117 1.408.403.352.284.574.741.574 1.44h.1c0-.721-.23-1.21-.612-1.518-.379-.305-.9-.425-1.47-.425v.05Zm2.032 1.893h-.05v2.516h.1v-2.516h-.05Zm0 2.516h-.05c0 .199.013.358.056.468a.298.298 0 0 0 .096.136.253.253 0 0 0 .156.048v-.1a.155.155 0 0 1-.097-.028.202.202 0 0 1-.062-.092c-.036-.091-.05-.233-.05-.432h-.05Zm.258.602v.05c.034 0 .069 0 .137-.012l-.008-.049-.008-.049c-.061.01-.09.01-.121.01v.05Zm.129-.01h-.05v.644h.1v-.645h-.05Zm0 .644-.011-.048c-.18.042-.359.063-.527.063v.1c.176 0 .363-.022.55-.066l-.012-.049Zm-.538.065v-.05c-.258 0-.445-.05-.575-.167-.131-.117-.215-.31-.246-.616l-.05.005-.05.005c.034.318.122.539.28.68.156.14.373.193.641.193v-.05Zm-.87-.828v-.05h-.022v.1h.021v-.05Zm-.022 0-.042-.026c-.345.553-.951.901-1.83.901v.1c.908 0 1.549-.362 1.914-.949l-.042-.026Zm-1.635.075v.05c.481 0 .905-.123 1.21-.373.305-.25.485-.626.485-1.118h-.1c0 .466-.169.811-.449 1.041-.281.232-.68.35-1.146.35v.05Zm1.646-1.44h.05v-.786h-.1v.785h.05Zm0-.786-.034-.036c-.077.072-.228.14-.438.204a8.943 8.943 0 0 1-.743.181l.01.05.01.048c.28-.06.54-.119.752-.184.21-.064.381-.137.477-.226l-.034-.037Zm-1.205.398-.01-.049c-.485.097-.838.215-1.07.384a.802.802 0 0 0-.346.698h.1c0-.27.095-.465.304-.618.214-.155.55-.27 1.032-.366l-.01-.049Zm-1.376 1.032h-.05c0 .267.073.482.239.63.164.145.413.216.746.216v-.1c-.322 0-.542-.068-.68-.191-.138-.122-.205-.305-.205-.555h-.05Zm8.735-3.322v.05h.05v-.05h-.05Zm0-2.871v-.05h-.05v.05h.05Zm1.054 0h.05v-.05h-.05v.05Zm0 7.688v.05h.05v-.05h-.05Zm-1.054 0h-.05v.05h.05v-.05Zm0-.645h.05v-.05h-.05v.05Zm-.021 0v-.05h-.024l-.015.02.039.03Zm0-4.172-.04.028.014.021h.026v-.05Zm.021 0h.05v-2.871h-.1v2.87h.05Zm0-2.871v.05h1.054v-.1h-1.054v.05Zm1.054 0h-.05v7.688h.1V13.94h-.05Zm0 7.688v-.05h-1.054v.1h1.054v-.05Zm-1.054 0h.05v-.645h-.1v.645h.05Zm0-.645v-.05h-.021v.1h.021v-.05Zm-.021 0-.04-.03c-.293.377-.806.776-1.648.776v.1c.878 0 1.419-.419 1.727-.816l-.04-.03Zm-1.688.796v-.05c-.686 0-1.288-.266-1.719-.752-.43-.487-.694-1.197-.694-2.09h-.1c0 .912.27 1.648.72 2.156.45.508 1.08.785 1.793.785v-.05Zm-2.463-2.893h.05c0-.894.263-1.607.694-2.096.431-.489 1.033-.758 1.719-.758v-.099c-.713 0-1.342.28-1.793.791-.45.51-.72 1.25-.72 2.162h.05Zm2.463-2.903v.05c.842 0 1.354.388 1.647.806l.04-.028.042-.029c-.31-.442-.851-.849-1.73-.849v.05Zm1.688.828v.05h.021v-.1h-.021v.05Zm-1.516 4.097v.05c.488 0 .885-.204 1.158-.567.272-.363.418-.88.418-1.505h-.1c0 .611-.143 1.105-.398 1.445-.254.338-.62.527-1.078.527v.05Zm1.527-2.022h.05c0-.63-.147-1.148-.42-1.508-.272-.363-.669-.563-1.157-.563v.1c.458 0 .825.186 1.078.522.255.339.399.832.399 1.45h.05Zm-1.527-2.022v-.05c-.534 0-.933.247-1.197.63-.263.381-.39.898-.39 1.442h.099c0-.53.125-1.025.373-1.386a1.297 1.297 0 0 1 1.115-.586v-.05Zm-1.538 2.022h-.05c0 .545.128 1.06.39 1.442.265.384.664.63 1.198.63v-.1c-.499 0-.869-.227-1.115-.586-.248-.36-.373-.855-.373-1.386h-.05Z" mask="url(#b)"/><mask id="c" width="43" height="9" x="24.702" y="25.959" fill="#000" maskUnits="userSpaceOnUse"><path fill="#fff" d="M24.702 25.959h43v9h-43z"/><path d="M28.046 33.959h-1.28l-1.913-7.69h1.236l1.355 6.055h.022l1.591-6.054h1.248l1.602 6.054h.021l1.355-6.054h1.237l-1.925 7.689h-1.269l-1.634-6.184h-.022l-1.624 6.184Zm9.203.16c-1.71 0-2.742-1.182-2.742-2.903 0-1.71 1.032-2.914 2.753-2.914 1.699 0 2.731 1.194 2.731 2.904 0 1.72-1.032 2.914-2.742 2.914Zm.01-.87c1.119 0 1.635-.893 1.635-2.033 0-1.15-.516-2.032-1.634-2.032-1.14 0-1.656.882-1.656 2.032 0 1.14.516 2.033 1.656 2.033Zm6.51-4.936c1.012 0 1.829.58 1.829 1.839v3.806h-1.054v-3.516c0-.731-.323-1.226-1.118-1.226-.904 0-1.484.549-1.484 1.377v3.366h-1.054v-5.485h1.054v.689h.021c.29-.42.86-.85 1.807-.85Zm6.86.828V26.27h1.055v7.689H50.63v-.646h-.022c-.3.387-.828.796-1.688.796-1.398 0-2.463-1.086-2.463-2.893 0-1.806 1.065-2.903 2.463-2.903.86 0 1.387.398 1.688.828h.022Zm-1.537 4.097c.946 0 1.527-.785 1.527-2.022 0-1.247-.58-2.021-1.527-2.021-1.032 0-1.538.946-1.538 2.021 0 1.076.506 2.022 1.538 2.022Zm8.81-2.14c0 .15 0 .312-.01.398h-4.216c.022.914.56 1.764 1.645 1.764.968 0 1.345-.624 1.441-.99h1.076c-.29 1.054-1.097 1.85-2.538 1.85-1.742 0-2.71-1.237-2.71-2.914 0-1.72 1.032-2.904 2.71-2.904 1.667 0 2.602 1.097 2.602 2.796Zm-4.226-.43h3.13c0-.86-.603-1.505-1.538-1.505-.882 0-1.527.602-1.592 1.505Zm7.665-2.323c.194 0 .344.011.505.033v1.01a1.98 1.98 0 0 0-.355-.032c-.957 0-1.645.72-1.645 1.764v2.838h-1.054v-5.484h1.054v1.043h.022c.29-.688.73-1.172 1.473-1.172Zm3.236 5.764c-1.667 0-2.495-.86-2.527-1.979h1.064c.043.635.43 1.13 1.452 1.13.925 0 1.172-.41 1.172-.807 0-.688-.731-.763-1.44-.914-.958-.226-2.055-.505-2.055-1.645 0-.946.764-1.58 2.086-1.58 1.506 0 2.226.805 2.302 1.752h-1.065c-.075-.42-.301-.903-1.215-.903-.71 0-1.01.28-1.01.688 0 .57.612.623 1.386.796 1.011.236 2.108.526 2.108 1.752 0 1.065-.817 1.71-2.258 1.71Z"/></mask><path fill="#fff" d="M28.046 33.959h-1.28l-1.913-7.69h1.236l1.355 6.055h.022l1.591-6.054h1.248l1.602 6.054h.021l1.355-6.054h1.237l-1.925 7.689h-1.269l-1.634-6.184h-.022l-1.624 6.184Zm9.203.16c-1.71 0-2.742-1.182-2.742-2.903 0-1.71 1.032-2.914 2.753-2.914 1.699 0 2.731 1.194 2.731 2.904 0 1.72-1.032 2.914-2.742 2.914Zm.01-.87c1.119 0 1.635-.893 1.635-2.033 0-1.15-.516-2.032-1.634-2.032-1.14 0-1.656.882-1.656 2.032 0 1.14.516 2.033 1.656 2.033Zm6.51-4.936c1.012 0 1.829.58 1.829 1.839v3.806h-1.054v-3.516c0-.731-.323-1.226-1.118-1.226-.904 0-1.484.549-1.484 1.377v3.366h-1.054v-5.485h1.054v.689h.021c.29-.42.86-.85 1.807-.85Zm6.86.828V26.27h1.055v7.689H50.63v-.646h-.022c-.3.387-.828.796-1.688.796-1.398 0-2.463-1.086-2.463-2.893 0-1.806 1.065-2.903 2.463-2.903.86 0 1.387.398 1.688.828h.022Zm-1.537 4.097c.946 0 1.527-.785 1.527-2.022 0-1.247-.58-2.021-1.527-2.021-1.032 0-1.538.946-1.538 2.021 0 1.076.506 2.022 1.538 2.022Zm8.81-2.14c0 .15 0 .312-.01.398h-4.216c.022.914.56 1.764 1.645 1.764.968 0 1.345-.624 1.441-.99h1.076c-.29 1.054-1.097 1.85-2.538 1.85-1.742 0-2.71-1.237-2.71-2.914 0-1.72 1.032-2.904 2.71-2.904 1.667 0 2.602 1.097 2.602 2.796Zm-4.226-.43h3.13c0-.86-.603-1.505-1.538-1.505-.882 0-1.527.602-1.592 1.505Zm7.665-2.323c.194 0 .344.011.505.033v1.01a1.98 1.98 0 0 0-.355-.032c-.957 0-1.645.72-1.645 1.764v2.838h-1.054v-5.484h1.054v1.043h.022c.29-.688.73-1.172 1.473-1.172Zm3.236 5.764c-1.667 0-2.495-.86-2.527-1.979h1.064c.043.635.43 1.13 1.452 1.13.925 0 1.172-.41 1.172-.807 0-.688-.731-.763-1.44-.914-.958-.226-2.055-.505-2.055-1.645 0-.946.764-1.58 2.086-1.58 1.506 0 2.226.805 2.302 1.752h-1.065c-.075-.42-.301-.903-1.215-.903-.71 0-1.01.28-1.01.688 0 .57.612.623 1.386.796 1.011.236 2.108.526 2.108 1.752 0 1.065-.817 1.71-2.258 1.71Z"/><path fill="#fff" d="M28.046 33.959v.05h.039l.01-.038-.049-.012Zm-1.28 0-.047.011.009.038h.039v-.05Zm-1.913-7.69v-.049h-.064l.015.062.049-.012Zm1.236 0 .049-.01-.009-.039h-.04v.05Zm1.355 6.055-.048.01.008.04h.04v-.05Zm.022 0v.05h.038l.01-.037-.048-.013Zm1.591-6.054v-.05h-.038l-.01.037.048.013Zm1.248 0 .048-.013-.01-.037h-.038v.05Zm1.602 6.054-.048.013.01.037h.038v-.05Zm.021 0v.05h.04l.009-.04-.049-.01Zm1.355-6.054v-.05h-.04l-.008.04.048.01Zm1.237 0 .048.012.016-.062h-.064v.05Zm-1.925 7.689v.05h.039l.01-.038-.049-.012Zm-1.269 0-.048.012.01.037h.038v-.05Zm-1.634-6.184.048-.012-.01-.037h-.038v.05Zm-.022 0v-.05h-.038l-.01.038.048.012Zm-1.624 6.184v-.05h-1.28v.1h1.28v-.05Zm-1.28 0 .049-.013-1.914-7.688-.048.012-.049.012 1.915 7.689.048-.012Zm-1.913-7.69v.05h1.236v-.099h-1.236v.05Zm1.236 0-.048.012 1.355 6.054.048-.011.049-.01-1.355-6.055-.049.01Zm1.355 6.055v.05h.022v-.1h-.022v.05Zm.022 0 .048.013 1.591-6.054-.048-.013-.048-.013-1.591 6.054.048.013Zm1.591-6.054v.05h1.248v-.1h-1.248v.05Zm1.248 0-.049.013 1.603 6.054.048-.013.048-.013-1.602-6.054-.048.013Zm1.602 6.054v.05h.021v-.1h-.021v.05Zm.021 0 .049.01 1.355-6.053-.049-.011-.048-.01-1.355 6.053.048.011Zm1.355-6.054v.05h1.237v-.1h-1.237v.05Zm1.237 0-.048-.012-1.925 7.688.048.013.048.012 1.925-7.689-.048-.012Zm-1.925 7.689v-.05h-1.269v.1h1.269v-.05Zm-1.269 0 .048-.013-1.634-6.183-.048.012-.049.013 1.635 6.183.048-.012Zm-1.634-6.184v-.05h-.022v.1h.022v-.05Zm-.022 0-.048-.012-1.624 6.183.048.013.049.012 1.623-6.183-.048-.013Zm7.579 6.345v-.05c-.843 0-1.515-.291-1.976-.79-.461-.5-.716-1.213-.716-2.064h-.1c0 .87.261 1.61.743 2.131.482.522 1.182.822 2.049.822v-.05Zm-2.742-2.904h.05c0-.845.255-1.56.718-2.064.462-.504 1.137-.8 1.985-.8v-.1c-.873 0-1.575.306-2.059.832-.483.526-.744 1.268-.744 2.132h.05Zm2.753-2.914v.05c.837 0 1.506.294 1.966.794.46.502.715 1.215.715 2.06h.1c0-.865-.261-1.604-.742-2.127-.48-.523-1.178-.826-2.04-.826v.05Zm2.731 2.904h-.05c0 .85-.255 1.566-.717 2.068-.46.502-1.132.796-1.975.796v.1c.867 0 1.566-.303 2.049-.828.482-.525.743-1.266.743-2.136h-.05Zm-2.731 2.043v.05c.574 0 .998-.23 1.276-.61.277-.376.408-.896.408-1.473h-.1c0 .564-.127 1.06-.388 1.415-.259.352-.652.568-1.196.568v.05Zm1.634-2.033h.05c0-.581-.13-1.101-.408-1.477-.279-.378-.702-.605-1.276-.605v.1c.544 0 .937.213 1.196.564.26.353.388.85.388 1.418h.05Zm-1.634-2.032v-.05c-.585 0-1.014.227-1.296.605-.28.376-.41.896-.41 1.477h.1c0-.568.127-1.065.39-1.418.262-.35.66-.564 1.216-.564v-.05Zm-1.656 2.032h-.05c0 .577.13 1.097.41 1.474.282.379.711.608 1.296.608V33.2c-.555 0-.954-.216-1.216-.569-.263-.354-.39-.85-.39-1.414h-.05Zm9.994 2.742v.05h.05v-.05h-.05Zm-1.054 0h-.05v.05h.05v-.05Zm-2.602 0v.05h.05v-.05h-.05Zm-1.054 0h-.05v.05h.05v-.05Zm0-5.484v-.05h-.05v.05h.05Zm1.054 0h.05v-.05h-.05v.05Zm0 .689h-.05v.05h.05v-.05Zm.021 0v.05h.026l.015-.022-.04-.028Zm1.807-.85v.05c.496 0 .94.142 1.26.434.318.292.518.737.518 1.355h.1c0-.64-.209-1.115-.552-1.428-.342-.313-.812-.46-1.326-.46v.05Zm1.828 1.839h-.05v3.806h.1v-3.806h-.05Zm0 3.806v-.05h-1.054v.1h1.054v-.05Zm-1.054 0h.05v-3.516h-.1v3.517h.05Zm0-3.516h.05c0-.372-.082-.692-.273-.919-.191-.229-.487-.356-.895-.356v.1c.387 0 .65.119.819.32.17.203.25.496.25.855h.049Zm-1.118-1.226v-.05c-.462 0-.846.14-1.115.392-.27.25-.42.609-.42 1.035h.1c0-.402.141-.733.388-.963.247-.23.605-.364 1.047-.364v-.05Zm-1.484 1.377h-.05v3.366h.1v-3.366h-.05Zm0 3.366v-.05h-1.054v.1h1.054v-.05Zm-1.054 0h.05v-5.485h-.1v5.485h.05Zm0-5.485v.05h1.054v-.1h-1.054v.05Zm1.054 0h-.05v.689h.1v-.689h-.05Zm0 .689v.05h.021v-.1h-.021v.05Zm.021 0 .041.028c.282-.407.837-.828 1.766-.828v-.1c-.964 0-1.549.44-1.848.871l.041.029Zm8.667-.022v.05h.05v-.05h-.05Zm0-2.871v-.05h-.05v.05h.05Zm1.053 0h.05v-.05h-.05v.05Zm0 7.689v.05h.05v-.05h-.05Zm-1.053 0h-.05v.05h.05v-.05Zm0-.646h.05v-.05h-.05v.05Zm-.022 0v-.05h-.024l-.015.02.04.03Zm0-4.172-.04.029.014.02h.026v-.049Zm.022 0h.05V26.27h-.1v2.871h.05Zm0-2.871v.05h1.053v-.1H50.63v.05Zm1.053 0h-.05v7.689h.1v-7.69h-.05Zm0 7.689v-.05H50.63v.1h1.053v-.05Zm-1.053 0h.05v-.646h-.1v.645h.05Zm0-.646v-.05h-.022v.1h.022v-.05Zm-.022 0-.04-.03c-.293.377-.806.776-1.648.776v.1c.879 0 1.419-.419 1.727-.815l-.039-.03Zm-1.688.796v-.05c-.686 0-1.287-.266-1.718-.752-.432-.486-.695-1.197-.695-2.09h-.1c0 .912.27 1.648.72 2.156.451.509 1.08.786 1.793.786v-.05Zm-2.463-2.893h.05c0-.893.263-1.607.695-2.096.43-.489 1.033-.757 1.718-.757v-.1c-.713 0-1.342.28-1.793.791-.45.511-.72 1.25-.72 2.162h.05Zm2.463-2.903v.05c.842 0 1.355.388 1.647.807l.041-.029.04-.028c-.308-.442-.85-.85-1.728-.85v.05Zm1.688.828v.05h.022v-.1h-.022v.05Zm-1.516 4.097v.05c.489 0 .885-.204 1.158-.567.272-.362.419-.88.419-1.505h-.1c0 .612-.143 1.105-.399 1.445-.253.338-.62.527-1.078.527v.05Zm1.527-2.022h.05c0-.63-.147-1.147-.419-1.508-.273-.362-.67-.563-1.158-.563v.1c.458 0 .825.186 1.079.523.255.338.398.832.398 1.448h.05Zm-1.527-2.021v-.05c-.534 0-.933.246-1.197.63-.263.38-.39.897-.39 1.441h.099c0-.53.125-1.025.373-1.385a1.297 1.297 0 0 1 1.115-.586v-.05Zm-1.538 2.021h-.05c0 .545.128 1.061.391 1.443.264.383.663.629 1.197.629v-.1c-.498 0-.868-.227-1.115-.586-.248-.36-.373-.855-.373-1.386h-.05Zm10.337.28v.05h.044l.006-.044-.05-.006Zm-4.215 0v-.05h-.05v.051l.05-.001Zm3.086.774v-.05h-.038l-.01.038.048.012Zm1.076 0 .048.013.017-.063h-.065v.05Zm-4.162-1.602-.05-.003-.003.053h.053v-.05Zm3.13 0v.05h.05v-.05h-.05Zm1.096.43h-.05c0 .152 0 .31-.01.392l.05.006.049.006c.011-.09.011-.255.011-.404h-.05Zm-.01.398v-.05h-4.216v.1h4.215v-.05Zm-4.216 0-.05.001c.011.466.154.918.435 1.255.283.339.703.557 1.26.557v-.1c-.528 0-.92-.205-1.183-.52-.264-.317-.401-.746-.412-1.194l-.05.001Zm1.645 1.764v.05c.496 0 .844-.16 1.08-.37.236-.21.359-.466.41-.657l-.049-.013-.048-.013c-.046.175-.16.414-.378.608-.218.193-.542.345-1.015.345v.05Zm1.441-.99v.05h1.076v-.1h-1.076v.05Zm1.076 0-.048-.013c-.143.519-.412.971-.82 1.294-.409.323-.96.519-1.67.519v.1c.73 0 1.303-.202 1.731-.54.428-.34.707-.811.855-1.347l-.048-.013ZM55.3 34.12v-.05c-.858 0-1.522-.304-1.971-.811-.45-.508-.69-1.224-.69-2.053h-.099c0 .848.245 1.589.715 2.119.47.53 1.161.844 2.045.844v-.05Zm-2.71-2.914h.05c0-.85.255-1.564.713-2.064.457-.499 1.12-.79 1.947-.79v-.1c-.851 0-1.542.301-2.02.823-.479.522-.74 1.26-.74 2.13h.05Zm2.71-2.904v.05c.822 0 1.458.27 1.89.745.431.475.663 1.16.663 2.001h.099c0-.858-.236-1.57-.69-2.068-.452-.5-1.117-.777-1.962-.777v.05Zm-1.624 2.366v.05h3.13v-.1h-3.13v.05Zm3.13 0h.05c0-.442-.156-.831-.433-1.11-.278-.28-.676-.445-1.155-.445v.1c.456 0 .827.156 1.084.415.257.258.404.622.404 1.04h.05Zm-1.538-1.505v-.05c-.909 0-1.575.623-1.641 1.552l.05.003.049.004c.063-.878.687-1.46 1.542-1.46v-.05Zm6.578-.785h.05v-.044l-.043-.006-.007.05Zm0 1.01-.008.05.058.01v-.06h-.05Zm-2 4.57v.05h.05v-.05h-.05Zm-1.054 0h-.05v.05h.05v-.05Zm0-5.484v-.05h-.05v.05h.05Zm1.054 0h.05v-.05h-.05v.05Zm0 1.043h-.05v.05h.05v-.05Zm.022 0v.05h.033l.012-.03-.045-.02Zm1.473-1.172v.05c.191 0 .34.01.499.032l.006-.05.007-.049a3.683 3.683 0 0 0-.512-.032v.05Zm.505.033h-.05v1.01h.1v-1.01h-.05Zm0 1.01.009-.049a2.03 2.03 0 0 0-.364-.033v.1c.126 0 .22.01.347.032l.008-.05Zm-.355-.032v-.05c-.491 0-.916.186-1.217.507-.302.32-.478.774-.478 1.307h.1c0-.51.168-.939.45-1.24.282-.3.68-.474 1.145-.474v-.05Zm-1.645 1.764h-.05v2.838h.1V31.12h-.05Zm0 2.838v-.05h-1.054v.1h1.054v-.05Zm-1.054 0h.05v-5.484h-.1v5.485h.05Zm0-5.484v.05h1.054v-.1h-1.054v.05Zm1.054 0h-.05v1.043h.1v-1.043h-.05Zm0 1.043v.05h.022v-.1h-.022v.05Zm.022 0 .045.02c.144-.34.323-.626.555-.826.23-.2.514-.316.873-.316v-.1c-.383 0-.69.126-.939.34-.247.214-.433.515-.58.863l.046.02Zm2.182 2.613v-.05h-.051l.001.052.05-.002Zm1.064 0 .05-.003-.003-.046h-.047v.05Zm1.183-.591-.011.048.011-.048Zm2.334-1.473v.05h.053l-.004-.054-.05.004Zm-1.065 0-.049.009.007.04h.042v-.05Zm-.839.58.012-.048h-.001l-.01.049Zm-.15 3.463v-.05c-.825 0-1.437-.213-1.845-.558-.407-.345-.617-.825-.633-1.372l-.05.001-.049.002c.016.572.237 1.08.668 1.445.43.365 1.067.582 1.909.582v-.05ZM62.05 32.13v.05h1.064v-.1H62.05v.05Zm1.064 0-.05.004c.023.326.134.622.376.836.242.214.608.34 1.126.34v-.1c-.503 0-.842-.122-1.06-.314-.217-.192-.321-.46-.342-.769l-.05.003Zm1.452 1.13v.05c.469 0 .775-.104.965-.267a.749.749 0 0 0 .257-.59h-.1a.65.65 0 0 1-.222.515c-.164.14-.444.242-.9.242v.05Zm1.172-.807h.05a.713.713 0 0 0-.135-.442.877.877 0 0 0-.349-.262c-.278-.127-.647-.184-.997-.259l-.01.049-.01.049c.36.076.711.131.976.252.131.06.237.134.31.23.072.097.115.22.115.383h.05Zm-1.44-.914.01-.048c-.48-.114-.985-.239-1.37-.474-.383-.234-.645-.574-.645-1.123h-.1c0 .59.287.96.692 1.208.402.245.924.373 1.4.485l.012-.048Zm-2.055-1.645h.05c0-.459.184-.84.528-1.106.345-.268.854-.425 1.508-.425v-.1c-.668 0-1.202.16-1.57.446a1.448 1.448 0 0 0-.566 1.185h.05Zm2.086-1.58v.049c.744 0 1.288.199 1.655.51.367.31.56.735.597 1.197l.05-.004.05-.004a1.813 1.813 0 0 0-.633-1.265c-.388-.33-.957-.534-1.719-.534v.05Zm2.302 1.752v-.05h-1.065v.1h1.065v-.05Zm-1.065 0 .049-.009c-.038-.214-.116-.452-.307-.636-.192-.185-.491-.308-.957-.308v.1c.448 0 .72.118.888.28.169.163.241.377.278.582l.049-.01Zm-1.215-.903v-.05c-.36 0-.625.07-.801.2a.636.636 0 0 0-.26.538h.1c0-.19.07-.347.219-.457.152-.113.392-.182.742-.182v-.05Zm-1.01.688h-.05c0 .152.04.273.118.371a.777.777 0 0 0 .315.222c.256.108.61.166.992.251l.011-.049.011-.048c-.392-.087-.73-.142-.975-.246a.68.68 0 0 1-.276-.192.478.478 0 0 1-.097-.31h-.05Zm1.386.796-.011.048c.507.119 1.025.249 1.417.499.196.124.358.278.472.473.113.194.18.434.18.732h.1c0-.314-.07-.57-.194-.783a1.503 1.503 0 0 0-.504-.506c-.409-.26-.944-.394-1.448-.512l-.012.049Zm2.108 1.752h-.05c0 .518-.198.93-.57 1.215-.372.285-.924.445-1.638.445v.1c.727 0 1.303-.163 1.7-.466.397-.305.608-.747.608-1.294h-.05Z" mask="url(#c)"/><g clip-path="url(#d)"><path fill="#fff" d="m20.488 16.056-1.468-.003v-3.55s.01-2.15-.076-3.222c0-.214-.054-.421-.093-.628a2.275 2.275 0 0 0-.07-.313c0-.1-.068-.192-.1-.291a7.842 7.842 0 0 0-.645-1.653 9.598 9.598 0 0 0-.893-1.378 6.363 6.363 0 0 0-1.216-1.186c-.223-.16-.438-.352-.661-.528a.87.87 0 0 0-.17-.138 8.63 8.63 0 0 0-1.8-.857l-1-.29a6.883 6.883 0 0 0-1.87-.154 6.62 6.62 0 0 0-1.538.13 8.975 8.975 0 0 0-1.885.59 7.425 7.425 0 0 0-1.747 1.048 10.75 10.75 0 0 0-1.2 1.087c-.37.453-.705.934-1 1.438a9.217 9.217 0 0 0-.816 1.975 6.182 6.182 0 0 0-.254.964c-.042.335-.063.606-.077.903-.019.422-.057 1.36-.046 1.967v5.506s.287.002.47-.011c.314-.024.53-.062.769-.123a8.563 8.563 0 0 0 1.123-.337c.48-.198.945-.428 1.393-.688.23-.138.438-.299.654-.452a7.532 7.532 0 0 0 2.023-2.158 8.396 8.396 0 0 0 1.07-2.357c.106-.375.178-.76.215-1.148a4.96 4.96 0 0 1 .114-.715c.031-.107 0-.38 0-.38s-.082-.209-.16-.29a3.35 3.35 0 0 0-1.008-.827l-.354-.16c.063-.05.13-.093.2-.13.491-.27.919-.64 1.254-1.087.368-.513.517-1.033.654-1.684l.238-1.197c.34 1.35.127.534.34 1.35.162.603.248 1.082.576 1.531.212.296.472.555.77.765.184.123.369.222.554.337l.2.122-.308.169c-.524.28-.977.504-1.307.997-.058.086-.108.465-.108.465s-.013.206.015.306c.067.59.172 1.175.315 1.752.289.887.7 1.73 1.224 2.502a8.444 8.444 0 0 0 2.308 2.197c.472.34.99.613 1.538.811.626.204 1.924.429 1.924.429s.194.026.778.086c.537.018.538.013.814.013h.3V26.392a9.856 9.856 0 0 1-2.346 6.33 9.657 9.657 0 0 1-2.131 1.897c-.668.446-1.393.8-2.155 1.056-.361.115-.723.23-1.084.33-.214.06-.433.1-.654.122-.439.06-.885.1-1.324.153a2.79 2.79 0 0 1-.715 0c-.385-.046-.77-.07-1.17-.13a6.758 6.758 0 0 1-.87-.192 13.701 13.701 0 0 1-1.538-.52 9.59 9.59 0 0 1-1.846-1.056A10.335 10.335 0 0 1 2.31 32.04a9.163 9.163 0 0 1-1.293-2.533 13.337 13.337 0 0 1-.385-1.53 14.807 14.807 0 0 1-.154-2.388v-4.814a1.887 1.887 0 0 1 0-.206h1.408v4.568c0 .865.07 1.722.154 2.58.054.363.147.72.277 1.063.132.395.288.78.47 1.156a7.658 7.658 0 0 0 2.308 2.961l.277.222a8.082 8.082 0 0 0 3.031 1.439 8.755 8.755 0 0 0 3.077.191 8.15 8.15 0 0 0 1.409-.321 8.961 8.961 0 0 0 1.892-.765c.1-.05.196-.109.285-.176.47-.383.954-.766 1.4-1.164a6.74 6.74 0 0 0 1.293-1.683c.246-.397.452-.818.615-1.255l.416-1.217a1.277 1.277 0 0 0 0-.168c.069-.911.177-1.807.169-2.717V19.604c0-.145.003-.287-.012-.448-.117-.01-.177-.006-.293.002-.121.008-.31.04-.31.04s-1.63.327-2.37.705a8.194 8.194 0 0 0-2.362 1.683 8.295 8.295 0 0 0-1.578 2.235 13.448 13.448 0 0 0-.592 1.768.685.685 0 0 0-.046.168c-.062.52-.139 1.041-.185 1.53a.809.809 0 0 0 .254.628c.327.318.867.642 1.032.726l.268.139a2.94 2.94 0 0 1-.261.168 3.606 3.606 0 0 0-1.439 1.44c-.207.376-.294.786-.407 1.214-.278.963-.102.389-.264.965-.062-.178 0 0-.292-.998-.128-.512-.278-1.056-.588-1.51a3.41 3.41 0 0 0-1.211-1.088l-.323-.191c.077-.038.2-.128.308-.184.166-.069.956-.63 1.323-1.163a.763.763 0 0 0 .1-.604c-.046-.268-.085-.536-.13-.766-.047-.23-.085-.505-.155-.765-.069-.26-.169-.536-.269-.765a8.518 8.518 0 0 0-3.293-4.125 6.654 6.654 0 0 0-1.877-.941c-.27-.085-.546-.146-.816-.222-.077 0-.146-.039-.223-.046L.91 19.06a3.691 3.691 0 0 0-.415 0v-8.234c0-.574 0-1.148.084-1.722a9.47 9.47 0 0 1 .593-2.388A9.941 9.941 0 0 1 3.21 3.503a9.018 9.018 0 0 1 2.354-1.844c.346-.206.703-.392 1.07-.559.469-.153.938-.268 1.4-.429A4.7 4.7 0 0 1 9.257.472l.77-.068c.148-.037.3-.06.453-.07.672.033 1.34.112 2 .238.914.198 1.796.517 2.624.949.742.41 1.437.9 2.07 1.462.479.44.912.927 1.293 1.454a9.084 9.084 0 0 1 1.492 2.785c.343 1.038.52 2.122.523 3.214v5.388l.006.232Zm-4.622 2.232c-.323-.16-.6-.298-.87-.451a10.96 10.96 0 0 1-1.084-.666 9.87 9.87 0 0 1-1.539-1.37 8.966 8.966 0 0 1-1.239-1.645c-.154-.284-.292-.574-.446-.865-.07-.123-.108-.276-.277-.322l-.054.046-.146.276a9.505 9.505 0 0 1-1.87 2.701 8.699 8.699 0 0 1-1.87 1.53c-.384.23-.769.43-1.176.636l-.2.138c.05.053.103.101.161.145l.67.36c.424.22.828.475 1.208.765.482.367.933.774 1.346 1.217.5.516.934 1.092 1.293 1.714.2.36.384.765.584 1.095a.621.621 0 0 0 .108.145c.092-.16.17-.29.239-.421.2-.367.377-.765.6-1.094a10.173 10.173 0 0 1 2.254-2.51 6.98 6.98 0 0 1 1.277-.85l.73-.383c.109-.046.186-.107.301-.19Z"/></g><defs><clipPath id="d"><path fill="#fff" d="M.479.335h20.009v35.968H.478z"/></clipPath></defs></svg>