<svg width="67" height="37" viewBox="0 0 67 37" fill="none" xmlns="http://www.w3.org/2000/svg">
    <mask id="path-1-outside-1_1_2773" maskUnits="userSpaceOnUse" x="24.7021" y="1.73633" width="17"
        height="9" fill="black">
        <rect fill="white" x="24.7021" y="1.73633" width="17" height="9" />
        <path
            d="M28.3582 9.88687C26.4119 9.88687 25.0463 8.87607 24.9602 7.1448H26.1861C26.2721 8.17711 26.8851 8.87607 28.326 8.87607C29.5626 8.87607 29.939 8.33841 29.939 7.63945C29.939 6.66091 29.1862 6.52111 27.7883 6.16626C26.584 5.84366 25.2613 5.45655 25.2613 3.99411C25.2613 2.66071 26.2936 1.89723 27.9496 1.89723C29.7024 1.89723 30.8422 2.78975 30.9605 4.33821H29.7347C29.6056 3.41343 29.0787 2.90803 27.9604 2.90803C26.9926 2.90803 26.4979 3.26289 26.4979 3.92959C26.4979 4.78985 27.3044 4.97265 28.2937 5.21997C29.7777 5.59634 31.1756 5.95119 31.1756 7.57493C31.1756 8.89758 30.2831 9.88687 28.3582 9.88687ZM33.1959 3.27364H32.0023V2.1338H33.1959V3.27364ZM33.1207 9.73633H32.0668V4.25218H33.1207V9.73633ZM35.3574 9.73633H34.3036V2.04777H35.3574V9.73633ZM41.4331 9.73633H40.1857L38.3899 6.92974L37.5942 7.69322V9.73633H36.5404V2.04777H37.5942V6.57488L39.9921 4.25218H41.2073L39.0996 6.26304L41.4331 9.73633Z" />
    </mask>
    <path
        d="M28.3582 9.88687C26.4119 9.88687 25.0463 8.87607 24.9602 7.1448H26.1861C26.2721 8.17711 26.8851 8.87607 28.326 8.87607C29.5626 8.87607 29.939 8.33841 29.939 7.63945C29.939 6.66091 29.1862 6.52111 27.7883 6.16626C26.584 5.84366 25.2613 5.45655 25.2613 3.99411C25.2613 2.66071 26.2936 1.89723 27.9496 1.89723C29.7024 1.89723 30.8422 2.78975 30.9605 4.33821H29.7347C29.6056 3.41343 29.0787 2.90803 27.9604 2.90803C26.9926 2.90803 26.4979 3.26289 26.4979 3.92959C26.4979 4.78985 27.3044 4.97265 28.2937 5.21997C29.7777 5.59634 31.1756 5.95119 31.1756 7.57493C31.1756 8.89758 30.2831 9.88687 28.3582 9.88687ZM33.1959 3.27364H32.0023V2.1338H33.1959V3.27364ZM33.1207 9.73633H32.0668V4.25218H33.1207V9.73633ZM35.3574 9.73633H34.3036V2.04777H35.3574V9.73633ZM41.4331 9.73633H40.1857L38.3899 6.92974L37.5942 7.69322V9.73633H36.5404V2.04777H37.5942V6.57488L39.9921 4.25218H41.2073L39.0996 6.26304L41.4331 9.73633Z"
        fill="white" />
    <path
        d="M24.9602 7.1448V7.09505H24.9079L24.9105 7.14727L24.9602 7.1448ZM26.1861 7.1448L26.2357 7.14067L26.2319 7.09505H26.1861V7.1448ZM27.7883 6.16626L27.7754 6.21432L27.7761 6.21448L27.7883 6.16626ZM30.9605 4.33821V4.38796H31.0142L31.0101 4.33442L30.9605 4.33821ZM29.7347 4.33821L29.6854 4.34509L29.6914 4.38796H29.7347V4.33821ZM28.2937 5.21997L28.306 5.17175L28.3058 5.17171L28.2937 5.21997ZM28.3582 9.88687V9.83712C27.3933 9.83712 26.577 9.58654 25.9924 9.12598C25.4088 8.6662 25.0523 7.99431 25.0099 7.14233L24.9602 7.1448L24.9105 7.14727C24.9542 8.02656 25.3235 8.72571 25.9308 9.20414C26.5372 9.68181 27.3769 9.93663 28.3582 9.93663V9.88687ZM24.9602 7.1448V7.19455H26.1861V7.1448V7.09505H24.9602V7.1448ZM26.1861 7.1448L26.1365 7.14893C26.1803 7.67383 26.3586 8.12022 26.715 8.43485C27.0711 8.7492 27.5979 8.92582 28.326 8.92582V8.87607V8.82632C27.6131 8.82632 27.113 8.65346 26.7809 8.36025C26.4491 8.06733 26.278 7.64809 26.2357 7.14067L26.1861 7.1448ZM28.326 8.87607V8.92582C28.9503 8.92582 29.3678 8.79026 29.6293 8.557C29.892 8.32268 29.9887 7.99769 29.9887 7.63945H29.939H29.8892C29.8892 7.98017 29.7977 8.27349 29.5631 8.48274C29.3273 8.69305 28.9383 8.82632 28.326 8.82632V8.87607ZM29.939 7.63945H29.9887C29.9887 7.38838 29.9404 7.18682 29.8423 7.02102C29.7443 6.85517 29.5989 6.72931 29.412 6.62548C29.0419 6.41984 28.4955 6.29445 27.8006 6.11804L27.7883 6.16626L27.7761 6.21448C28.479 6.39292 29.008 6.51486 29.3637 6.71246C29.5397 6.81026 29.6699 6.925 29.7567 7.07167C29.8435 7.21838 29.8892 7.40125 29.8892 7.63945H29.939ZM27.7883 6.16626L27.8012 6.1182C27.1976 5.95652 26.574 5.78082 26.1007 5.46619C25.6313 5.15412 25.3111 4.70632 25.3111 3.99411H25.2613H25.2116C25.2116 4.74434 25.5526 5.22131 26.0456 5.54905C26.5348 5.87424 27.1747 6.0534 27.7755 6.21432L27.7883 6.16626ZM25.2613 3.99411H25.3111C25.3111 3.34169 25.5629 2.83252 26.0148 2.48509C26.4684 2.13636 27.1285 1.94698 27.9496 1.94698V1.89723V1.84748C27.1148 1.84748 26.4307 2.03983 25.9541 2.4062C25.4759 2.77385 25.2116 3.31312 25.2116 3.99411H25.2613ZM27.9496 1.89723V1.94698C28.8179 1.94698 29.5291 2.16804 30.0369 2.57584C30.5438 2.98298 30.8527 3.57993 30.9109 4.342L30.9605 4.33821L31.0101 4.33442C30.9501 3.54803 30.6299 2.92449 30.0992 2.49825C29.5692 2.07268 28.8341 1.84748 27.9496 1.84748V1.89723ZM30.9605 4.33821V4.28846H29.7347V4.33821V4.38796H30.9605V4.33821ZM29.7347 4.33821L29.7839 4.33133C29.7183 3.86118 29.5505 3.49057 29.2505 3.23826C28.9509 2.9862 28.5265 2.85828 27.9604 2.85828V2.90803V2.95778C28.5125 2.95778 28.9108 3.08256 29.1865 3.3144C29.4618 3.54598 29.6219 3.89047 29.6854 4.34509L29.7347 4.33821ZM27.9604 2.90803V2.85828C27.4718 2.85828 27.0942 2.94762 26.8376 3.1281C26.5781 3.31064 26.4482 3.5822 26.4482 3.92959H26.4979H26.5477C26.5477 3.61028 26.6651 3.37105 26.8949 3.20949C27.1275 3.04587 27.4812 2.95778 27.9604 2.95778V2.90803ZM26.4979 3.92959H26.4482C26.4482 4.15285 26.5007 4.33518 26.5975 4.48621C26.6942 4.63685 26.8329 4.75311 27.0003 4.84793C27.3329 5.03621 27.7899 5.14529 28.2817 5.26824L28.2937 5.21997L28.3058 5.17171C27.8083 5.04734 27.3673 4.94136 27.0494 4.76134C26.8915 4.672 26.7668 4.56581 26.6813 4.43249C26.596 4.29957 26.5477 4.13645 26.5477 3.92959H26.4979ZM28.2937 5.21997L28.2815 5.2682C29.0258 5.45697 29.7376 5.63811 30.2645 5.97172C30.5268 6.13781 30.7415 6.34072 30.8909 6.59973C31.0401 6.8586 31.1258 7.17641 31.1258 7.57493H31.1756H31.2253C31.2253 7.16158 31.1363 6.82613 30.9771 6.55003C30.8179 6.27407 30.5904 6.06029 30.3178 5.88765C29.7747 5.54381 29.0456 5.35934 28.306 5.17175L28.2937 5.21997ZM31.1756 7.57493H31.1258C31.1258 8.22465 30.907 8.78811 30.4557 9.18973C30.0037 9.59192 29.3126 9.83712 28.3582 9.83712V9.88687V9.93663C29.3288 9.93663 30.0463 9.68718 30.5218 9.26406C30.9979 8.84037 31.2253 8.24786 31.2253 7.57493H31.1756ZM33.1959 3.27364V3.32339H33.2457V3.27364H33.1959ZM32.0023 3.27364H31.9526V3.32339H32.0023V3.27364ZM32.0023 2.1338V2.08405H31.9526V2.1338H32.0023ZM33.1959 2.1338H33.2457V2.08405H33.1959V2.1338ZM33.1207 9.73633V9.78608H33.1704V9.73633H33.1207ZM32.0668 9.73633H32.0171V9.78608H32.0668V9.73633ZM32.0668 4.25218V4.20243H32.0171V4.25218H32.0668ZM33.1207 4.25218H33.1704V4.20243H33.1207V4.25218ZM33.1959 3.27364V3.22389H32.0023V3.27364V3.32339H33.1959V3.27364ZM32.0023 3.27364H32.0521V2.1338H32.0023H31.9526V3.27364H32.0023ZM32.0023 2.1338V2.18355H33.1959V2.1338V2.08405H32.0023V2.1338ZM33.1959 2.1338H33.1462V3.27364H33.1959H33.2457V2.1338H33.1959ZM33.1207 9.73633V9.68658H32.0668V9.73633V9.78608H33.1207V9.73633ZM32.0668 9.73633H32.1166V4.25218H32.0668H32.0171V9.73633H32.0668ZM32.0668 4.25218V4.30194H33.1207V4.25218V4.20243H32.0668V4.25218ZM33.1207 4.25218H33.0709V9.73633H33.1207H33.1704V4.25218H33.1207ZM35.3574 9.73633V9.78608H35.4072V9.73633H35.3574ZM34.3036 9.73633H34.2538V9.78608H34.3036V9.73633ZM34.3036 2.04777V1.99802H34.2538V2.04777H34.3036ZM35.3574 2.04777H35.4072V1.99802H35.3574V2.04777ZM35.3574 9.73633V9.68658H34.3036V9.73633V9.78608H35.3574V9.73633ZM34.3036 9.73633H34.3534V2.04777H34.3036H34.2538V9.73633H34.3036ZM34.3036 2.04777V2.09753H35.3574V2.04777V1.99802H34.3036V2.04777ZM35.3574 2.04777H35.3077V9.73633H35.3574H35.4072V2.04777H35.3574ZM41.4331 9.73633V9.78608H41.5264L41.4744 9.70858L41.4331 9.73633ZM40.1857 9.73633L40.1438 9.76314L40.1585 9.78608H40.1857V9.73633ZM38.3899 6.92974L38.4318 6.90292L38.3992 6.8519L38.3555 6.89384L38.3899 6.92974ZM37.5942 7.69322L37.5597 7.65732L37.5444 7.672V7.69322H37.5942ZM37.5942 9.73633V9.78608H37.6439V9.73633H37.5942ZM36.5404 9.73633H36.4906V9.78608H36.5404V9.73633ZM36.5404 2.04777V1.99802H36.4906V2.04777H36.5404ZM37.5942 2.04777H37.6439V1.99802H37.5942V2.04777ZM37.5942 6.57488H37.5444V6.69234L37.6288 6.61062L37.5942 6.57488ZM39.9921 4.25218V4.20243H39.972L39.9575 4.21645L39.9921 4.25218ZM41.2073 4.25218L41.2416 4.28818L41.3315 4.20243H41.2073V4.25218ZM39.0996 6.26304L39.0653 6.22704L39.0349 6.25598L39.0583 6.29078L39.0996 6.26304ZM41.4331 9.73633V9.68658H40.1857V9.73633V9.78608H41.4331V9.73633ZM40.1857 9.73633L40.2276 9.70951L38.4318 6.90292L38.3899 6.92974L38.348 6.95655L40.1438 9.76314L40.1857 9.73633ZM38.3899 6.92974L38.3555 6.89384L37.5597 7.65732L37.5942 7.69322L37.6286 7.72912L38.4244 6.96564L38.3899 6.92974ZM37.5942 7.69322H37.5444V9.73633H37.5942H37.6439V7.69322H37.5942ZM37.5942 9.73633V9.68658H36.5404V9.73633V9.78608H37.5942V9.73633ZM36.5404 9.73633H36.5901V2.04777H36.5404H36.4906V9.73633H36.5404ZM36.5404 2.04777V2.09753H37.5942V2.04777V1.99802H36.5404V2.04777ZM37.5942 2.04777H37.5444V6.57488H37.5942H37.6439V2.04777H37.5942ZM37.5942 6.57488L37.6288 6.61062L40.0268 4.28792L39.9921 4.25218L39.9575 4.21645L37.5596 6.53914L37.5942 6.57488ZM39.9921 4.25218V4.30194H41.2073V4.25218V4.20243H39.9921V4.25218ZM41.2073 4.25218L41.1729 4.21619L39.0653 6.22704L39.0996 6.26304L39.134 6.29903L41.2416 4.28818L41.2073 4.25218ZM39.0996 6.26304L39.0583 6.29078L41.3918 9.76407L41.4331 9.73633L41.4744 9.70858L39.1409 6.23529L39.0996 6.26304Z"
        fill="white" mask="url(#path-1-outside-1_1_2773)" />
    <mask id="path-3-outside-2_1_2773" maskUnits="userSpaceOnUse" x="24.7021" y="13.6272" width="25"
        height="9" fill="black">
        <rect fill="white" x="24.7021" y="13.6272" width="25" height="9" />
        <path
            d="M26.6485 21.6272H25.4656V13.9386H28.6701C30.3691 13.9386 31.2831 14.7344 31.2831 16.1538C31.2831 17.1324 30.6917 17.8421 29.8422 18.0356V18.0571C31.6272 18.3905 30.9713 21.4229 31.3907 21.5519V21.6272H30.1218C29.7777 21.3046 30.5089 18.6163 28.6271 18.6163H26.6485V21.6272ZM26.6485 17.5947H28.412C29.4981 17.5947 30.0895 17.1216 30.0895 16.2398C30.0895 15.4118 29.6164 14.9602 28.4335 14.9602H26.6485V17.5947ZM34.6866 21.7885C32.9768 21.7885 31.9445 20.6056 31.9445 18.8851C31.9445 17.1754 32.9768 15.971 34.6974 15.971C36.3964 15.971 37.4287 17.1646 37.4287 18.8744C37.4287 20.5949 36.3964 21.7885 34.6866 21.7885ZM34.6974 20.9175C35.8157 20.9175 36.3318 20.025 36.3318 18.8851C36.3318 17.7345 35.8157 16.8528 34.6974 16.8528C33.5575 16.8528 33.0414 17.7345 33.0414 18.8851C33.0414 20.025 33.5575 20.9175 34.6974 20.9175ZM39.8418 21.7777C38.7449 21.7777 38.046 21.1433 38.046 20.2078C38.046 18.9819 38.9708 18.6163 40.3364 18.3582C41.1967 18.1969 41.7236 18.0894 41.7236 17.5517C41.7236 17.1539 41.487 16.8205 40.6805 16.8205C39.7235 16.8205 39.4331 17.1216 39.3794 17.8528H38.3041C38.3578 16.799 39.046 15.971 40.7235 15.971C41.8526 15.971 42.7559 16.4441 42.7559 17.8636V20.3798C42.7559 20.7777 42.8097 20.982 43.014 20.982C43.0462 20.982 43.0785 20.982 43.143 20.9713V21.6164C42.9602 21.6595 42.7774 21.681 42.6053 21.681C42.0784 21.681 41.7988 21.4767 41.7343 20.853H41.7128C41.358 21.4229 40.7343 21.7777 39.8418 21.7777ZM40.0783 20.9282C41.0246 20.9282 41.7236 20.4443 41.7236 19.4873V18.7023C41.5515 18.8636 41.0784 18.9819 40.5192 19.1002C39.5514 19.2937 39.1428 19.5626 39.1428 20.1325C39.1428 20.6487 39.4224 20.9282 40.0783 20.9282ZM47.8784 16.8098V13.9386H48.9322V21.6272H47.8784V20.982H47.8569C47.5558 21.3691 47.0289 21.7777 46.1686 21.7777C44.7707 21.7777 43.7061 20.6917 43.7061 18.8851C43.7061 17.0786 44.7707 15.9818 46.1686 15.9818C47.0289 15.9818 47.5558 16.3796 47.8569 16.8098H47.8784ZM46.3407 20.9067C47.2869 20.9067 47.8676 20.1217 47.8676 18.8851C47.8676 17.6378 47.2869 16.8635 46.3407 16.8635C45.3083 16.8635 44.8029 17.8098 44.8029 18.8851C44.8029 19.9604 45.3083 20.9067 46.3407 20.9067Z" />
    </mask>
    <path
        d="M26.6485 21.6272H25.4656V13.9386H28.6701C30.3691 13.9386 31.2831 14.7344 31.2831 16.1538C31.2831 17.1324 30.6917 17.8421 29.8422 18.0356V18.0571C31.6272 18.3905 30.9713 21.4229 31.3907 21.5519V21.6272H30.1218C29.7777 21.3046 30.5089 18.6163 28.6271 18.6163H26.6485V21.6272ZM26.6485 17.5947H28.412C29.4981 17.5947 30.0895 17.1216 30.0895 16.2398C30.0895 15.4118 29.6164 14.9602 28.4335 14.9602H26.6485V17.5947ZM34.6866 21.7885C32.9768 21.7885 31.9445 20.6056 31.9445 18.8851C31.9445 17.1754 32.9768 15.971 34.6974 15.971C36.3964 15.971 37.4287 17.1646 37.4287 18.8744C37.4287 20.5949 36.3964 21.7885 34.6866 21.7885ZM34.6974 20.9175C35.8157 20.9175 36.3318 20.025 36.3318 18.8851C36.3318 17.7345 35.8157 16.8528 34.6974 16.8528C33.5575 16.8528 33.0414 17.7345 33.0414 18.8851C33.0414 20.025 33.5575 20.9175 34.6974 20.9175ZM39.8418 21.7777C38.7449 21.7777 38.046 21.1433 38.046 20.2078C38.046 18.9819 38.9708 18.6163 40.3364 18.3582C41.1967 18.1969 41.7236 18.0894 41.7236 17.5517C41.7236 17.1539 41.487 16.8205 40.6805 16.8205C39.7235 16.8205 39.4331 17.1216 39.3794 17.8528H38.3041C38.3578 16.799 39.046 15.971 40.7235 15.971C41.8526 15.971 42.7559 16.4441 42.7559 17.8636V20.3798C42.7559 20.7777 42.8097 20.982 43.014 20.982C43.0462 20.982 43.0785 20.982 43.143 20.9713V21.6164C42.9602 21.6595 42.7774 21.681 42.6053 21.681C42.0784 21.681 41.7988 21.4767 41.7343 20.853H41.7128C41.358 21.4229 40.7343 21.7777 39.8418 21.7777ZM40.0783 20.9282C41.0246 20.9282 41.7236 20.4443 41.7236 19.4873V18.7023C41.5515 18.8636 41.0784 18.9819 40.5192 19.1002C39.5514 19.2937 39.1428 19.5626 39.1428 20.1325C39.1428 20.6487 39.4224 20.9282 40.0783 20.9282ZM47.8784 16.8098V13.9386H48.9322V21.6272H47.8784V20.982H47.8569C47.5558 21.3691 47.0289 21.7777 46.1686 21.7777C44.7707 21.7777 43.7061 20.6917 43.7061 18.8851C43.7061 17.0786 44.7707 15.9818 46.1686 15.9818C47.0289 15.9818 47.5558 16.3796 47.8569 16.8098H47.8784ZM46.3407 20.9067C47.2869 20.9067 47.8676 20.1217 47.8676 18.8851C47.8676 17.6378 47.2869 16.8635 46.3407 16.8635C45.3083 16.8635 44.8029 17.8098 44.8029 18.8851C44.8029 19.9604 45.3083 20.9067 46.3407 20.9067Z"
        fill="white" />
    <path
        d="M26.6485 21.6272V21.6769H26.6982V21.6272H26.6485ZM25.4656 21.6272H25.4159V21.6769H25.4656V21.6272ZM25.4656 13.9386V13.8889H25.4159V13.9386H25.4656ZM29.8422 18.0356L29.8311 17.9871L29.7924 17.9959V18.0356H29.8422ZM29.8422 18.0571H29.7924V18.0984L29.8331 18.106L29.8422 18.0571ZM31.3907 21.5519H31.4404V21.5152L31.4053 21.5044L31.3907 21.5519ZM31.3907 21.6272V21.6769H31.4404V21.6272H31.3907ZM30.1218 21.6272L30.0877 21.6635L30.1021 21.6769H30.1218V21.6272ZM26.6485 18.6163V18.5665H26.5987V18.6163H26.6485ZM26.6485 17.5947H26.5987V17.6445H26.6485V17.5947ZM26.6485 14.9602V14.9104H26.5987V14.9602H26.6485ZM26.6485 21.6272V21.5774H25.4656V21.6272V21.6769H26.6485V21.6272ZM25.4656 21.6272H25.5154V13.9386H25.4656H25.4159V21.6272H25.4656ZM25.4656 13.9386V13.9884H28.6701V13.9386V13.8889H25.4656V13.9386ZM28.6701 13.9386V13.9884C29.5126 13.9884 30.1527 14.1858 30.5814 14.5518C31.0089 14.9167 31.2334 15.4553 31.2334 16.1538H31.2831H31.3329C31.3329 15.4329 31.1003 14.8639 30.646 14.4761C30.193 14.0894 29.5266 13.8889 28.6701 13.8889V13.9386ZM31.2831 16.1538H31.2334C31.2334 17.1098 30.6573 17.7989 29.8311 17.9871L29.8422 18.0356L29.8532 18.0841C30.7261 17.8853 31.3329 17.1549 31.3329 16.1538H31.2831ZM29.8422 18.0356H29.7924V18.0571H29.8422H29.8919V18.0356H29.8422ZM29.8422 18.0571L29.8331 18.106C30.263 18.1863 30.5454 18.4281 30.7353 18.7509C30.9264 19.0756 31.0238 19.4822 31.0792 19.8879C31.1348 20.2942 31.1476 20.6913 31.1732 21.0024C31.1859 21.1563 31.2019 21.2906 31.2289 21.3913C31.2423 21.4416 31.2593 21.4864 31.2818 21.5218C31.3044 21.5574 31.3349 21.5868 31.376 21.5995L31.3907 21.5519L31.4053 21.5044C31.394 21.5009 31.3804 21.4915 31.3658 21.4684C31.3509 21.445 31.3372 21.4111 31.325 21.3655C31.3006 21.2743 31.2851 21.1479 31.2724 20.9942C31.2473 20.6901 31.2338 20.2839 31.1778 19.8744C31.1217 19.4642 31.0222 19.0421 30.8211 18.7004C30.6189 18.3569 30.3139 18.0946 29.8513 18.0082L29.8422 18.0571ZM31.3907 21.5519H31.3409V21.6272H31.3907H31.4404V21.5519H31.3907ZM31.3907 21.6272V21.5774H30.1218V21.6272V21.6769H31.3907V21.6272ZM30.1218 21.6272L30.1558 21.5909C30.1419 21.5779 30.1281 21.5562 30.1155 21.5228C30.1031 21.4896 30.0931 21.4478 30.0851 21.3974C30.069 21.2964 30.062 21.1678 30.0574 21.0191C30.0482 20.7239 30.0485 20.3537 30.0004 19.9942C29.9522 19.6348 29.8549 19.2782 29.6453 19.0107C29.4335 18.7404 29.1112 18.5665 28.6271 18.5665V18.6163V18.666C29.0838 18.666 29.3759 18.8282 29.567 19.0721C29.7603 19.3187 29.8545 19.6543 29.9018 20.0074C29.949 20.3603 29.9487 20.7226 29.958 21.0222C29.9626 21.1709 29.9696 21.3052 29.9868 21.413C29.9954 21.467 30.0068 21.516 30.0224 21.5577C30.0379 21.599 30.0586 21.6362 30.0877 21.6635L30.1218 21.6272ZM28.6271 18.6163V18.5665H26.6485V18.6163V18.666H28.6271V18.6163ZM26.6485 18.6163H26.5987V21.6272H26.6485H26.6982V18.6163H26.6485ZM26.6485 17.5947V17.6445H28.412V17.5947V17.545H26.6485V17.5947ZM28.412 17.5947V17.6445C28.9613 17.6445 29.3935 17.525 29.6893 17.2867C29.9868 17.047 30.1393 16.6927 30.1393 16.2398H30.0895H30.0398C30.0398 16.6687 29.8965 16.9919 29.6268 17.2092C29.3554 17.4279 28.9488 17.545 28.412 17.545V17.5947ZM30.0895 16.2398H30.1393C30.1393 15.8161 30.0178 15.4797 29.7365 15.2509C29.4574 15.024 29.0297 14.9104 28.4335 14.9104V14.9602V15.01C29.0202 15.01 29.4205 15.1222 29.6737 15.3281C29.9247 15.5322 30.0398 15.8355 30.0398 16.2398H30.0895ZM28.4335 14.9602V14.9104H26.6485V14.9602V15.01H28.4335V14.9602ZM26.6485 14.9602H26.5987V17.5947H26.6485H26.6982V14.9602H26.6485ZM34.6866 21.7885V21.7387C33.8438 21.7387 33.1722 21.4476 32.7109 20.9482C32.2493 20.4485 31.9943 19.7356 31.9943 18.8851H31.9445H31.8948C31.8948 19.7552 32.1559 20.494 32.6379 21.0158C33.1202 21.538 33.8197 21.8382 34.6866 21.8382V21.7885ZM31.9445 18.8851H31.9943C31.9943 18.0401 32.2493 17.3244 32.7124 16.8206C33.175 16.3172 33.8493 16.0208 34.6974 16.0208V15.971V15.9212C33.8249 15.9212 33.1228 16.227 32.6391 16.7532C32.1559 17.279 31.8948 18.0204 31.8948 18.8851H31.9445ZM34.6974 15.971V16.0208C35.5346 16.0208 36.2035 16.3145 36.6635 16.8152C37.1239 17.3164 37.3789 18.0294 37.3789 18.8744H37.4287H37.4784C37.4784 18.0096 37.2173 17.2709 36.7368 16.7479C36.2558 16.2243 35.5591 15.9212 34.6974 15.9212V15.971ZM37.4287 18.8744H37.3789C37.3789 19.7248 37.1239 20.4405 36.6622 20.943C36.2009 21.445 35.5293 21.7387 34.6866 21.7387V21.7885V21.8382C35.5537 21.8382 36.2531 21.5352 36.7354 21.0103C37.2173 20.4859 37.4784 19.7444 37.4784 18.8744H37.4287ZM34.6974 20.9175V20.9672C35.2716 20.9672 35.6954 20.7372 35.9741 20.3582C36.2512 19.9813 36.3816 19.4616 36.3816 18.8851H36.3318H36.2821C36.2821 19.4485 36.1544 19.945 35.8939 20.2993C35.6349 20.6515 35.2414 20.8677 34.6974 20.8677V20.9175ZM36.3318 18.8851H36.3816C36.3816 18.3033 36.2512 17.7836 35.974 17.4079C35.6953 17.0302 35.2714 16.803 34.6974 16.803V16.8528V16.9025C35.2417 16.9025 35.635 17.1162 35.8939 17.467C36.1544 17.8199 36.2821 18.3163 36.2821 18.8851H36.3318ZM34.6974 16.8528V16.803C34.1129 16.803 33.6836 17.03 33.402 17.4077C33.122 17.7835 32.9916 18.3033 32.9916 18.8851H33.0414H33.0911C33.0911 18.3163 33.2188 17.82 33.4818 17.4672C33.7432 17.1165 34.142 16.9025 34.6974 16.9025V16.8528ZM33.0414 18.8851H32.9916C32.9916 19.4616 33.122 19.9814 33.402 20.3584C33.6835 20.7374 34.1127 20.9672 34.6974 20.9672V20.9175V20.8677C34.1422 20.8677 33.7434 20.6513 33.4819 20.2991C33.2188 19.9449 33.0911 19.4485 33.0911 18.8851H33.0414ZM40.3364 18.3582L40.3272 18.3093L40.3272 18.3093L40.3364 18.3582ZM39.3794 17.8528V17.9026H39.4256L39.429 17.8565L39.3794 17.8528ZM38.3041 17.8528L38.2544 17.8503L38.2517 17.9026H38.3041V17.8528ZM43.143 20.9713H43.1928V20.9125L43.1348 20.9222L43.143 20.9713ZM43.143 21.6164L43.1544 21.6649L43.1928 21.6558V21.6164H43.143ZM41.7343 20.853L41.7838 20.8478L41.7792 20.8032H41.7343V20.853ZM41.7128 20.853V20.8032H41.6852L41.6706 20.8267L41.7128 20.853ZM41.7236 18.7023H41.7733V18.5875L41.6895 18.666L41.7236 18.7023ZM40.5192 19.1002L40.529 19.149L40.5295 19.1489L40.5192 19.1002ZM39.8418 21.7777V21.728C39.3028 21.728 38.8664 21.5722 38.5655 21.3063C38.2652 21.0409 38.0957 20.6624 38.0957 20.2078H38.046H37.9962C37.9962 20.6887 38.1763 21.0952 38.4996 21.3809C38.8224 21.6661 39.2839 21.8275 39.8418 21.8275V21.7777ZM38.046 20.2078H38.0957C38.0957 19.6105 38.3195 19.2282 38.7073 18.961C39.0997 18.6907 39.663 18.5361 40.3456 18.4071L40.3364 18.3582L40.3272 18.3093C39.6442 18.4384 39.0622 18.5957 38.6508 18.8791C38.2349 19.1657 37.9962 19.5792 37.9962 20.2078H38.046ZM40.3364 18.3582L40.3456 18.4071C40.7733 18.3269 41.1276 18.2587 41.374 18.141C41.4984 18.0816 41.599 18.008 41.6683 17.9108C41.7381 17.8128 41.7733 17.6948 41.7733 17.5517H41.7236H41.6738C41.6738 17.6775 41.6432 17.7745 41.5873 17.853C41.5309 17.9322 41.446 17.9964 41.3312 18.0512C41.0991 18.162 40.7598 18.2282 40.3272 18.3093L40.3364 18.3582ZM41.7236 17.5517H41.7733C41.7733 17.3426 41.7107 17.1438 41.5363 16.9987C41.3637 16.855 41.0893 16.7708 40.6805 16.7708V16.8205V16.8703C41.0782 16.8703 41.3254 16.9526 41.4727 17.0752C41.6181 17.1962 41.6738 17.363 41.6738 17.5517H41.7236ZM40.6805 16.8205V16.7708C40.1992 16.7708 39.8722 16.8459 39.6593 17.0243C39.4447 17.2041 39.357 17.4791 39.3298 17.8492L39.3794 17.8528L39.429 17.8565C39.4555 17.4953 39.5398 17.2542 39.7232 17.1006C39.9081 16.9456 40.2048 16.8703 40.6805 16.8703V16.8205ZM39.3794 17.8528V17.8031H38.3041V17.8528V17.9026H39.3794V17.8528ZM38.3041 17.8528L38.3537 17.8554C38.3801 17.3388 38.5615 16.8822 38.9376 16.5542C39.3142 16.2258 39.8925 16.0208 40.7235 16.0208V15.971V15.9212C39.877 15.9212 39.2725 16.1302 38.8722 16.4792C38.4714 16.8287 38.2818 17.3131 38.2544 17.8503L38.3041 17.8528ZM40.7235 15.971V16.0208C41.2823 16.0208 41.7773 16.138 42.1319 16.4237C42.4845 16.7079 42.7061 17.1651 42.7061 17.8636H42.7559H42.8056C42.8056 17.1426 42.5757 16.6536 42.1943 16.3463C41.815 16.0406 41.2938 15.9212 40.7235 15.9212V15.971ZM42.7559 17.8636H42.7061V20.3798H42.7559H42.8056V17.8636H42.7559ZM42.7559 20.3798H42.7061C42.7061 20.5788 42.7192 20.7377 42.7619 20.8481C42.7836 20.9042 42.8142 20.9511 42.8576 20.9836C42.9015 21.0166 42.9542 21.0318 43.014 21.0318V20.982V20.9323C42.9716 20.9323 42.941 20.9218 42.9173 20.9041C42.8932 20.8859 42.872 20.8568 42.8547 20.8122C42.8194 20.7209 42.8056 20.5787 42.8056 20.3798H42.7559ZM43.014 20.982V21.0318C43.0478 21.0318 43.083 21.0317 43.1512 21.0203L43.143 20.9713L43.1348 20.9222C43.074 20.9323 43.0446 20.9323 43.014 20.9323V20.982ZM43.143 20.9713H43.0932V21.6164H43.143H43.1928V20.9713H43.143ZM43.143 21.6164L43.1316 21.568C42.9523 21.6102 42.7733 21.6312 42.6053 21.6312V21.681V21.7307C42.7814 21.7307 42.9681 21.7087 43.1544 21.6649L43.143 21.6164ZM42.6053 21.681V21.6312C42.3472 21.6312 42.1603 21.581 42.0297 21.4638C41.899 21.3466 41.8155 21.154 41.7838 20.8478L41.7343 20.853L41.6848 20.8581C41.7177 21.1756 41.8062 21.397 41.9632 21.5379C42.1203 21.6788 42.3366 21.7307 42.6053 21.7307V21.681ZM41.7343 20.853V20.8032H41.7128V20.853V20.9027H41.7343V20.853ZM41.7128 20.853L41.6706 20.8267C41.3261 21.3799 40.7197 21.728 39.8418 21.728V21.7777V21.8275C40.7489 21.8275 41.3898 21.4658 41.7551 20.8793L41.7128 20.853ZM40.0783 20.9282V20.978C40.5593 20.978 40.983 20.8551 41.2874 20.6051C41.5931 20.3541 41.7733 19.9791 41.7733 19.4873H41.7236H41.6738C41.6738 19.9526 41.5045 20.2981 41.2242 20.5282C40.9426 20.7595 40.5436 20.8785 40.0783 20.8785V20.9282ZM41.7236 19.4873H41.7733V18.7023H41.7236H41.6738V19.4873H41.7236ZM41.7236 18.7023L41.6895 18.666C41.6128 18.738 41.4617 18.8053 41.2519 18.8698C41.0446 18.9336 40.7884 18.9924 40.5089 19.0515L40.5192 19.1002L40.5295 19.1489C40.8092 19.0897 41.0692 19.0302 41.2812 18.9649C41.4908 18.9005 41.6623 18.8279 41.7576 18.7386L41.7236 18.7023ZM40.5192 19.1002L40.5095 19.0514C40.0244 19.1484 39.6712 19.2656 39.4388 19.435C39.2021 19.6075 39.0931 19.8326 39.0931 20.1325H39.1428H39.1926C39.1926 19.8625 39.2878 19.6682 39.4974 19.5154C39.7113 19.3595 40.0463 19.2455 40.529 19.149L40.5192 19.1002ZM39.1428 20.1325H39.0931C39.0931 20.3994 39.1656 20.6142 39.3316 20.7612C39.4964 20.907 39.7445 20.978 40.0783 20.978V20.9282V20.8785C39.7562 20.8785 39.5365 20.8097 39.3976 20.6867C39.2598 20.5648 39.1926 20.3818 39.1926 20.1325H39.1428ZM47.8784 16.8098V16.8595H47.9281V16.8098H47.8784ZM47.8784 13.9386V13.8889H47.8286V13.9386H47.8784ZM48.9322 13.9386H48.9819V13.8889H48.9322V13.9386ZM48.9322 21.6272V21.6769H48.9819V21.6272H48.9322ZM47.8784 21.6272H47.8286V21.6769H47.8784V21.6272ZM47.8784 20.982H47.9281V20.9323H47.8784V20.982ZM47.8569 20.982V20.9323H47.8325L47.8176 20.9515L47.8569 20.982ZM47.8569 16.8098L47.8161 16.8383L47.831 16.8595H47.8569V16.8098ZM47.8784 16.8098H47.9281V13.9386H47.8784H47.8286V16.8098H47.8784ZM47.8784 13.9386V13.9884H48.9322V13.9386V13.8889H47.8784V13.9386ZM48.9322 13.9386H48.8824V21.6272H48.9322H48.9819V13.9386H48.9322ZM48.9322 21.6272V21.5774H47.8784V21.6272V21.6769H48.9322V21.6272ZM47.8784 21.6272H47.9281V20.982H47.8784H47.8286V21.6272H47.8784ZM47.8784 20.982V20.9323H47.8569V20.982V21.0318H47.8784V20.982ZM47.8569 20.982L47.8176 20.9515C47.5239 21.3291 47.0105 21.728 46.1686 21.728V21.7777V21.8275C47.0473 21.8275 47.5877 21.4092 47.8961 21.0125L47.8569 20.982ZM46.1686 21.7777V21.728C45.4832 21.728 44.8814 21.4621 44.4504 20.9759C44.0191 20.4893 43.7559 19.7787 43.7559 18.8851H43.7061H43.6564C43.6564 19.7981 43.9255 20.5338 44.3759 21.0419C44.8267 21.5504 45.4561 21.8275 46.1686 21.8275V21.7777ZM43.7061 18.8851H43.7559C43.7559 17.9915 44.0191 17.2782 44.4505 16.7889C44.8815 16.3 45.4834 16.0315 46.1686 16.0315V15.9818V15.932C45.4559 15.932 44.8265 16.2119 44.3758 16.7231C43.9255 17.2339 43.6564 17.9722 43.6564 18.8851H43.7061ZM46.1686 15.9818V16.0315C47.0108 16.0315 47.5232 16.4199 47.8161 16.8383L47.8569 16.8098L47.8976 16.7812C47.5883 16.3394 47.047 15.932 46.1686 15.932V15.9818ZM47.8569 16.8098V16.8595H47.8784V16.8098V16.76H47.8569V16.8098ZM46.3407 20.9067V20.9565C46.8292 20.9565 47.2258 20.7531 47.4988 20.3895C47.7706 20.0275 47.9174 19.5105 47.9174 18.8851H47.8676H47.8179C47.8179 19.4964 47.6743 19.9901 47.4192 20.3298C47.1653 20.6679 46.7984 20.857 46.3407 20.857V20.9067ZM47.8676 18.8851H47.9174C47.9174 18.2545 47.7707 17.7373 47.4987 17.3766C47.2256 17.0143 46.829 16.8138 46.3407 16.8138V16.8635V16.9133C46.7986 16.9133 47.1655 17.0998 47.4193 17.4365C47.6742 17.7747 47.8179 18.2684 47.8179 18.8851H47.8676ZM46.3407 16.8635V16.8138C45.8069 16.8138 45.4076 17.0595 45.1437 17.4429C44.881 17.8244 44.7532 18.3406 44.7532 18.8851H44.8029H44.8527C44.8527 18.3544 44.9776 17.8597 45.2257 17.4993C45.4725 17.1407 45.8422 16.9133 46.3407 16.9133V16.8635ZM44.8029 18.8851H44.7532C44.7532 19.4297 44.881 19.9458 45.1437 20.3274C45.4076 20.7108 45.8069 20.9565 46.3407 20.9565V20.9067V20.857C45.8422 20.857 45.4725 20.6296 45.2257 20.271C44.9776 19.9105 44.8527 19.4159 44.8527 18.8851H44.8029Z"
        fill="white" mask="url(#path-3-outside-2_1_2773)" />
    <mask id="path-5-outside-3_1_2773" maskUnits="userSpaceOnUse" x="24.7021" y="25.9585" width="43"
        height="9" fill="black">
        <rect fill="white" x="24.7021" y="25.9585" width="43" height="9" />
        <path
            d="M28.0464 33.9585H26.7668L24.8527 26.2699H26.0893L27.4442 32.324H27.4657L29.0572 26.2699H30.3046L31.9068 32.324H31.9283L33.2832 26.2699H34.5198L32.595 33.9585H31.3261L29.6916 27.7754H29.6701L28.0464 33.9585ZM37.2489 34.1198C35.5391 34.1198 34.5068 32.9369 34.5068 31.2164C34.5068 29.5067 35.5391 28.3023 37.2596 28.3023C38.9587 28.3023 39.991 29.4959 39.991 31.2057C39.991 32.9262 38.9587 34.1198 37.2489 34.1198ZM37.2596 33.2488C38.378 33.2488 38.8941 32.3563 38.8941 31.2164C38.8941 30.0658 38.378 29.1841 37.2596 29.1841C36.1198 29.1841 35.6036 30.0658 35.6036 31.2164C35.6036 32.3563 36.1198 33.2488 37.2596 33.2488ZM43.7697 28.3131C44.7805 28.3131 45.5978 28.8937 45.5978 30.1519V33.9585H44.5439V30.4422C44.5439 29.711 44.2213 29.2163 43.4256 29.2163C42.5223 29.2163 41.9417 29.7647 41.9417 30.5927V33.9585H40.8878V28.4744H41.9417V29.1626H41.9632C42.2535 28.7432 42.8234 28.3131 43.7697 28.3131ZM50.6297 29.1411V26.2699H51.6835V33.9585H50.6297V33.3133H50.6082C50.3071 33.7004 49.7802 34.109 48.9199 34.109C47.522 34.109 46.4574 33.023 46.4574 31.2164C46.4574 29.4099 47.522 28.3131 48.9199 28.3131C49.7802 28.3131 50.3071 28.7109 50.6082 29.1411H50.6297ZM49.092 33.238C50.0383 33.238 50.6189 32.453 50.6189 31.2164C50.6189 29.9691 50.0383 29.1948 49.092 29.1948C48.0597 29.1948 47.5543 30.1411 47.5543 31.2164C47.5543 32.2917 48.0597 33.238 49.092 33.238ZM57.9022 31.0981C57.9022 31.2487 57.9022 31.41 57.8915 31.496H53.6762C53.6977 32.41 54.2354 33.2595 55.3214 33.2595C56.2892 33.2595 56.6656 32.6358 56.7624 32.2702H57.8377C57.5474 33.3241 56.7409 34.1198 55.2999 34.1198C53.5579 34.1198 52.5901 32.8832 52.5901 31.2057C52.5901 29.4852 53.6224 28.3023 55.2999 28.3023C56.9667 28.3023 57.9022 29.3991 57.9022 31.0981ZM53.6762 30.668H56.8054C56.8054 29.8078 56.2032 29.1626 55.2677 29.1626C54.3859 29.1626 53.7407 29.7647 53.6762 30.668ZM61.3409 28.3453C61.5345 28.3453 61.685 28.3561 61.8463 28.3776V29.3884C61.7173 29.3669 61.6205 29.3561 61.4914 29.3561C60.5344 29.3561 59.8462 30.0766 59.8462 31.1196V33.9585H58.7924V28.4744H59.8462V29.5174H59.8677C60.158 28.8292 60.5989 28.3453 61.3409 28.3453ZM64.5767 34.109C62.9099 34.109 62.0819 33.2488 62.0497 32.1304H63.1143C63.1573 32.7649 63.5444 33.2595 64.5659 33.2595C65.4907 33.2595 65.738 32.8509 65.738 32.453C65.738 31.7648 65.0068 31.6896 64.2971 31.539C63.3401 31.3132 62.2432 31.0336 62.2432 29.8938C62.2432 28.9475 63.0067 28.3131 64.3294 28.3131C65.8348 28.3131 66.5553 29.1195 66.6306 30.0658H65.566C65.4907 29.6465 65.2649 29.1626 64.3509 29.1626C63.6412 29.1626 63.3401 29.4421 63.3401 29.8508C63.3401 30.4207 63.953 30.4745 64.7272 30.6465C65.738 30.8831 66.8349 31.1734 66.8349 32.3993C66.8349 33.4638 66.0176 34.109 64.5767 34.109Z" />
    </mask>
    <path
        d="M28.0464 33.9585H26.7668L24.8527 26.2699H26.0893L27.4442 32.324H27.4657L29.0572 26.2699H30.3046L31.9068 32.324H31.9283L33.2832 26.2699H34.5198L32.595 33.9585H31.3261L29.6916 27.7754H29.6701L28.0464 33.9585ZM37.2489 34.1198C35.5391 34.1198 34.5068 32.9369 34.5068 31.2164C34.5068 29.5067 35.5391 28.3023 37.2596 28.3023C38.9587 28.3023 39.991 29.4959 39.991 31.2057C39.991 32.9262 38.9587 34.1198 37.2489 34.1198ZM37.2596 33.2488C38.378 33.2488 38.8941 32.3563 38.8941 31.2164C38.8941 30.0658 38.378 29.1841 37.2596 29.1841C36.1198 29.1841 35.6036 30.0658 35.6036 31.2164C35.6036 32.3563 36.1198 33.2488 37.2596 33.2488ZM43.7697 28.3131C44.7805 28.3131 45.5978 28.8937 45.5978 30.1519V33.9585H44.5439V30.4422C44.5439 29.711 44.2213 29.2163 43.4256 29.2163C42.5223 29.2163 41.9417 29.7647 41.9417 30.5927V33.9585H40.8878V28.4744H41.9417V29.1626H41.9632C42.2535 28.7432 42.8234 28.3131 43.7697 28.3131ZM50.6297 29.1411V26.2699H51.6835V33.9585H50.6297V33.3133H50.6082C50.3071 33.7004 49.7802 34.109 48.9199 34.109C47.522 34.109 46.4574 33.023 46.4574 31.2164C46.4574 29.4099 47.522 28.3131 48.9199 28.3131C49.7802 28.3131 50.3071 28.7109 50.6082 29.1411H50.6297ZM49.092 33.238C50.0383 33.238 50.6189 32.453 50.6189 31.2164C50.6189 29.9691 50.0383 29.1948 49.092 29.1948C48.0597 29.1948 47.5543 30.1411 47.5543 31.2164C47.5543 32.2917 48.0597 33.238 49.092 33.238ZM57.9022 31.0981C57.9022 31.2487 57.9022 31.41 57.8915 31.496H53.6762C53.6977 32.41 54.2354 33.2595 55.3214 33.2595C56.2892 33.2595 56.6656 32.6358 56.7624 32.2702H57.8377C57.5474 33.3241 56.7409 34.1198 55.2999 34.1198C53.5579 34.1198 52.5901 32.8832 52.5901 31.2057C52.5901 29.4852 53.6224 28.3023 55.2999 28.3023C56.9667 28.3023 57.9022 29.3991 57.9022 31.0981ZM53.6762 30.668H56.8054C56.8054 29.8078 56.2032 29.1626 55.2677 29.1626C54.3859 29.1626 53.7407 29.7647 53.6762 30.668ZM61.3409 28.3453C61.5345 28.3453 61.685 28.3561 61.8463 28.3776V29.3884C61.7173 29.3669 61.6205 29.3561 61.4914 29.3561C60.5344 29.3561 59.8462 30.0766 59.8462 31.1196V33.9585H58.7924V28.4744H59.8462V29.5174H59.8677C60.158 28.8292 60.5989 28.3453 61.3409 28.3453ZM64.5767 34.109C62.9099 34.109 62.0819 33.2488 62.0497 32.1304H63.1143C63.1573 32.7649 63.5444 33.2595 64.5659 33.2595C65.4907 33.2595 65.738 32.8509 65.738 32.453C65.738 31.7648 65.0068 31.6896 64.2971 31.539C63.3401 31.3132 62.2432 31.0336 62.2432 29.8938C62.2432 28.9475 63.0067 28.3131 64.3294 28.3131C65.8348 28.3131 66.5553 29.1195 66.6306 30.0658H65.566C65.4907 29.6465 65.2649 29.1626 64.3509 29.1626C63.6412 29.1626 63.3401 29.4421 63.3401 29.8508C63.3401 30.4207 63.953 30.4745 64.7272 30.6465C65.738 30.8831 66.8349 31.1734 66.8349 32.3993C66.8349 33.4638 66.0176 34.109 64.5767 34.109Z"
        fill="white" />
    <path
        d="M28.0464 33.9585V34.0082H28.0848L28.0945 33.9711L28.0464 33.9585ZM26.7668 33.9585L26.7185 33.9705L26.7279 34.0082H26.7668V33.9585ZM24.8527 26.2699V26.2202H24.789L24.8044 26.282L24.8527 26.2699ZM26.0893 26.2699L26.1379 26.2591L26.1292 26.2202H26.0893V26.2699ZM27.4442 32.324L27.3957 32.3349L27.4044 32.3738H27.4442V32.324ZM27.4657 32.324V32.3738H27.5041L27.5138 32.3367L27.4657 32.324ZM29.0572 26.2699V26.2202H29.0188L29.0091 26.2573L29.0572 26.2699ZM30.3046 26.2699L30.3527 26.2572L30.3429 26.2202H30.3046V26.2699ZM31.9068 32.324L31.8587 32.3367L31.8685 32.3738H31.9068V32.324ZM31.9283 32.324V32.3738H31.9682L31.9769 32.3349L31.9283 32.324ZM33.2832 26.2699V26.2202H33.2434L33.2347 26.2591L33.2832 26.2699ZM34.5198 26.2699L34.5681 26.282L34.5836 26.2202H34.5198V26.2699ZM32.595 33.9585V34.0082H32.6338L32.6433 33.9706L32.595 33.9585ZM31.3261 33.9585L31.278 33.9712L31.2878 34.0082H31.3261V33.9585ZM29.6916 27.7754L29.7397 27.7627L29.73 27.7256H29.6916V27.7754ZM29.6701 27.7754V27.7256H29.6318L29.622 27.7628L29.6701 27.7754ZM28.0464 33.9585V33.9087H26.7668V33.9585V34.0082H28.0464V33.9585ZM26.7668 33.9585L26.815 33.9465L24.901 26.2579L24.8527 26.2699L24.8044 26.282L26.7185 33.9705L26.7668 33.9585ZM24.8527 26.2699V26.3197H26.0893V26.2699V26.2202H24.8527V26.2699ZM26.0893 26.2699L26.0408 26.2808L27.3957 32.3349L27.4442 32.324L27.4928 32.3131L26.1379 26.2591L26.0893 26.2699ZM27.4442 32.324V32.3738H27.4657V32.324V32.2743H27.4442V32.324ZM27.4657 32.324L27.5138 32.3367L29.1053 26.2826L29.0572 26.2699L29.0091 26.2573L27.4176 32.3114L27.4657 32.324ZM29.0572 26.2699V26.3197H30.3046V26.2699V26.2202H29.0572V26.2699ZM30.3046 26.2699L30.2565 26.2827L31.8587 32.3367L31.9068 32.324L31.9549 32.3113L30.3527 26.2572L30.3046 26.2699ZM31.9068 32.324V32.3738H31.9283V32.324V32.2743H31.9068V32.324ZM31.9283 32.324L31.9769 32.3349L33.3318 26.2808L33.2832 26.2699L33.2347 26.2591L31.8798 32.3131L31.9283 32.324ZM33.2832 26.2699V26.3197H34.5198V26.2699V26.2202H33.2832V26.2699ZM34.5198 26.2699L34.4716 26.2579L32.5468 33.9464L32.595 33.9585L32.6433 33.9706L34.5681 26.282L34.5198 26.2699ZM32.595 33.9585V33.9087H31.3261V33.9585V34.0082H32.595V33.9585ZM31.3261 33.9585L31.3742 33.9458L29.7397 27.7627L29.6916 27.7754L29.6435 27.7881L31.278 33.9712L31.3261 33.9585ZM29.6916 27.7754V27.7256H29.6701V27.7754V27.8251H29.6916V27.7754ZM29.6701 27.7754L29.622 27.7628L27.9983 33.9459L28.0464 33.9585L28.0945 33.9711L29.7183 27.788L29.6701 27.7754ZM37.2489 34.1198V34.07C36.4061 34.07 35.7344 33.7789 35.2732 33.2795C34.8116 32.7798 34.5566 32.0669 34.5566 31.2164H34.5068H34.4571C34.4571 32.0865 34.7182 32.8253 35.2001 33.3471C35.6825 33.8693 36.382 34.1695 37.2489 34.1695V34.1198ZM34.5068 31.2164H34.5566C34.5566 30.3714 34.8116 29.6557 35.2747 29.1519C35.7373 28.6485 36.4116 28.3521 37.2596 28.3521V28.3023V28.2525C36.3872 28.2525 35.6851 28.5583 35.2014 29.0845C34.7182 29.6103 34.4571 30.3517 34.4571 31.2164H34.5068ZM37.2596 28.3023V28.3521C38.0969 28.3521 38.7658 28.6458 39.2258 29.1465C39.6862 29.6477 39.9412 30.3607 39.9412 31.2057H39.991H40.0407C40.0407 30.3409 39.7796 29.6022 39.2991 29.0792C38.8181 28.5556 38.1214 28.2525 37.2596 28.2525V28.3023ZM39.991 31.2057H39.9412C39.9412 32.0561 39.6862 32.7718 39.2245 33.2743C38.7632 33.7763 38.0916 34.07 37.2489 34.07V34.1198V34.1695C38.116 34.1695 38.8154 33.8665 39.2977 33.3416C39.7796 32.8172 40.0407 32.0757 40.0407 31.2057H39.991ZM37.2596 33.2488V33.2985C37.8339 33.2985 38.2577 33.0685 38.5363 32.6895C38.8135 32.3126 38.9439 31.7929 38.9439 31.2164H38.8941H38.8444C38.8444 31.7798 38.7167 32.2763 38.4562 32.6306C38.1972 32.9828 37.8037 33.199 37.2596 33.199V33.2488ZM38.8941 31.2164H38.9439C38.9439 30.6346 38.8135 30.1149 38.5363 29.7392C38.2575 29.3615 37.8337 29.1343 37.2596 29.1343V29.1841V29.2338C37.8039 29.2338 38.1973 29.4475 38.4562 29.7983C38.7167 30.1512 38.8444 30.6476 38.8444 31.2164H38.8941ZM37.2596 29.1841V29.1343C36.6752 29.1343 36.2459 29.3613 35.9643 29.739C35.6843 30.1148 35.5539 30.6346 35.5539 31.2164H35.6036H35.6534C35.6534 30.6476 35.7811 30.1513 36.0441 29.7985C36.3055 29.4478 36.7042 29.2338 37.2596 29.2338V29.1841ZM35.6036 31.2164H35.5539C35.5539 31.7929 35.6843 32.3127 35.9643 32.6897C36.2458 33.0687 36.675 33.2985 37.2596 33.2985V33.2488V33.199C36.7045 33.199 36.3057 32.9826 36.0441 32.6304C35.7811 32.2761 35.6534 31.7798 35.6534 31.2164H35.6036ZM45.5978 33.9585V34.0082H45.6475V33.9585H45.5978ZM44.5439 33.9585H44.4942V34.0082H44.5439V33.9585ZM41.9417 33.9585V34.0082H41.9914V33.9585H41.9417ZM40.8878 33.9585H40.8381V34.0082H40.8878V33.9585ZM40.8878 28.4744V28.4246H40.8381V28.4744H40.8878ZM41.9417 28.4744H41.9914V28.4246H41.9417V28.4744ZM41.9417 29.1626H41.8919V29.2123H41.9417V29.1626ZM41.9632 29.1626V29.2123H41.9892L42.0041 29.1909L41.9632 29.1626ZM43.7697 28.3131V28.3628C44.266 28.3628 44.7099 28.5053 45.0292 28.7974C45.3478 29.0887 45.548 29.5341 45.548 30.1519H45.5978H45.6475C45.6475 29.5115 45.4391 29.0374 45.0964 28.7239C44.7544 28.4111 44.2842 28.2633 43.7697 28.2633V28.3131ZM45.5978 30.1519H45.548V33.9585H45.5978H45.6475V30.1519H45.5978ZM45.5978 33.9585V33.9087H44.5439V33.9585V34.0082H45.5978V33.9585ZM44.5439 33.9585H44.5937V30.4422H44.5439H44.4942V33.9585H44.5439ZM44.5439 30.4422H44.5937C44.5937 30.0703 44.5118 29.7505 44.3213 29.5231C44.1295 29.2941 43.8343 29.1666 43.4256 29.1666V29.2163V29.2661C43.8127 29.2661 44.0766 29.3859 44.245 29.587C44.4148 29.7897 44.4942 30.0829 44.4942 30.4422H44.5439ZM43.4256 29.2163V29.1666C42.9639 29.1666 42.58 29.3069 42.311 29.5576C42.0417 29.8087 41.8919 30.1666 41.8919 30.5927H41.9417H41.9914C41.9914 30.1909 42.132 29.8605 42.3788 29.6304C42.626 29.4 42.984 29.2661 43.4256 29.2661V29.2163ZM41.9417 30.5927H41.8919V33.9585H41.9417H41.9914V30.5927H41.9417ZM41.9417 33.9585V33.9087H40.8878V33.9585V34.0082H41.9417V33.9585ZM40.8878 33.9585H40.9376V28.4744H40.8878H40.8381V33.9585H40.8878ZM40.8878 28.4744V28.5241H41.9417V28.4744V28.4246H40.8878V28.4744ZM41.9417 28.4744H41.8919V29.1626H41.9417H41.9914V28.4744H41.9417ZM41.9417 29.1626V29.2123H41.9632V29.1626V29.1128H41.9417V29.1626ZM41.9632 29.1626L42.0041 29.1909C42.2856 28.7842 42.8406 28.3628 43.7697 28.3628V28.3131V28.2633C42.8063 28.2633 42.2214 28.7021 41.9223 29.1342L41.9632 29.1626ZM50.6297 29.1411V29.1908H50.6794V29.1411H50.6297ZM50.6297 26.2699V26.2202H50.5799V26.2699H50.6297ZM51.6835 26.2699H51.7332V26.2202H51.6835V26.2699ZM51.6835 33.9585V34.0082H51.7332V33.9585H51.6835ZM50.6297 33.9585H50.5799V34.0082H50.6297V33.9585ZM50.6297 33.3133H50.6794V33.2636H50.6297V33.3133ZM50.6082 33.3133V33.2636H50.5838L50.5689 33.2828L50.6082 33.3133ZM50.6082 29.1411L50.5674 29.1696L50.5823 29.1908H50.6082V29.1411ZM50.6297 29.1411H50.6794V26.2699H50.6297H50.5799V29.1411H50.6297ZM50.6297 26.2699V26.3197H51.6835V26.2699V26.2202H50.6297V26.2699ZM51.6835 26.2699H51.6337V33.9585H51.6835H51.7332V26.2699H51.6835ZM51.6835 33.9585V33.9087H50.6297V33.9585V34.0082H51.6835V33.9585ZM50.6297 33.9585H50.6794V33.3133H50.6297H50.5799V33.9585H50.6297ZM50.6297 33.3133V33.2636H50.6082V33.3133V33.3631H50.6297V33.3133ZM50.6082 33.3133L50.5689 33.2828C50.2752 33.6604 49.7618 34.0593 48.9199 34.0593V34.109V34.1588C49.7986 34.1588 50.339 33.7405 50.6474 33.3438L50.6082 33.3133ZM48.9199 34.109V34.0593C48.2345 34.0593 47.6327 33.7934 47.2017 33.3072C46.7704 32.8206 46.5072 32.11 46.5072 31.2164H46.4574H46.4077C46.4077 32.1294 46.6768 32.8651 47.1272 33.3732C47.578 33.8817 48.2074 34.1588 48.9199 34.1588V34.109ZM46.4574 31.2164H46.5072C46.5072 30.3228 46.7704 29.6095 47.2018 29.1202C47.6328 28.6313 48.2347 28.3628 48.9199 28.3628V28.3131V28.2633C48.2072 28.2633 47.5778 28.5432 47.1271 29.0544C46.6768 29.5652 46.4077 30.3035 46.4077 31.2164H46.4574ZM48.9199 28.3131V28.3628C49.7621 28.3628 50.2745 28.7512 50.5674 29.1696L50.6082 29.1411L50.6489 29.1125C50.3396 28.6707 49.7983 28.2633 48.9199 28.2633V28.3131ZM50.6082 29.1411V29.1908H50.6297V29.1411V29.0913H50.6082V29.1411ZM49.092 33.238V33.2878C49.5805 33.2878 49.9771 33.0844 50.2501 32.7208C50.5219 32.3588 50.6687 31.8418 50.6687 31.2164H50.6189H50.5692C50.5692 31.8277 50.4256 32.3214 50.1705 32.6611C49.9166 32.9992 49.5497 33.1883 49.092 33.1883V33.238ZM50.6189 31.2164H50.6687C50.6687 30.5858 50.522 30.0686 50.25 29.7079C49.9769 29.3456 49.5803 29.1451 49.092 29.1451V29.1948V29.2446C49.5499 29.2446 49.9168 29.4311 50.1706 29.7678C50.4255 30.106 50.5692 30.5997 50.5692 31.2164H50.6189ZM49.092 29.1948V29.1451C48.5582 29.1451 48.1589 29.3908 47.895 29.7742C47.6323 30.1557 47.5045 30.6719 47.5045 31.2164H47.5543H47.604C47.604 30.6857 47.7289 30.191 47.977 29.8306C48.2238 29.472 48.5935 29.2446 49.092 29.2446V29.1948ZM47.5543 31.2164H47.5045C47.5045 31.761 47.6323 32.2771 47.895 32.6587C48.1589 33.0421 48.5582 33.2878 49.092 33.2878V33.238V33.1883C48.5935 33.1883 48.2238 32.9609 47.977 32.6023C47.7289 32.2418 47.604 31.7472 47.604 31.2164H47.5543ZM57.8915 31.496V31.5458H57.9354L57.9408 31.5022L57.8915 31.496ZM53.6762 31.496V31.4463H53.6253L53.6265 31.4972L53.6762 31.496ZM56.7624 32.2702V32.2205H56.7241L56.7143 32.2575L56.7624 32.2702ZM57.8377 32.2702L57.8857 32.2835L57.903 32.2205H57.8377V32.2702ZM53.6762 30.668L53.6266 30.6645L53.6228 30.7178H53.6762V30.668ZM56.8054 30.668V30.7178H56.8551V30.668H56.8054ZM57.9022 31.0981H57.8525C57.8525 31.2505 57.8524 31.4077 57.8421 31.4898L57.8915 31.496L57.9408 31.5022C57.9521 31.4123 57.952 31.2469 57.952 31.0981H57.9022ZM57.8915 31.496V31.4463H53.6762V31.496V31.5458H57.8915V31.496ZM53.6762 31.496L53.6265 31.4972C53.6374 31.963 53.7799 32.4154 54.0614 32.7524C54.344 33.0907 54.764 33.3093 55.3214 33.3093V33.2595V33.2098C54.7928 33.2098 54.401 33.0037 54.1378 32.6886C53.8736 32.3724 53.7365 31.9431 53.7259 31.4948L53.6762 31.496ZM55.3214 33.2595V33.3093C55.817 33.3093 56.1649 33.1493 56.4016 32.9392C56.6373 32.73 56.76 32.4735 56.8105 32.283L56.7624 32.2702L56.7143 32.2575C56.6679 32.4325 56.5541 32.6707 56.3355 32.8648C56.1178 33.058 55.7937 33.2098 55.3214 33.2098V33.2595ZM56.7624 32.2702V32.32H57.8377V32.2702V32.2205H56.7624V32.2702ZM57.8377 32.2702L57.7897 32.257C57.6468 32.7757 57.3777 33.2282 56.9694 33.5512C56.5614 33.8739 56.0109 34.07 55.2999 34.07V34.1198V34.1695C56.0299 34.1695 56.6031 33.9678 57.0312 33.6292C57.4589 33.2908 57.7382 32.8186 57.8857 32.2835L57.8377 32.2702ZM55.2999 34.1198V34.07C54.4415 34.07 53.7782 33.7658 53.329 33.2588C52.8791 32.751 52.6399 32.0352 52.6399 31.2057H52.5901H52.5404C52.5404 32.0537 52.785 32.7949 53.2545 33.3248C53.7247 33.8555 54.4164 34.1695 55.2999 34.1695V34.1198ZM52.5901 31.2057H52.6399C52.6399 30.3552 52.8949 29.6422 53.3527 29.1424C53.8099 28.6431 54.4735 28.3521 55.2999 28.3521V28.3023V28.2525C54.4489 28.2525 53.7575 28.553 53.2793 29.0752C52.8015 29.5969 52.5404 30.3356 52.5404 31.2057H52.5901ZM55.2999 28.3023V28.3521C56.1219 28.3521 56.7581 28.6221 57.1893 29.0966C57.6211 29.5716 57.8525 30.2574 57.8525 31.0981H57.9022H57.952C57.952 30.2398 57.7156 29.5277 57.2629 29.0296C56.8096 28.5309 56.1447 28.2525 55.2999 28.2525V28.3023ZM53.6762 30.668V30.7178H56.8054V30.668V30.6183H53.6762V30.668ZM56.8054 30.668H56.8551C56.8551 30.2261 56.7003 29.8367 56.4226 29.5576C56.1448 29.2784 55.7473 29.1128 55.2677 29.1128V29.1626V29.2123C55.7236 29.2123 56.0949 29.3693 56.3521 29.6278C56.6094 29.8864 56.7556 30.2497 56.7556 30.668H56.8054ZM55.2677 29.1626V29.1128C54.3593 29.1128 53.6929 29.7357 53.6266 30.6645L53.6762 30.668L53.7258 30.6716C53.7885 29.7938 54.4126 29.2123 55.2677 29.2123V29.1626ZM61.8463 28.3776H61.8961V28.334L61.8529 28.3283L61.8463 28.3776ZM61.8463 29.3884L61.8381 29.4375L61.8961 29.4471V29.3884H61.8463ZM59.8462 33.9585V34.0082H59.896V33.9585H59.8462ZM58.7924 33.9585H58.7426V34.0082H58.7924V33.9585ZM58.7924 28.4744V28.4246H58.7426V28.4744H58.7924ZM59.8462 28.4744H59.896V28.4246H59.8462V28.4744ZM59.8462 29.5174H59.7964V29.5672H59.8462V29.5174ZM59.8677 29.5174V29.5672H59.9007L59.9135 29.5368L59.8677 29.5174ZM61.3409 28.3453V28.3951C61.5323 28.3951 61.6807 28.4057 61.8397 28.4269L61.8463 28.3776L61.8529 28.3283C61.6893 28.3065 61.5366 28.2956 61.3409 28.2956V28.3453ZM61.8463 28.3776H61.7965V29.3884H61.8463H61.8961V28.3776H61.8463ZM61.8463 29.3884L61.8545 29.3393C61.7236 29.3175 61.624 29.3064 61.4914 29.3064V29.3561V29.4059C61.617 29.4059 61.7109 29.4163 61.8381 29.4375L61.8463 29.3884ZM61.4914 29.3561V29.3064C60.9999 29.3064 60.5752 29.4917 60.2737 29.8127C59.9723 30.1335 59.7964 30.5871 59.7964 31.1196H59.8462H59.896C59.896 30.6092 60.0642 30.181 60.3462 29.8808C60.628 29.5808 61.0259 29.4059 61.4914 29.4059V29.3561ZM59.8462 31.1196H59.7964V33.9585H59.8462H59.896V31.1196H59.8462ZM59.8462 33.9585V33.9087H58.7924V33.9585V34.0082H59.8462V33.9585ZM58.7924 33.9585H58.8421V28.4744H58.7924H58.7426V33.9585H58.7924ZM58.7924 28.4744V28.5241H59.8462V28.4744V28.4246H58.7924V28.4744ZM59.8462 28.4744H59.7964V29.5174H59.8462H59.896V28.4744H59.8462ZM59.8462 29.5174V29.5672H59.8677V29.5174V29.4677H59.8462V29.5174ZM59.8677 29.5174L59.9135 29.5368C60.0571 29.1966 60.2361 28.9111 60.4675 28.7109C60.6978 28.5117 60.9819 28.3951 61.3409 28.3951V28.3453V28.2956C60.9579 28.2956 60.6506 28.4209 60.4024 28.6357C60.1552 28.8495 59.9687 29.1501 59.8219 29.4981L59.8677 29.5174ZM62.0497 32.1304V32.0807H61.9985L62 32.1319L62.0497 32.1304ZM63.1143 32.1304L63.1639 32.1271L63.1607 32.0807H63.1143V32.1304ZM64.2971 31.539L64.2857 31.5875L64.2868 31.5877L64.2971 31.539ZM66.6306 30.0658V30.1156H66.6844L66.6802 30.0619L66.6306 30.0658ZM65.566 30.0658L65.517 30.0746L65.5244 30.1156H65.566V30.0658ZM64.7272 30.6465L64.7386 30.5981L64.738 30.5979L64.7272 30.6465ZM64.5767 34.109V34.0593C63.7516 34.0593 63.1404 33.8464 62.7324 33.5011C62.325 33.1564 62.1152 32.6757 62.0994 32.129L62.0497 32.1304L62 32.1319C62.0164 32.7036 62.2368 33.2121 62.6681 33.5771C63.0988 33.9416 63.7351 34.1588 64.5767 34.1588V34.109ZM62.0497 32.1304V32.1802H63.1143V32.1304V32.0807H62.0497V32.1304ZM63.1143 32.1304L63.0646 32.1338C63.0867 32.4602 63.198 32.7563 63.4402 32.9702C63.6821 33.1838 64.0476 33.3093 64.5659 33.3093V33.2595V33.2098C64.0627 33.2098 63.7239 33.088 63.5061 32.8956C63.2886 32.7036 63.1848 32.4351 63.1639 32.1271L63.1143 32.1304ZM64.5659 33.2595V33.3093C65.0347 33.3093 65.3412 33.2058 65.5311 33.0433C65.7223 32.8796 65.7878 32.6625 65.7878 32.453H65.738H65.6883C65.6883 32.6414 65.6301 32.8276 65.4664 32.9677C65.3015 33.1089 65.022 33.2098 64.5659 33.2098V33.2595ZM65.738 32.453H65.7878C65.7878 32.2715 65.7393 32.127 65.6525 32.0112C65.5662 31.8962 65.4447 31.8131 65.3043 31.7491C65.0263 31.6225 64.6575 31.5646 64.3074 31.4904L64.2971 31.539L64.2868 31.5877C64.6465 31.664 64.9981 31.719 65.2631 31.8397C65.3942 31.8994 65.4999 31.9736 65.5729 32.0709C65.6453 32.1675 65.6883 32.2905 65.6883 32.453H65.738ZM64.2971 31.539L64.3085 31.4906C63.8285 31.3773 63.3231 31.2524 62.9372 31.0167C62.5552 30.7833 62.293 30.4432 62.293 29.8938H62.2432H62.1935C62.1935 30.4842 62.4797 30.8538 62.8854 31.1016C63.2871 31.3471 63.8087 31.4749 64.2857 31.5874L64.2971 31.539ZM62.2432 29.8938H62.293C62.293 29.4354 62.4772 29.0549 62.8208 28.7878C63.1658 28.5197 63.6754 28.3628 64.3294 28.3628V28.3131V28.2633C63.6607 28.2633 63.1273 28.4236 62.7598 28.7093C62.391 28.996 62.1935 29.4059 62.1935 29.8938H62.2432ZM64.3294 28.3131V28.3628C65.0733 28.3628 65.6174 28.562 65.9841 28.8725C66.3506 29.183 66.5443 29.6083 66.581 30.0698L66.6306 30.0658L66.6802 30.0619C66.6416 29.577 66.4373 29.126 66.0484 28.7966C65.6597 28.4674 65.0909 28.2633 64.3294 28.2633V28.3131ZM66.6306 30.0658V30.0161H65.566V30.0658V30.1156H66.6306V30.0658ZM65.566 30.0658L65.615 30.057C65.5765 29.8428 65.4985 29.605 65.3075 29.4211C65.1156 29.2364 64.8168 29.1128 64.3509 29.1128V29.1626V29.2123C64.799 29.2123 65.0701 29.3307 65.2385 29.4928C65.4077 29.6557 65.4802 29.8695 65.517 30.0746L65.566 30.0658ZM64.3509 29.1626V29.1128C63.9907 29.1128 63.7258 29.1836 63.5498 29.3134C63.3714 29.445 63.2903 29.6328 63.2903 29.8508H63.3401H63.3898C63.3898 29.6601 63.4592 29.5038 63.6089 29.3935C63.7609 29.2813 64.0014 29.2123 64.3509 29.2123V29.1626ZM63.3401 29.8508H63.2903C63.2903 30.0029 63.3315 30.1244 63.4089 30.2222C63.4856 30.319 63.5946 30.3887 63.7239 30.4436C63.9795 30.5522 64.3344 30.6102 64.7164 30.6951L64.7272 30.6465L64.738 30.5979C64.3458 30.5108 64.0072 30.4559 63.7628 30.352C63.642 30.3007 63.5494 30.2394 63.4869 30.1605C63.4252 30.0825 63.3898 29.9836 63.3898 29.8508H63.3401ZM64.7272 30.6465L64.7159 30.6949C65.2227 30.8136 65.7411 30.9438 66.1334 31.1939C66.3285 31.3183 66.4909 31.4716 66.6047 31.6666C66.7184 31.8614 66.7851 32.1006 66.7851 32.3993H66.8349H66.8846C66.8846 32.0851 66.8142 31.8282 66.6907 31.6164C66.5672 31.4049 66.3922 31.2409 66.1869 31.11C65.778 30.8493 65.2425 30.716 64.7386 30.5981L64.7272 30.6465ZM66.8349 32.3993H66.7851C66.7851 32.9174 66.587 33.3297 66.2159 33.6139C65.8431 33.8994 65.2906 34.0593 64.5767 34.0593V34.109V34.1588C65.3037 34.1588 65.8804 33.9961 66.2764 33.6929C66.6741 33.3883 66.8846 32.9457 66.8846 32.3993H66.8349Z"
        fill="white" mask="url(#path-5-outside-3_1_2773)" />
    <g clip-path="url(#clip0_1_2773)">
        <path
            d="M20.4878 16.0558L19.0204 16.0535V15.4948C19.0204 14.5 19.0204 12.5026 19.0204 12.5026C19.0204 12.5026 19.0306 10.3524 18.9435 9.2808C18.9435 9.06652 18.8896 8.8599 18.8512 8.65327C18.8355 8.5472 18.8124 8.44236 18.7819 8.33951C18.7819 8.24002 18.7127 8.14819 18.6819 8.0487C18.5298 7.47525 18.313 6.92074 18.0356 6.39571C17.7781 5.91209 17.4796 5.45124 17.1432 5.01821C16.7931 4.57055 16.3842 4.1716 15.9275 3.83203C15.7044 3.67132 15.489 3.48 15.2659 3.30399C15.2155 3.25117 15.1586 3.20489 15.0966 3.16624C14.5319 2.81208 13.9278 2.52444 13.2963 2.30913L12.2961 2.01832C11.6829 1.88224 11.0538 1.83073 10.4265 1.86527C9.91021 1.84846 9.39374 1.89213 8.88772 1.99537C8.23944 2.12191 7.60725 2.31954 7.00275 2.58463C6.37481 2.85243 5.78709 3.20524 5.25626 3.63306C4.82927 3.96475 4.42806 4.32801 4.05603 4.71975C3.68532 5.17257 3.35089 5.65362 3.05583 6.15847C2.70825 6.78308 2.43458 7.44563 2.24029 8.13288C2.12134 8.48988 2.03232 8.80697 1.98631 9.097C1.94419 9.43156 1.92313 9.7034 1.90946 10.0002C1.89002 10.4221 1.85187 11.3599 1.8633 11.9669C1.8633 13.375 1.8633 14.7908 1.8633 16.1989V16.8111C1.8633 16.9336 1.8633 17.1784 1.8633 17.1784L1.86389 17.4727C1.86389 17.4727 2.15001 17.475 2.33262 17.4616C2.64734 17.4384 2.86349 17.4004 3.102 17.3392C3.48374 17.2527 3.85906 17.1402 4.22529 17.0024C4.70429 16.8038 5.16951 16.5737 5.61786 16.3137C5.84868 16.1759 6.05641 16.0152 6.27184 15.8622C7.08309 15.2829 7.77083 14.5494 8.2953 13.7041C8.7717 12.9779 9.13244 12.1828 9.36474 11.347C9.47125 10.9717 9.54335 10.5875 9.58016 10.1991C9.59856 9.9419 9.64094 9.73666 9.69428 9.4843C9.72514 9.3766 9.69378 9.10357 9.69378 9.10357C9.69378 9.10357 9.61171 8.89502 9.534 8.81398C9.25573 8.47545 8.91328 8.19463 8.52612 7.98748L8.1722 7.82677C8.23512 7.77793 8.30203 7.73442 8.37224 7.69667C8.86313 7.42716 9.29065 7.0567 9.62633 6.60998C9.99425 6.09668 10.1428 5.57686 10.2803 4.92637L10.5178 3.72939C10.8573 5.07943 10.6451 4.26326 10.8573 5.07943C11.0201 5.68222 11.1061 6.16126 11.4344 6.60998C11.6461 6.90602 11.9061 7.1647 12.2037 7.37526C12.3884 7.4977 12.573 7.59719 12.7577 7.71198L12.9577 7.83442L12.65 8.00279C12.1258 8.28344 11.6729 8.50731 11.3434 9.00041C11.2848 9.08555 11.2345 9.46499 11.2345 9.46499C11.2345 9.46499 11.2224 9.67101 11.2497 9.77057C11.3168 10.3609 11.4221 10.9463 11.5652 11.5231C11.8535 12.4099 12.2653 13.2522 12.7885 14.0255C13.4107 14.8967 14.194 15.6421 15.0966 16.2219C15.569 16.5622 16.087 16.8352 16.6354 17.033C17.2612 17.2371 18.5588 17.4616 18.5588 17.4616C18.5588 17.4616 18.753 17.4877 19.3373 17.548C19.8744 17.5661 19.8745 17.5611 20.1514 17.5611H20.4515C20.4515 17.6529 20.4515 17.7218 20.4515 17.7907C20.4515 20.1018 20.4515 22.4155 20.4515 24.7317C20.4515 25.2827 20.4515 25.8337 20.4515 26.3924C20.4393 28.7104 19.6088 30.9504 18.1049 32.7212C17.493 33.4554 16.7747 34.095 15.9737 34.6191C15.3059 35.0647 14.5815 35.4198 13.8194 35.6752C13.4578 35.79 13.0962 35.9048 12.7346 36.0042C12.5207 36.0642 12.3018 36.1051 12.0806 36.1267C11.6421 36.1879 11.1959 36.2262 10.7573 36.2797C10.5198 36.3104 10.2793 36.3104 10.0418 36.2797C9.6571 36.2338 9.27241 36.2109 8.87234 36.1496C8.57862 36.105 8.28819 36.0411 8.00294 35.9583C7.48009 35.8154 6.96626 35.6416 6.46418 35.4379C5.81112 35.1553 5.19179 34.8011 4.61767 34.3819C3.72759 33.7288 2.94836 32.9382 2.30954 32.0401C1.74921 31.2676 1.31314 30.413 1.01698 29.507C0.858641 29.0048 0.730189 28.4938 0.632291 27.9765C0.516669 27.186 0.465211 26.3875 0.478415 25.5888C0.478415 23.9818 0.478415 22.3823 0.478415 20.7752C0.474643 20.7064 0.474643 20.6374 0.478415 20.5686H1.88638V20.9972C1.88638 21.9308 1.88638 22.8721 1.88638 23.8134C1.88638 24.2496 1.88638 24.6935 1.88638 25.1373C1.88638 26.0021 1.95562 26.8592 2.04025 27.7163C2.09441 28.0796 2.18726 28.4362 2.31723 28.78C2.44869 29.1748 2.60546 29.5608 2.78655 29.9356C3.29729 31.0978 4.09045 32.1155 5.09469 32.8972L5.37166 33.1192C6.26938 33.8051 7.30223 34.2953 8.40302 34.5579C9.40925 34.8032 10.4514 34.868 11.4805 34.7492C11.9585 34.6839 12.4297 34.5764 12.8885 34.4278C13.5467 34.2455 14.1818 33.9888 14.7812 33.6625C14.8814 33.6129 14.9768 33.554 15.0658 33.4865C15.5352 33.1038 16.0199 32.7212 16.4661 32.3233C16.9836 31.8334 17.4198 31.2652 17.7587 30.6397C18.0051 30.2426 18.2113 29.8222 18.3742 29.3846L18.7896 28.1678C18.7933 28.1118 18.7933 28.0555 18.7896 27.9995C18.8589 27.0888 18.9666 26.1934 18.9589 25.2827C18.9589 23.7522 18.9589 22.2216 18.9589 20.6911C18.9589 20.3237 18.9589 19.9258 18.9589 19.6044C18.9589 19.459 18.9621 19.3165 18.9467 19.1558C18.8301 19.1459 18.77 19.1502 18.6543 19.1578C18.5328 19.1658 18.3434 19.1988 18.3434 19.1988C18.3434 19.1988 16.7133 19.5251 15.9737 19.9028C15.0918 20.3196 14.2919 20.8897 13.6117 21.5864C12.9655 22.2395 12.4325 22.9946 12.0345 23.821C11.7963 24.396 11.5984 24.9867 11.4421 25.5888C11.4196 25.6428 11.404 25.6994 11.3959 25.7572C11.3343 26.2776 11.2574 26.798 11.2112 27.2877C11.2057 27.4044 11.2255 27.5208 11.2693 27.6291C11.3131 27.7374 11.3799 27.835 11.4651 27.9153C11.7921 28.2333 12.3317 28.5573 12.4973 28.641L12.7654 28.78C12.6813 28.8407 12.5939 28.8969 12.5038 28.9484C11.8953 29.2807 11.3959 29.7801 11.0651 30.3871C10.8579 30.7643 10.7705 31.174 10.6581 31.6022C10.3798 32.5654 10.5556 31.9907 10.3943 32.5671C10.3324 32.3893 10.3943 32.5671 10.102 31.5685C9.97373 31.0573 9.82377 30.5132 9.51425 30.0588C9.20473 29.6043 8.78913 29.2312 8.303 28.9714L7.97986 28.78C8.0568 28.7418 8.18016 28.6524 8.28828 28.5961C8.45387 28.5274 9.24421 27.9654 9.61094 27.4332C9.66858 27.3447 9.70722 27.2453 9.72443 27.1413C9.74164 27.0372 9.73706 26.9308 9.71096 26.8286C9.6648 26.5607 9.62633 26.2929 9.58016 26.0633C9.534 25.8337 9.49553 25.5582 9.42629 25.298C9.35705 25.0378 9.25703 24.7623 9.15701 24.5328C8.52553 22.846 7.37264 21.4019 5.86407 20.4079C5.29253 19.997 4.65883 19.6792 3.98678 19.4666C3.7175 19.3824 3.44052 19.3212 3.17124 19.2447C3.0943 19.2447 3.02506 19.2064 2.94812 19.1988L0.909267 19.061C0.770892 19.0532 0.632178 19.0532 0.493803 19.061C0.493803 18.9845 0.493803 18.908 0.493803 18.8314C0.493803 16.1606 0.493803 13.4745 0.493803 10.8267C0.493803 10.2527 0.493803 9.67874 0.578434 9.10478C0.671206 8.28675 0.870344 7.48416 1.17086 6.71712C1.63651 5.52537 2.32876 4.43408 3.20971 3.50296C3.88566 2.76198 4.68139 2.13861 5.56401 1.65864C5.91005 1.4533 6.26706 1.26681 6.63344 1.09999C7.10277 0.946938 7.57209 0.832146 8.03371 0.671438C8.43081 0.551431 8.84219 0.48452 9.25703 0.472467L10.0264 0.403592C10.1753 0.367084 10.3273 0.344032 10.4803 0.334717C11.1519 0.367082 11.8203 0.446355 12.4807 0.571952C13.3941 0.769753 14.2765 1.08893 15.1043 1.5209C15.8464 1.93047 16.5405 2.4207 17.1739 2.98257C17.6527 3.42288 18.0858 3.91001 18.4665 4.4366C19.1234 5.27155 19.6285 6.21427 19.9591 7.2222C20.3023 8.25956 20.4789 9.34428 20.4823 10.4364C20.4823 11.7679 20.4823 13.0995 20.4823 14.4235C20.4823 14.8903 20.4823 15.8239 20.4823 15.8239L20.4878 16.0558ZM15.866 18.2881C15.5429 18.1274 15.2659 17.9896 14.9966 17.8366C14.6223 17.6358 14.2601 17.4135 13.9118 17.1708C13.3522 16.7689 12.8364 16.3097 12.373 15.801C11.898 15.3016 11.4824 14.7495 11.1343 14.1556C10.9804 13.8725 10.8419 13.5817 10.6881 13.2908C10.6188 13.1684 10.5804 13.0153 10.4111 12.9694L10.3572 13.0153L10.2111 13.2908C9.74993 14.2923 9.11732 15.2063 8.34147 15.9923C7.79296 16.5866 7.16368 17.1017 6.47187 17.5228C6.08719 17.7524 5.7025 17.9514 5.29473 18.158L5.09469 18.2958C5.1442 18.3488 5.19826 18.3974 5.25626 18.4412L5.92562 18.8008C6.35008 19.0201 6.75429 19.2762 7.13354 19.5661C7.61632 19.9329 8.06676 20.3399 8.47995 20.7829C8.97993 21.2994 9.41405 21.8751 9.77251 22.4971C9.97255 22.8568 10.1572 23.2624 10.3572 23.5915C10.3858 23.6449 10.4221 23.6939 10.465 23.7369C10.5573 23.5762 10.6342 23.4461 10.7035 23.316C10.9035 22.9486 11.0805 22.5507 11.3036 22.2216C11.9094 21.266 12.6713 20.4177 13.5579 19.7115C13.9508 19.3825 14.3792 19.0976 14.835 18.8621L15.5659 18.4794C15.6736 18.4335 15.7506 18.3723 15.866 18.2881Z"
            fill="white" />
    </g>
    <defs>
        <clipPath id="clip0_1_2773">
            <rect width="20.0087" height="35.968" fill="white"
                transform="translate(0.478516 0.334717)" />
        </clipPath>
    </defs>
</svg>