<svg width="16" height="16" viewBox="0 0 16 16" fill="none" xmlns="http://www.w3.org/2000/svg">
<path fill-rule="evenodd" clip-rule="evenodd" d="M5.99255e-05 5.72104C0.00133944 5.97392 0.0831185 6.21983 0.233543 6.42312C0.383968 6.6264 0.595223 6.7765 0.836685 6.85166L6.98472 8.78332C7.04023 8.79886 7.0908 8.82846 7.13153 8.86926C7.17226 8.91006 7.20177 8.96068 7.21722 9.01622L9.14909 15.1641C9.22428 15.4055 9.37436 15.6168 9.57761 15.7672C9.78085 15.9177 10.0267 15.9995 10.2796 16.0009H10.289C10.5402 16.0015 10.7851 15.9226 10.9887 15.7755C11.1924 15.6285 11.3443 15.4208 11.4228 15.1822L15.9379 1.57316C16.0077 1.36285 16.0176 1.13726 15.9666 0.921622C15.9156 0.705979 15.8056 0.508776 15.6489 0.352054C15.4923 0.195332 15.2951 0.0852668 15.0795 0.0341611C14.8639 -0.0169446 14.6383 -0.00707711 14.4279 0.0626607L0.81856 4.57775C0.578469 4.65681 0.369754 4.8102 0.222611 5.01573C0.0754674 5.22126 -0.00247492 5.46828 5.99255e-05 5.72104Z" fill="white"/>
</svg>
