<svg xmlns="http://www.w3.org/2000/svg" width="29" height="21" fill="none"><path fill="#B4A297" fill-rule="evenodd" d="M22.424 6.151c1.013-1.42 2.928-2.946 5.534-4.22.678-.33.374-1.354-.376-1.26-5.477.694-9.026 3.092-10.966 6.659a13.352 13.352 0 0 0-1.415 4.181A13.92 13.92 0 0 0 15 14a6.666 6.666 0 1 0 13.333 0c0-3.681-3.032-6.669-6.517-6.669.184-.504.228-.647.608-1.179Zm-14.667 0c1.013-1.42 2.928-2.946 5.535-4.22.677-.33.373-1.354-.376-1.26-5.478.694-9.027 3.092-10.967 6.659a13.353 13.353 0 0 0-1.415 4.181A13.92 13.92 0 0 0 .334 14a6.666 6.666 0 1 0 13.332 0c0-3.681-3.032-6.669-6.517-6.669.184-.504.228-.647.608-1.179Z" clip-rule="evenodd"/></svg>