<svg width="30" height="30" viewBox="0 0 30 30" fill="none" xmlns="http://www.w3.org/2000/svg">
<path d="M14.9996 0C14.5079 0 14.0862 0.24 13.7696 0.533333C13.4529 0.826667 13.1979 1.18667 12.9629 1.58833C12.4912 2.39333 12.0929 3.39 11.7029 4.40833C11.3129 5.425 10.9396 6.45833 10.5829 7.28333C10.2262 8.10667 9.81291 8.71333 9.71291 8.79C9.61291 8.86667 8.93291 9.09 8.07291 9.19C7.21291 9.29 6.15291 9.34 5.10625 9.41167C4.06124 9.485 3.03291 9.58 2.15458 9.8C1.72878 9.89379 1.32006 10.0529 0.942911 10.2717C0.577911 10.4967 0.229578 10.8383 0.0762448 11.3267C-0.0737552 11.8167 0.0162448 12.3133 0.184578 12.72C0.354578 13.1267 0.604578 13.485 0.897912 13.8433C1.48458 14.56 2.26458 15.27 3.06958 15.9717C3.87458 16.6733 4.70458 17.365 5.34458 17.975C5.98458 18.5833 6.40625 19.18 6.44458 19.3033C6.48291 19.4267 6.47791 20.1717 6.30125 21.0583C6.12625 21.9433 5.84625 23.01 5.58958 24.0717C5.33124 25.135 5.09791 26.1867 5.02624 27.1267C4.98958 27.5967 4.98958 28.0417 5.08124 28.4733C5.17291 28.9067 5.37958 29.3633 5.77791 29.665C6.17624 29.9683 6.65458 30.0317 7.07791 29.9883C7.49791 29.945 7.89958 29.81 8.31625 29.63C9.14958 29.2683 10.0362 28.7067 10.9246 28.1233C11.8112 27.54 12.6962 26.9317 13.4479 26.485C14.1979 26.0367 14.8762 25.8017 14.9996 25.8017C15.1246 25.8017 15.7996 26.0367 16.5529 26.485C17.3046 26.9317 18.1879 27.5383 19.0762 28.1233C19.9629 28.7067 20.8496 29.2683 21.6829 29.63C22.0996 29.81 22.5012 29.9467 22.9229 29.9883C23.3446 30.03 23.8229 29.9683 24.2229 29.665C24.6212 29.3633 24.8279 28.9067 24.9196 28.4733C25.0112 28.0417 25.0096 27.5967 24.9746 27.1267C24.9029 26.1867 24.6679 25.135 24.4112 24.0717C24.1546 23.01 23.8729 21.9433 23.6979 21.0583C23.5229 20.1717 23.5162 19.425 23.5546 19.3033C23.5929 19.18 24.0162 18.5833 24.6546 17.975C25.2946 17.365 26.1262 16.675 26.9312 15.9717C27.7362 15.2717 28.5146 14.56 29.1029 13.8433C29.3962 13.485 29.6462 13.1267 29.8146 12.72C29.9846 12.3133 30.0746 11.8167 29.9229 11.3267C29.7725 10.881 29.4642 10.5058 29.0562 10.2717C28.6796 10.053 28.2715 9.89395 27.8462 9.8C26.9679 9.58 25.9396 9.485 24.8929 9.41167C23.8462 9.34 22.7879 9.29 21.9262 9.19C21.0679 9.09 20.3862 8.86667 20.2862 8.79C20.1862 8.71333 19.7746 8.10667 19.4179 7.28333C19.0612 6.45833 18.6879 5.425 18.2979 4.40833C17.9079 3.39167 17.5079 2.39333 17.0379 1.58833C16.8226 1.19875 16.5508 0.843217 16.2312 0.533333C15.9146 0.24 15.4929 0 14.9996 0Z" fill="#FFCA28"/>
<path d="M15.0013 0C14.7067 0.00445361 14.4187 0.0885347 14.168 0.243333C14.3113 0.328333 14.448 0.426667 14.5646 0.533333C14.8813 0.826667 15.1363 1.18667 15.373 1.58833C15.843 2.39333 16.243 3.39 16.633 4.40833C17.0213 5.425 17.3946 6.45833 17.7513 7.28167C18.108 8.105 18.5213 8.71333 18.6213 8.78833C18.7213 8.865 19.4013 9.08833 20.2613 9.18833C21.1213 9.28833 22.1813 9.33833 23.228 9.41C24.273 9.48333 25.3013 9.57833 26.1796 9.79833C26.618 9.90833 27.0263 10.045 27.3913 10.27C27.7563 10.495 28.1046 10.8367 28.258 11.325C28.408 11.815 28.318 12.315 28.1496 12.7217C27.9683 13.1291 27.728 13.5076 27.4363 13.845C26.8496 14.5617 26.0696 15.2717 25.2646 15.9733C24.4596 16.675 23.6296 17.3667 22.9896 17.975C22.3496 18.585 21.928 19.18 21.8896 19.3033C21.8513 19.4267 21.8563 20.1717 22.033 21.0583C22.208 21.9433 22.488 23.0083 22.7446 24.0717C23.003 25.135 23.2363 26.185 23.308 27.125C23.3446 27.5967 23.3446 28.0417 23.253 28.4733C23.1613 28.9067 22.9546 29.3617 22.5563 29.665C22.4632 29.7354 22.3626 29.7952 22.2563 29.8433C22.478 29.9133 22.698 29.9633 22.923 29.9867C23.3463 30.03 23.8246 29.9667 24.223 29.665C24.623 29.3617 24.828 28.905 24.9196 28.4733C25.0113 28.04 25.0113 27.5967 24.9746 27.125C24.903 26.185 24.6696 25.135 24.4113 24.0717C24.1546 23.01 23.8746 21.9433 23.6996 21.0583C23.5246 20.1717 23.5163 19.4267 23.5563 19.3033C23.5946 19.18 24.0163 18.585 24.6563 17.975C25.2963 17.3667 26.1263 16.675 26.9313 15.9733C27.7363 15.2717 28.5146 14.5617 29.103 13.845C29.3963 13.4867 29.6463 13.1283 29.8163 12.7217C29.9846 12.315 30.0746 11.815 29.923 11.325C29.7725 10.8793 29.4643 10.5041 29.0563 10.27C28.6797 10.0514 28.2715 9.89228 27.8463 9.79833C26.968 9.57833 25.9396 9.48333 24.8946 9.41C23.848 9.33833 22.788 9.29 21.928 9.19C21.068 9.09 20.388 8.865 20.288 8.79C20.188 8.71334 19.7746 8.10667 19.418 7.28167C19.0613 6.45833 18.688 5.425 18.2996 4.40833C17.9096 3.39167 17.5096 2.39333 17.0396 1.58833C16.8239 1.19862 16.5514 0.843085 16.2313 0.533333C15.9146 0.24 15.493 0 15.0013 0Z" fill="#FFC107"/>
</svg>
