<svg width="30" height="30" viewBox="0 0 30 30" fill="none" xmlns="http://www.w3.org/2000/svg">
<path d="M14.9996 0C14.5079 0 14.0862 0.24 13.7696 0.533333C13.4529 0.826667 13.1979 1.18667 12.9629 1.58833C12.4912 2.39333 12.0929 3.39 11.7029 4.40833C11.3129 5.425 10.9396 6.45833 10.5829 7.28333C10.2262 8.10667 9.81291 8.71333 9.71291 8.79C9.61291 8.86667 8.93291 9.09 8.07291 9.19C7.21291 9.29 6.15291 9.34 5.10625 9.41167C4.06124 9.485 3.03291 9.58 2.15458 9.8C1.72878 9.89379 1.32006 10.0529 0.942911 10.2717C0.577911 10.4967 0.229578 10.8383 0.0762448 11.3267C-0.0737552 11.8167 0.0162448 12.3133 0.184578 12.72C0.354578 13.1267 0.604578 13.485 0.897912 13.8433C1.48458 14.56 2.26458 15.27 3.06958 15.9717C3.87458 16.6733 4.70458 17.365 5.34458 17.975C5.98458 18.5833 6.40625 19.18 6.44458 19.3033C6.48291 19.4267 6.47791 20.1717 6.30125 21.0583C6.12625 21.9433 5.84625 23.01 5.58958 24.0717C5.33124 25.135 5.09791 26.1867 5.02624 27.1267C4.98958 27.5967 4.98958 28.0417 5.08124 28.4733C5.17291 28.9067 5.37958 29.3633 5.77791 29.665C6.17624 29.9683 6.65458 30.0317 7.07791 29.9883C7.49791 29.945 7.89958 29.81 8.31625 29.63C9.14958 29.2683 10.0362 28.7067 10.9246 28.1233C11.8112 27.54 12.6962 26.9317 13.4479 26.485C14.1979 26.0367 14.8762 25.8017 14.9996 25.8017C15.1246 25.8017 15.7996 26.0367 16.5529 26.485C17.3046 26.9317 18.1879 27.5383 19.0762 28.1233C19.9629 28.7067 20.8496 29.2683 21.6829 29.63C22.0996 29.81 22.5012 29.9467 22.9229 29.9883C23.3446 30.03 23.8229 29.9683 24.2229 29.665C24.6212 29.3633 24.8279 28.9067 24.9196 28.4733C25.0112 28.0417 25.0096 27.5967 24.9746 27.1267C24.9029 26.1867 24.6679 25.135 24.4112 24.0717C24.1546 23.01 23.8729 21.9433 23.6979 21.0583C23.5229 20.1717 23.5162 19.425 23.5546 19.3033C23.5929 19.18 24.0162 18.5833 24.6546 17.975C25.2946 17.365 26.1262 16.675 26.9312 15.9717C27.7362 15.2717 28.5146 14.56 29.1029 13.8433C29.3962 13.485 29.6462 13.1267 29.8146 12.72C29.9846 12.3133 30.0746 11.8167 29.9229 11.3267C29.7725 10.881 29.4642 10.5058 29.0562 10.2717C28.6796 10.053 28.2715 9.89395 27.8462 9.8C26.9679 9.58 25.9396 9.485 24.8929 9.41167C23.8462 9.34 22.7879 9.29 21.9262 9.19C21.0679 9.09 20.3862 8.86667 20.2862 8.79C20.1862 8.71333 19.7746 8.10667 19.4179 7.28333C19.0612 6.45833 18.6879 5.425 18.2979 4.40833C17.9079 3.39167 17.5079 2.39333 17.0379 1.58833C16.8226 1.19875 16.5508 0.843217 16.2312 0.533333C15.9146 0.24 15.4929 0 14.9996 0Z" fill="#FFCA28"/>
</svg>
