<svg width="270" height="193" viewBox="0 0 270 193" fill="none" xmlns="http://www.w3.org/2000/svg">
<path opacity="0.3" d="M268.886 161.056L267.902 160.084L266.159 157.787L265.551 157.244L262.418 155.41L261.377 154.446L260.581 153.207L260.248 151.685L260.378 150.845L260.755 150.229L261.232 149.678L261.673 149.04L261.782 148.671L261.854 148.301L261.955 147.91L262.187 147.482L262.737 146.757L262.99 146.315L263.113 145.91L262.983 145.134L262.563 144.692L260.805 143.721L260.552 143.475L260.378 143.148L260.277 142.576L260.422 142.351L260.668 142.221L261.261 141.271L261.326 140.967L261.037 140.692L260.646 140.46L260.537 140.235L260.552 139.945L260.472 138.771L260.617 136.017L260.19 134.8L257.76 133.438L257.094 132.206L256.421 127.176V122.98L256.544 122.19L256.87 121.48L258.338 119.85L258.736 119.118L258.939 118.328V117.465L258.7 116.212L258.657 115.784L258.555 115.436L258.324 115.168L257.716 114.813L257.47 114.581L257.159 114.096L256.616 113.364L256.059 112.943L255.43 112.806L254.642 112.878L253.86 112.762L253.274 112.277L252.746 111.661L252.124 111.124L246.271 108.878L241.352 106.45L240.636 106.356L238.227 107.196L237.46 107.211L236.787 107.102L234.66 106.349L234.067 106.327L233.575 106.66L233.09 107.392L233.011 107.74V108.131L232.967 108.515L232.721 108.769L231.361 109.24L231.101 109.458L231.13 110.32L231.571 111.052L231.846 111.74L231.39 112.458L230.819 112.617L227.506 112.501L226.97 112.175L225.928 111.204L225.328 110.871L224.084 110.371L223.49 109.994L222.832 109.284L222.528 108.573L222.203 106.747L221.971 106.109L220.727 104.03L220.597 103.341L220.821 101.406L220.712 100.551L220.329 99.935L219.323 98.8118L218.904 98.1523L218.803 97.3551L219.085 96.5652L219.569 95.855L220.061 95.326L220.843 94.9637H222.499L223.252 94.7172L223.751 94.1737L223.932 93.4925L223.823 92.7533L223.476 91.9996L222.984 91.6591L221.841 90.3981L219.801 88.8255L219.41 88.253L219.193 87.5428L218.882 86.021L218.571 85.3977L217.11 83.9556L216.3 82.5279L216.104 81.267L216.379 79.948L217.457 76.8391L217.544 76.1289L217.5 75.2158L217.131 72.6721L217.16 71.7952L216.184 71.2952L213.001 70.9401L211.778 71.0633L208.009 71.9982L207.163 72.5852L206.895 73.2736L206.823 73.9041L206.584 74.3607L204.616 74.723L201.107 75.9405L200.015 76.0275L198.8 75.6868L198.192 75.3825L197.772 75.2593L197.331 75.339L195.638 76.2376L195.125 76.2738L194.517 76.0709L192.368 75.5999L191.652 75.5564L190.162 75.8753L189.634 75.8898L183.26 74.223L182.682 74.194L182.081 74.3751L181.727 74.6795L181.068 75.5129L180.678 75.7593H180.113L179.238 75.1796L178.717 75.0274L178.341 75.194L177.263 76.3463L176.699 76.4333L176.113 76.4043L174.977 76.1072L174.377 76.1289L173.089 76.7811L172.336 76.8898L171.722 77.1145L171.309 77.7884L170.513 80.1872L169.095 83.2889L168.705 83.3179L168.35 82.8033L168.025 82.0714L167.931 81.6438V81.296L167.815 81.0278L167.099 80.6437L166.571 80.2307L166.281 80.0495L164.791 79.8103L164.075 79.506L163.764 78.8392L163.706 77.8971L163.503 76.7739L163.12 75.8028L162.527 75.3317L161.89 75.426L160.682 76.0854L159.394 76.3536L158.815 76.6579L155.408 79.0639L154.142 79.6074L152.883 79.7524L152.218 79.5494L151.588 79.0639L151.089 78.3537L150.829 77.4696L150.901 76.5492L151.256 75.9985L151.719 75.5274L152.116 74.8607L152.239 73.9621L152.153 72.8098L151.842 71.788L151.292 71.3025L150.612 71.317L147.096 72.0634L145.425 71.9837L143.992 71.3242L143.276 69.7734L143.565 69.0776L144.441 67.7804L144.629 67.1137L144.419 66.389L143.92 65.7223L143.305 65.1933L142.148 64.4759L141.518 64.5411L140.332 65.1063L139.355 65.2875L139.022 65.4107L138.784 65.5774L138.306 66.0919L138.053 66.2948L136.859 66.9398L136.382 67.3167L135.282 68.5776L134.906 68.853H134.479L132.511 68.4762L131.036 68.5559L129.603 68.9472L128.467 69.6936L127.751 70.9401L127.245 72.3967L126.615 73.6215L125.509 74.194L124.561 73.9403L123.714 73.3896L122.962 73.0417L122.311 73.3461L121.891 73.8316L121.609 73.9403L121.305 73.8969L120.785 73.9113L120.365 74.0345L119.316 74.6288L118.368 74.7665L117.319 74.5853L116.408 74.049L115.887 73.1287L115.901 72.5779L116.061 71.9837L116.147 71.3604L115.952 70.7517L115.619 70.4401L114.809 70.0995L114.433 69.7951L113.746 67.621L113.268 66.6789L112.429 66.0412L111.821 65.9615L110.555 66.1861L109.947 66.1282L109.521 65.8673L108.739 65.1861L108.269 64.9904L107.669 65.0629L106.547 65.4904L105.976 65.6064L105.643 65.7296L105.433 65.9615L105.26 66.2079L105.05 66.3456H104.703L103.979 66.1209L103.625 66.0847L103.183 66.2514L100.102 68.5124L99.4866 68.6573L98.8862 68.4399L98.8283 67.8094L99.1973 66.2079V65.4469L99.0309 64.6135L98.6981 64.1715L98.1627 64.5846L97.2006 66.6644L96.9112 67.0847L96.3397 67.2732L95.7827 67.0703L94.6252 66.3963L93.9162 66.2369L93.1566 66.2224L92.4404 66.447L91.8544 66.9688L91.3191 67.737L91.0297 67.9689L89.9952 67.4978L88.5845 67.3456L85.915 67.8964L84.5767 67.4833L83.137 66.6644L81.7697 66.2079L80.359 66.0412L77.3496 66.2296L76.7491 66.4615L75.5916 67.4761L75.0056 67.8312L74.3762 68.0558L73.7324 68.15H72.9728L71.4825 68.3964L70.7663 68.15L69.9344 67.2804L69.739 67.1427L69.4135 67.2949L69.2905 67.5775L69.2037 67.9254L68.9939 68.2515L67.6338 68.8023L67.1419 67.7297L67.3083 62.4032L67.1853 61.5626L66.9321 60.8162L66.4402 60.2147L65.8325 59.6856L65.3188 59.0914L65.0729 58.2725L65.1814 56.5042L65.5648 54.7795L67.1419 49.9893L67.8075 48.5109L67.9594 48.0543V47.7789L68.0968 47.6775L68.5743 47.7789L69.5871 48.9167L71.251 51.7575L74.5788 50.569L74.5354 49.9748L73.7396 48.5181L73.7686 48.2138L73.7396 47.9094L73.66 47.634L73.5226 47.3659L73.2477 45.9455L73.4719 44.786L74.0218 43.7642L74.738 42.7206L74.832 42.4307L74.9839 41.6481L75.1358 41.4524L75.418 41.5393L75.7797 42.2278L76.004 42.4452L76.5465 42.5032L77.1253 42.409L90.7258 37.5463L91.934 37.6767L96.8533 40.9089L97.5985 41.1553L99.313 41.0466L100.109 41.1045L100.868 41.4814L101.36 42.0321L101.787 42.6554L102.337 43.2641L102.959 43.5902L104.174 43.7497L105.491 44.3222L108.247 44.7425L109.101 45.0179L109.904 45.5686L110.259 46.373L109.745 47.3659L109.195 47.7572L108.624 48.0543L108.096 48.4239L107.647 49.0617L107.321 49.895L107.22 50.6705L107.481 51.272L108.226 51.5401L108.522 51.1488L108.804 50.1632L109.036 49.7646L109.441 49.5617L110.91 49.5182L111.655 49.2428L112.349 48.808L112.95 48.1848L113.413 47.3731L113.709 45.815L113.666 44.4236L113.825 43.2786L114.737 42.409L116.943 41.6625L117.413 41.3727L118.759 40.2277L118.976 39.9378L119.092 39.8363L119.28 39.8073L119.453 39.9015L119.569 40.0102L119.591 40.0755L120.22 39.7421L120.459 39.5392L120.922 39.3725L122.767 39.7856L123.83 39.4232L124.988 38.5681L125.559 37.4666L124.85 36.3723L124.134 36.3071L121.074 36.5825L116.155 38.1043L114.679 38.2275L113.225 38.1333L111.828 37.1332L111.214 35.22L110.75 33.1184L109.832 31.6256L109.072 31.2995L108.414 31.3719L107.763 31.5676L107.01 31.6401L106.287 31.4299L104.565 30.6617L105.035 29.0891L104.941 28.8935L104.645 28.5456L104.587 28.4876L104.131 27.8282L104.073 27.705L104.015 27.4876L103.965 26.5382L104.514 25.6541L105.535 24.9946L107.907 24.4366L108.24 24.2989L108.587 23.8424L109.419 22.4292L109.882 21.9582L110.367 21.748L110.873 21.6031L111.394 21.3494L111.836 20.9798L113.044 19.4797L115.142 17.755L115.663 17.2839L116.155 16.8853L116.444 16.7476L117.015 16.6099L117.131 16.436L117.189 16.2259L117.312 16.0374L117.847 15.7041L117.927 15.3127L118.231 13.7764L116.907 13.0082L113.753 12.269L113.21 11.5733L113.123 10.7979L113.449 10.2254L114.136 10.1457L115.337 11.1892L116.017 11.4501L116.082 10.6022L115.793 10.2109L109.492 3.07994L108.407 2.12334L108.298 1.98565L108.211 1.83347L107.119 0.644976L105.578 0L104.283 0.340606L103.328 5.1598L101.418 7.3991L98.9151 8.91372L95.3341 10.3269L92.0714 12.8488L85.7125 14.8489L84.9456 15.2258L84.2583 15.8055L82.8115 17.6462L81.9868 18.3854L81.0608 18.6681L79.9973 18.2767L79.5705 17.8782L79.216 17.3999L78.5794 16.3201L78.196 15.8635L77.3279 15.2838L76.9155 14.9214L75.5771 12.827L74.7958 12.0951L73.6962 11.9864L73.1536 11.6531L72.7268 11.1965L72.2638 10.8196L71.6417 10.7544L70.5203 11.124L69.9705 11.4284L69.4786 11.8415L68.596 12.9792L68.0679 14.1677L67.8292 15.5301L67.8075 17.1969L68.0462 19.6102L67.9088 20.2262L67.4096 20.5305L65.3188 20.7044L64.0818 21.5523L64.0673 22.4944L65.4563 24.8352L66.1942 27.3861L66.527 28.1905L67.424 29.8138L67.8002 30.669L68.0173 31.669L67.7568 33.8866L66.65 34.075L65.3188 33.5677L64.4146 33.6837L64.5592 35.0171L67.0696 37.2782V38.3435L65.7674 38.9449L64.0528 38.887L60.9493 37.9521L58.6705 36.8071L57.8819 36.6694L52.2681 37.5463L51.5808 37.8289L50.3799 38.5246L49.5697 38.6333L47.573 38.2855L46.8062 38.3507L43.4784 39.2276L42.7622 39.7349L43.6592 40.7205L45.2001 41.6843L46.4228 42.1553L54.8291 40.5103L56.4351 41.6698L56.6593 42.3003L56.7679 42.9887L56.7172 43.6482L56.4278 44.199L55.6465 44.3222L53.129 43.9236L52.4345 44.1555L51.2119 45.228L50.7634 45.373L49.9821 43.9598L49.4395 43.525L48.9909 44.3512L49.0633 44.7497L49.6782 45.2425L49.794 45.5831L49.7216 46.5035L49.7723 46.9311L49.9459 47.3876L52.9843 51.5836L53.1 52.5764L51.6387 53.1924L50.8429 51.9677L50.3148 50.0327L49.6059 48.4819L48.8897 47.9819L48.6509 48.337L48.7739 49.1848L49.1067 50.1559L49.8735 51.7937V52.4242L49.4467 53.2866L49.3165 53.3808L48.9548 53.4388L48.839 53.5185L48.5931 54.1852V54.2505V54.4679L48.5207 54.9172L48.2892 55.2143L47.8262 54.9751L46.9002 53.4678L46.3359 53.0402L45.164 54.091L44.7082 53.8953L44.3031 53.8664L43.9486 54.8375L43.6014 62.0554L43.4133 63.1279L42.9503 64.0121L42.1183 64.8889L40.6425 65.831L40.1795 66.4977L40.5485 67.3456L39.8612 67.6645L37.7416 68.2298L36.027 68.3892L34.3342 68.266L31.5128 67.2514L26.3547 67.092L14.5627 64.0265L12.9422 63.9976L11.6545 64.4106L8.44247 66.7152L5.68619 67.15L4.99892 67.8167L5.23765 69.7951L5.12191 69.9545L4.97722 70.085L4.81806 70.1792L4.64444 70.2082L3.75462 70.085L3.22651 70.1574L2.91544 70.5633L2.48137 72.2808L2.24988 74.078L2.22094 75.7158L1.77964 77.2232L1.5192 78.7016L1.29494 78.7813L0.983871 78.6798L0.614912 78.803L0.289369 79.0929L0.122982 79.2886L0.0506346 79.6002L0 80.2307L0.253195 81.9989L1.22261 82.9048L5.39681 84.3976L8.20374 84.5063L9.5638 85.0499L9.70848 85.2238L9.98339 85.7166L10.1715 85.9267L10.4102 85.963L10.9817 85.8398L11.206 85.9195L11.5171 86.4485L11.5822 87.0645L11.1915 90.5068L11.3651 91.5938L12.0018 92.2243L16.4147 92.9418L17.3407 92.9273L19.9595 92.0432L19.9668 92.0359L20.4225 91.804L20.9072 91.6808H21.4064L21.9852 91.8765L22.2601 92.0359L22.7954 92.5504L23.3597 92.6664L23.9312 92.4562L24.5027 92.0286L24.7776 91.9562L25.0598 91.9344L25.3419 91.9562L25.6096 92.0286H25.624V92.0359L26.1521 92.6809L27.3169 95.268L28.3152 96.7464L28.6625 97.6305L28.619 98.6016L28.3152 99.3553L27.8884 99.9495L27.3603 100.413L26.7815 100.761L25.9713 100.921L25.3636 100.892L24.9802 101.138L24.8572 102.109L24.9657 102.551L25.1683 102.943L25.3202 103.348L25.2912 103.856L25.1104 104.109L24.235 104.732L23.9674 105.385L24.0614 106.204L24.5244 107.863L24.604 108.74L24.4882 111.276L24.5823 112.24L24.8427 112.813L25.6819 114.096L25.8772 114.755L25.9423 116.168L26.0581 116.806L26.3836 117.422L27.7292 118.719L29.0097 121.06L29.6029 121.654L31.3898 122.669L34.1316 125.118L34.9636 126.437L35.1155 128.14L34.5512 130.691L33.6976 133.126L32.352 135.17L31.9324 136.01L31.6719 136.757L31.5128 137.416L31.2523 137.967L30.717 138.358L30.1817 138.532L28.5756 138.75L27.505 139.097L26.89 139.742L25.4215 144.177L24.4087 146.185L21.8911 149.692L20.0319 151.468L18.2522 153.751L16.7764 156.28L15.807 158.947L15.6768 160.78L16.3641 164.201L16.4871 166.034L16.3062 167.6L15.9083 169.056L15.2572 170.346L15.0981 170.969L14.8015 173.752L14.8376 174.39L15.2645 174.962L16.053 175.535L16.9066 175.977L18.4693 176.361L18.9467 176.89L19.3085 177.658L19.8583 178.55L20.2344 178.876L21.0519 179.296L21.3558 179.586L22.5422 181.064L22.7375 181.412L22.8822 181.789L23.0558 182.122L23.3669 182.333L23.801 182.362L24.2133 182.18L24.5678 181.963L26.8539 179.999L27.2807 179.709L27.9245 179.441L28.4744 178.869L29.1037 178.339L30.008 178.224L31.4332 178.695H32.2651L32.6269 178.071L32.3954 176.267L32.3664 175.404L32.6269 174.68L33.278 174.209L33.9508 174.252L34.6236 174.52L35.3036 174.68L36.2079 174.593L36.8879 174.245L37.1122 173.607L36.6202 172.593L38.7616 172.44L40.4038 172.064L40.7655 172.042L41.0766 171.846L41.5541 171.035L41.7204 170.839L42.4077 170.752L43.6954 170.353L44.3176 170.252L44.4478 169.933L44.6431 169.237L45.0555 168.614L45.844 168.484L45.6414 167.962L45.5402 167.781L45.3665 167.607L45.7572 167.143L46.3794 167.121L47.7249 167.324L48.4339 167.23L48.8824 167.273L49.2875 167.469L50.5753 168.281L50.9804 168.324L51.1251 167.904L51.0383 166.976L50.6259 165.672L50.7489 165.194L51.5085 164.925L52.2319 165.121L52.6226 165.672L52.9337 166.36L53.3967 166.984L53.8958 167.201L54.2793 167.107L54.4601 166.715L54.3444 166.099L54.178 165.904L53.6209 165.483L53.3967 165.201L53.2158 164.694L53.3099 164.556L53.5052 164.599L53.6209 164.643L55.9793 164.933L56.6666 165.331L57.3611 165.969L57.8964 166.723L58.4028 168.31L59.0901 168.926L59.8786 169.433L60.5008 169.962L61.1157 171.498L61.4413 171.853L62.2009 172.383L62.3817 172.469L65.6516 174.673L66.3461 174.615L67.0334 174.281L67.9522 174.086L68.3645 173.933L68.7335 173.6L69.2905 172.948L70.6795 172.056L71.251 171.506L72.4447 169.498L72.5532 168.947L71.9166 168.81L71.3306 168.549L71.6127 167.6L71.3306 167.201L71.1063 165.723L70.8097 165.07L70.6361 164.78L70.5276 164.404L70.4769 164.012L70.4625 163.592L70.5059 163.476L70.5999 163.433L70.6795 163.375V163.15L70.5927 162.947L70.2744 162.86L70.2093 162.708L70.1876 161.048L70.2599 160.251L70.4697 159.548L70.6433 159.331L71.1425 158.968L71.4102 158.729L71.5404 158.512L71.7574 157.983L71.8804 157.787L73.4141 156.664L74.1592 155.932L74.7524 154.099L75.4469 153.787L80.1565 154.229L80.9306 154.077L82.3847 153.439L83.2383 153.33L83.5132 153.374L84.2873 153.591L84.5405 153.787L84.9022 153.983L85.2639 153.787L85.6184 153.483L85.9657 153.33L86.6674 153.135L88.1143 152.403L88.9245 152.446L89.496 152.925L89.8143 153.635L90.1905 154.258L90.9212 154.519L91.3697 154.613L91.5506 154.83L91.6808 155.113L91.9991 155.403L92.3174 155.541L93.3881 155.736L93.1711 155.403L94.126 155.555L95.1533 155.932L96.1878 156.128L97.1861 155.736L98.387 154.229L98.6185 154.077L98.7053 153.7L99.2045 152.446L99.2768 152.417L99.9424 152.403L100.051 152.446L100.232 152.265L100.304 152.171L100.499 151.845L100.543 151.562L100.492 151.156V150.801L100.63 150.649L100.796 150.548L101.237 149.91L101.302 149.359L101.425 148.997L101.512 148.634L101.469 147.989L101.122 146.714L101.042 146.112L101.237 145.612L100.905 145.301L100.586 144.837L100.362 144.272L100.268 143.656L100.029 143.272L98.8934 142.924L98.4955 142.743L97.9095 141.844L97.4321 140.561L97.2657 139.213L97.6636 138.112L98.3581 138.684L99.1394 138.844L99.9496 138.713L100.76 138.402L100.492 138.047L100.369 137.699V137.322L100.499 136.923L100.738 136.793L101.151 136.706L101.534 136.546L101.7 136.148L101.874 135.93L102.713 135.488L102.995 135.264L104.543 133.213L106.07 131.626L106.432 131.358L107.611 130.85L107.965 130.481L108.392 129.763L109.289 127.328L110.302 125.343L110.628 124.256L111.047 124.024L111.525 123.893L111.865 123.712L112.335 122.212V121.842L112.299 121.4V120.958L112.451 120.553L112.776 120.379L113.565 120.422L113.883 120.241L115.106 119.313L115.38 118.813L114.693 118.277V117.987L115.33 117.574L117.348 117.378L117.782 116.617L118.021 116.313L118.578 116.175H119.67L119.982 116.255L120.539 116.422L120.842 116.451L121.081 116.335L121.211 116.139L121.407 115.929L121.812 115.871L123.237 116.559L124.062 116.784L124.431 116.32L124.315 115.335L124.568 115.023L125.371 115.001L125.812 115.11L126.21 115.342L126.572 115.668L126.919 116.038L127.122 116.386L127.411 117.183L127.635 117.552L127.99 117.842L128.243 117.828L128.511 117.712L128.923 117.69L129.35 117.791L130.312 118.277L131.643 119.27L133.777 121.473L136.62 122.669L137.807 123.459L138.624 124.734L138.841 126.705L138.653 127.698L138.031 129.589L137.807 130.872L137.17 132.104L136.7 133.887L135.673 135.822L135.441 136.945L135.094 137.916L135.051 138.38L135.181 138.952L135.362 139.039L135.629 138.952L135.991 139.018L137.301 140.076L138.038 140.387L138.726 140.018L139.355 139.547L143.565 138.097L144.803 138.163L145.852 138.894L146.9 140.17L146.64 140.474L146.749 141.011L146.806 141.96L146.778 143.003L146.64 143.793L146.105 144.569L144.831 145.38L144.549 146.17L144.6 146.576L144.911 147.504L144.991 147.982L144.933 148.402L144.542 149.772L144.376 151.098L144.289 151.54L144.123 151.924L143.703 152.497L143.58 152.736L143.428 154.628L143.913 158.142L143.573 159.889L143.182 160.853L143.074 161.469L143.334 163.15L143.399 164.983L143.305 165.882L143.095 166.411L143.074 167.629L141.8 169.81L141.923 170.853L141.685 171.252L141.482 171.911L141.214 173.672L141.142 176.281L141.214 176.803L141.417 177.267L142.017 178.195L142.14 178.695V180.463L142.249 181.412L142.553 182.18L144.506 185.362L144.86 186.224L145.092 188.217L145.352 189.101L145.736 189.913L146.199 190.667L147.363 191.877L148.81 192.652L150.431 193H152.102L153.795 192.688L155.14 192.116L165.153 184.659L166.057 183.673L167.229 182.985L167.54 182.651L168.039 181.905L168.386 181.528L169.747 180.586L173.241 179.173L174.796 178.84L177.176 179.282L178.341 178.687L183.485 177.934L183.788 177.513L183.998 176.673L185.438 174.426L187.044 171.071L188.071 169.665L189.453 168.817L191.073 168.513L191.927 168.208L192.694 167.295L195.154 165.795L197.635 165.556L198.337 165.078L198.735 164.476L199.328 163.222L199.87 162.556L201.187 161.519L201.491 161.418L202.236 161.708L202.612 161.527L204.298 159.722L204.84 159.302L205.542 159.055L206.403 158.968L207.228 159.077L207.806 159.425L208.371 159.606L210.519 158.41L212.06 158.367L216.198 159.896L218.593 160.534L220.09 160.505L221.32 160.642L221.096 161.744L221.052 162.099V163.925L220.821 164.549L220.242 165.23L219.649 165.73L219.143 165.976L217.812 166.114L217.088 166.375L216.365 167.013L215.931 167.853L216.075 168.759L216.632 169.107L218.086 168.65L218.795 168.687L219.056 168.933L219.555 169.621L219.794 169.795L220.163 169.781L220.72 169.339L221.067 169.223L221.841 169.288L222.369 169.419L222.861 169.303L224.178 168.071L224.872 167.875L226.348 167.694L228.294 166.773L229.018 166.643L231.622 165.672L235.456 164.896L236.302 164.549L236.939 163.795L236.997 162.317L237.554 161.744L238.466 161.722L239.471 161.99L240.318 161.874L240.723 160.708L240.904 161.287L241.301 160.998L241.692 160.983L242.032 161.193L242.531 162.034L242.878 162.15L243.269 162.164L244.268 162.346L244.875 162.208L245.526 162.164L246.279 162.476L247.523 162.867L247.812 162.933H248.116L251.618 162.693L252.616 162.143L257.043 164.846L258.02 165.911L259.597 168.6L260.429 169.085H260.465L261.326 168.839L261.702 168.121L262.021 167.375L262.657 166.998L263.489 166.875L266.701 165.672L266.998 165.15L267.085 163.541L267.504 162.788L268.314 162.389L270 161.838L268.908 161.063L268.886 161.056ZM111.119 2.06537L111.691 2.65962L112.704 4.02929L113.283 4.5873L113.97 4.73948L113.912 3.96407L113.463 2.85529L112.986 2.07986L112.183 1.36241L111.235 0.949345L110.678 1.09428L111.083 2.03638L111.127 2.06537H111.119ZM114.31 53.8446L113.094 53.8011L108.913 52.4025L108.399 52.388L108.363 53.0764L108.616 53.8229L109.079 54.4823L110.251 55.294L110.591 55.7288L111.582 57.4174L111.778 57.5695L113.55 56.1419L114.541 55.6419L115.677 55.4172L116.032 55.0911L116.082 54.2867L115.822 53.4605L115.395 53.3518L114.303 53.8519L114.31 53.8446Z" fill="#B4A297"/>
</svg>
