<svg xmlns="http://www.w3.org/2000/svg" width="48" height="48" fill="none"><rect width="47" height="47" x=".5" y=".5" stroke="#fff" rx="23.5"/><path fill="#fff" d="M13.354 23.15s9.765-4.113 13.152-5.561c1.298-.58 5.701-2.433 5.701-2.433s2.032-.811 1.863 1.158c-.056.811-.508 3.65-.96 6.72-.677 4.345-1.41 9.095-1.41 9.095s-.114 1.333-1.073 1.565c-.96.231-2.54-.812-2.823-1.043-.226-.174-4.233-2.78-5.7-4.055-.396-.348-.848-1.043.056-1.854a218.105 218.105 0 0 0 5.927-5.793c.677-.695 1.354-2.318-1.468-.348-4.008 2.839-7.96 5.504-7.96 5.504s-.902.579-2.596.058c-1.693-.522-3.669-1.217-3.669-1.217s-1.355-.869.96-1.796Z"/></svg>