<svg width="23" height="19" viewBox="0 0 23 19" fill="none" xmlns="http://www.w3.org/2000/svg">
<path d="M1.35369 8.15985C1.35369 8.15985 11.1191 4.04681 14.506 2.59851C15.8043 2.01923 20.2072 0.165396 20.2072 0.165396C20.2072 0.165396 22.2393 -0.645587 22.07 1.32402C22.0135 2.13509 21.5619 4.97365 21.1104 8.044C20.433 12.3888 19.6992 17.1391 19.6992 17.1391C19.6992 17.1391 19.5863 18.4716 18.6267 18.7033C17.6671 18.935 16.0865 17.8923 15.8043 17.6605C15.5784 17.4868 11.5707 14.8798 10.1031 13.6053C9.70792 13.2578 9.25636 12.5627 10.1595 11.7516C12.1916 9.83986 14.6189 7.46472 16.0865 5.95853C16.7639 5.26332 17.4412 3.64128 14.6188 5.61089C10.6111 8.44953 6.65977 11.1143 6.65977 11.1143C6.65977 11.1143 5.75658 11.6936 4.06317 11.1722C2.36969 10.6509 0.394016 9.95572 0.394016 9.95572C0.394016 9.95572 -0.960648 9.08677 1.35369 8.15985Z" fill="white"/>
</svg>
