<svg width="280" height="193" viewBox="0 0 280 193" fill="none" xmlns="http://www.w3.org/2000/svg">
<path opacity="0.3" d="M20.425 84.3667L20.6472 85.1712L20.7542 85.3682H21.0422L21.3549 85.1794L21.6018 84.8839L21.7087 84.5801L21.3055 83.9644L21.2726 83.8249L21.1903 83.2666L21.108 83.4144L21.0093 83.398L20.9023 83.2831L20.7788 83.1025L20.5402 83.2256L20.318 83.439L20.2028 83.7264L20.3098 84.063L20.4497 84.3749L20.425 84.3667ZM12.6154 101.664L12.3768 99.5703L12.1134 97.5508L12.2122 96.5328L12.78 96.1224V95.9992L12.7553 95.9254L12.6566 95.7612L12.1875 95.8433L11.8501 96.1798L11.6444 96.6724L11.5786 97.2224L11.6197 97.8053L11.809 98.971L11.8501 99.6442L11.8172 100.309L11.8501 100.572L11.9818 100.949L12.2945 101.623L12.8705 103.782L12.9199 104.381H13.068L12.994 104.159V104.02L13.068 103.708L12.6237 101.647L12.6154 101.664ZM279.646 123.402L278.98 122.926L278.264 122.589L277.515 122.384H276.009L275.392 122.187L273.392 121.259L272.47 120.102L271.894 119.552L271.252 119.256L269.977 118.895L268.751 117.918L268.199 117.631L266.899 117.425L264.916 116.465L264.249 116.416L263.69 116.637L262.735 117.409L262.225 117.68L260.875 117.795L259.542 117.352L256.3 115.168L254.341 113.854L251.683 112.048L249.815 110.374L247.19 107.985L245.865 107.156L242.96 106.129L240.426 104.676L236.27 101.187L234.558 98.971L234.089 98.6837L233.488 98.7575L231.966 99.521L231.456 99.6195L230.871 99.521L230.279 99.2091L227.111 96.9515L224.354 94.9895L222.173 93.4215L220.972 92.1983L218.857 89.2512L217.606 88.0609L214.866 86.1235L208.364 81.5099L205.163 79.2277L202.472 77.3149L200.16 75.6649L199.024 74.5238L198.81 74.4006L197.403 72.6274L197.189 71.9461L196.843 70.5094L196.786 69.9266L196.868 69.3766L197.033 68.9086L197.14 68.4489L197.057 67.9071L196.457 66.5936L196.374 66.0764L196.358 65.3951L196.284 64.8861L196.119 64.4182L195.617 63.4002L195.494 62.9241L195.436 61.8404L195.247 61.6106L193.618 60.6747L192.68 60.3956L192.252 60.0672L192.12 59.8456L191.964 59.2545L191.848 59.0082L191.116 58.0313L190.853 57.4895L190.449 55.9051L190.227 55.5439L189.577 54.8379L189.363 54.4931L189.207 53.9431L188.976 52.761L188.359 50.5937L188.137 50.0848L188.285 49.8877L188.186 49.5101L188.137 47.6794L188.071 47.1458L187.907 46.719L186.458 44.2972L186.071 43.8786L181.661 40.6359L179.941 39.8971L178.023 39.3881L177.299 39.3142L176.855 39.5276L176.583 40.0695L176.394 40.9889L175.908 41.268L175.53 42.0889L174.978 42.6964L174.295 43.0412L173.538 43.0658L172.74 42.7375L170.716 41.3008L170.362 41.2844L169.201 41.4815L169.094 41.2516L169.029 41.0217L168.955 40.9643L168.576 41.6128L168.453 41.7524L168.321 41.8673L167.383 40.8904L166.009 40.562L162.034 40.8001L159.656 41.5964L158.471 41.6292L157.788 41.4322L157.22 41.0299L156.15 39.9545L154.957 39.0843L153.064 38.1156L150.908 37.0074L150.357 36.4574L150.217 35.8417L150.463 33.7483L150.62 33.2968L150.883 32.9356L151.221 32.6401L152.035 32.2296L152.307 31.9012L152.126 31.4251L150.817 29.5698L150.208 28.4041L150.027 27.4928L150.538 26.7622L151.081 26.3928L151.698 26.3353L152.439 26.5652L153.122 27.0003L153.508 27.1727L153.821 27.1316L154.051 26.7868L154.019 26.4174L153.829 26.0562L153.591 25.7525L153.311 25.5144L152.381 24.9644L152.085 24.6524L151.41 23.6263L150.826 23.1255L148.752 22.3456L147.731 22.3785L147.452 22.2553L147.238 21.8777L147.271 21.5329L147.493 21.2702L147.838 21.1635H147.855L149.023 20.712L148.966 19.6694L148.579 18.3723L148.76 17.1492L149.081 16.9111L149.484 16.7387L149.813 16.5006L149.879 16.0573L149.641 15.7125L149.188 15.4416L148.316 15.0969L147.624 14.4729L147.073 13.6192L146.456 12.9378L145.559 12.8393L144.678 12.946L142.967 12.79L138.803 13.4304L137.782 13.4057L137.288 13.2169L136.498 12.3714L136.038 12.2154L135.034 12.1005L134.466 11.7967L134.202 11.3206L133.964 9.29289L133.775 8.78392L133.495 8.34061L132.244 7.03534L131.767 6.73981L131.265 6.79728L130.689 7.07639L130.121 7.23237L129.545 7.2652L128.664 7.10922L127.273 6.48532L125.957 5.27035L121.711 0.279112L121.233 0L120.871 0.607478L120.608 2.87325L120.188 3.65312L119.373 3.8994L118.361 3.83373L117.349 3.60387L115.218 2.74189H114.74L114.37 2.8404L113.325 3.48072L112.584 3.8091L112.222 4.08001L112.041 4.46583L112.148 4.97482L112.518 5.3114L114.987 6.4689L115.678 7.01071L116.287 7.94657L116.814 9.18617L118.279 11.5586L119.077 12.5027L119.299 12.708L119.39 12.9378L119.324 13.1512L119.077 13.299L117.81 13.4878L117.489 13.4057L117.258 13.0445V12.6341L117.374 12.1826L117.44 11.6982L117.234 10.7541L116.724 10.0728L116.057 9.58022L114.098 8.65257L113.662 8.57047L113.308 8.63615L112.592 8.9399L112.272 8.97273L111.959 8.78392L111.506 8.11075L111.218 7.83164L110.84 7.70029H110.395L109.959 7.77418L109.597 7.93836L109.383 8.20106L109.21 8.51301L108.708 9.08766L108.173 9.32573L107.844 9.60485L107.959 10.3108L108.379 11.2139L108.412 11.6325L108.239 12.2482L107.433 14.0871L107.153 14.3991L106.396 14.6453L106.231 14.9983L106.371 15.417L106.626 15.6961L106.692 15.9506L106.256 16.2626L105.877 16.3447L104.528 16.2872L104.149 16.3775L103.055 16.9111L102.141 17.0917L99.3516 16.6074L97.4589 16.6812L95.6074 17.576L94.0273 19.1358L92.9411 21.1635L92.2004 22.2635L91.3857 22.8792L89.493 23.7658L88.9417 24.5293V25.5473L89.3696 27.6242L89.3202 28.6093L89.1638 29.4549L89.1392 30.2758L89.493 31.2199L89.9292 31.9341L90.1596 32.6154L90.2337 33.3707L90.2172 34.2983L90.3077 35.0207L90.5711 35.7432L90.9496 36.3917L91.3775 36.8761L91.6573 37.0731L91.9618 37.2208L92.9493 37.4671L93.0974 37.5821L93.0563 37.7544L92.8341 38.0171L92.4144 38.3127L91.4927 38.7724L91.106 39.2239L90.497 40.3239L90.1184 40.5456L87.7073 40.0448L85.8475 39.6508L81.4448 39.4127L76.6472 39.15L72.9769 38.953L69.7757 38.7806L68.4262 38.6492L67.7678 38.7149L66.0068 39.5687L64.1716 39.8314L63.0113 40.2829L60.5261 40.4307L59.9171 40.2254L59.3658 39.9135L58.9543 39.6015L58.6251 39.1582L58.0738 37.8365L57.8351 37.3932L57.5224 37.0402L56.288 36.1947L55.5968 35.5872L54.9878 34.8566L53.737 32.6401L52.4614 30.3661L51.5644 29.1593L49.5154 26.3928L49.3096 25.9167L49.2027 25.3913L49.2356 24.8248L49.3179 24.3651V23.9218L49.1286 23.4046L48.6595 22.7971L45.3349 19.7351L42.9978 18.1753L41.0146 16.8536L37.6982 14.6453L34.6369 12.6012L33.205 12.0841L31.7155 11.8788L26.9919 12.7326L23.9718 13.2744L20.499 13.9065L19.1988 14.1856L14.8456 15.9178L13.7346 16.5827L10.6486 17.6746L6.42704 21.1799L3.81014 23.7987L0.798238 26.7951L0 27.6324L0.24688 28.0018L0.724177 28.1414L0.896997 28.2235L1.20148 28.5929L1.51419 28.7325L1.62116 28.8638L1.81043 29.1429L1.95034 29.225L2.27128 29.1757L2.4194 29.225L2.5593 29.381L2.66628 29.5862L2.83086 30.1116L2.87201 30.1609L2.96253 30.2183L3.05305 30.325L3.11065 30.4728V30.637L2.97899 30.9161L2.94607 31.0967L2.97076 31.6714L2.95431 31.9669L2.88024 32.1803L2.47701 32.9274L2.41117 32.9849L2.44409 33.6252L2.70743 33.9125L3.06952 34.0685L3.42337 34.3394L4.09817 35.2342L4.28744 35.3573L4.81411 35.4394L5.03631 35.5872L5.36547 35.9073L5.47245 36.0633L5.51359 36.3014L5.53829 36.6462L5.62057 36.9007L5.78516 37.0567L6.04027 37.1059L6.35298 37.3276L6.66569 38.3209L6.91257 38.5425L6.95371 38.797L7.38987 40.3239V40.5866L7.34048 41.0792L7.38987 41.3912L7.45569 41.4897L7.71081 41.7852L7.80133 41.9165L7.99883 42.4009L8.1305 42.9017L8.20456 43.4435V44.0509L8.0482 44.8472L8.08112 45.1346L8.18809 45.3234L8.50081 45.5943L8.60779 45.8406H8.73946L8.75591 45.2659L9.16738 44.5025L9.27436 43.9606L9.15915 43.5091L8.12227 41.3419L7.97414 40.9068L7.85071 39.2649L7.66142 38.1813L7.41456 37.5328L7.37341 37.2701L7.42278 37.0238L7.66142 36.2768L7.76018 35.7432L9.0604 32.3774L9.13447 31.7863L9.118 31.4908L9.02748 30.9736L9.00279 30.7109L9.07685 30.4236L9.38134 29.89L9.40603 29.537L9.15093 29.1265L8.69008 28.9131L7.71081 28.8145L7.40632 29.0116L6.79736 29.8161L6.55871 29.8817L6.49287 29.4877L6.58339 28.8145L6.74798 28.1742L6.89611 27.8951L7.1759 27.6735L7.52153 27.1481L9.80103 22.1322L10.2619 21.3687L12.2369 19.7926L12.7142 19.2507L13.4548 18.5776L14.2777 18.2164L15.3805 18.7992L16.8946 18.8649L17.2896 18.7746L18.4417 18.1589L24.4902 17.141L25.3296 17.6089L26.1855 17.3462L27.1894 17.6581L28.1111 18.2574L28.7201 18.8567L28.9258 19.2754L29.0492 19.7926L29.1068 20.3179L29.1233 20.753L29.0822 21.0568L28.8435 21.6725L28.8682 21.9762L28.9752 22.5016L28.9916 22.674L28.9258 22.9531L28.827 23.1912L28.7694 23.4375L28.8517 23.7494L28.9999 23.8561L29.2303 23.9054L29.436 23.9957L29.5265 24.2009L29.6746 24.6771L30.6128 26.2861L30.9337 27.1316L31.1559 28.0018L31.2711 28.9541V31.2199L31.3699 32.246L31.5921 33.1573L31.9788 33.9864L32.2339 34.3722L32.5384 34.717L32.917 34.9633L33.6329 35.111L33.7893 35.2588L34.2254 35.9073L34.4476 36.3424L34.5381 36.482L34.9414 36.7775L35.863 37.2947L36.5872 38.0418L36.9246 38.2798L38.6692 39.0433L42.611 42.0889L43.294 42.8606L43.3187 43.6405L43.7713 43.8539L44.3474 43.9442L44.8905 44.1002L45.2197 44.5435L45.1539 44.4778L45.0551 44.5517L44.9728 44.7077L44.9399 44.8883L44.9728 45.0114L45.0469 45.151L45.2197 45.4219L45.3843 45.6025L45.7793 45.9227L45.9027 46.1525L45.0551 45.5615L44.586 45.3316L44.1499 45.2659V45.4301L44.3885 45.5697L45.0222 46.5876L45.5077 47.2197L45.697 47.5892L45.7711 48.016L45.697 48.4511L45.5077 48.8616L44.7671 50.093L44.5778 50.249L43.7467 50.6923L43.3928 51.2997L43.0883 51.3572L42.4217 51.6117L40.1422 52.0468L39.4098 51.8662L39.7719 51.3818L40.0188 50.9714L39.9612 50.5937L39.4098 50.2407H39.0807L37.8874 49.272L37.3196 49.0176L36.9411 49.0914L36.6695 49.2967L36.1593 49.8877L36.0194 49.937H35.8548L35.7067 49.9616L35.6326 50.0848L35.6738 50.3639L35.8466 50.4131L36.0441 50.3885L36.1675 50.4378L36.1922 50.6266L36.1428 50.7579L36.0688 50.8811L36.0359 51.0535L36.0852 51.2751L36.2745 51.6938L36.4062 52.3751L36.7765 53.0811L36.8588 53.5409L36.9082 54.0991L37.0563 54.3372L37.3114 54.3782L39.27 54.3454L38.9655 54.6737L38.1837 54.8708L37.945 55.2074L38.3647 55.3469L38.7515 55.5768L35.7808 55.5029L35.1636 55.232L35.0813 55.1499L35.1471 55.0185L35.3446 54.3946L35.4351 54.2305L35.3775 54.1648L34.1678 54.1319L33.5835 54.4603L32.9993 54.5506L31.8636 54.5014L32.0364 54.6737L32.5631 54.92L32.6701 54.9447L32.629 55.1499L32.5302 55.3469L32.3821 55.5029L31.7649 55.6671L31.4028 55.8477L31.016 55.979L30.514 55.9134L29.9709 55.6096L29.7734 55.5768L29.5759 55.626L28.7283 56.1022L28.4156 56.4962L28.0946 56.7999L26.9508 56.6358L26.062 56.8164H25.3049L24.984 56.1842L25.0498 55.9544L25.3296 55.388L25.379 55.2074L25.2802 54.9365L25.1157 54.8544L24.9181 54.8215L24.7207 54.6984L24.4326 54.2305L24.1281 53.1879L23.906 52.7446L24.0458 52.5886L24.1528 52.408L24.3174 52.0386L24.1117 51.8908L24.0129 51.6938L23.906 51.1438L23.9306 51.0781L24.0047 50.9385L24.0623 50.7826V50.6184L23.9718 50.5609L23.7002 50.446L23.6344 50.3393L23.5768 50.1997L23.4204 50.0519L23.2229 49.937L23.0419 49.8877H22.795L22.688 49.937L22.2025 50.9385L22.1284 51.3654L22.1614 52.4737L22.0544 52.9991L21.7828 53.311L21.0669 53.6394L20.7953 53.8446L20.6225 53.9431L20.3921 53.9924L20.1946 53.9513L19.9065 53.6968L19.7831 53.6394L19.3387 53.5409L18.9519 53.27L18.6557 52.8759L18.4829 52.3751L18.4993 52.1289L18.6392 51.6527L18.6146 51.505L18.3841 51.4065L18.1702 51.546L17.8739 51.9565L17.8081 52.1945V52.5229L17.7752 52.8102L17.6024 52.9334L16.1293 53.1222L15.9071 52.9662L15.9977 52.5722L16.3268 51.8826L16.0059 51.9975L15.1171 52.9416L14.681 53.1386L14.3024 53.1715L13.4301 53.0976L13.2079 52.9908L13.1421 52.7446V52.449L13.101 52.211L12.9364 51.9975L12.6237 51.743L12.4755 51.5953L12.3521 51.1766L12.6895 50.9878L13.175 50.8072L13.4795 50.446L13.2655 50.5773L13.0434 50.6266H12.5414L12.492 50.5281L11.8666 50.0848L11.702 49.7236L11.4716 48.7384L11.3152 48.3034L10.4511 47.2033L10.2454 46.7026L10.2619 46.4398L10.3442 46.1525L10.3935 45.8488L10.3112 45.545L10.122 45.3398L9.64467 45.0771L9.43894 44.9129V45.9555L9.72697 47.7615L9.57061 48.6563L8.82175 50.6184L8.35269 52.564L8.41852 52.6953L8.49259 52.9416L8.5255 53.2207L8.47612 53.467L8.34445 53.4424L8.02351 53.5655L7.77663 53.7297L7.87539 53.8118V53.9021L7.72726 54.3782L7.68612 54.6163L7.79309 54.7805L8.30332 54.9118L8.47612 55.0678L8.37738 55.9954L7.77663 57.1201L6.59163 58.7702L6.14725 59.6239L5.88392 60.4777L5.20089 64.9025L5.14328 65.8958L5.51359 66.8809L5.92505 67.2914L6.01557 67.5377L5.76871 67.7675L6.3036 68.49L6.50111 68.9661L6.37766 69.4258L6.21308 69.8034L6.05672 70.4191L5.9086 71.5274L6.20486 72.0774L6.88789 72.7834L8.7806 74.3021L8.95342 74.573L9.0604 75.5581L9.2003 76.0917L9.43072 76.5022L10.1384 76.806L10.4018 77.1507L10.9696 78.4971L11.2247 78.8501L11.8583 79.4658L11.99 79.3098L11.4469 78.6202L11.1836 78.4232L12.1299 78.9486V78.7762L11.9324 78.6366L11.3152 78.062L10.5746 76.6746L10.3689 76.5104L9.80926 75.7634L9.69405 75.5499L9.56239 74.1051L9.48832 73.7932L9.15915 73.2678L9.01926 72.923V72.6521L9.36488 72.3319L9.63645 72.6028L9.95739 73.3581L10.5664 73.5469L11.307 73.4484L12.673 73.0051L12.492 73.1446L12.3521 73.2924L12.2369 73.4648L12.1299 73.7029L13.5453 73.5222L13.8334 73.3581L14.1296 73.0707L14.467 72.9394L15.7508 73.9491L15.9647 74.0558L16.1375 74.1133L16.4832 74.3514L16.6395 74.4088L16.7877 74.3514L17.0921 74.1133L17.1827 74.0558L17.5036 73.9327L18.3348 72.9968L18.6557 72.7998L18.9931 72.7013H19.3387L19.6843 72.808L19.9806 72.9968L20.4332 73.4155L20.7624 73.5304L21.4948 73.4812L21.7828 73.5469L22.1202 73.8917L22.186 73.8096L22.2272 73.7932L22.2848 73.7685L22.3918 73.7111L22.2436 74.179L21.9639 74.5156L21.6594 74.8111L21.4372 75.123L21.5277 75.1723L21.6511 75.3447V75.5335L21.3713 75.6238L20.9763 75.6566L20.8035 75.7141L20.6307 75.8126L20.6966 75.9276L20.8035 76.1903L20.9105 76.3216L20.2851 77.003L19.2564 78.4478L18.5981 78.7762V78.9486L18.8285 79.0717L19.0672 79.1128L19.314 79.0717L19.5445 78.9404L19.2153 80.8942L19.2893 81.8054L19.9642 82.2651L19.9312 81.8464L19.5609 81.3539V80.8695L19.6679 80.9516L19.9806 81.124L20.0958 81.2061L19.8983 80.6479L19.8243 80.5001L20.3592 80.6233L20.8694 81.124L21.5853 82.2569H21.7087V81.8957L21.5853 81.0255L21.824 81.1733L22.0379 81.436L22.1943 81.7315L22.2601 82.0024V82.5032L22.3424 82.6592L23.2888 82.5606L23.5521 82.6181L23.8154 82.8808L23.9965 83.2584L23.98 83.5376L23.799 83.7182L23.478 83.8331L23.8319 84.145L24.663 84.3421L25.0992 84.5227L25.3132 84.6786L25.5271 84.9167L25.5847 85.1794L25.3543 85.4093L25.1815 85.3928L24.7289 85.1301L24.5478 85.0645L24.1528 85.1876L23.5768 85.7458H23.2065L22.8938 85.4339L22.6304 85.0234L22.3918 84.9413L22.1367 85.5899L22.3424 85.6473L22.4658 85.7541L22.5234 85.9429L22.5399 86.1974L22.4576 86.4519H22.2766L21.9309 86.2795L21.1162 86.2302L20.7788 86.1235L20.5073 85.9183L20.2933 85.5734L20.1205 85.1794L19.8819 84.851L19.4869 84.7197L18.2442 84.6622L16.0882 85.0973L15.3558 84.9988L15.2488 84.3585L15.6602 83.9152L15.7179 83.8413L15.8989 83.0943L15.973 82.889L16.5408 82.0927L16.8453 81.8218L17.2567 81.592L16.5079 81.436L15.8331 82.1666L15.2982 83.2502L14.5822 85.2287L14.3271 85.713L13.9321 86.0332L13.8416 86.3205L13.7758 86.6489L13.6852 86.8787L13.1174 87.4205L12.9281 87.6668L12.7389 88.1512L12.8129 88.5945L13.6359 89.8505L13.7593 90.1542L14.2448 93.7417L14.4423 93.7991L14.6316 93.5036L14.681 92.8879L14.4505 91.8371L14.4176 91.4103L14.467 90.9998L14.5905 90.6714L14.9525 90.105L14.7139 90.0393L14.0062 89.5878L14.4012 89.3743L15.3558 89.0788L15.7508 89.0624L15.9647 89.1363L16.261 89.3661L16.4832 89.4072H16.7218L16.8946 89.4564L16.944 89.555L16.8206 89.7438V89.9244H17.1251L17.627 89.6699L17.8904 89.5796L17.9644 89.6288L18.0961 89.8669L18.1537 89.9244L18.2278 89.8915L18.3924 89.7602L18.417 89.7356L18.5487 89.752L18.8285 89.7273H18.9684L18.7874 90.2609L18.6886 90.4251L19.0013 90.4087L19.2729 90.2363L19.4869 89.9818L19.635 89.7356H19.7749L19.7584 90.2117L19.9395 90.2363L20.318 89.9162L21.1739 89.8587L21.396 89.7273L21.5442 89.9079L21.8651 89.4564L22.1037 89.3333L22.1614 89.5385L21.9474 90.0803L22.3589 89.9736L22.4905 89.9079L22.4082 90.2527L22.0791 91.1229L22.614 90.6057L22.2354 92.0424L22.1367 92.7894L22.2107 93.3805L22.3918 93.1178L22.7045 92.3133L22.8115 92.1491L23.0172 92.2968L23.0501 92.6498L22.9843 93.0603L22.8855 93.3805L23.3134 93.4215L23.4451 93.7991L23.4698 94.3081L23.5521 94.7596L23.7825 95.1291L24.2763 95.7694L24.5067 96.1552L24.3174 93.3805L24.0376 93.1999L24.3586 92.7976L24.9099 92.3789L25.3214 92.1491L24.877 93.2984V93.832L25.4695 93.8977L24.9181 94.2507L24.7947 94.4148V94.6611L24.9428 95.1291L24.7289 95.8104L24.8688 96.2784L25.1568 96.656L25.4777 96.8284V96.6724L25.3214 96.4425L25.1403 96.0321L25.0745 95.638L25.272 95.4574L25.3954 95.7119L25.7822 96.894L25.955 97.2717L26.169 97.4851L26.2677 97.4276L26.3583 97.2799L26.564 97.1896L26.745 97.2142L27.2223 97.3455L27.9877 97.3702L28.2098 97.5344L28.432 98.0269L28.465 98.306L28.5308 98.5359L28.6213 98.7411L28.7118 98.8971L28.7777 98.9299L29.0245 99.012L29.1233 99.0695L29.1562 99.1352L29.2385 99.3486V99.3897L29.9298 99.6442L30.1931 99.9068L30.226 100.424L30.4235 100.358L30.3248 100.72L30.0861 101.204L29.8722 101.565L29.6993 101.984L29.5841 102.485L29.4278 102.944L29.1315 103.182L29.329 103.921L28.9916 104.841L28.0699 106.294L27.7572 107.123L27.5351 108.141L27.354 110.16L27.3787 110.702L27.6749 112.229L27.7161 112.73L27.7655 112.984L27.8478 113.206L28.0288 113.559L28.0617 113.756L28.1605 115.587L28.1276 116.646L27.8971 117.434L27.9712 118.115L27.4857 120.011L27.2799 121.235L27.0084 122.055L26.9508 122.458L27.3046 129.583L28.0041 132.892L28.0946 133.975L28.2098 134.468L28.5719 135.445L28.7694 136.422L29.0492 139.517L34.4147 139.985L34.8097 139.96L35.1636 139.812L35.5256 139.459L35.8877 139.221L36.3157 139.196L36.7683 139.262H37.2044L37.9039 139.024L41.2367 137.103L41.6811 137.029L42.8826 137.292H43.3187L43.615 137.152L44.1005 136.627L44.4873 136.479L44.7342 136.241L45.6723 135.625L46.1743 135.215L46.2648 135.043L46.3224 134.665L46.594 134.041L46.6516 133.688L46.6763 133.097L46.6516 132.916L46.5611 132.76L46.3306 132.555L46.2648 132.416L46.2483 131.89L46.5693 131.127L46.6598 130.642L46.7668 130.248L47.0219 129.838L47.6144 129.198L50.5769 127.17L51.4986 126.144L51.655 125.881L51.7619 125.544L52.0006 125.421L52.2804 125.372L52.4944 125.298L52.6342 125.109L52.8482 124.658L53.021 124.469L53.3996 124.329L54.5352 124.116L54.7739 124.026L54.9549 123.623L55.3828 123.385L56.2798 123.082L56.502 123.065L56.9135 122.72L57.3249 122.515L58.7897 121.391L59.267 121.185L60.5178 121.136L64.4185 120.315H65.0028L66.2207 120.586L66.9943 121.038L67.2823 121.144H68.2863L68.6154 121.259L69.1503 121.53L69.4219 121.62L69.7264 121.645L72.549 121.128L73.3472 121.235L74.055 121.522L74.3759 121.571L76.0629 121.284L76.3756 121.062L76.5731 120.676L76.6389 120.217L76.5484 119.773L76.0135 119.158L76.137 118.821L77.3796 117.68L78.0462 117.212L78.7621 116.933L80.5725 116.875L80.9099 116.958L81.1815 117.122L81.4284 117.319L81.6917 117.442L82.0126 117.376L83.5927 116.687L84.5308 116.531L84.7201 116.563L85.4936 117.187L86.1684 117.573L86.4729 117.672L89.4354 118.23L90.2172 118.558L90.6204 118.616L90.9743 118.419L91.2458 118.164L91.8877 117.754L92.1182 117.491L92.5132 116.81L92.7436 116.563L93.0892 116.391L93.3032 116.366L93.5171 116.391L93.9368 116.539L94.159 116.678L94.2166 116.843V117.031L94.3071 117.245L94.7597 118.008L95.1136 118.87L95.344 119.223L95.9859 119.913L96.2163 120.668L96.636 121.259L96.7348 121.694L96.6854 122.105L96.2986 123.418L96.8006 124.067L99.6397 125.2L99.9524 125.159L100.257 125.06L100.594 125.011L100.923 125.044L101.927 125.339L102.89 125.323L103.186 125.249H103.483L103.746 125.413L103.993 125.626L104.248 125.791L104.413 125.807L104.734 125.733L104.898 125.766L105.038 125.906L105.219 126.283L105.334 126.431L105.631 126.554L105.952 126.53L106.281 126.456L106.602 126.431L107.285 126.62L110.379 128.098L111.679 128.401L112.346 128.45L112.667 128.524L112.996 128.689L113.144 128.861V129.017L113.103 129.198L113.119 129.403L113.432 129.977L113.498 130.166L113.547 130.618V130.963L113.646 131.242L113.983 131.529L114.321 131.652L115.851 131.882L116.098 131.997L116.617 132.366L116.888 132.448L118.674 132.276L119.02 132.112L119.283 131.701L119.464 131.291L119.703 130.938L120.007 130.724L120.394 130.683L120.715 130.839L121.711 131.718L122.558 132.071L123.003 132.136L123.447 132.095L123.62 131.98L123.743 131.841L123.883 131.718H124.105L124.525 131.808L124.731 131.792L124.936 131.718L125.2 131.389L125.249 131.028L125.356 130.856L126.533 131.504L128.063 131.857L128.845 132.219L129.125 132.416L129.388 132.489L129.956 132.58L130.17 132.703L130.82 133.368L133.454 135.256L133.873 135.289L134.976 134.788L135.429 134.919L135.824 135.289L136.202 135.814L136.293 136.143L136.227 136.684L136.342 136.955L136.4 137.161L136.317 137.39L136.194 137.62L136.128 137.899L136.178 138.417L136.564 140.108L136.795 140.444L138.029 141.47L138.399 141.881L138.515 142.045L138.49 142.16L138.416 142.25L138.391 142.308L138.367 142.48L138.309 142.685L138.367 142.866L138.687 142.948L138.819 143.071L138.975 143.194L139.14 143.285L139.305 143.301L139.93 143.047L140.218 143.096L140.547 143.449L140.687 143.835L140.778 144.294L140.918 144.697L141.181 144.91L141.37 144.869L141.51 144.721L141.74 144.36L141.922 144.253L142.135 144.27L144.975 145.197L146.267 146.289L146.991 146.708L148.604 146.995L149.344 147.324L149.929 148.103L150.669 149.671L151.583 151.051L153.673 153.604L154.093 154.269L154.66 155.755L155.064 156.469L155.714 156.83L158.849 156.772L161.606 156.723L165.811 156.649L168.148 156.617L170.164 156.584L171.144 156.756L171.95 156.855L172.106 157.676L172.271 158.053L172.345 158.275L172.378 158.587L172.353 158.89L172.279 159.153L172.172 159.391L172.057 159.58L171.967 159.826L171.999 160.13L172.115 160.491L171.695 162.445L171.58 163.635L171.86 164.333L171.794 164.424L171.761 164.497L171.711 164.662L171.901 164.744L172.057 164.875L172.18 165.023L172.263 165.162L172.345 165.417L172.378 165.671V166.23L172.452 166.476L172.74 166.952L173.036 168.454L173.086 169.185L173.119 169.316L173.077 169.464L172.872 169.743L172.773 169.907L172.715 170.121L172.682 170.351V170.58L172.6 170.843L172.436 170.975L172.255 171.04L172.131 171.155L172.073 171.451L172.139 171.943V172.165L171.884 172.419L171.481 172.748L171.251 173.027L171.522 173.158L172.008 173.232L172.411 173.446L172.757 173.757L173.077 174.143L173.283 174.472L173.456 174.882L173.579 175.309L173.67 176.171L173.744 176.532V176.918L173.629 177.46L173.752 177.632V177.87L173.629 178.445L173.612 178.585L173.629 179.011L173.571 179.176L173.3 179.438L173.217 179.594L173.275 180.235L173.547 180.768L174.024 181.523L174.295 181.425L175.332 181.22H175.497L175.645 181.294L175.826 181.458L175.81 181.523L175.637 181.786L175.884 182H175.917L175.958 182.016L176.27 182.287V182.385L176.196 182.656V182.755L176.336 182.944L176.46 183.083L176.616 183.174L176.838 183.215L177.143 183.354L178.426 184.52L179.34 185.521L180.64 186.047L183.298 186.449L184.467 186.367L186.837 185.538L187.989 185.562L188.573 185.85L189.092 186.211L191.116 188.198L191.659 188.567L192.745 189.043L193.033 189.339L193.239 189.716L193.371 190.143L193.404 190.554L193.371 191.539L193.486 191.9L193.856 192.77L194.062 193L194.375 192.844L196.292 190.25L196.934 189.659L197.469 189.634L198.761 190.825L198.975 190.939L199.172 190.915L199.37 190.857H199.584L200.168 191.104L200.341 191.128L200.67 191.054L202.102 190.439L202.398 190.25L202.653 189.995L202.908 189.659L203.419 189.133L204.744 188.493L206.529 187.073L207.854 186.449L208.249 186.35L209.072 186.285L209.459 186.17L209.722 185.907L209.837 185.456L209.92 184.536L210.117 183.781L210.051 183.526L209.722 183.264L209.656 182.96L209.607 181.729L209.64 181.384L210.158 180.867L211.673 180.366L212.224 179.972L212.339 179.758L212.356 179.586L212.257 179.455L211.755 179.266L211.623 179.159L211.343 178.79L210.331 177.879L210.208 177.575L210.117 177.148L209.92 176.836L209.788 176.524L209.87 176.105L210.175 175.793L210.595 175.711L214.89 175.793L216.61 175.44L218.207 174.685L218.503 174.431L218.964 173.79L219.235 173.503L219.606 173.298L220.001 173.207L222.436 173.06L223.226 172.854L225.078 171.779L225.671 171.59L226.304 171.483L226.856 171.598L228.732 172.337V172.025L228.559 170.884V170.449L228.724 170.055L228.97 169.743L230.271 168.758L230.97 168.413L231.703 168.274L232.517 168.405L232.846 168.545L233.093 168.602L233.291 168.438L233.604 167.461L233.834 167.157L234.138 166.968L234.492 166.821L235.949 166.484L236.607 166.238L237.266 165.712L237.669 165.236L239.216 162.847L239.561 161.994L239.792 161.099L239.882 160.138L239.825 159.621L239.553 158.693L239.463 158.193V157.7L239.52 157.199L239.775 156.239L240.096 155.459L242.936 150.271L243.199 149.442L243.117 148.489L242.746 146.618L242.837 145.665L243.199 145.041L243.775 144.615L247.346 142.694L248.811 142.209L257.452 141.996L258.151 141.635L259.065 140.379L259.616 139.812L259.871 139.459L259.978 138.958V138.417L259.814 137.349L259.904 136.799L260.102 136.274L260.349 135.798L260.554 135.387L260.752 135.133L260.99 134.993L261.336 134.919H262.143L262.406 134.706L262.529 134.057L262.579 133.704L262.875 133.844L263.27 133.926L263.426 134.033L263.755 134.763L263.912 135.001L264.043 135.166L264.422 135.445L268.849 137.095L269.211 137.399L269.755 138.137L270.1 138.466L270.495 138.679L270.726 138.704L271.376 138.679L271.59 138.728L271.861 138.958L272.042 139.008L272.355 139.164L272.684 139.5L273.079 139.787L273.598 139.837L274.955 139.393L275.425 139.328L275.63 139.426L275.927 139.861L276.173 139.976L276.379 139.952L276.544 139.812L276.84 139.476L277.186 139.18L277.515 138.967L277.029 138.605L277.07 138.154L277.367 137.727L277.737 137.358L278.05 136.84L277.976 136.446L277.663 136.11L277.276 135.781L277.005 135.084L277.07 134.197L277.507 132.539L277.581 131.545L277.424 129.616L277.498 128.639L278.181 127.424L279.276 126.004L280 124.584L279.58 123.394L279.646 123.402Z" fill="#B4A297"/>
</svg>
