<svg width="392" height="267" viewBox="0 0 392 267" fill="none" xmlns="http://www.w3.org/2000/svg">
<path opacity="0.3" d="M360.385 181.44L359.549 182.096L359.153 182.308L358.584 182.337L358.207 182.8L358.437 183.244L358.933 183.62L359.374 183.842L359.962 184.025L360.311 183.948L360.541 183.572L361.055 181.585L360.954 181.257L360.385 181.45V181.44ZM348.128 179.125L347.549 179.289L347.43 179.366L347.172 179.579L347.062 179.617L346.888 179.588L346.796 179.54L346.722 179.463L345.445 178.903L344.83 178.469L344.444 177.949L344.131 177.1L343.745 176.338L343.231 175.991L342.514 176.405L342.119 177.37L341.991 177.92L341.963 178.431L342.092 178.932L342.652 180.234L342.909 180.62L343.203 180.784L343.81 180.919L344.076 181.141L344.177 182.048L343.203 183.649L343.24 184.44L343.525 184.594L343.846 184.382L344.159 184.063L344.416 183.871L344.848 183.899L344.958 184.17L345.013 184.507L345.28 184.768L345.62 184.796L346.695 184.488L347.457 184.469L347.77 184.343L348.009 183.967L348.055 183.012L347.053 181.874L346.998 181.074L347.375 180.688L348.431 179.916L348.587 179.424L348.413 179.135L348.128 179.077V179.125ZM391.945 154.791L391.237 154.627L389.896 154.714L389.437 154.376L389.124 153.913L388.757 153.653L387.066 154.473L386.01 155.244L385.716 155.293L385.78 154.762L385.679 153.836L384.797 153.586L381.857 153.865L380.874 153.74L379.992 153.335L379.284 152.515L378.301 150.914L377.86 150.731L377.29 150.692L376.877 150.47V149.747L376.923 149.554V149.39L376.849 149.255L376.73 149.159L375.517 149.033L374.865 148.831L374.387 148.522L373.735 147.442L373.431 147.23L373.018 147.577L372.898 147.808L372.632 148.638L372.457 148.782L371.621 148.898L369.609 149.544L369.922 148.792L370.078 148.223V147.606L369.866 145.947L369.83 145.05L369.719 144.182L369.453 143.574L368.874 143.208L368.314 143.304L367.781 143.671L367.285 144.134L366.605 144.568L366.21 144.346L365.861 143.815L365.309 143.333L363.499 143.661L362.902 143.362L362.783 142.021L362.838 140.661L362.709 139.62L362.342 138.674L360.201 135.318L360.017 135.144L359.824 135.058L359.677 135.193L359.659 135.868L359.475 136.041L359.264 135.935L359.135 135.424L358.896 135.318L358.786 135.501L358.694 135.849L358.556 136.109L358.345 136.022L358.327 135.627L358.749 133.833V133.167L358.63 132.55L358.336 132.126L357.84 132.039L357.334 132.261L357.059 132.608L356.608 133.833L356.838 134.373L357.481 135.241L357.564 135.82L357.463 136.456L357.132 137.527L356.37 139.253L355.736 139.938L354.955 140.102L353.971 139.649L352.869 138.568L352.557 138.491L352.41 138.887L352.612 144.365L352.492 145.474L351.978 145.937L350.416 144.519L349.846 145.291L349.598 145.899L349.295 145.918L349.001 145.59L348.78 145.146L348.496 143.96L348.229 143.574L347.687 143.526L347.218 143.796L347.154 144.24L347.264 144.809L347.31 145.474L347.081 146.091L346.722 145.831L346.143 144.809L345.776 144.5L344.921 144.384L344.508 144.134L344.039 143.748L343.525 143.507L342.441 143.294L341.458 143.449L341.007 143.4L340.585 142.986L340.272 142.532L339.896 142.127L339.482 141.819L339.041 141.626L338.527 141.674L338.086 141.896L337.718 141.963L337.433 141.529L337.397 140.97L337.737 139.022L337.691 138.356L337.47 137.71L336.193 135.386L335.807 134.845L335.375 134.566L334.603 134.691L331.81 136.379L331.029 136.697L330.478 136.668L330.129 136.331L329.569 135.231L329.238 134.768L328.852 134.411L327.997 133.862L324.782 133.476L323.946 133.013L323.523 131.991L324.01 131.161L327.703 128.885L329.063 127.756L329.807 127.38L330.497 126.898L331.039 126.059L331.7 124.545L332.702 123.31L334.953 121.285L335.651 120.851L337.929 120.581L338.72 120.262L338.977 119.722L339.041 117.88L339.436 116.703L340.373 116.443L341.494 116.491L342.441 116.25L345.666 113.723L347.549 113.144L348.404 112.518L348.744 111.312L347.935 111.032L344.738 108.621L344.012 108.303L343.286 108.409L342.275 109.19L341.779 109.682L341.007 110.347L340.236 111.013L339.804 111.254L339.372 111.476L338.94 111.543L338.508 111.611L337.985 111.457L337.452 111.302H337.185L336.91 111.331L336.744 111.553L336.579 111.794L336.487 112.083L336.395 112.382L336.266 112.595L336.147 112.807L335.825 113.212L335.504 113.617L335.237 114.138L334.971 114.659L334.548 115.835L334.3 116.308L334.061 116.781L333.703 116.964L333.345 117.147L333.078 117.108L332.812 117.07L332.573 116.973L332.325 116.867L332.15 116.674L331.976 116.491L331.893 116.192L331.81 115.884L331.728 115.671L331.645 115.469L331.461 115.257L331.277 115.044L331.075 114.89L330.864 114.736L330.699 114.697L330.533 114.659L329.422 115.17L328.301 115.681L327.814 116.125L327.327 116.568L327.042 117.224L326.757 117.88L326.674 118.16L326.592 118.439L326.445 118.613L326.298 118.787L326.114 118.883L325.921 118.989L325.719 119.066L325.517 119.144L325.315 119.259L325.122 119.375L324.956 119.558L324.791 119.732L324.019 121.14L323.238 122.548L322.953 122.905L322.668 123.262L321.713 123.995L320.767 124.728L320.123 124.979L319.489 125.229L319.315 125.374L319.14 125.528L318.984 125.779L318.828 126.03L318.479 126.464L318.13 126.888L317.652 127.101L317.174 127.313L315.906 127.361L314.638 127.419L313.095 127.872L311.56 128.316L311.367 128.47L311.174 128.634L310.844 129.03L310.522 129.425L309.364 130.39L308.207 131.344L307.554 131.557L306.902 131.778L306.599 132.01L306.296 132.241L306.149 132.666L306.002 133.08L306.048 133.254L306.084 133.418L306.277 133.785L306.47 134.151L306.489 134.325L306.507 134.489L306.369 134.566L306.241 134.653L305.561 134.518L304.881 134.383L304.706 134.431L304.541 134.479L304.1 134.778L303.659 135.067L303.493 135.096L303.328 135.125L302.988 135L302.657 134.865L302.474 134.903L302.29 134.942L301.665 135.357L301.04 135.771L300.755 136.051L300.48 136.34L300.36 136.668L300.241 136.996L300.03 136.91L299.818 136.823L299.598 136.89L299.386 136.967L298.863 137.237L298.33 137.507L298.238 137.585L298.146 137.671L298.091 137.787L298.036 137.893L298.063 138.028L298.091 138.163L298.201 138.308L298.302 138.443L298.357 138.482L298.412 138.52L298.449 138.578L298.486 138.636L298.514 138.819L298.541 139.002V139.263L298.56 139.523L298.385 141.038L298.21 142.552L298.119 142.735L298.027 142.918L297.834 143.121L297.641 143.323L297.255 143.603L296.86 143.892L296.446 144.105L296.033 144.317L295.537 144.384L295.05 144.461L294.811 144.539L294.572 144.625L294.425 144.828L294.278 145.03L293.993 145.551L293.708 146.072L292.927 146.429L292.137 146.786L291.825 147.162L291.512 147.538L291.09 148.802L290.667 150.075L290.437 150.364L290.208 150.663L289.509 150.981L288.811 151.3L288.49 151.531L288.177 151.753L288.058 152.12L287.938 152.496L287.883 152.467L287.837 152.428L287.727 152.39L287.626 152.351L287.571 152.322L287.525 152.293V152.476V152.64L287.552 152.997L287.58 153.354L287.562 153.508L287.543 153.653L287.47 153.836L287.396 154.01L287.314 154.068L287.24 154.126L287.176 154.212L287.111 154.29L287.065 154.531L287.02 154.772L287.13 156.103L287.249 157.415L287.323 157.714L287.396 158.013L287.488 158.138L287.58 158.263L287.69 158.331L287.801 158.398L288.095 158.466L288.379 158.543V158.746L288.361 158.938L288.407 159.141L288.444 159.344L288.517 159.536L288.591 159.729L288.692 159.903L288.793 160.086L288.765 160.192L288.747 160.298L288.471 160.771L288.196 161.253L288.416 161.379L288.637 161.504L288.572 161.707L288.499 161.919L288.251 162.063L288.012 162.218L287.709 162.169L287.405 162.121L286.946 161.89L286.487 161.658L286.358 161.629L286.229 161.61L286.119 161.687L286.018 161.764L285.954 161.899L285.889 162.034L285.807 162.15L285.715 162.256H285.549L285.375 162.237L285.237 162.391L285.099 162.546L285.063 162.623L285.026 162.71L282.334 161.234L279.642 159.749L278.87 159.112L278.107 158.475L277.069 157.395L276.031 156.315L275.682 156.112L275.333 155.91L274.882 155.813L274.432 155.707L274.359 155.64L274.285 155.592L274.322 155.466L274.359 155.351L274.46 155.244L274.561 155.148L274.965 154.955L275.369 154.762L275.562 154.608L275.746 154.454L275.921 154.251L276.086 154.048L276.343 153.634L276.518 153.219L276.692 152.804L276.858 152.283L277.032 151.772L277.143 151.232L277.253 150.702V150.248V149.795L277.161 149.612L277.069 149.429L277.014 149.351L276.959 149.274L276.867 149.226L276.775 149.168L276.867 149.12L276.968 149.072L277.234 148.869L277.501 148.667L277.464 148.638L277.427 148.599L277.317 148.561L277.207 148.522L277.234 148.377L277.262 148.233V148.194V148.165L277.216 147.828L277.17 147.49L276.922 147.519L276.683 147.548L276.527 147.905L276.371 148.262L276.251 148.098L276.123 147.934L275.976 147.905L275.838 147.885L275.691 147.963L275.544 148.04L275.406 148.155L275.268 148.271L275.112 148.011L274.965 147.75L274.873 147.133L274.781 146.525L274.662 146.246L274.542 145.966L274.037 145.272L273.532 144.577L273.449 144.404L273.366 144.23L273.339 144.211L273.311 144.191L273.173 143.738L273.036 143.285L272.742 143.487L272.457 143.68L271.795 144.143L271.134 144.606L270.913 144.645L270.693 144.674L270.445 144.577L270.197 144.49L269.719 144.23L269.241 143.97L268.984 143.892L268.727 143.815L265.805 143.998L262.846 144.191L260.99 144.317L258.078 144.5L255.634 144.645L252.308 144.857L250.084 144.992L247.429 145.166L246.492 144.915L245.555 144.654L245.049 144.008L244.535 143.352L243.561 138.674L242.578 133.977L241.852 130.042L241.126 126.098L240.731 122.047L240.336 117.986L240.281 117.957L240.226 117.928L240.152 117.909L240.07 117.89H239.895L239.812 117.899H239.73H236.973H234.474L231.966 117.88L229.219 117.861L229.118 117.784L229.026 117.697L228.998 117.523L228.971 117.35L229.053 111.08L229.136 104.792L229.21 104.57L229.274 104.348L229.54 104.233L229.816 104.126L229.926 103.847L230.046 103.567L230.101 102.709L230.156 101.86L230.652 93.7967L231.148 85.7047L227.85 87.5758L224.561 89.4372L224.368 89.4179L224.165 89.389L222.695 86.2255L220.986 82.5315L219.746 79.8598L217.807 75.6547L217.357 75.2399L216.907 74.8252L214.555 73.2724L212.203 71.7195L211.064 70.4561L209.924 69.1926L207.462 65.8361L205 62.4797L204.614 62.1229L204.237 61.766L203.511 61.6406L203.107 61.8046L202.693 61.9589L200.47 63.261L198.21 64.5823L196.014 65.8554L193.717 67.1961L193.322 67.3118L192.927 67.4372L191.668 67.3118L188.507 67.0128L185.347 66.7042L182.177 66.4148L179.007 66.1062L175.534 65.7783L172.052 65.4504L168.579 65.1224L165.097 64.7945L163.011 65.1514L160.925 65.5082L158.84 65.8651L156.754 66.2219L154.668 66.5788L152.583 66.9357L150.497 67.2925L148.412 67.6494L147.125 67.9002L145.839 68.1509L144.553 68.3921L143.257 68.6428L142.458 68.7971L141.649 68.9515L140.841 69.1058L140.041 69.2601L138.103 69.6362L137.643 69.424L137.184 69.2119L135.475 67.1479L134.189 65.6047L132.912 64.0615L131.625 62.5087L130.348 60.9558L129.034 59.3741L127.72 57.7923L126.407 56.2105L125.093 54.6191L123.494 52.6805L122.235 51.2627L120.986 49.8449L118.367 46.8743L117.026 44.6077L116.805 43.8265L116.658 42.1L116.511 41.2899L116.098 40.4025L115.51 39.7081L114.086 38.7147L112.083 37.3258L109.363 35.4257L106.037 33.1013L102.224 30.4393L98.0437 27.5169L93.6151 24.4113L89.0487 21.1995L84.464 17.9877L79.9803 14.8242L75.708 11.815L71.7756 9.04693L68.2934 6.58747L65.3808 4.5331L63.1574 2.95134L61.7332 1.94828L61.2371 1.5914L59.4822 0.347217L58.8574 0.0578671L58.3245 0L56.4778 0.559406L55.0996 0.983785L53.7214 1.40815L52.3432 1.82289L50.9743 2.23761L49.6512 2.65235L48.3281 3.06707L47.0143 3.47217L45.6912 3.8869L42.8338 4.81281L39.9764 5.72908L37.119 6.64534L34.2707 7.5616L32.1299 8.28497L29.9892 9.00834L27.8484 9.73171L25.7076 10.4551L23.5669 11.1784L21.4261 11.9018L19.2853 12.6252L17.1446 13.3486L15.0038 14.0623L12.863 14.7856L10.7222 15.4994L8.58147 16.2227L6.4407 16.9461L4.29993 17.6598L2.15915 18.3832L0.0183796 19.1066H0.00919683H0V19.1259V19.1355V26.9093V34.6059V42.2736V49.922V57.5415V65.1321V72.684V80.2071V87.7108V95.176V102.612V110.029V117.417V124.776V132.106L0.00919683 139.417L3.7119 139.629L7.96587 139.87L13.5153 140.189L18.6146 140.488L20.7738 140.96L23.5669 141.568L24.0079 141.298L24.7154 139.957L25.1655 139.408L26.2313 138.848L26.7183 138.491L26.9756 138.173L27.0215 137.961L26.8469 137.816L25.7076 137.517L25.3585 137.334L25.0369 137.093L24.5408 136.504L24.0998 135.714L23.7966 134.836L23.6955 133.949L23.7139 132.82L23.6312 131.894L23.3647 131.065L22.8594 130.187L22.4551 129.039L22.4827 128.036L22.6664 127.004L22.7216 125.808L22.2163 123.281V122.047L22.8686 121.111L25.0645 120.031L26.0016 119.279L26.8561 117.948L28.1149 115.469L29.9524 113.569L32.1024 112.479L34.2891 112.382L37.5232 112.971L38.5798 112.749L39.8478 112.093L40.2888 111.977L41.8507 112.055L42.2917 111.958L42.7971 111.572L42.7235 111.264L42.4295 110.926L42.2642 110.415L42.4479 109.991L43.3208 109.701L43.6423 109.315L44.5703 107.078L44.7724 106.325L44.7357 105.824L44.2487 104.724L44.1201 103.866L44.506 103.528L45.1308 103.239L45.7096 102.535L45.9117 102.159L46.1598 101.841L46.5733 101.638L47.0786 101.542H47.5931L48.0249 101.715L48.3557 102.062L48.8794 102.882L49.2469 103.104L49.6144 103.065L50.4414 102.689L50.8548 102.612L51.3509 102.709L53.6203 103.837L54.3921 104.435L54.9802 105.265L55.2099 106.412L55.1364 107.001L55.0169 107.55V108.052L55.2742 108.496L55.6509 108.592L57.1209 108.361L57.4058 108.177L57.4884 107.917L57.3874 107.637L57.1301 107.386L56.2113 106.239L54.5208 103.355L53.9144 101.85L53.2161 100.712L52.4076 100.056L49.5501 98.6481L49.1275 98.243L48.9989 97.6258L49.2102 97.1532L49.6236 96.8252L50.4873 96.4202L51.7001 95.6389L52.1227 95.5039L52.674 95.5232L55.1364 96.5745L56.3032 96.8542L57.4701 96.941L58.4164 96.642L58.9034 95.6968L59.2158 92.9383L59.6384 92.2053L60.1989 92.5429L65.1144 98.6192L66.6395 100.104L68.2474 100.866L69.2581 101.059L69.9288 101.021L70.5903 100.828L71.2519 100.49L71.8307 100.423L72.382 100.789L73.8336 102.381L74.1552 102.921L74.3665 103.538L74.6422 106.007L74.9454 106.586L75.5977 106.962L76.7646 107.097L77.2975 107.29L78.2071 108.322L78.7767 108.553L79.9528 108.582L84.7764 107.801L86.761 107.994L87.7808 107.869L88.819 107.984L89.5357 108.814L90.1697 109.856L90.969 110.617L91.9797 111.032L92.5034 111.36L92.7882 111.784L92.7147 112.325L92.338 112.604L91.8694 112.807L91.4927 113.096L91.2814 114.582L91.7316 116.163L91.7959 117.436L90.4453 117.986H90.4269L90.0227 118.102L89.7654 118.42L89.7286 118.845L89.9767 119.308L90.2983 119.462L91.4835 119.423L93.8816 120.368L94.5523 120.976L95.3332 122.23L95.6732 122.606L96.7482 123.281L97.0697 123.571L97.3454 123.937L97.5659 124.381L97.6026 124.834L97.3362 125.249L96.9779 125.307L96.5277 125.094L95.7375 124.564L94.883 124.284L94.1664 124.352L93.5416 124.805L92.9536 125.692L93.1649 126.811L93.8724 128.229L95.3884 130.486L95.5997 131.074L95.2873 131.479L94.341 131.981L93.9551 132.347L93.661 132.791L93.4865 133.341L93.2017 135.897L93.3578 136.649L94.001 137.315L96.5001 138.665L98.696 139.851L100.074 140.912L101.315 142.214L101.967 142.706L102.766 142.947L104.135 142.909L106.892 141.944L111.495 141.655L113.093 142.06L114.187 143.256L114.334 143.121L114.481 142.947L114.922 142.156L115.014 142.233L115.087 142.513L115.216 142.803L116.566 142.561L116.971 142.581L119.323 144.336L120.251 144.732L121.124 144.703L121.914 144.278L122.557 143.545L122.989 142.542L123.549 142.205L123.77 141.086L124.082 140.42L124.597 140.16L125.442 140.256L127.665 140.874L129.65 141.771L134.749 145.715L135.199 146.226L136.872 149.178L137.064 149.699L137.147 150.345L137.212 152.573L137.322 153.036L137.147 153.277L137.404 153.904L138.121 156.547L138.388 157.993L138.571 158.659L138.819 159.073L139.573 159.942L139.83 160.385L140.299 162.314L140.611 162.98L141.456 164.166L141.594 164.465L141.778 165.179L141.925 165.449L142.421 165.844L143.505 166.182L145.398 167.32L145.618 167.6L145.692 168.921L145.83 169.5L146.418 170.744L146.611 171.313L146.693 171.93L146.712 172.76L146.804 173.387L147.502 174.988L147.594 175.653L147.465 176.212L147.281 176.782L147.18 177.457L147.245 178.17L147.64 179.926L147.888 180.755L149.523 182.916L149.771 183.06L151.085 184.449L153.759 186.465L156.874 188.789L160.576 191.567L168.101 197.19L171.271 199.553L172.723 201L175.176 204.588L176.563 206.083L179.09 207.992L182.278 210.384L185.953 213.133L186.642 213.509L187.313 213.635L187.901 213.509L189.665 212.583L190.354 212.497L190.896 212.854L192.881 215.554L197.686 219.807L200.617 221.573L203.98 222.826L205.514 223.839L208.555 226.742L210.714 228.787L213.792 230.986L216.062 232.587L219.82 235.249L221.363 235.789L222.934 235.644L223.522 235.316L224.634 234.381L225.286 234.111L226.058 234.178L228.355 235.355L229.862 235.606L230.505 235.953L231.92 237.149L233.399 237.593L234.143 237.95L234.814 238.625L235.871 240.033L238.186 241.161L238.903 241.393H240.648L241.521 241.653L242.348 242.068L243.111 242.656L243.598 244.103L242.762 245.829L241.494 247.556L240.704 249.041L240.612 250.237L240.795 252.59L240.704 253.796L240.207 255.812L240.125 256.892L240.437 257.741L240.887 258.136L241.246 258.551L241.337 259.024L240.979 259.651L240.557 260.104L240.207 260.625L240.161 261.174L240.731 261.618L241.181 261.483L241.76 261.435L242.302 261.493L243.818 262.168L244.094 262.235H244.709L244.948 262.158L245.399 261.744L245.637 261.657L248.623 261.522L250.718 260.991L251.821 261.02L252.234 261.223L253.144 261.908L253.622 262.062L253.897 262.332L254.274 263.624L254.485 264.087L254.945 264.396L255.955 264.801L256.415 265.245L256.645 265.765L256.81 266.335L257.076 266.788L257.582 267L258.096 266.894L258.96 266.296L259.548 266.161L260.099 266.113L260.595 265.958L261.055 265.717L261.505 265.36L262.258 264.569L262.681 264.232L263.15 264.097L263.673 264.367L264.105 265.602L264.482 265.958L264.73 265.852L264.904 265.582L265.042 265.274L265.189 265.139L265.428 265.11L265.86 264.965L266.117 264.936L266.384 265.013L266.88 265.409L267.128 265.544L267.422 265.573L268.23 265.544L268.708 265.659L269.112 265.92L269.379 266.325L269.48 266.875L269.59 266.441L270.022 265.544L270.288 264.531L270.408 263.451L270.325 262.178L269.875 259.805L269.967 258.532L270.61 256.68L271.584 254.925L272.76 253.343L273.991 252.108L275.654 249.678L276.325 248.289L277.299 245.222L277.703 244.778L278.411 244.537L279.476 244.383L279.825 244.257L280.184 243.987L280.358 243.601L280.459 243.139L280.634 242.618L280.91 242.029L281.801 240.612L282.361 238.924L282.738 237.159L282.637 235.982L282.086 235.066L280.276 233.368L279.09 232.664L278.695 232.249L277.85 230.629L276.959 229.732L276.738 229.308L276.656 228.864L276.61 227.89L276.481 227.427L275.93 226.54L275.755 226.144L275.691 225.479L275.774 223.723L275.719 223.116L275.415 221.968L275.351 221.399L275.526 220.946L276.104 220.512L276.224 220.338L276.242 219.981L276.141 219.701L276.003 219.431L275.93 219.123L276.013 218.448L276.27 218.274L276.674 218.293L277.207 218.187L277.593 217.946L277.942 217.628L278.227 217.213L278.429 216.692L278.456 216.017L278.227 215.409L277.565 214.387L276.793 212.593L276.444 212.149L276.27 212.101L276.086 212.082L275.902 212.101L275.719 212.149L275.342 212.448L274.965 212.593L274.588 212.516L274.239 212.159L274.056 212.043L273.67 211.908H273.339L273.017 211.995L272.714 212.149L270.978 212.767H270.362L267.44 212.284L267.018 211.85L266.907 211.098L267.165 208.716L267.119 208.291L266.917 207.925L266.77 207.877L266.393 207.964L266.237 207.935L266.117 207.79L265.933 207.452L265.832 207.327L264.932 206.951L263.076 206.874L260.32 205.842L259.676 205.215L259.511 203.99L259.548 203.556L259.594 203.344L259.704 203.209L259.915 203.006L260.154 202.919L260.356 202.987L260.503 202.929L260.678 201.907L260.972 200.865L260.99 199.727L261.147 198.483L261.431 197.296L261.643 197.017L261.992 196.968L262.58 197.055L262.69 197.036L262.791 196.968L262.883 196.882L262.957 196.775L262.8 195.406L263.251 194.943L265.07 194.644L267.192 193.053L268.037 192.773L269.112 192.792L276.913 194.914L280.322 195.03L282.187 195.734L283.308 195.821L284.438 195.715L285.844 195.319L286.294 195.097L286.046 194.509L286.358 194.046L287.332 193.39L287.883 192.782L288.186 192.175L288.315 191.432L288.545 186.426L288.784 185.751L289.05 185.771L289.353 185.906L290.125 185.182L290.502 185.481L291.117 186.523L291.421 186.687L291.577 186.484L291.623 186.176V186.021V185.973L291.788 185.51L291.871 185.462L292.11 185.423L292.192 185.356L292.468 184.758V184.324L291.963 183.186L291.742 182.511L291.659 181.922L291.816 181.671L292.293 182.019L292.762 183.099L293.111 184.44L293.635 185.288L294.6 184.864L294.526 184.179L292.514 181.276L292.404 180.958L292.376 180.659L292.422 180.022L292.349 179.781L291.944 179.434L291.898 179.154L292.192 178.575L292.551 178.874L293.065 179.858L293.359 179.762L294.168 179.019L294.627 178.865L296.29 179.145L296.805 179.058L296.998 178.672L297.034 178.219L296.961 177.746L296.814 177.312L295.748 176.511L290.189 177.65L289.381 177.322L288.361 176.656L287.773 175.971L288.251 175.614L290.456 175.007L290.961 174.968L292.284 175.209L292.817 175.132L293.616 174.65L294.067 174.457L297.779 173.849L298.302 173.946L299.809 174.746L301.858 175.393L302.997 175.431L303.861 175.017V174.274L302.198 172.702L302.106 171.776L302.703 171.699L303.585 172.056L304.32 171.921L304.495 170.387L304.348 169.693L304.1 169.104L303.503 167.976L303.282 167.416L302.795 165.651L301.876 164.031V163.375L302.703 162.787L304.091 162.671L304.421 162.459L304.513 162.034L304.357 160.366L304.375 159.209L304.532 158.263L304.881 157.443L305.469 156.653L305.79 156.373L306.158 156.161L306.902 155.9L307.316 155.949L307.619 156.209L307.904 156.527L308.262 156.759L308.988 156.836L309.502 157.337L310.384 158.794L310.651 159.045L311.22 159.44L311.478 159.758L311.9 160.511L312.139 160.839L312.424 161.109L313.131 161.379L313.747 161.186L314.289 160.675L315.245 159.401L315.695 158.996L316.2 158.736L320.408 157.347L322.567 155.601L324.938 154.618L326.592 153.566L327.86 152.013L328.494 148.676L329.348 148.435L330.368 148.879L331.085 149.699L331.14 149.805L331.213 149.901L331.93 150.567L336.092 155.505L336.285 155.775L336.239 156.363L335.789 156.18L334.999 155.457L334.539 155.514L334.328 155.91L334.383 156.45L334.741 156.932L336.827 157.443L337.7 157.974L337.498 159.035L337.443 159.305L337.084 159.536L337.001 159.671L336.965 159.816L336.891 159.942L336.515 160.038L336.322 160.134L335.991 160.414L335.651 160.742L334.264 161.938L333.464 162.98L333.17 163.24L332.821 163.414L332.481 163.51L332.16 163.655L331.856 163.983L331.305 164.967L331.075 165.285L330.855 165.381L329.284 165.767L328.604 166.22L328.245 166.828L328.282 167.484L328.319 167.638L328.356 167.725L328.659 168.178L328.696 168.217L328.889 168.458L328.953 168.593L328.641 169.683L329.78 170.213L330.258 170.358L330.754 170.31L331.186 170.175L331.617 170.127L332.123 170.348L332.729 171.39L333.032 172.846L333.437 174.177L334.355 174.872L335.311 174.939L336.285 174.853L339.537 173.801L341.559 173.608L342.027 173.657L342.854 172.779L344.177 172.538L346.833 172.943L347.558 172.866L347.88 172.335L348.082 171.641L348.44 171.072L348.762 170.966L348.992 171.159L349.194 171.486L349.433 171.776L349.745 171.921L350.122 171.949L350.829 171.872L351.289 171.901L352.005 172.605L353.025 172.933L353.246 173.309L353.429 173.772L353.852 174.187L354.339 174.505L354.853 174.718L355.929 174.949L356.498 174.891L356.7 174.534L356.755 173.994L356.893 173.396L357.307 173.001L357.711 173.367L358.033 174.081L358.198 174.718V176L358.336 176.473L358.795 176.685L359.107 176.589L360.311 175.836L360.679 175.47L360.927 175.045L361.359 174.052L362.066 173.309L362.893 173.261L363.793 173.483L364.694 173.56L364.96 173.473L365.089 173.454L365.273 173.493L365.548 173.608L365.907 173.676L366.228 173.589L366.375 173.252L366.246 173.01L365.934 172.789L365.273 172.47L364.841 172.142L364.675 171.67L364.804 171.226L366.779 170.175L367.386 169.548L367.716 168.67L367.854 168.082L368.066 167.764L369.591 166.886L369.977 166.78L371.19 166.712L371.603 166.76L371.814 166.944L371.722 167.262L371.392 167.378L370.997 167.407L370.73 167.493L370.62 167.792L370.914 167.889L371.943 167.841L372.283 167.976L373.633 168.805L374.249 169.046L374.791 168.921L375.251 168.255L375.499 167.465L375.526 166.732L375.287 166.105L374.295 165.352L374.093 165.073V164.716L374.24 164.205V163.645L373.744 162.777L373.817 162.247L374.497 161.928L375.26 162.623L376.013 163.549L376.665 163.896L377.548 164.012L379.155 165.169L380.065 165.121L380.414 164.822L380.635 164.436L380.745 163.992L380.772 163.529L380.947 162.999H381.361L382.206 163.414L382.867 163.095L383.134 161.002L383.676 160.125L384.475 159.768L386.12 159.324L388.077 158.032L390.218 157.202L391.302 156.556L392 155.592L391.881 154.955L391.945 154.791ZM334.456 151.483L334.071 151.097L333.4 150.152L333.023 149.737L332.996 149.718L332.729 149.062L333.097 148.966L333.721 149.255L334.254 149.756L334.567 150.297L334.861 151.068L334.897 151.608L334.438 151.502L334.456 151.483Z" fill="#B4A297"/>
</svg>
