<svg width="51" height="36" viewBox="0 0 51 36" fill="none" xmlns="http://www.w3.org/2000/svg">
<path fill-rule="evenodd" clip-rule="evenodd" d="M39.7632 9.87555C41.5872 7.31955 45.0336 4.57155 49.7256 2.27955C50.9448 1.68435 50.3976 -0.158848 49.0488 0.0115509C39.1896 1.25955 32.8008 5.57715 29.3088 11.9972C28.0128 14.3876 27.1968 16.9292 26.7624 19.5236C26.4744 21.2348 26.4 22.5188 26.4 24.002C26.4 27.1846 27.6642 30.2368 29.9147 32.4872C32.1651 34.7377 35.2174 36.002 38.4 36.002C41.5826 36.002 44.6348 34.7377 46.8852 32.4872C49.1357 30.2368 50.4 27.1846 50.4 24.002C50.4 17.3756 44.9424 11.9972 38.6688 11.9972C39 11.09 39.0792 10.8332 39.7632 9.87555ZM13.3632 9.87555C15.1872 7.31955 18.6336 4.57155 23.3256 2.27955C24.5448 1.68435 23.9976 -0.158848 22.6488 0.0115509C12.7896 1.25955 6.40075 5.57715 2.90875 11.9972C1.61275 14.3876 0.796753 16.9292 0.36235 19.5236C0.0743523 21.2348 -4.57764e-05 22.5188 -4.57764e-05 24.002C-4.57764e-05 27.1846 1.26424 30.2368 3.51467 32.4872C5.76511 34.7377 8.81736 36.002 12 36.002C15.1826 36.002 18.2348 34.7377 20.4852 32.4872C22.7357 30.2368 24 27.1846 24 24.002C24 17.3756 18.5424 11.9972 12.2688 11.9972C12.6 11.09 12.6792 10.8332 13.3632 9.87555Z" fill="#B4A297"/>
</svg>
