<svg width="42" height="76" viewBox="0 0 42 76" fill="none" xmlns="http://www.w3.org/2000/svg">
<path d="M41.9642 32.9705L38.8868 32.9658V31.7941C38.8868 29.7077 38.8868 25.5188 38.8868 25.5188C38.8868 25.5188 38.9082 21.0093 38.7255 18.7619C38.7255 18.3125 38.6125 17.8792 38.5318 17.4459C38.4989 17.2234 38.4504 17.0035 38.3866 16.7878C38.3866 16.5792 38.2414 16.3866 38.1769 16.1779C37.8578 14.9753 37.4031 13.8124 36.8215 12.7112C36.2814 11.697 35.6553 10.7305 34.9497 9.82232C34.2155 8.88348 33.3581 8.04679 32.4003 7.33464C31.9324 6.9976 31.4806 6.59636 31.0127 6.22722C30.907 6.11645 30.7878 6.01938 30.6577 5.93833C29.4734 5.19557 28.2063 4.59234 26.8819 4.14078L24.7843 3.5309C23.4983 3.24549 22.179 3.13748 20.8634 3.20991C19.7806 3.17466 18.6975 3.26624 17.6363 3.48275C16.2767 3.74814 14.9508 4.16261 13.683 4.71857C12.3661 5.28019 11.1336 6.02012 10.0203 6.91735C9.12479 7.61299 8.28335 8.37483 7.50312 9.19639C6.72566 10.1461 6.0243 11.1549 5.40549 12.2137C4.67654 13.5236 4.10259 14.9132 3.69512 16.3545C3.44566 17.1032 3.25896 17.7682 3.16247 18.3765C3.07413 19.0781 3.02997 19.6482 3.00129 20.2706C2.96052 21.1556 2.88052 23.1224 2.90448 24.3953C2.90448 27.3484 2.90448 30.3176 2.90448 33.2707V34.5547C2.90448 34.8115 2.90448 35.3251 2.90448 35.3251L2.90571 35.9422C2.90571 35.9422 3.50579 35.9471 3.88875 35.9189C4.54879 35.8703 5.0021 35.7905 5.50231 35.6621C6.30292 35.4807 7.09004 35.2447 7.8581 34.9559C8.86268 34.5392 9.83834 34.0567 10.7786 33.5114C11.2627 33.2226 11.6984 32.8855 12.1502 32.5645C13.8515 31.3497 15.2939 29.8113 16.3938 28.0386C17.3929 26.5155 18.1495 24.8481 18.6367 23.0953C18.86 22.308 19.0113 21.5023 19.0885 20.6879C19.127 20.1484 19.2159 19.718 19.3278 19.1887C19.3925 18.9628 19.3267 18.3902 19.3267 18.3902C19.3267 18.3902 19.1546 17.9529 18.9917 17.7829C18.4081 17.0729 17.6899 16.484 16.8779 16.0495L16.1357 15.7125C16.2676 15.6101 16.4079 15.5188 16.5552 15.4397C17.5847 14.8744 18.4813 14.0975 19.1853 13.1606C19.9569 12.0841 20.2685 10.9939 20.5568 9.62973L21.0549 7.11938C21.767 9.95072 21.3219 8.23902 21.767 9.95072C22.1083 11.2149 22.2887 12.2195 22.9771 13.1606C23.4211 13.7815 23.9665 14.324 24.5907 14.7656C24.978 15.0224 25.3652 15.231 25.7525 15.4718L26.172 15.7286L25.5266 16.0816C24.4273 16.6702 23.4774 17.1397 22.7863 18.1739C22.6634 18.3524 22.558 19.1482 22.558 19.1482C22.558 19.1482 22.5327 19.5803 22.5899 19.7891C22.7305 21.0271 22.9515 22.2548 23.2514 23.4644C23.8562 25.3243 24.7198 27.0909 25.817 28.7126C27.122 30.5397 28.7648 32.103 30.6577 33.3189C31.6485 34.0327 32.7347 34.6053 33.8848 35.0201C35.1972 35.4481 37.9187 35.9189 37.9187 35.9189C37.9187 35.9189 38.3259 35.9735 39.5514 36.1001C40.6778 36.138 40.6779 36.1275 41.2588 36.1275H41.888C41.888 36.3201 41.888 36.4646 41.888 36.609C41.888 41.456 41.888 46.3083 41.888 51.166C41.888 52.3215 41.888 53.4771 41.888 54.6487C41.8625 59.51 40.1206 64.2079 36.9667 67.9217C35.6834 69.4615 34.1771 70.8029 32.4971 71.902C31.0967 72.8365 29.5773 73.5813 27.9792 74.1168C27.2208 74.3575 26.4624 74.5983 25.7041 74.8069C25.2554 74.9326 24.7964 75.0185 24.3325 75.0637C23.4128 75.1921 22.4769 75.2724 21.5572 75.3847C21.0591 75.4491 20.5547 75.4491 20.0566 75.3847C19.2498 75.2884 18.443 75.2403 17.604 75.1119C16.988 75.0182 16.3789 74.8842 15.7807 74.7106C14.6841 74.4109 13.6065 74.0465 12.5536 73.6193C11.1839 73.0265 9.88507 72.2836 8.68102 71.4044C6.81432 70.0348 5.18009 68.3768 3.84034 66.4933C2.6652 64.873 1.75067 63.0808 1.12956 61.1809C0.797492 60.1276 0.528099 59.0558 0.322785 57.971C0.0803014 56.3131 -0.0276177 54.6386 7.38739e-05 52.9635C7.38739e-05 49.5931 7.38739e-05 46.2387 7.38739e-05 42.8683C-0.00783712 42.724 -0.00783712 42.5793 7.38739e-05 42.435H2.95289V43.3338C2.95289 45.2918 2.95289 47.2659 2.95289 49.24C2.95289 50.1548 2.95289 51.0857 2.95289 52.0166C2.95289 53.8302 3.09811 55.6277 3.2756 57.4253C3.38917 58.1873 3.58389 58.9351 3.85648 59.6562C4.13219 60.4841 4.46095 61.2936 4.84075 62.0796C5.91188 64.5171 7.57531 66.6514 9.68142 68.2908L10.2623 68.7562C12.145 70.1948 14.3111 71.2228 16.6197 71.7736C18.73 72.2881 20.9157 72.424 23.074 72.1748C24.0764 72.0379 25.0646 71.8123 26.0268 71.5007C27.4072 71.1185 28.7391 70.58 29.9961 69.8958C30.2064 69.7918 30.4063 69.6682 30.5931 69.5266C31.5774 68.7242 32.5939 67.9217 33.5298 67.0871C34.615 66.0597 35.5299 64.868 36.2406 63.5562C36.7574 62.7235 37.1898 61.8418 37.5314 60.9241L38.4028 58.3722C38.4104 58.2546 38.4104 58.1367 38.4028 58.0191C38.548 56.1092 38.7739 54.2314 38.7577 52.3215C38.7577 49.1116 38.7577 45.9017 38.7577 42.6918C38.7577 41.9214 38.7577 41.0868 38.7577 40.4128C38.7577 40.1078 38.7645 39.8091 38.7323 39.472C38.4876 39.4511 38.3616 39.4603 38.119 39.4763C37.8642 39.493 37.4669 39.5621 37.4669 39.5621C37.4669 39.5621 34.0483 40.2465 32.4971 41.0387C30.6476 41.9127 28.97 43.1085 27.5435 44.5696C26.1883 45.9393 25.0705 47.5229 24.2357 49.2561C23.7362 50.4619 23.3211 51.7007 22.9933 52.9635C22.9461 53.0766 22.9136 53.1953 22.8965 53.3166C22.7674 54.408 22.606 55.4993 22.5092 56.5265C22.4975 56.7711 22.5391 57.0152 22.631 57.2424C22.7228 57.4695 22.8629 57.6742 23.0417 57.8426C23.7273 58.5095 24.8591 59.189 25.2063 59.3645L25.7686 59.6562C25.5921 59.7834 25.409 59.9013 25.22 60.0092C23.9439 60.7061 22.8964 61.7536 22.2026 63.0266C21.7682 63.8176 21.5848 64.6768 21.3491 65.575C20.7654 67.5949 21.1341 66.3897 20.796 67.5984C20.666 67.2255 20.796 67.5984 20.1829 65.5042C19.9139 64.432 19.5994 63.2911 18.9502 62.3379C18.3011 61.3848 17.4295 60.6023 16.41 60.0574L15.7323 59.6562C15.8936 59.5759 16.1523 59.3884 16.3791 59.2705C16.7264 59.1263 18.3839 57.9476 19.153 56.8314C19.2739 56.6459 19.3549 56.4375 19.391 56.2193C19.4271 56.0011 19.4175 55.7778 19.3628 55.5635C19.266 55.0018 19.1853 54.4401 19.0885 53.9586C18.9917 53.4771 18.911 52.8993 18.7658 52.3536C18.6205 51.8079 18.4108 51.2301 18.201 50.7487C16.8767 47.2112 14.4588 44.1825 11.295 42.098C10.0963 41.2361 8.76733 40.5697 7.3579 40.1239C6.79315 39.9473 6.21227 39.8189 5.64753 39.6584C5.48617 39.6584 5.34095 39.5782 5.1796 39.5621L0.903666 39.2732C0.613463 39.2567 0.322549 39.2567 0.032345 39.2732C0.032345 39.1127 0.032345 38.9522 0.032345 38.7918C0.032345 33.1905 0.032345 27.5571 0.032345 22.0039C0.032345 20.8002 0.032345 19.5965 0.209836 18.3928C0.404399 16.6772 0.822035 14.994 1.45228 13.3853C2.42886 10.886 3.88065 8.59727 5.7282 6.64451C7.14581 5.09051 8.81465 3.78317 10.6657 2.77657C11.3914 2.34592 12.1401 1.9548 12.9085 1.60495C13.8928 1.28396 14.8771 1.04322 15.8452 0.70618C16.678 0.454499 17.5408 0.314171 18.4108 0.288892L20.0243 0.144446C20.3366 0.0678809 20.6553 0.0195358 20.9763 0C22.3847 0.0678761 23.7866 0.234131 25.1716 0.497536C27.0871 0.912367 28.9378 1.58176 30.6738 2.48768C32.2302 3.34665 33.6859 4.37476 35.0143 5.55314C36.0185 6.47657 36.9266 7.49819 37.7251 8.60256C39.1027 10.3536 40.1621 12.3307 40.8554 14.4446C41.5752 16.6202 41.9455 18.8951 41.9526 21.1854C41.9526 23.978 41.9526 26.7706 41.9526 29.5472C41.9526 30.5262 41.9526 32.4843 41.9526 32.4843L41.9642 32.9705ZM32.2712 37.6522C31.5935 37.3152 31.0127 37.0263 30.4479 36.7053C29.663 36.2842 28.9033 35.8179 28.1728 35.309C26.9992 34.4661 25.9176 33.5032 24.9457 32.4361C23.9495 31.3888 23.0779 30.231 22.3479 28.9855C22.0251 28.3916 21.7347 27.7818 21.412 27.1719C21.2668 26.9151 21.1861 26.5941 20.8311 26.4978L20.7182 26.5941L20.4116 27.1719C19.4445 29.2721 18.1178 31.1891 16.4906 32.8374C15.3403 34.0837 14.0206 35.1641 12.5697 36.0473C11.7629 36.5288 10.9561 36.9461 10.1009 37.3794L9.68142 37.6683C9.78526 37.7795 9.89864 37.8815 10.0203 37.9732L11.4241 38.7276C12.3143 39.1875 13.162 39.7245 13.9574 40.3325C14.9699 41.1017 15.9145 41.9554 16.7811 42.8844C17.8296 43.9675 18.7401 45.175 19.4919 46.4795C19.9114 47.2338 20.2986 48.0844 20.7182 48.7746C20.7781 48.8866 20.8542 48.9894 20.9441 49.0795C21.1377 48.7425 21.299 48.4696 21.4443 48.1968C21.8638 47.4264 22.2349 46.5918 22.7028 45.9017C23.9734 43.8976 25.5712 42.1184 27.4306 40.6374C28.2548 39.9474 29.153 39.3499 30.1091 38.8559L31.642 38.0535C31.8678 37.9572 32.0292 37.8288 32.2712 37.6522Z" fill="white"/>
</svg>
